<?xml version="1.0" encoding="UTF-8"?>
<svg width="87px" height="17px" viewBox="0 0 87 17" version="1.1" xmlns="http://www.w3.org/2000/svg" xmlns:xlink="http://www.w3.org/1999/xlink">
    <title>CD7E162F-7655-49E0-855F-5FC8E765542E</title>
    <defs>
        <polygon id="path-1" points="0.0005 0.275 86.6067332 0.275 86.6067332 14.3141152 0.0005 14.3141152"></polygon>
    </defs>
    <g id="Website-UI" stroke="none" stroke-width="1" fill="none" fill-rule="evenodd">
        <g id="How-it-works---Desktop" transform="translate(-597.000000, -735.000000)">
            <g id="promo-site/module/intro-text" transform="translate(0.000000, 322.000000)">
                <g transform="translate(0.000000, -0.000000)" id="fork">
                    <g transform="translate(597.000000, 413.000000)">
                        <path d="M70.0402,8.0031 C70.6262,8.1171 71.1642,8.2551 71.7102,8.3221 C72.8432,8.4621 73.9782,8.5751 75.1142,8.6791 C77.2612,8.8761 79.4082,9.0581 81.5562,9.2461 C82.5412,9.3331 83.5292,9.3971 84.5102,9.5191 C84.9302,9.5701 85.3552,9.6971 85.7392,9.8741 C86.1762,10.0741 86.4602,10.4371 86.4002,10.9671 C86.3512,11.4061 86.0412,11.7261 85.4482,11.7981 C84.7452,11.8831 84.0302,11.9361 83.3242,11.9031 C80.6402,11.7841 77.9562,11.6361 75.2722,11.4771 C73.8812,11.3951 72.4912,11.2561 71.1002,11.1701 C70.7532,11.1491 70.3862,11.1871 70.0532,11.2801 C69.7112,11.3761 69.6852,11.6941 69.9762,11.9091 C70.4582,12.2671 71.0242,12.4121 71.6082,12.4821 C72.3132,12.5651 73.0192,12.6461 73.7282,12.6901 C77.3972,12.9191 81.0682,13.1301 84.7382,13.3641 C85.1352,13.3901 85.5422,13.4741 85.9132,13.6131 C86.3842,13.7911 86.6052,14.2081 86.6144869,14.6981 C86.6242,15.1721 86.3722,15.5521 85.9492,15.7231 C85.5102,15.9001 85.0332,16.0371 84.5632,16.0761 C83.1242,16.1951 81.6802,16.2711 80.2362,16.3441 C77.6542,16.4741 75.0722,16.6341 72.4872,16.6981 C70.2832,16.7521 68.0752,16.7161 65.8702,16.6671 C64.3812,16.6331 63.2022,15.9461 62.3382,14.7301 C62.0442,14.3151 61.7552,13.8991 61.4592,13.4861 C60.9432,12.7661 60.2342,12.3781 59.3652,12.2371 C57.6522,11.9601 55.9362,11.9541 54.2092,12.0631 C51.6792,12.2221 49.1462,12.3531 46.6132,12.4611 C43.6992,12.5851 40.7832,12.6411 37.8702,12.7841 C33.7682,12.9871 29.6682,13.2581 25.5662,13.4691 C23.8452,13.5571 22.1182,13.5551 20.3942,13.6171 C19.2562,13.6581 18.1152,13.7191 16.9792,13.8101 C14.3272,14.0241 11.6692,14.1921 9.0282,14.5091 C6.6812,14.7901 4.3362,14.9621 1.9752,14.9671 C1.7482,14.9671 1.5162,14.9781 1.2952,14.9361 C0.8542,14.8521 0.5402,14.5751 0.4902,14.1311 C0.3122,12.5471 0.1682,10.9591 0.0112,9.3721 C0.00880769515,9.3471 0.00880769515,9.3211 0.00880769515,9.2961 C0.0362,7.8991 0.4822,7.4211 1.8682,7.3621 C2.6532,7.3301 3.4402,7.3381 4.2272,7.3341 C8.4632,7.3091 12.6982,7.2531 16.9342,7.2751 C19.5702,7.2891 22.2072,7.4601 24.8452,7.4931 C29.3842,7.5501 33.9252,7.5391 38.4642,7.5851 C41.4572,7.6151 44.4492,7.6911 47.4422,7.7571 C50.2062,7.8171 52.9702,7.9001 55.7342,7.9531 C56.7482,7.9731 57.7632,7.9271 58.7762,7.9251 C59.7402,7.9221 60.4252,7.5221 60.7952,6.6061 C60.9462,6.2311 61.1272,5.8641 61.3282,5.5141 C61.5662,5.0971 61.8102,4.6771 62.1052,4.3021 C63.0372,3.1241 64.2462,2.5261 65.7672,2.7231 C67.0232,2.8851 68.2772,3.0701 69.5252,3.2871 C74.7212,4.1871 79.9132,5.1041 85.1082,6.0051 C85.5252,6.0771 85.9092,6.1461 86.0842,6.5991 C86.3312,7.2411 86.0902,7.8421 85.3942,8.0421 C84.8662,8.1941 84.2952,8.2731 83.7462,8.2601 C82.6072,8.2331 81.4682,8.1501 80.3322,8.0471 C77.3272,7.7711 74.3242,7.4701 71.3202,7.1841 C71.0942,7.1611 70.8622,7.1491 70.6372,7.1731 C70.1982,7.2181 70.1352,7.3081 70.0402,8.0031" id="Fill-1" fill="#FBC347"></path>
                        <g id="Group-5" transform="translate(0.000000, 0.725100)">
                            <mask id="mask-2" fill="white">
                                <use xlink:href="#path-1"></use>
                            </mask>
                            <g id="Clip-4"></g>
                            <path d="M85.4865,4.2975 C84.7285,4.2645 84.1695,4.2745 83.6185,4.2095 C80.1645,3.8085 76.7645,3.0825 73.3475,2.4605 C71.0285,2.0375 68.7115,1.5995 66.3845,1.2175 C64.3585,0.8835 63.1745,1.5105 62.2025,3.3295 C62.1195,3.4855 62.0435,3.6475 61.9645,3.8055 C61.7935,4.1455 61.6155,4.4825 61.4535,4.8255 C60.9995,5.7875 60.2315,6.2825 59.1835,6.3635 C58.9055,6.3855 58.6265,6.4195 58.3485,6.4175 C55.4065,6.3965 52.4655,6.3805 49.5235,6.3415 C44.5265,6.2765 39.5305,6.1895 34.5335,6.1215 C30.8565,6.0705 27.1785,6.0445 23.5015,5.9925 C20.8885,5.9555 18.2765,5.8615 15.6645,5.8515 C11.5055,5.8335 7.3455,5.8615 3.1865,5.8745 C2.6535,5.8765 2.1215,5.9135 1.5895,5.9195 C1.2105,5.9235 1.0375,6.1265 0.9995,6.4755 C0.9775,6.6775 0.9505,6.8825 0.9655,7.0825 C1.0425,8.1175 1.1275,9.1525 1.2225,10.1875 C1.2485,10.4625 1.3135,10.7355 1.3745,11.0065 C1.4355,11.2825 1.6045,11.4545 1.8985,11.4735 C2.3275,11.5005 2.7575,11.5515 3.1865,11.5435 C5.5215,11.5035 7.8375,11.2115 10.1555,10.9705 C12.0715,10.7715 13.9855,10.5355 15.9065,10.4195 C18.9675,10.2335 22.0365,10.1515 25.0995,9.9915 C29.2535,9.7755 33.4035,9.5065 37.5565,9.2965 C39.9635,9.1755 42.3725,9.1365 44.7805,9.0435 C47.4915,8.9405 50.2065,8.8745 52.9125,8.6865 C55.0205,8.5395 57.1155,8.5515 59.2145,8.7625 C60.5515,8.8975 61.6305,9.4765 62.4055,10.5895 C62.6515,10.9435 62.8985,11.2965 63.1415,11.6515 C63.9145,12.7805 64.9715,13.3705 66.3515,13.3675 C68.6075,13.3635 70.8645,13.3955 73.1205,13.3615 C76.9235,13.3065 80.7195,13.1055 84.5095,12.7765 C84.7115,12.7595 84.9165,12.7505 85.1125,12.7045 C85.3815,12.6425 85.6865,12.5895 85.7225,12.2355 C85.7495,11.9785 85.4865,11.7845 85.0735,11.7385 C84.8225,11.7115 84.5675,11.7055 84.3145,11.6915 C80.3395,11.4635 76.3635,11.2455 72.3885,11.0025 C71.3995,10.9425 70.4265,10.7715 69.5565,10.2285 C69.1265,9.9595 68.9095,9.6235 68.9555,9.1005 C69.0045,8.5425 69.3115,8.1985 69.8075,8.0545 C70.1645,7.9495 70.5575,7.9035 70.9285,7.9255 C72.4235,8.0125 73.9145,8.1495 75.4075,8.2425 C78.1405,8.4135 80.8755,8.5735 83.6095,8.7215 C84.1135,8.7485 84.6235,8.7075 85.1285,8.6695 C85.3035,8.6555 85.4725,8.5555 85.7205,8.4665 C85.3285,7.9835 84.8735,7.9365 84.4265,7.8955 C82.4065,7.7105 80.3835,7.5425 78.3635,7.3575 C76.0905,7.1495 73.8175,6.9405 71.5485,6.7045 C70.9975,6.6475 70.4445,6.5255 69.9175,6.3595 C69.3765,6.1875 69.1425,5.7725 69.1775,5.2515 C69.2235,4.5895 69.7015,4.0445 70.3585,3.9485 C70.6325,3.9085 70.9175,3.9135 71.1935,3.9355 C72.3565,4.0255 73.5185,4.1165 74.6795,4.2315 C76.8755,4.4465 79.0675,4.7035 81.2655,4.8935 C82.3485,4.9865 83.4405,4.9775 84.5295,4.9925 C84.7505,4.9955 84.9905,4.9365 85.1855,4.8355 C85.2985,4.7785 85.3375,4.5795 85.4865,4.2975 M70.0315,5.5915 C70.6175,5.7055 71.1555,5.8435 71.7015,5.9105 C72.8345,6.0505 73.9695,6.1635 75.1065,6.2685 C77.2525,6.4645 79.4005,6.6475 81.5475,6.8355 C82.5325,6.9225 83.5205,6.9855 84.5015,7.1075 C84.9215,7.1585 85.3465,7.2865 85.7305,7.4625 C86.1685,7.6635 86.4515,8.0265 86.3915,8.5565 C86.3415,8.9955 86.0325,9.3155 85.4395,9.3865 C84.7375,9.4715 84.0215,9.5245 83.3155,9.4925 C80.6315,9.3735 77.9475,9.2245 75.2635,9.0665 C73.8725,8.9845 72.4825,8.8455 71.0905,8.7595 C70.7445,8.7375 70.3785,8.7755 70.0445,8.8685 C69.7035,8.9655 69.6755,9.2825 69.9665,9.4985 C70.4495,9.8565 71.0165,10.0005 71.5995,10.0705 C72.3045,10.1545 73.0105,10.2345 73.7195,10.2785 C77.3885,10.5075 81.0605,10.7195 84.7295,10.9525 C85.1265,10.9785 85.5335,11.0635 85.9045,11.2025 C86.3755,11.3795 86.5965,11.7965 86.6067332,12.2875 C86.6155,12.7605 86.3635,13.1405 85.9405,13.3125 C85.5025,13.4885 85.0245,13.6255 84.5545,13.6645 C83.1155,13.7845 81.6725,13.8595 80.2285,13.9325 C77.6455,14.0625 75.0635,14.2235 72.4785,14.2865 C70.2745,14.3415 68.0665,14.3055 65.8615,14.2555 C64.3725,14.2225 63.1935,13.5355 62.3295,12.3185 C62.0365,11.9045 61.7465,11.4875 61.4515,11.0755 C60.9355,10.3555 60.2255,9.9675 59.3565,9.8265 C57.6445,9.5495 55.9275,9.5435 54.2005,9.6515 C51.6705,9.8105 49.1375,9.9415 46.6045,10.0495 C43.6915,10.1745 40.7745,10.2305 37.8615,10.3735 C33.7585,10.5755 29.6605,10.8465 25.5575,11.0575 C23.8365,11.1465 22.1095,11.1435 20.3855,11.2055 C19.2475,11.2465 18.1075,11.3075 16.9705,11.3995 C14.3185,11.6115 11.6605,11.7805 9.0195,12.0975 C6.6735,12.3785 4.3275,12.5515 1.9655,12.5555 C1.7395,12.5555 1.5075,12.5675 1.2865,12.5245 C0.8455,12.4405 0.5315,12.1645 0.4815,11.7195 C0.3035,10.1355 0.1595,8.5475 0.0025,6.9605 C0.0005,6.9365 0.0005,6.9105 0.0005,6.8855 C0.0275,5.4865 0.4735,5.0105 1.8595,4.9515 C2.6445,4.9185 3.4315,4.9275 4.2185,4.9225 C8.4545,4.8985 12.6895,4.8425 16.9245,4.8635 C19.5625,4.8785 22.1985,5.0495 24.8365,5.0825 C29.3755,5.1395 33.9165,5.1275 38.4565,5.1745 C41.4485,5.2045 44.4415,5.2805 47.4335,5.3455 C50.1985,5.4055 52.9615,5.4885 55.7255,5.5415 C56.7395,5.5615 57.7545,5.5165 58.7685,5.5135 C59.7315,5.5115 60.4175,5.1095 60.7865,4.1945 C60.9375,3.8195 61.1185,3.4535 61.3195,3.1025 C61.5575,2.6865 61.8005,2.2655 62.0965,1.8915 C63.0285,0.7125 64.2375,0.1155 65.7575,0.3115 C67.0145,0.4735 68.2685,0.6595 69.5165,0.8755 C74.7135,1.7755 79.9055,2.6925 85.0995,3.5945 C85.5165,3.6655 85.9015,3.7355 86.0755,4.1885 C86.3225,4.8305 86.0815,5.4305 85.3845,5.6315 C84.8575,5.7835 84.2865,5.8605 83.7375,5.8485 C82.5985,5.8225 81.4595,5.7395 80.3235,5.6355 C77.3185,5.3595 74.3155,5.0595 71.3115,4.7725 C71.0855,4.7505 70.8535,4.7375 70.6285,4.7615 C70.1895,4.8065 70.1265,4.8975 70.0315,5.5915" id="Fill-3" fill="#444445" mask="url(#mask-2)"></path>
                        </g>
                    </g>
                </g>
            </g>
        </g>
    </g>
</svg>