<?xml version="1.0" encoding="iso-8859-1"?>
<!-- Generator: Adobe Illustrator 19.1.0, SVG Export Plug-In . SVG Version: 6.00 Build 0)  -->
<svg version="1.1" id="Capa_1" xmlns="http://www.w3.org/2000/svg" xmlns:xlink="http://www.w3.org/1999/xlink" x="0px" y="0px"
   viewBox="0 0 540.078 540.078" style="enable-background:new 0 0 540.078 540.078;" xml:space="preserve">
<g>
  <g>
    <path d="M438.921,132.661C411.161,53.108,336.648,0,252.036,0C142.851,0,54.008,88.843,54.007,198.029
      c0,13.772,1.567,27.832,4.681,41.946C23.727,252.955,0,286.368,0,324.047c0,49.633,40.38,90.013,90.013,90.014h144.02v-18.003
      H90.012c-39.713,0-72.01-32.296-72.01-72.01c0-32.477,22.089-60.975,53.702-69.328c4.789-1.261,7.651-6.175,6.391-10.982
      c-4.051-15.411-6.085-30.785-6.085-45.709c0-99.266,80.76-180.026,180.026-180.026c78.384,0,147.226,50.137,171.278,124.721
      c0.936,2.899,3.259,5.131,6.175,5.923c54.529,14.997,92.587,64.918,92.587,121.392c0,69.49-56.546,126.018-126.018,126.018
      H288.042v18.003h108.015c79.41,0,144.021-64.612,144.021-144.021C540.078,207.102,498.726,151.294,438.921,132.661z"
      fill="#8A877D"/>
    <path d="M345.434,349.088l11.234-14.078L266.655,263c-3.313-2.628-7.94-2.628-11.252,0l-90.013,72.01l11.252,14.06l75.394-60.309
      v251.317h18.003V288.762L345.434,349.088z" fill="#8A877D"/>
  </g>
</g>
<g>
</g>
<g>
</g>
<g>
</g>
<g>
</g>
<g>
</g>
<g>
</g>
<g>
</g>
<g>
</g>
<g>
</g>
<g>
</g>
<g>
</g>
<g>
</g>
<g>
</g>
<g>
</g>
<g>
</g>
</svg>
