<svg xmlns="http://www.w3.org/2000/svg" xmlns:xlink="http://www.w3.org/1999/xlink"  width="238px" height="129px" viewBox="0 0 238 129"><defs><path id="a" d="M0 .703h51.898V101.12H0z"/></defs><g fill="none" fill-rule="evenodd"><path d="M201.058 69.026c.349-.167.71-.34 1.05-.533.444-.25.884-.43 1.312-.537 1.052-.26 2.046-.094 3.042.508.099.058.206.098.314.139.123.048.203.079.28.114 1.885.853 3.895 1.02 6.143.506 1.098-.277 2.24-.657 3.127-1.542.342-.34.588-.68.732-1.013.1-.23.102-.447.01-.599-.084-.138-.246-.206-.447-.188-1.021.093-1.77.24-2.428.477-2.605.935-4.895.87-6.998-.208-1.92-.983-3.797-.889-5.732.294l-.17.102c-.1.061-.2.122-.3.185-1.441.919-3.071 1.4-5.297 1.56l-.28.018c-.273.015-.518.03-.749.077-.168.03-.442.115-.458.362-.014.272.091.461.315.56l.066.031c.538.24 1.096.488 1.627.558 1.65.213 3.055.016 4.297-.606.18-.09.363-.179.544-.265" fill="#181816"/><path d="M219.87 73.026l.067-.142c.249-.528.498-1.055.763-1.575l.1-.198c.29-.576.59-1.17 1.065-1.621 1.253-1.189 2.241-2.687 3.108-4.709.326-.761.784-1.466 1.485-2.284.7-.815 1.322-1.708 1.839-2.475.397-.593.776-1.2 1.156-1.807l.033-.052c.347-.553.69-1.105 1.051-1.646.862-1.298 1.805-2.879 2.251-4.768.563-2.382.886-4.86 1.197-7.256.087-.682.175-1.363.27-2.043.096-.71.004-1.379-.274-1.987-.277-.596-.695-.993-1.18-1.116-.438-.113-.899.009-1.33.348-1.083.856-2.37 2.082-2.723 3.986-.315 1.697-1.038 3.201-1.814 4.721-.41.802-1.03 1.419-1.896 1.884-.246.132-.614.289-.989.146-.26-.1-.458-.321-.592-.658l-.11-.28c-.346-.864-.694-1.74-.931-2.647-.2-.772-.329-1.567-.452-2.335-.058-.358-.11-.68-.167-1-.285-1.602-.636-2.906-1.109-4.105-.493-1.25-.854-2.45-1.072-3.57-.597-3.052-1.878-5.786-3.618-8.954a7.162 7.162 0 00-1.221-1.582c-.594-.591-1.236-.739-1.916-.43-.516.236-.74.704-.77 1.613-.02.56.024 1.192.14 1.932.408 2.627 1.104 5.327 2.188 8.498.368 1.066.603 2.18.828 3.258.251 1.203 1.02 5.192.402 6.09a.509.509 0 01-.362.234.293.293 0 01-.226-.074c-.307-.259-.55-1.556-.867-4.623-.025-.24-.041-.401-.048-.442-.478-2.44-1.29-5.002-2.554-8.066-1.075-2.598-2.021-4.949-2.71-7.419-.171-.61-.477-1.19-.78-1.729a2.626 2.626 0 00-1.446-1.212c-.516-.183-1.017-.135-1.38.139-.358.27-.556.724-.554 1.28 0 .49.049.994.144 1.498.645 3.4 1.378 7.253 2.363 10.927.306 1.147.487 2.367.647 3.443.096.639.787 5.242.869 5.722.02.111.083.66.108.865l.007.062c.048.414-.035.792-.216.987a.4.4 0 01-.331.138c-.319-.033-.705-.465-.833-1.23-.067-.404-.9-5.246-.99-5.617l-.53-2.229c-.502-2.105-1.022-4.282-1.49-6.436-.45-2.06-1.243-3.977-2.084-5.921a2.996 2.996 0 00-.458-.726c-.357-.429-.813-.629-1.25-.552-.438.093-.777.418-.964.9a3.864 3.864 0 00-.235 1.498l.016.467c.04 1.222.08 2.482.296 3.668.298 1.657.658 3.334 1.005 4.957.268 1.245.535 2.492.78 3.744.293 1.5.539 3.114.73 4.794.088.785.076 1.578.063 2.345l-.01.634c-.011 1.247-.264 1.863-.736 1.866-.585-.001-.708-.965-.775-1.481-.01-.075-.016-.132-.022-.16a150.215 150.215 0 01-.841-3.71c-.136-.629-.262-1.261-.388-1.895-.248-1.242-.505-2.527-.829-3.78-.25-.976-.709-1.938-1.156-2.838-.31-.622-.858-1.117-1.627-1.472-.471-.215-.953-.238-1.359-.066-.392.167-.694.503-.875.973-.168.44-.253.92-.238 1.352.099 2.872.222 5.684.651 8.513.332 2.175.408 4.545.236 7.243-.07 1.117-.28 2.026-.654 2.857-.402.892-.799 1.787-1.196 2.682l-.052.117c-.842 1.898-1.712 3.86-2.621 5.776a16.034 16.034 0 00-1.475 8.786c.538 4.79 1.371 8.91 2.55 12.593.458 1.436.87 3.016 1.26 4.833.204.951.354 1.919.497 2.854l.014.093c.086.558.172 1.115.272 1.67.076.435.2.869.367 1.293.049.12.187.393.45.349.125-.035.32-.1.353-.334.086-.643.183-1.374.12-2.05-.116-1.275-.275-2.782-.579-4.275a45.34 45.34 0 00-1.217-4.732c-1.186-3.73-1.796-7.588-2.274-10.914-.515-3.584.012-7.119 1.57-10.507a547.331 547.331 0 012.133-4.593l.052-.112c.635-1.35 1.292-2.745 1.553-4.231.53-3.014.655-5.504.396-7.834-.105-.937-.233-1.872-.36-2.807l-.016-.119c-.11-.808-.221-1.615-.316-2.424a127.17 127.17 0 01-.412-4.372c-.023-.312.156-.84.541-.983.343-.12.82.08 1.017.34.312.413.55.801.73 1.192.532 1.153.884 2.489 1.075 4.087.268 2.258.787 4.513 1.29 6.692l.255 1.114c.123.537.312 1.054.548 1.498.24.454.617.627 1.156.532.635-.12 1.094-.419 1.339-.902.345-.684.601-1.37.76-2.04.256-1.056.202-2.175.12-3.324-.158-2.156-.586-4.256-1.048-6.395-.632-2.93-1.195-5.898-1.672-8.45-.009-.05-.023-.1-.036-.15-.015-.056-.754-3.028.115-3.314a.425.425 0 01.359.045c.427.254.73 1.252 1.054 2.67.036.156.061.27.076.313.178.53.309 1.077.436 1.606l.062.266c.43 1.786.856 3.572 1.37 5.724l.888 3.885c.246 1.148.54 2.52.83 3.893.056.258.103.518.149.778l.012.062c.072.403.14.78.23 1.143.12.48.27.9.449 1.248a1.643 1.643 0 001.746.838c.574-.118.887-.488 1.021-1.215.11-.587.2-1.116.187-1.621a37.616 37.616 0 00-.226-3.296c-.324-2.875-.733-5.953-1.523-8.974a339.23 339.23 0 01-1.459-5.859l-.57-2.317c-.296-1.036-.522-2.12.038-2.311.562-.21 1.043 1.006 1.285 1.734.187.42.38.853.525 1.311a77.843 77.843 0 002.322 6.367c1.542 3.723 2.35 6.704 2.62 9.668.07.764.24 1.537.405 2.283l.143.664c.119.565.394 1.068.819 1.494.362.362.786.541 1.194.505.419-.04.801-.291 1.096-.715.34-.485.527-1.045.543-1.617.022-.913.038-1.973-.056-2.998-.252-2.838-.914-5.695-1.963-8.492l-.098-.258c-.533-1.423-1.039-2.765-1.33-4.757l-.018-.094c-.302-1.604-.255-2.352.159-2.502.41-.15.913.296 1.49 1.32 1.23 2.168 2.253 4.886 2.74 7.282.078.387.19.79.33 1.198 1.295 3.793 2.139 7.193 2.581 10.395.03.214.05.36.088.477.105.316.206.633.307.952l.048.15c.307.967.617 1.939.981 2.858.347.87.884 1.186 1.855 1.085.376-.04.676-.12.892-.24 2.005-1.103 3.147-2.345 3.703-4.027.21-.628.429-1.25.648-1.874.271-.766.529-1.498.768-2.236.261-.809.647-1.434 1.18-1.912.005-.01.19-.163.405-.214a.496.496 0 01.498.144c.164.173.353.414.343.721a8.958 8.958 0 01-.134 1.235c-.14.742-.281 1.481-.424 2.221a168.06 168.06 0 00-.728 3.926c-.312 1.834-1.05 3.527-2.32 5.33-.441.624-.864 1.286-1.272 1.926-.35.55-.67 1.052-1.003 1.547l-.176.26c-.401.601-.819 1.223-1.339 1.753a10.247 10.247 0 00-2.232 3.416c-.57 1.406-1.386 2.62-2.428 3.605-.63.597-1.146 1.353-1.576 2.311a71.95 71.95 0 01-1.763 3.67c-.768 1.478-1.301 3.09-1.63 4.927-.27 1.5-.191 2.821.24 4.043.454 1.282.71 2.68.762 4.156.053 1.518.376 3.095.983 4.825.148.423.35.823.584 1.154.228.325.505.428.813.332.313-.104.475-.43.42-.85-.045-.35-.13-.698-.22-1.065-.08-.322-.15-.608-.205-.896-.06-.329-.126-.656-.193-.984-.191-.954-.388-1.941-.47-2.941-.124-1.567-.266-2.972-.736-4.302a5.08 5.08 0 01-.231-2.404c.264-1.938.759-3.577 1.514-5.008.342-.65.667-1.335.996-2.04" fill="#181816"/><g transform="rotate(-2 549.004 -43.712)"><mask id="b" fill="#fff"><use xlink:href="#a"/></mask><path d="M49.032 6.614c-.532-.24-1.149-.184-1.69.16a3.386 3.386 0 00-.907.824c-.456.61-.924 1.269-1.266 1.966-.95 1.937-1.87 3.876-2.758 5.75-.432.91-.865 1.82-1.298 2.727-.308.64-.563 1.14-.806 1.572-.91 1.638-1.833 3.27-2.756 4.902-.15.264-.315.516-.483.769l-.808 1.67a.634.634 0 01-.416.287l-.205.033-.183-.12c-.139-.117-.384-.321-.35-.658.036-.326 1.964-5.22 2.584-6.36l.72-1.325a588.482 588.482 0 003.996-7.439 49.594 49.594 0 001.813-3.895c.28-.665.468-1.401.649-2.113l.044-.173c.138-.54.105-1.14-.106-1.891-.142-.51-.441-.915-.84-1.141-.402-.23-.894-.27-1.384-.113-.588.19-1.132.548-1.666 1.094-.964.991-1.727 1.997-2.334 3.078l-.533.949c-.93 1.655-1.867 3.326-2.83 4.946-.533.9-1.1 1.773-1.648 2.618-.352.544-.705 1.088-1.05 1.639-.331.53-.65 1.07-.97 1.609l-.035.059c-.205.346-.411.694-.62 1.038-.029.048-.1.21-.202.441-1.059 2.394-1.906 3.931-2.62 3.641a.444.444 0 01-.25-.28c-.12-.356-.062-1.234 1.822-4.75l.068-.127c.072-.133.14-.267.208-.4.2-.4.51-.92.81-1.422.216-.363.426-.715.58-.996l.04-.074c.375-.691.762-1.405 1.113-2.117.42-.85.805-1.75 1.176-2.617.165-.387.31-.728.459-1.068.2-.458.398-.92.597-1.379l.082-.19c.251-.587.503-1.174.76-1.756.101-.237.215-.47.328-.704.222-.456.44-.903.583-1.363.177-.565.252-1.154.21-1.656-.041-.5-.232-.91-.55-1.185-.339-.294-.808-.42-1.324-.355-.609.08-1.206.329-1.818.768-1.12.808-2.157 1.869-3.364 3.445-1.209 1.576-2.497 3.279-3.74 5.049-.8 1.14-1.544 2.36-2.262 3.537l-.195.317c-.37.605-.719 1.227-1.057 1.83-.218.387-.438.775-.66 1.16-.576.991-1.159 1.98-1.74 2.966l-.502.852c-.16.275-.318.548-.499.804-.198.275-.486.417-.793.392a.874.874 0 01-.697-.515 5.53 5.53 0 01-.28-.749l-.379-1.207a185.258 185.258 0 01-1.213-3.954c-.169-.577-.197-1.203-.22-1.706a23.884 23.884 0 00-.688-4.813c-.178-.698-.459-1.252-.857-1.694-.568-.63-1.4-.895-2.117-.722-.69.159-1.205.668-1.457 1.433-.22.664-.371 1.421-.465 2.315-.249 2.385-.453 4.79-.65 7.113-.22 2.583-.178 4.728.134 6.748.14.915.247 1.844.352 2.741.152 1.328.311 2.7.581 4.038.052.252.065.505.07.673.056 1.566.405 3.185 1.13 5.248.302.855.65 1.77 1.13 2.968.84 2.092 1.71 4.254 2.128 6.608.38 2.143.29 4.028-.276 5.764-.43 1.31-.83 2.486-1.386 3.591a81.196 81.196 0 01-5.35 9.143c-1.474 2.17-2.954 4.34-4.434 6.51L.527 75.308a5.68 5.68 0 00-.345.558c-.222.434-.242.805-.053.967.24.206.644-.13.762-.237l.205-.185c1.017-.917 2.07-1.863 2.908-2.984 4.221-5.636 7.617-11.021 10.382-16.466.506-.996.915-2.072 1.274-3.02.753-1.982 1.08-3.932.973-5.794-.12-2.076-.458-3.906-1.035-5.596a108.481 108.481 0 00-1.4-3.805l-.031-.081c-.233-.607-.463-1.214-.692-1.822-.537-1.437-1.14-3.056-1.33-4.752-.118-1.049-.317-2.11-.51-3.138-.28-1.487-.566-3.009-.63-4.568-.011-.287-.102-.609-.189-.919l-.028-.098c-.295-1.044-.378-2.154-.252-3.397.029-.293.047-.587.065-.88.013-.24.028-.48.05-.719.063-.753.14-1.503.216-2.254.203-1.976.412-3.997.373-6.012-.006-.466.152-.901.291-1.284l.102-.288c.094-.293.38-.495.723-.51.343-.016.629.155.746.44l.087.207c.173.408.349.827.401 1.296.097.875.158 1.763.219 2.622.036.507.07.993.11 1.478l.012.164c.03.381.064.816.16 1.193.362 1.42.74 2.833 1.12 4.245l.446 1.675c.19.715.469 1.275.853 1.712.511.581 1.09.89 1.678.89.571.002 1.121-.288 1.605-.836.386-.44.715-1.013 1.005-1.52l.186-.32c.278-.474.542-.96.803-1.444.219-.403.437-.805.663-1.202.323-.566.652-1.127.981-1.69l.068-.116c.664-1.132 1.338-2.282 1.95-3.438a25.942 25.942 0 012.366-3.7c.97-1.271 1.897-2.58 2.596-3.579.611-.871 1.453-1.984 2.548-2.863.057-.046.115-.1.175-.156.324-.302 1.04-.97 1.717-.294.542.541.114 1.245-.116 1.622a3.149 3.149 0 00-.162.285c-.176.37-.363.739-.552 1.106-.39.76-.768 1.497-1.044 2.245a32.505 32.505 0 01-2.317 4.922 76.375 76.375 0 00-1.456 2.636c-1.014 1.942-1.756 4.022-2.405 5.98-.224.677-.276 1.295-.162 1.89.135.703.416 1.171.81 1.352.384.176.88.077 1.426-.285a5.773 5.773 0 001.98-2.245c1.102-2.176 2.465-4.385 4.418-7.164.192-.275.372-.593.53-.874l.398-.7c1.28-2.258 2.559-4.517 3.83-6.781.577-1.025 1.213-1.838 1.94-2.487.208-.179.73-.428 1.029-.07.13.16.418.572.286.979-.052.158-.1.317-.148.474l-.036.114c-.232.75-.466 1.51-.814 2.215A528.246 528.246 0 0136.81 18.87c-1.27 2.443-2.097 5.076-2.675 7.097-.211.737-.215 1.386-.013 1.985.129.38.365.672.667.822.284.14.604.148.926.021.32-.123.623-.334.835-.578.53-.612.954-1.19 1.299-1.77.986-1.663 1.965-3.369 2.913-5.02l.841-1.465a5.7 5.7 0 00.41-.828c.65-1.748 1.522-3.382 2.364-4.96.645-1.21 1.291-2.422 1.828-3.655.193-.44.478-.823.73-1.161.089-.12.176-.239.26-.36.186-.266.572-.324.82-.21.253.118.438.437.419.724-.014.23-.054.463-.122.69-.967 3.348-2.053 6.221-3.319 8.78l-.375.758a265.29 265.29 0 00-2.602 5.348 87.377 87.377 0 00-1.424 3.283l-.46 1.098c-.213.502-.45 1.169-.395 1.878.04.546.238.968.555 1.187.309.215.744.24 1.233.063.217-.08.45-.212.736-.417a6.2 6.2 0 001.702-1.813c.352-.58.76-1.27 1.124-1.978.513-1 1.02-2.008 1.525-3.014l.082-.164c.376-.75.753-1.497 1.132-2.242.268-.527.565-1.04.851-1.536l.073-.126c.011-.02.033-.066.064-.13.509-1.044.825-1.494 1.115-1.55a.334.334 0 01.154.005.48.48 0 01.322.283c.19.424-.019 1.28-.677 2.776l-.059.14c-.215.523-.435 1.046-.653 1.566l-.148.352c-.311.744-.623 1.487-.924 2.236l-.448 1.106c-.603 1.488-1.225 3.023-1.764 4.555a14.211 14.211 0 00-.727 3.144c-.324 2.964-.533 6.467.37 9.996.306 1.202.356 2.507.148 3.989-.49 3.505-1.848 6.75-4.037 9.643-1.618 2.138-2.887 4.293-3.88 6.584-.395.91-.909 1.779-1.666 2.82-.642.883-1.098 1.636-1.435 2.368-.68 1.472-1.465 2.749-2.397 3.9-1.114 1.382-1.989 2.931-2.673 4.737a15.2 15.2 0 01-1.49 2.925 150.002 150.002 0 01-2.657 3.875c-.435.62-.851 1.213-1.263 1.81a8.346 8.346 0 01-1.747 1.864c-.673.525-1.17.993-1.566 1.475-1.825 2.23-3.65 4.53-5.414 6.754l-.391.49c-.223.283-.4.573-.526.864-.158.371-.102.808.131 1.015.284.252.576.289.896.118.411-.224.747-.474.998-.742.892-.957 1.543-1.711 2.11-2.445.472-.61.926-1.233 1.379-1.857l.079-.107c.495-.682 1.055-1.455 1.624-2.18.511-.655 1.133-1.394 1.877-1.915.933-.652 1.75-1.528 2.57-2.758.947-1.419 1.986-2.933 3.178-4.629.972-1.382 1.612-2.594 2.016-3.812.566-1.701 1.433-3.28 2.577-4.695.83-1.025 1.549-2.249 2.263-3.849.377-.85.826-1.635 1.333-2.337.812-1.12 1.442-2.185 1.927-3.253 1.006-2.225 2.268-4.31 3.858-6.37 2.276-2.947 3.708-6.28 4.256-9.908.278-1.844.224-3.485-.168-5.016l-.105-.389c-.133-.496-.272-1.008-.325-1.543-.377-3.866-.5-8.404 1.459-12.763.94-2.095 1.795-4.261 2.623-6.355l.026-.068c.292-.739.552-1.58.794-2.57.188-.762.188-1.501 0-2.197-.181-.665-.575-1.133-1.083-1.285-.482-.144-1.02.022-1.475.46-.457.44-.877.986-1.214 1.58-.612 1.071-1.175 2.21-1.72 3.31l-.124.255c-.309.626-.608 1.255-.906 1.885l-.034.072c-.375.787-.75 1.575-1.143 2.351l-.102.21c-.015.032-1.65 3.294-2.54 2.843a.416.416 0 01-.207-.266c-.139-.485.346-1.517 1.175-3.024.107-.195.188-.341.218-.41l.38-.844c.616-1.38 1.253-2.807 2.002-4.158 1.83-3.296 3.132-6.714 4.645-10.84.185-.509.411-1.18.506-1.852a4.32 4.32 0 00-.048-1.538c-.143-.648-.528-1.155-1.055-1.394" fill="#181816" mask="url(#b)"/></g><path d="M32.997 56.73c.602.787 1.184 1.6 1.724 2.417 2.132 3.217 5.068 5.598 8.975 7.277.278.12.599.17.856.212.072.01.137.021.193.03.353-.092.596-.255.704-.469.115-.226.063-.506 0-.7a1.985 1.985 0 00-.85-1.073c-.699-.445-1.248-.748-1.78-.983-2.785-1.227-5.18-3.072-7.116-5.483-.485-.604-.972-1.204-1.468-1.799-1.517-1.818-2.929-3.093-4.444-4.013a8.838 8.838 0 00-1.805-.814c-.206-.07-.503-.059-.798.037-.095.031-.155.104-.173.212-.021.12.023.247.115.328.132.117.318.21.484.286 1.982.911 3.743 2.395 5.383 4.535" fill="#181816"/><g><path d="M156.52 44.941a13.109 13.109 0 00-2.527-4.014 13.205 13.205 0 01-1.748-2.424c-.696-1.22-1.624-2.34-2.837-3.423-.42-.375-.848-.743-1.274-1.112-.52-.448-1.04-.896-1.55-1.358a62.105 62.105 0 00-5.117-4.183 15.168 15.168 0 00-3.339-1.855c-.778-.306-1.595-.559-2.385-.802l-.554-.172c-.952-.297-1.924-.397-3.092-.454l-.099-.004c-.775-.04-1.575-.078-2.364-.145-.477-.04-.967-.113-1.464-.218-.565-.12-1.128-.25-1.691-.38-.415-.097-.83-.194-1.246-.284-.51-.112-1.014-.237-1.52-.362-.95-.233-1.933-.477-2.917-.625-1.45-.218-2.863-.28-4.053-.314-.902-.026-1.822.004-2.712.032l-.983.03-.21.055-1.222.043c-.99.036-1.98.07-2.973.102h-.004c-.482.017-.92.16-1.34.435-.495.325-1.016.61-1.522.886l-.169.093c-.436.237-.872.47-1.31.702-.727.389-1.451.775-2.167 1.185a14.573 14.573 0 00-2.971 2.271c-.596.588-1.207 1.157-1.818 1.725l-.906.846-.208.196c-.687.647-1.336 1.256-1.836 2.045-.288.455-.59.904-.892 1.35-.245.365-.49.73-.731 1.101l-.291.452c-1.153 1.78-2.343 3.616-3.385 5.515-1.167 2.13-1.992 3.97-2.603 5.793-.493 1.473-.836 2.833-1.05 4.153-.222 1.373-.468 2.835-.81 4.277-.418 1.767-.635 3.69-.657 5.882-.02 2.063.013 4.496.416 6.908.064.375.114.75.163 1.128.042.328.085.654.137.979.194 1.208.397 2.413.606 3.617l.096.56c.116.687.237 1.397.395 2.081.178.75.374 1.542.684 2.255a20.801 20.801 0 001.44 2.764c1.274 2.02 2.618 4.04 3.918 5.993l.145.216c.318.477.701.929 1.071 1.364 1.11 1.306 2.32 2.5 3.464 3.612.994.965 2.113 1.932 3.525 3.045.436.343.951.665 1.533.954.584.291 1.231.556 1.925.789.701.234 1.39.577 2.107 1.048a16.556 16.556 0 002.645 1.43l.68.284c.624.258 1.248.52 1.866.8a6.142 6.142 0 002.657.545c.704-.01 1.241-.002 1.744.026.353.02.705.05 1.056.082.516.045 1.046.09 1.567.097.735.012 1.486-.02 2.212-.052.29-.011.584-.024.877-.033.172-.01.347-.017.519-.044a191.11 191.11 0 002.6-.423 20.661 20.661 0 002.545-.594c.876-.265 1.726-.66 2.55-1.041l.8-.371c1.205-.558 2.452-1.134 3.73-1.574a16.744 16.744 0 003.202-1.477c.411-.25.82-.504 1.23-.76.534-.332 1.065-.664 1.604-.98 1.885-1.1 3.409-2.267 4.663-3.562l.454-.46c.452-.462.919-.938 1.343-1.434 1.206-1.418 2.2-3.032 3.01-4.425a36.805 36.805 0 011.75-2.733c1.03-1.453 1.81-2.73 2.452-4.017.79-1.586 1.363-3.091 1.744-4.604.343-1.35.666-2.705.992-4.06.366-1.519.742-3.09 1.138-4.63.454-1.76.822-3.574 1.176-5.33l.022-.108c.308-1.52.395-3.04.268-4.643-.166-2.12-.403-3.874-.743-5.522a28 28 0 00-1.432-4.74" fill="#FFFEFA"/><path d="M160.277 60.46a80.68 80.68 0 01-1.208 5.83l-.65 2.676c-.47 1.928-.94 3.857-1.416 5.784a26.212 26.212 0 01-2.261 5.913 32.87 32.87 0 01-2.199 3.551c-.587.837-1.133 1.732-1.662 2.599l-.054.088c-.15.239-.293.482-.438.722-.579.961-1.177 1.953-1.87 2.863-.043.058-.086.118-.127.177-.07.096-.14.193-.214.284-1.843 2.225-3.55 3.873-5.372 5.183-.384.274-.77.527-1.234.82a315.35 315.35 0 01-3.108 1.95c-1.348.828-2.648 1.453-3.976 1.908-1.187.405-2.353.935-3.484 1.446l-1.084.49c-1.044.471-2.124.96-3.265 1.237-1.057.257-2.167.47-3.293.634a25.22 25.22 0 01-3.99.277c-.052-.001-.101.008-.151.014l-.095.013h-.002c-.358.038-.722.064-1.091.077-.706.024-1.428.002-2.19-.064a14.42 14.42 0 00-.8-.052 50.557 50.557 0 00-.833-.025c-.586-.016-1.192-.031-1.79-.082a4.716 4.716 0 01-1.376-.326c-1.36-.55-2.806-1.143-4.202-1.793-.594-.277-1.162-.63-1.712-.97-.177-.111-.354-.222-.531-.328a6.328 6.328 0 00-1.19-.578c-.452-.16-.901-.353-1.334-.537-.205-.087-.41-.174-.614-.258-1.31-.538-2.401-1.406-3.205-2.105a20.08 20.08 0 00-.377-.324l-.328-.28c-1.404-1.215-2.894-2.552-4.254-4.093-.232-.265-.471-.521-.709-.778-.624-.675-1.272-1.375-1.8-2.18-.264-.399-.53-.795-.796-1.191-.352-.518-.701-1.038-1.042-1.563a194.66 194.66 0 01-2.483-3.927c-1.17-1.911-1.917-3.818-2.279-5.829a248.53 248.53 0 01-.458-2.651c-.195-1.17-.39-2.34-.576-3.513-.052-.34-.098-.682-.145-1.023-.056-.42-.112-.84-.184-1.256-.354-2.08-.383-4.188-.382-6 0-2.593.198-4.702.622-6.641.228-1.054.424-2.137.615-3.185.108-.599.216-1.198.332-1.798.562-2.931 1.482-5.685 2.729-8.182 1.142-2.286 2.467-4.563 4.05-6.966l.215-.33a278.08 278.08 0 001.945-2.98c.801-1.252 1.824-2.248 2.626-2.977a71.896 71.896 0 002.689-2.537c1.052-1.059 2.325-1.995 3.897-2.864a73.336 73.336 0 012.444-1.27c.404-.204.806-.407 1.208-.612.32-.167.639-.335.949-.521.552-.33 1.175-.53 1.965-.627 2.435-.299 4.914-.36 7.235-.378 1.488-.012 3.256.013 5.069.303 1.314.21 2.585.51 3.99.854l.77.19c1.124.281 2.288.571 3.447.736.67.098 1.36.15 2.028.203l.11.01c.348.026.696.045 1.043.065.465.027.928.053 1.39.096.777.073 1.517.274 2.335.507 2.446.701 4.462 1.644 6.163 2.88 1.004.73 1.839 1.357 2.653 2.046 1.956 1.657 4.044 3.455 6.07 5.373.807.765 1.374 1.4 1.842 2.056.27.381.526.743.737 1.132a11.73 11.73 0 001.782 2.47c1.172 1.267 2.081 2.728 2.774 4.47a30.596 30.596 0 011.715 6.126c.181 1.06.381 2.294.477 3.55.02.263.055.529.092.79.024.18.049.358.07.537.19 1.715-.03 3.393-.244 4.663m16.304-4.24c-.07-.917-.19-1.829-.313-2.76a15.003 15.003 0 00-.282-1.483c-.094-.402-.195-1.258-.324-2.342-.267-2.232-.668-5.607-1.289-6.89-.593-1.226-1.155-2.626-1.697-3.982-.26-.644-.513-1.277-.764-1.872a28.867 28.867 0 00-1.529-3.138c-.366-.643-.772-1.408-1.204-2.22-.806-1.521-1.72-3.243-2.512-4.393-.77-1.117-1.542-2.053-2.36-2.865a291.508 291.508 0 00-3.465-3.397 9.573 9.573 0 00-1.127-.912l-.098-.068a257.05 257.05 0 00-4.441-3.098c-.913-.619-1.857-1.226-2.769-1.814l-1.162-.75c-.385-.25-.622-.414-.801-.538-.404-.283-.512-.357-1.44-.791-1.301-.605-2.64-1.187-3.935-1.75-1.531-.666-3.115-1.352-4.65-2.09a11.588 11.588 0 00-2.085-.786c-1.07-.276-2.18-.48-3.254-.678l-.182-.033a19.239 19.239 0 00-1.06-.157 16.397 16.397 0 01-1.263-.195c-1.209-.25-6.187-.99-7.465-1.037a3.348 3.348 0 00-.177-.001c-.13.003-.262.003-.39-.018-1.352-.213-2.743-.256-4.089-.299l-.832-.028c-1.543-.055-3.116-.031-4.639-.008-.496.007-.995.014-1.49.017l-.38.002a26.57 26.57 0 00-.775.012 6.59 6.59 0 00-.973.094c-.581.104-1.17.159-1.74.21-.517.05-1.055.098-1.576.187-.519.087-1.039.165-1.559.243-1.034.156-2.106.316-3.14.552-1.267.288-2.62.635-3.928 1.222-1.226.549-4.102 2.003-5.258 2.614-.409.215-.816.434-1.222.656-.53.29-1.062.576-1.597.852-1.038.534-1.722 1.112-2.446 1.725-.703.596-1.432 1.211-2.5 1.766-1.11.577-2.026 1.266-2.798 2.103-.647.699-1.33 1.376-1.992 2.032l-.1.101c-1.24 1.23-2.364 2.575-3.207 3.612a259.728 259.728 0 00-3.198 4.034l-.298.377c-.431.542-.875 1.104-1.214 1.725l-.35.634c-.173.312-.347.623-.513.938-.673 1.275-1.07 2.563-1.453 3.81-.386 1.249-.782 2.54-1.457 3.837a40.252 40.252 0 00-2.017 4.477c-.652 1.735-1.214 3.54-1.758 5.285-.177.561-.352 1.124-.53 1.685-.086.27-.2.67-.203 1.05-.005.898-.121 1.787-.234 2.65-.052.398-.104.796-.144 1.197-.037.347-.086.693-.134 1.038-.066.468-.133.955-.167 1.43-.028.407-.061.81-.095 1.216-.087 1.041-.178 2.12-.16 3.18.003.14 0 .28-.016.419a31.174 31.174 0 00-.21 4.096c.003.151-.002.304-.006.454-.004.137-.007.277-.005.414.002.232.002.464.003.697 0 .59.002 1.197.05 1.788.101 1.219.25 2.405.421 3.717.078.594.189 1.23.355 2.064.322 1.58.797 3.148 1.256 4.664l.314 1.04c.433 1.455.812 2.66 1.38 3.825.703 1.441 1.367 3.036 2.028 4.866.375 1.045.84 2.088 1.378 3.103a65.676 65.676 0 006.073 9.418 27.165 27.165 0 005.117 5.066c.602.453 1.206.903 1.81 1.352l.71.527c.421.315.84.632 1.26.95a93.505 93.505 0 002.818 2.078c2.598 1.825 5.349 3.258 7.935 4.535 1.936.957 4.033 1.617 6.411 2.02l1.087.185c1.745.294 3.55.6 5.32.952 2.23.447 4.823.963 7.355 1.426 1.405.258 3.262.548 5.159.49.132-.004.264.008.394.02.11.01.22.02.33.018.335-.007.673-.006 1.01-.004.82.003 1.669.006 2.484-.094 1.189-.142 2.357-.274 3.523-.28l.337-.015c.25-.012.505-.025.756-.02 1.185.014 2.42-.127 3.892-.443.153-.032.31-.059.468-.085.224-.04.45-.076.67-.137 2.218-.601 4.433-1.497 6.588-2.663 2.292-1.24 4.605-2.533 6.843-3.782l2.347-1.308c.562-.313 1.153-.676 1.652-1.2.2-.208.42-.39.635-.567.118-.097.238-.197.354-.298l.614-.549c.998-.883 2.03-1.797 2.952-2.803.538-.59.969-1.019 1.399-1.396.999-.88 1.916-1.995 2.799-3.406a144.225 144.225 0 012.157-3.325c.557-.84 1.12-1.673 1.682-2.506.963-1.43 1.96-2.91 2.913-4.384 1.622-2.508 2.845-5.143 3.634-7.834.232-.788.48-1.567.73-2.35.215-.674.43-1.35.635-2.031.527-1.762.84-3.263.984-4.727.127-1.288.329-2.54.601-3.72.298-1.284.553-2.601.8-3.873l.12-.622c.277-1.42.39-2.913.337-4.437-.046-1.323-.104-2.733-.246-4.118-.067-.638-.092-1.29-.116-1.919-.02-.485-.039-.973-.077-1.458" stroke="#181816" stroke-width="2" fill="#FFFEFA"/><path d="M97.205 18.749c1.508-.783 3.44-.163 4.25 1.45-1.529.795-3.443.124-4.25-1.45m-.216-.441c-.743-1.608-.152-3.655 1.35-4.507.765 1.626.127 3.655-1.35 4.507m-1.53 5.18c-.743-1.607-.164-3.648 1.342-4.517.761 1.64.133 3.666-1.343 4.517m-3.117-6.396c1.508-.784 3.428-.159 4.244 1.438-1.532.813-3.437.136-4.244-1.438M132.19 16.592c-1.582-.42-2.654-2.16-2.313-3.892 1.604.427 2.636 2.195 2.313 3.892m-.098.47c-.388 1.682-2.029 2.802-3.645 2.434.382-1.708 2.049-2.784 3.645-2.435m4.177-2.81c-.39 1.684-2.018 2.804-3.648 2.447.397-1.718 2.05-2.796 3.648-2.447m-1.43 6.796c-1.582-.422-2.645-2.159-2.316-3.88 1.617.418 2.638 2.181 2.316 3.88M75.288 50.152c.628-1.696 2.479-2.635 4.129-2.006-.636 1.72-2.507 2.61-4.13 2.006m-.447-.178c-1.597-.675-2.47-2.656-1.89-4.399 1.622.672 2.45 2.676 1.89 4.4m2.19 5.044c-1.597-.676-2.476-2.646-1.903-4.404 1.629.687 2.462 2.68 1.902 4.404m-6.467-2.571c.628-1.695 2.475-2.624 4.117-2.01-.626 1.735-2.496 2.613-4.117 2.01M79.459 89.226c-.743-1.609-.166-3.66 1.346-4.517.754 1.632.131 3.668-1.346 4.517m-.415.228c-1.508.784-3.434.143-4.24-1.459 1.525-.807 3.435-.117 4.24 1.46m4.875 1.656c-1.508.784-3.429.155-4.25-1.454 1.54-.8 3.444-.122 4.25 1.454m-6 3.285c-.743-1.609-.162-3.649 1.335-4.51.77 1.634.14 3.66-1.335 4.51M105.508 111.252c-1.478-.536-2.37-2.287-1.916-3.907 1.497.544 2.35 2.316 1.916 3.907m-.13.44c-.497 1.57-2.145 2.497-3.66 2.008.494-1.595 2.164-2.479 3.66-2.008m4.194-2.325c-.497 1.57-2.135 2.5-3.662 2.021.508-1.603 2.166-2.49 3.662-2.021m-1.873 6.355c-1.477-.536-2.36-2.281-1.919-3.895 1.512.536 2.354 2.304 1.919 3.895M140.275 108.037c-1.533.5-3.266-.392-3.804-2.04 1.552-.506 3.264.43 3.804 2.04m.14.45c.476 1.632-.369 3.465-1.903 4.03-.493-1.653.394-3.462 1.903-4.03m2.171-4.634c.475 1.632-.357 3.462-1.9 4.04-.487-1.667.39-3.472 1.9-4.04m2.042 6.519c-1.532.499-3.255-.397-3.802-2.028 1.562-.523 3.261.418 3.802 2.028M165.75 79.214c-.627 1.695-2.478 2.633-4.129 2.006.636-1.72 2.508-2.61 4.13-2.006m.447.178c1.595.676 2.47 2.657 1.891 4.4-1.624-.674-2.452-2.678-1.89-4.4m-2.19-5.044c1.595.674 2.476 2.645 1.903 4.403-1.63-.688-2.465-2.681-1.903-4.403m6.468 2.57c-.628 1.696-2.475 2.623-4.12 2.01.629-1.734 2.498-2.614 4.12-2.01M162.556 37.976c.934 1.398.687 3.434-.616 4.492-.95-1.419-.655-3.447.616-4.492m.36-.284c1.31-.988 3.219-.7 4.214.686-1.323 1.011-3.227.671-4.214-.686m-4.843-.766c1.312-.988 3.214-.709 4.222.675-1.336 1.01-3.233.682-4.222-.675m5.19-4.09c.935 1.398.681 3.423-.608 4.484-.964-1.422-.663-3.438.608-4.484" fill="#009C90"/><path d="M71.013 71.196c-.042-1.202.946-1.286 1.887-.481.135.131.146.457.02.6-.825 1.004-1.865 1.085-1.907-.12M73.755 69.822c-1.203-.24-2.15-1.196-1.606-1.85.544-.654 1.455.197 1.878 1.523.038.175-.112.393-.272.327M73.76 73.005c-.25 1.285-1.135 2.289-1.746 1.673-.613-.584.208-1.552 1.407-1.964.195-.073.364.088.339.29M75.958 69.96c.575-.02 1.032.433 1.052 1.01.02.577-.402 1.097-.978 1.117-.543.02-1-.47-1.02-1.047-.02-.577.403-1.061.946-1.08M81.046 29.185c.498-.728 1.412.131 1.892 1.453.06.2-.073.397-.248.363-1.18-.183-2.141-1.087-1.644-1.816M84.381 29.89c-1.04-.837-1.215-1.957-.113-2.039 1.106-.082 1.334.953.664 1.996-.106.129-.44.173-.55.043M82.851 33.25c-.8 1.07-1.848 1.254-1.914.043-.082-1.173.908-1.385 1.851-.662.157.11.18.435.063.618M85.546 31.28c.445.39.509 1.052.163 1.497a.977.977 0 01-1.432.143c-.419-.369-.46-1.057-.115-1.5a.943.943 0 011.384-.14M116.087 9.986c1.132-.03 1.192 1.021.425 2.014-.131.142-.435.15-.566.015-.93-.89-.989-2 .141-2.029M117.256 12.794c.234-1.286 1.133-2.284 1.737-1.692.606.596-.195 1.556-1.435 1.988-.162.038-.364-.127-.302-.296M114.916 13.217c-1.213-.285-2.156-1.236-1.567-1.873.557-.636 1.467.246 1.845 1.52.069.208-.086.383-.278.353M117.292 15.264c.016.613-.415 1.092-.957 1.104-.542.012-1.028-.448-1.042-1.06-.014-.577.45-1.058.993-1.068.543-.013.994.446 1.006 1.024M152.663 20.6c.784.45.025 1.445-1.242 2.034-.194.077-.405-.044-.393-.225.052-1.211.852-2.259 1.635-1.809M152.18 23.764c.725-1.226 1.766-1.582 1.91-.418.143 1.163-.818 1.558-1.838.998-.127-.092-.189-.443-.072-.58M149.6 22.092c-1.13-.797-1.467-1.905-.341-2.036 1.091-.147 1.442.896.912 1.938-.078.172-.38.214-.571.098M150.475 25.372c-.323.507-.935.628-1.385.302a1.132 1.132 0 01-.27-1.505.972.972 0 011.392-.253c.451.326.567.979.263 1.456" fill="#26A048"/><path d="M171.485 56.925c-.078 1.192-1.07.964-1.927-.111-.12-.175-.1-.493.038-.596.922-.724 1.966-.484 1.889.707" fill="#181816"/><path d="M168.322 57.886c1.278.42 2.144 1.438 1.429 1.932-.714.494-1.56-.423-1.786-1.685-.009-.163.193-.332.357-.247M168.713 54.61c.417-1.358 1.363-2.28 1.822-1.476.464.766-.417 1.662-1.56 1.865-.186.041-.316-.171-.262-.389M166.632 57.198a1.047 1.047 0 01-.872-1.188c.073-.57.576-1.004 1.147-.918.538.082.908.65.833 1.219-.073.573-.57.971-1.108.887M158.928 96.945c-.54.677-1.439-.203-1.874-1.508-.054-.198.093-.379.27-.34 1.199.241 2.145 1.17 1.604 1.848M156.305 96.013c.975.866 1.068 1.99-.04 2.037-1.106.049-1.258-.993-.513-2.013.115-.123.452-.158.553-.024M158.15 93.814c.829-1.002 1.88-1.097 1.914.116.05 1.179-.945 1.305-1.868.504-.153-.124-.167-.45-.045-.62M155.403 94.589c-.429-.413-.46-1.076-.094-1.504a.975.975 0 011.435-.071c.403.389.412 1.079.05 1.506a.945.945 0 01-1.39.069M122.867 116.27c-1.13.047-1.23-1.003-.496-2.007.123-.143.429-.156.566-.023.96.876 1.061 1.982-.07 2.03M121.067 113.873c-.208 1.275-1.099 2.282-1.726 1.71-.626-.571.166-1.54 1.413-1.996.164-.04.372.117.313.286M124.537 113.523c1.204.26 2.156 1.201 1.59 1.86-.536.658-1.454-.214-1.855-1.494-.073-.21.075-.394.265-.366M121.639 112.08c-.028-.613.39-1.104.933-1.128.543-.026 1.037.42 1.065 1.034.026.577-.428 1.067-.969 1.093-.543.025-1.004-.423-1.03-1M86.861 104.893c-.704-.517.093-1.491 1.337-2.013.19-.065.379.074.352.258-.148 1.246-.985 2.271-1.689 1.755M87.998 101.305c-.772 1.126-1.821 1.341-1.914.167-.095-1.175.877-1.441 1.868-.754.12.109.167.465.046.587M90.439 103.632c1.034.845 1.24 1.96.105 2.037-1.104.093-1.333-.959-.685-1.968.098-.168.403-.194.58-.07M89.496 100.774c.357-.479.978-.554 1.402-.194.426.362.524 1.044.167 1.524-.338.452-.983.501-1.41.14a1.095 1.095 0 01-.16-1.47" fill="#26A048"/><path d="M124.372 61.92a3.363 3.363 0 00-.23-2.295c-.298-.632-.783-1.032-1.42-1.195-.973-.248-1.84-.01-2.545.744-.802.856-.914 2.218-.306 3.255.765 1.304 2.426 1.655 3.582.752.173-.134.334-.285.5-.43.205-.241.342-.52.419-.83m-9.215 2.026a7.69 7.69 0 001.077-.422c.162-.075.298-.214.44-.333.195-.168.372-.359.503-.593.145-.261.113-.43-.145-.56-.505-.252-1.035-.407-1.594-.393-.313.006-.582.15-.818.364-.587.527-1.324.578-1.967.136-.582-.4-.861-1.215-.652-1.916.121-.408.4-.662.763-.813.496-.206.993-.224 1.445.121.293.222.6.387.947.465.618.138 1.229.128 1.818-.142.066-.03.128-.067.188-.106a.457.457 0 00.143-.599c-.354-.643-.842-1.131-1.498-1.394-1.134-.45-2.273-.468-3.391.051-.566.263-1.06.646-1.4 1.21-.518.854-.57 1.775-.266 2.725.157.495.417.925.92 1.416.927.83 2.133 1.166 3.487.783m7.542 3.098c-.062.312-.054.633.139.902.102.142.234.282.38.367.776.448.953 1.34.56 2.149-.345.71-1.044 1.081-1.725.929-.525-.119-.877-.518-.955-1.084-.05-.355-.037-.7.068-1.046.2-.666.147-1.339.026-2.014a3.256 3.256 0 00-.54-1.31c-.289.193-.549.424-.766.71-.435.569-.622 1.235-.682 1.953-.081.98.053 1.916.566 2.752.658 1.08 1.602 1.65 2.814 1.654.577.002 1.077-.268 1.547-.599.67-.467 1.088-1.118 1.245-1.955.138-.74.153-1.485-.017-2.223-.235-1.035-.77-1.84-1.636-2.388-.213-.135-.424-.277-.66-.433-.125.56-.257 1.095-.364 1.636m4.099-4.288c.867.896 1.887 1.438 3.113 1.445.64.005 1.228-.217 1.78-.546.366-.22.706-.47.99-.805.471-.556.646-1.221.627-1.953-.034-1.3-.619-2.267-1.671-2.884-1.058-.62-2.186-.757-3.343-.34-.698.25-1.254.715-1.692 1.341-.017.026-.032.056-.046.083-.127.254-.064.434.195.526.19.068.382.13.575.174.395.091.793.166 1.187.254a.545.545 0 00.478-.122c.115-.088.218-.194.33-.286.51-.426 1.127-.455 1.722-.083.623.386.936 1.238.715 1.939-.253.809-1.083 1.194-1.813.84-.363-.175-.722-.364-1.088-.528a2.086 2.086 0 00-.986-.173c-.484.027-.97.05-1.456.076-.026.002-.05.008-.083.013.06.397.203.756.466 1.03m-5.825-7.077c.227-.405.242-.864.27-1.316a2.836 2.836 0 00-.434-1.725c-.313-.5-.245-1.158.133-1.62.17-.21.362-.386.605-.493.828-.355 1.72.274 1.774 1.253a1.5 1.5 0 01-.438 1.179 1.655 1.655 0 00-.322.426.975.975 0 00-.1.485c.079.815.18 1.628.275 2.452.318-.06.6-.18.857-.358 1.001-.712 1.563-1.71 1.668-2.99.066-.83-.023-1.642-.375-2.398-.437-.932-1.074-1.645-2.036-1.932-1.147-.343-2.167-.052-3.049.79-.305.293-.498.666-.648 1.072-.272.734-.458 1.486-.425 2.285.041.966.343 1.83.938 2.569.284.354.634.618 1.031.83.094-.176.184-.343.276-.509m6.065.06c1.813-.667 3.613-.672 5.397.134.882.398 1.687.915 2.309 1.716.756.97 1.175 2.078 1.144 3.336-.05 2.044-.948 3.577-2.628 4.519-1.913 1.07-3.918 1.19-5.962.376-.183-.073-.375-.126-.587-.197.02.064.027.092.038.123.12.338.247.673.36 1.015.626 1.91.654 3.812-.088 5.693-.347.881-.817 1.675-1.537 2.263-1.388 1.126-2.916 1.359-4.555.718-.409-.16-.79-.396-1.185-.599-.032-.017-.06-.049-.086-.075l-.945-.942a.776.776 0 01-.11-.137 9.274 9.274 0 01-1.383-4.09c-.121-1.247.006-2.453.503-3.598.056-.127.1-.26.144-.392.014-.042.008-.095.012-.158l-.142.055c-.376.151-.746.322-1.128.456-.972.337-1.977.434-2.992.355-2.113-.162-3.793-1.186-4.975-3.056-.846-1.336-.989-2.802-.444-4.314.333-.92.91-1.645 1.637-2.24.82-.673 1.724-1.154 2.742-1.371 1.611-.344 3.153-.049 4.651.62.108.047.214.1.334.156-.012-.064-.019-.112-.03-.158l-.25-1.065c-.206-.843-.392-1.689-.4-2.565-.02-2.14.719-3.919 2.267-5.276 1.429-1.252 3.304-1.374 4.911-.373.7.43 1.259 1.023 1.742 1.703.797 1.127 1.188 2.402 1.222 3.805.023.993-.13 1.961-.375 2.914l-.22.86c.224-.077.417-.14.609-.21" fill="#E34425"/><path d="M121.595 81.152l-1.516.053c-1.397.049-2.793.104-4.188.145-4.519.132-8.296-3.534-8.568-8.351-.11-1.975-.148-3.952-.216-5.93-.004-.12.019-.241.025-.32l14.463 14.403M136.039 65.739c.006.062.028.2.033.341.066 1.857.143 3.716.192 5.575.133 5.162-3.36 9.1-8.21 9.273-1.684.06-3.37.118-5.054.177l-.406.014 13.445-15.38" fill="#26A048"/></g></g></svg>