<?xml version="1.0" encoding="UTF-8"?>
<svg width="102px" height="48px" viewBox="0 0 102 48" version="1.1" xmlns="http://www.w3.org/2000/svg" xmlns:xlink="http://www.w3.org/1999/xlink">
    <title>C7883249-0428-4BB4-A9AA-43989BCF143B</title>
    <g id="Website-UI" stroke="none" stroke-width="1" fill="none" fill-rule="evenodd">
        <g id="Website-Home---Desktop" transform="translate(-80.000000, -48.000000)">
            <g id="logo" transform="translate(80.000000, 48.000000)">
                <path d="M13.8575416,15.9877991 C13.8575416,13.0109821 11.8339202,10.796446 8.7966339,10.796446 C5.76058375,10.796446 3.77033915,13.0109821 3.77033915,15.9877991 C3.77033915,18.9633906 5.76058375,21.1779268 8.7966339,21.1779268 C11.8339202,21.1779268 13.8575416,18.9633906 13.8575416,15.9877991 L13.8575416,15.9877991 Z M1.40537028e-13,7.33554383 L3.84080123,7.33554383 L3.84080123,9.13585021 C4.95706885,8.06350979 6.66670132,7.12842894 8.96969865,7.12842894 C14.1727667,7.12842894 17.6278807,10.5893311 17.6278807,15.9877991 C17.6278807,21.3862672 14.1727667,24.8471694 8.96969865,24.8471694 C6.80515312,24.8471694 4.92121972,24.0162587 3.84080123,22.8397481 L3.84080123,33.2898587 L1.40537028e-13,33.7065396 L1.40537028e-13,7.33554383 Z" id="Fill-99" fill="#FEF8E6"></path>
                <polygon id="Fill-100" fill="#FEF8E6" points="21.5432234 0.415455319 25.3815523 8.707928e-15 25.3815523 24.6393191 21.5432234 24.6393191"></polygon>
                <path d="M42.83711,14.0494979 C42.3142072,12.0433021 40.4278015,10.6584511 38.1594171,10.6584511 C35.8910327,10.6584511 34.004627,12.0433021 33.4829604,14.0494979 L42.83711,14.0494979 Z M29.2947935,15.9882894 C29.2947935,11.0739064 33.2023483,7.12891915 38.1594171,7.12891915 C43.1152498,7.12891915 47.0252769,11.0739064 47.0252769,15.9882894 C47.0252769,16.436834 46.9894278,16.8866043 46.9214381,17.3020596 L33.3432724,17.3020596 C33.7623363,19.4822809 35.7501086,21.2470468 38.263256,21.2470468 C40.0433505,21.2470468 41.4760794,20.6943319 42.207896,19.5864511 L46.7817501,19.5864511 C45.5950204,22.7360681 42.207896,24.846434 38.263256,24.846434 C33.2023483,24.846434 29.2947935,20.9014468 29.2947935,15.9882894 L29.2947935,15.9882894 Z" id="Fill-101" fill="#FEF8E6"></path>
                <path d="M50.9397543,7.33603404 L54.7805555,7.33603404 L54.7805555,9.30791489 C55.5840704,8.27111489 57.1527787,7.12891915 59.5620872,7.12891915 C63.8911783,7.12891915 66.2646377,9.65474043 66.2646377,14.2578383 L66.2646377,24.6393191 L62.4238365,24.6393191 L62.4238365,15.0875234 C62.4238365,12.0433021 61.1332679,10.7283064 58.7585723,10.7283064 C56.1069732,10.7283064 54.7805555,12.5273872 54.7805555,15.0875234 L54.7805555,24.6393191 L50.9397543,24.6393191 L50.9397543,7.33603404 Z" id="Fill-102" fill="#FEF8E6"></path>
                <path d="M73.3219709,19.1718536 L73.3219709,10.9350536 L69.7963947,10.9350536 L69.7963947,7.33566638 L73.3219709,7.33566638 L73.3219709,2.90659404 L77.1615359,2.90659404 L77.1615359,7.33566638 L82.3967445,7.33566638 L82.3967445,10.9350536 L77.1615359,10.9350536 L77.1615359,19.1718536 C77.1615359,20.5554791 77.9638146,21.2466791 79.1159314,21.2466791 C80.022049,21.2466791 80.6512629,20.6241089 80.9294027,19.9329089 L83.9320761,22.1474451 C83.0939482,23.6352409 81.4189287,24.8460664 78.9750072,24.8460664 C75.6941941,24.8460664 73.3219709,22.6315302 73.3219709,19.1718536" id="Fill-103" fill="#FEF8E6"></path>
                <polygon id="Fill-104" fill="#FEF8E6" points="91.6510111 21.5936272 85.2636857 7.33578894 89.2417026 7.33578894 93.5707936 17.4059847 97.8998847 7.33578894 101.877902 7.33578894 95.48934 21.5936272 95.48934 28.1612528 91.6510111 28.5779336"></polygon>
                <polygon id="Fill-105" fill="#FEF8E6" points="21.5522475 23.4134196 25.3918126 22.9979643 25.3918126 47.6372834 21.5522475 47.6372834"></polygon>
                <path d="M43.1974555,38.9856409 C43.1974555,35.8017089 41.03291,33.7942877 38.2045376,33.7942877 C35.3081754,33.7942877 33.074404,35.8017089 33.074404,38.9856409 C33.074404,42.1695728 35.3081754,44.1757685 38.2045376,44.1757685 C41.03291,44.1757685 43.1974555,42.1695728 43.1974555,38.9856409 M29.305301,38.9856409 C29.305301,33.7942877 33.074404,30.1262706 38.0648496,30.1262706 C40.3690831,30.1262706 42.3247147,31.1986111 43.0565314,32.1336919 L43.0565314,30.3333855 L46.9665585,30.3333855 L46.9665585,47.6366706 L43.0565314,47.6366706 L43.0565314,45.8375898 C42.3247147,46.7726706 40.403696,47.8450111 38.0648496,47.8450111 C33.074404,47.8450111 29.305301,44.1757685 29.305301,38.9856409" id="Fill-106" fill="#FEF8E6"></path>
                <path d="M51.5784868,30.3338757 L55.419288,30.3338757 L55.419288,32.3069821 C56.2215668,31.2689566 57.7915113,30.1267609 60.202056,30.1267609 C64.5299108,30.1267609 66.9033702,32.6525821 66.9033702,37.25568 L66.9033702,47.6371609 L63.0638052,47.6371609 L63.0638052,38.0853651 C63.0638052,35.0411438 61.7707643,33.7261481 59.3985411,33.7261481 C56.7444695,33.7261481 55.419288,35.5252289 55.419288,38.0853651 L55.419288,47.6371609 L51.5784868,47.6371609 L51.5784868,30.3338757 Z" id="Fill-107" fill="#FEF8E6"></path>
                <path d="M84.2205998,37.0479523 C83.697697,35.0405311 81.8125274,33.65568 79.5429069,33.65568 C77.2745225,33.65568 75.3893529,35.0405311 74.8664501,37.0479523 L84.2205998,37.0479523 Z M70.6770471,38.9855183 C70.6770471,34.0723609 74.5870742,30.1273736 79.5429069,30.1273736 C84.4999757,30.1273736 88.4100028,34.0723609 88.4100028,38.9855183 C88.4100028,39.4352885 88.3741537,39.8850587 88.3049278,40.300514 L74.7267622,40.300514 C75.1458261,42.4807353 77.1348345,44.2455013 79.6479819,44.2455013 C81.4280764,44.2455013 82.8595691,43.6915609 83.592622,42.5849055 L88.1652398,42.5849055 C86.9785101,45.733297 83.592622,47.8448885 79.6479819,47.8448885 C74.5870742,47.8448885 70.6770471,43.8999013 70.6770471,38.9855183 L70.6770471,38.9855183 Z" id="Fill-108" fill="#FEF8E6"></path>
                <path d="M13.8575416,15.9877991 C13.8575416,13.0109821 11.8339202,10.796446 8.7966339,10.796446 C5.76058375,10.796446 3.77033915,13.0109821 3.77033915,15.9877991 C3.77033915,18.9633906 5.76058375,21.1779268 8.7966339,21.1779268 C11.8339202,21.1779268 13.8575416,18.9633906 13.8575416,15.9877991" id="Fill-109" fill="#E34425"></path>
            </g>
        </g>
    </g>
</svg>