<?xml version="1.0" encoding="UTF-8"?>
<svg width="77px" height="19px" viewBox="0 0 77 19" version="1.1" xmlns="http://www.w3.org/2000/svg" xmlns:xlink="http://www.w3.org/1999/xlink">
    <title>E5938114-31A4-450B-99CA-722F0748D549</title>
    <defs>
        <polygon id="path-1" points="0 0.662 75.7768727 0.662 75.7768727 16.7763595 0 16.7763595"></polygon>
    </defs>
    <g id="Website-UI" stroke="none" stroke-width="1" fill="none" fill-rule="evenodd">
        <g id="How-it-works---Desktop" transform="translate(-602.000000, -386.000000)">
            <g id="promo-site/module/intro-text" transform="translate(0.000000, 322.000000)">
                <g transform="translate(0.000000, -0.000000)" id="spoon">
                    <g transform="translate(602.000000, 64.000000)">
                        <g id="Group-3" transform="translate(0.000000, 0.338400)">
                            <mask id="mask-2" fill="white">
                                <use xlink:href="#path-1"></use>
                            </mask>
                            <g id="Clip-2"></g>
                            <path d="M75.5109,11.3862 C75.4739,11.9992 75.4489,12.6142 75.3939,13.2262 C75.3299,13.9262 74.9259,14.2202 74.1929,14.1582 C72.3919,14.0072 70.5909,13.8522 68.7879,13.7222 C66.4739,13.5562 64.1579,13.4152 61.8439,13.2582 C59.2749,13.0822 56.7059,12.8752 54.1359,12.7272 C50.1839,12.4972 46.2279,12.3382 42.2779,12.0902 C38.1989,11.8332 34.1249,11.5032 30.0489,11.2122 C28.6699,11.1142 27.2879,10.9662 25.9099,10.9692 C24.2919,10.9732 22.8259,11.4792 21.6029,12.5412 C20.9889,13.0732 20.3599,13.5912 19.7139,14.0872 C17.0569,16.1322 13.9869,16.8882 10.6109,16.7632 C7.7549,16.6572 5.3149,15.5622 3.1639,13.8402 C1.2839,12.3342 0.1329,10.4042 0.0079,7.9972 C-0.0291,7.2942 0.0629,6.6082 0.2949,5.9412 C0.7929,4.5092 1.6519,3.3022 2.8529,2.3572 C3.3499,1.9662 3.9649,1.6782 4.5729,1.4622 C6.4069,0.8112 8.3289,0.6172 10.2779,0.6692 C12.0449,0.7162 13.8159,0.8242 15.5159,1.3592 C17.4369,1.9622 19.1369,2.9102 20.3819,4.5032 C21.1129,5.4382 22.1169,5.9482 23.2649,6.2162 C25.0529,6.6352 26.8739,6.8232 28.7019,6.9412 C30.5509,7.0592 32.3999,7.1732 34.2489,7.2452 C36.8429,7.3482 39.4389,7.4772 42.0319,7.4722 C45.2209,7.4662 48.4089,7.3642 51.5959,7.2452 C53.7819,7.1632 55.9619,6.9212 58.1489,6.8622 C62.2719,6.7492 66.3979,6.7002 70.5229,6.6642 C71.5189,6.6552 72.5169,6.8202 73.5159,6.8612 C75.2299,6.9292 75.8709,8.1912 75.7659,9.4962 C75.7139,10.1292 75.6229,10.7592 75.5499,11.3902 C75.5369,11.3882 75.5249,11.3872 75.5109,11.3862" id="Fill-1" fill="#D4E7E4" mask="url(#mask-2)"></path>
                        </g>
                        <path d="M13.3615,3.249 C12.3835,3.204 11.4065,3.121 10.4295,3.12199105 C8.8285,3.125 7.2425,3.301 5.7315,3.824 C5.1815,4.015 4.6255,4.273 4.1765,4.625 C3.1785,5.41 2.4575,6.417 1.9985,7.587 C1.7155,8.307 1.6415,9.053 1.6975,9.82 C1.7965,11.181 2.3705,12.359 3.2125,13.425 C4.6075,15.189 6.5045,16.311 8.6355,16.984 C11.1805,17.789 13.7575,17.652 16.2845,16.839 C17.6455,16.4 18.9055,15.789 19.9875,14.867 C20.6065,14.341 21.2445,13.834 21.8625,13.307 C23.3555,12.036 25.1455,11.524 27.0945,11.588 C28.9645,11.649 30.8295,11.854 32.6975,11.987 C35.7745,12.206 38.8515,12.443 41.9305,12.623 C44.5015,12.774 47.0765,12.824 49.6465,12.974 C53.5345,13.2 57.4195,13.468 61.3045,13.731 C64.3825,13.94 67.4635,14.142 70.5375,14.4 C71.9715,14.52 73.4285,14.455 74.8385,14.859 C75.1995,14.964 75.2415,14.884 75.2735,14.477 C75.3625,13.355 75.4635,12.235 75.5495,11.113 C75.5685,10.871 75.5785,10.62 75.5395,10.382 C75.4295,9.723 75.1375,9.452 74.4475,9.385 C73.5155,9.295 72.5825,9.188 71.6475,9.167 C70.1385,9.132 68.6285,9.14 67.1195,9.165 C64.2505,9.215 61.3795,9.251 58.5125,9.364 C54.5005,9.523 50.5045,9.953 46.4805,9.936 C43.8225,9.924 41.1645,9.986 38.5075,9.908 C35.3825,9.817 32.2585,9.631 29.1365,9.443 C27.3745,9.337 25.6135,9.149 23.8925,8.728 C22.4505,8.375 21.1965,7.718 20.3035,6.515 C19.8385,5.889 19.2325,5.407 18.5735,4.972 C16.9955,3.929 15.2375,3.436 13.3615,3.249 M76.3155,12.948 C76.2775,13.562 76.2545,14.176 76.1985,14.788 C76.1345,15.488 75.7295,15.782 74.9965,15.721 C73.1955,15.569 71.3945,15.414 69.5925,15.284 C67.2785,15.118 64.9625,14.978 62.6475,14.82 C60.0785,14.645 57.5105,14.437 54.9395,14.289 C50.9875,14.06 47.0325,13.9 43.0815,13.651 C39.0035,13.395 34.9285,13.065 30.8525,12.774 C29.4735,12.676 28.0925,12.528 26.7145,12.531 C25.0955,12.535 23.6315,13.041 22.4065,14.104 C21.7935,14.636 21.1635,15.153 20.5175,15.649 C17.8605,17.694 14.7915,18.45 11.4155,18.325 C8.5585,18.219 6.1185,17.124 3.9685,15.402 C2.0885,13.896 0.9375,11.965 0.8115,9.56 C0.7755,8.856 0.8665,8.17 1.0995,7.503 C1.5975,6.071 2.4555,4.864 3.6575,3.919 C4.1535,3.528 4.7685,3.24 5.3765,3.024 C7.2105,2.373 9.1335,2.18 11.0815,2.231 C12.8485,2.278 14.6195,2.387 16.3195,2.921 C18.2415,3.524 19.9405,4.473 21.1865,6.065 C21.9175,7 22.9215,7.51 24.0695,7.778 C25.8565,8.197 27.6785,8.386 29.5075,8.503 C31.3545,8.621 33.2035,8.735 35.0525,8.808 C37.6465,8.91 40.2425,9.039 42.8365,9.034 C46.0245,9.028 49.2145,8.926 52.3995,8.808 C54.5865,8.726 56.7655,8.483 58.9535,8.424 C63.0765,8.311 67.2015,8.263 71.3265,8.227 C72.3235,8.217 73.3215,8.382 74.3205,8.423 C76.0335,8.491 76.6755,9.753 76.5695,11.059 C76.5175,11.691 76.4275,12.321 76.3545,12.952 C76.3415,12.95 76.3285,12.949 76.3155,12.948" id="Fill-4" fill="#444445"></path>
                        <path d="M10.8986,15.2315 C9.4186,15.0255 8.0596,14.4535 6.7616,13.7965 C5.3406,13.0765 4.3106,11.9435 3.8306,10.4325 C3.6316,9.8085 3.5156,9.1595 3.4016,8.5145 C3.3686,8.3305 3.4326,8.1015 3.5276,7.9335 C3.5926,7.8175 3.7946,7.6995 3.9246,7.7105 C4.0556,7.7225 4.2056,7.8745 4.2856,8.0005 C4.3576,8.1135 4.3396,8.2775 4.3776,8.4155 C4.5516,9.0695 4.6906,9.7365 4.9196,10.3745 C5.3316,11.5125 6.1696,12.3635 7.2406,12.9145 C8.3636,13.4915 9.5346,14.0245 10.8226,14.1865 C11.3886,14.2565 11.9666,14.2965 12.5356,14.2735 C13.2546,14.2445 13.9696,14.1265 14.6886,14.0635 C15.6986,13.9765 16.5836,13.5685 17.3586,12.9975 C18.0426,12.4935 18.6536,11.8865 19.2426,11.2775 C19.7016,10.8035 19.6646,10.5065 19.2796,9.9605 C17.7376,7.7745 15.5106,6.6925 12.8846,6.2875 C12.3886,6.2105 11.8686,6.2935 11.3586,6.2925 C11.0716,6.2915 10.6896,6.3825 10.5986,6.0165 C10.4996,5.6115 10.9126,5.6075 11.1766,5.5175 C12.2066,5.1705 13.2436,5.3355 14.2586,5.5665 C16.0166,5.9665 17.5446,6.8405 18.8866,7.9755 C19.4676,8.4655 19.9006,9.1385 20.3256,9.7745 C20.7356,10.3885 20.6516,11.0645 20.2086,11.6225 C18.8476,13.3345 17.2066,14.6785 14.8906,15.0015 C13.8646,15.1445 12.8246,15.2085 11.7886,15.2865 C11.4956,15.3075 11.1956,15.2525 10.8986,15.2315" id="Fill-6" fill="#444445"></path>
                    </g>
                </g>
            </g>
        </g>
    </g>
</svg>