<?xml version="1.0" encoding="UTF-8"?>
<svg width="16px" height="16px" viewBox="0 0 16 16" version="1.1" xmlns="http://www.w3.org/2000/svg" xmlns:xlink="http://www.w3.org/1999/xlink">
    <title>20CAFB3D-201A-4CA0-8A4C-CF956AAAE8A8</title>
    <g id="Website-UI" stroke="none" stroke-width="1" fill="none" fill-rule="evenodd">
        <g id="Website-Home---Desktop" transform="translate(-1045.000000, -2432.000000)">
            <rect fill="#FEF8E6" x="0" y="0" width="1280" height="2503"></rect>
            <g id="promo-site/footer" transform="translate(0.000000, 1950.000000)">
                <rect id="Rectangle-Copy-3" fill="#17434C" x="0" y="297" width="1280" height="256"></rect>
                <g id="signup-login" transform="translate(960.000000, 360.000000)" fill="#009C90" fill-rule="nonzero">
                    <g id="button/sm/primary-loud-copy-2" transform="translate(85.000000, 118.000000)">
                        <g id="icon/sm/back" transform="translate(0.000000, 4.000000)">
                            <path d="M12.8095238,6.33333333 L12.3095238,6.33333333 L12.3095238,4.5 C12.3095238,2.01471863 10.2948052,0 7.80952381,0 C5.32424244,0 3.30952381,2.01471863 3.30952381,4.5 L3.30952381,6.33333333 L2.80952381,6.33333333 C2.07314414,6.33333333 1.47619048,6.930287 1.47619048,7.66666667 L1.47619048,14.6666667 C1.47619048,15.4030463 2.07314414,16 2.80952381,16 L12.8095238,16 C13.5459035,16 14.1428571,15.4030463 14.1428571,14.6666667 L14.1428571,7.66666667 C14.1428571,6.930287 13.5459035,6.33333333 12.8095238,6.33333333 Z M6.47617667,10.3333333 C6.47326267,9.68552537 6.93638833,9.12935085 7.57401887,9.01493481 C8.2116494,8.90051878 8.83925441,9.26097325 9.06174166,9.8693836 C9.2842289,10.4777939 9.03721054,11.1580861 8.47619048,11.482 L8.47619048,13 C8.47619048,13.3681898 8.17771364,13.6666667 7.80952381,13.6666667 C7.44133398,13.6666667 7.14285714,13.3681898 7.14285714,13 L7.14285714,11.482 C6.73158414,11.2455051 6.47751993,10.8077525 6.47617667,10.3333333 Z M4.97619048,4.5 C4.97619048,2.93519323 6.24471703,1.66666671 7.80952381,1.66666671 C9.37433058,1.66666671 10.6428571,2.93519323 10.6428571,4.5 L10.6428571,6 C10.6428571,6.18409492 10.4936187,6.33333333 10.3095238,6.33333333 L5.30952381,6.33333333 C5.12542889,6.33333333 4.97619048,6.18409492 4.97619048,6 L4.97619048,4.5 Z" id="Shape"></path>
                        </g>
                    </g>
                </g>
            </g>
        </g>
    </g>
</svg>