<?xml version="1.0" encoding="UTF-8"?>
<svg width="272px" height="204px" viewBox="0 0 272 204" version="1.1" xmlns="http://www.w3.org/2000/svg" xmlns:xlink="http://www.w3.org/1999/xlink">
    <title>96D12B77-6BB6-4E1A-B9B7-281997B1222F</title>
    <defs>
        <rect id="path-1" x="0" y="0" width="272" height="204"></rect>
        <polygon id="path-3" points="0 0.444226503 59.863354 0.444226503 120.697645 0.444226503 120.697645 67.300595 0 67.300595"></polygon>
    </defs>
    <g id="App-UI" stroke="none" stroke-width="1" fill="none" fill-rule="evenodd">
        <g id="Home---Desktop" transform="translate(-928.000000, -944.000000)">
            <g id="main" transform="translate(240.000000, 0.000000)">
                <g id="latest-feed" transform="translate(80.000000, 877.000000)">
                    <g id="card__img-placeholder" transform="translate(608.000000, 67.000000)">
                        <mask id="mask-2" fill="white">
                            <use xlink:href="#path-1"></use>
                        </mask>
                        <use id="Mask" fill="#F5BE00" xlink:href="#path-1"></use>
                        <g id="pot" style="mix-blend-mode: multiply;" mask="url(#mask-2)">
                            <g transform="translate(69.158148, 22.000000)">
                                <g id="pot" transform="translate(0.841852, 35.000000)">
                                    <path d="M68.0299039,4.60682188 C75.3192918,4.86537978 82.4985865,5.61041868 89.5396533,7.35660358 C93.2167635,8.26829591 96.799683,9.43854615 100.20156,11.0756711 C102.101278,11.9885888 103.919038,13.0436521 105.455449,14.4589809 C106.336194,15.270191 107.188804,16.1573755 107.846916,17.1376898 C109.59495,19.7428752 109.587611,22.4277111 107.943553,25.0941661 C107.800432,25.3269907 107.640186,25.552463 107.479939,25.7767099 C106.964948,26.4960156 107.101953,26.8477033 108.029181,26.8918175 C108.780261,26.9261285 109.53868,26.8097161 110.290983,26.7349672 C111.327082,26.6320342 112.355841,26.4298443 113.393163,26.4016603 C115.990137,26.3318129 118.311879,27.0964581 120.264197,28.7666686 C121.674612,29.9724553 122.08318,31.5605645 121.986543,33.2908193 C121.784705,36.9143061 120.125969,39.7008496 116.730208,41.4311044 C115.729584,41.9408679 114.675136,42.3513745 113.652493,42.8219254 C112.176022,43.4995677 110.704444,44.1882385 109.235313,44.8818109 C108.133158,45.4026029 107.645079,46.2493494 107.647525,47.4367551 C107.653641,50.2453557 107.588809,53.0527308 107.583916,55.8613314 C107.580246,57.6173195 107.548441,59.3671806 107.161892,61.090083 C106.678706,63.2479999 105.630375,65.128978 103.910475,66.5920972 C102.783856,67.5503545 101.575278,68.4436659 100.303091,69.2156634 C97.1079437,71.1530096 93.6424569,72.4494753 89.9213094,73.2226983 C83.9652716,74.4603451 77.9590802,75.3757136 71.9296469,76.2089808 C67.1907497,76.8621152 62.4335036,77.0348956 57.6628016,76.9944577 C50.5740279,76.9344134 43.636938,75.8425883 36.8674343,73.8194646 C34.9151163,73.2361776 32.9982727,72.510745 31.1156803,71.7399728 C29.5413487,71.0954162 28.1394963,70.1420605 26.8538533,69.055137 C23.7993808,66.4683325 22.0611327,63.2541269 21.7651046,59.3438981 C21.6024114,57.2055874 21.4592903,55.0623752 21.1681552,52.9375439 C21.0201411,51.8469442 20.6372617,50.7673731 20.2372567,49.7245637 C19.7944377,48.5763705 18.8708787,47.9367154 17.5571008,47.8840235 C16.8317095,47.8558395 16.1063181,47.8288808 15.3797035,47.8031476 C13.382125,47.729624 11.3906628,47.558069 9.52274948,46.8461157 C8.506223,46.4588916 7.50315234,45.9601566 6.62363062,45.3425586 C4.70067077,43.9946264 4.07069347,41.8073001 4.91107096,39.6800179 C5.82362061,37.3713777 7.55575238,35.7465067 9.77351715,34.5664533 C11.6952537,33.5444756 13.787023,32.9856964 15.9240529,32.5408788 C17.2476168,32.26394 18.5638413,31.9502394 19.8702796,31.6010024 C21.1033226,31.2713718 21.4568438,30.6684784 21.3540902,29.4467617 C21.2586762,28.3316541 20.8904759,27.3807492 20.162638,26.4629299 C17.8543523,23.5489456 17.8470127,20.3077813 20.0134007,17.2945401 C21.0274807,15.8853383 22.3192399,14.7408213 23.7541203,13.7359991 C26.8660859,11.5572505 30.3548145,10.0965821 33.9781015,8.90304944 C38.9481943,7.26347372 44.0687477,6.23904524 49.2675895,5.55895217 C55.5061997,4.74284049 61.7790611,4.47325405 68.0299039,4.60682188" id="Fill-1" fill="#F1EBDF"></path>
                                    <path d="M22.3156356,21.6235187 C20.9864094,20.7793635 23.8826591,19.1469984 25.2765174,18.478139 C36.6773756,12.9979677 68.7409937,11.3569 79.7796683,12.5814846 C86.3087297,13.3050462 100.997289,17.0707992 95.9620823,19.8842357 C77.1895065,30.3696634 37.002975,30.9477668 22.3156356,21.6235187" id="Fill-3" fill="#C94727"></path>
                                    <path d="M80.3229814,17.8529359 C80.1131446,18.397797 79.9661331,18.9763223 79.6821624,19.4787914 C79.1556856,20.4101672 78.3779072,21.132077 77.5084038,21.7554878 C75.4414484,23.236712 73.0804702,23.9548813 70.6051498,24.3688261 C70.5071422,24.3837879 70.3965695,24.4124648 70.3086139,24.3837879 C70.1050597,24.3164595 69.9115574,24.2167138 69.7142857,24.1281895 C69.83868,23.9274512 69.91784,23.620733 70.0962641,23.5434301 C70.7948825,23.2466865 71.518631,23.0010627 72.2448925,22.7741411 C73.6747984,22.3290258 75.0506745,21.7704497 76.3147214,20.9625092 C77.1879943,20.4039331 77.9532076,19.7281557 78.503558,18.8416655 C79.0162132,18.0150227 78.9822875,17.3828841 78.3075428,16.6971322 C77.7772965,16.1585052 77.1666337,15.6971812 76.5999487,15.1909716 C76.3561861,14.9727778 76.0847804,14.762065 75.9189214,14.4915046 C75.8271963,14.341886 75.8623786,14.0376616 75.9603862,13.8768216 C76.0307506,13.7596203 76.3059258,13.7122411 76.4818369,13.7247093 C76.6703131,13.740918 76.8525067,13.8568724 77.0309308,13.9429031 C78.0625238,14.4478659 78.8981015,15.1909716 79.6080284,16.076215 C80.0553452,16.6347911 80.2186912,17.1597031 80.3229814,17.8529359" id="Fill-5" fill="#EF4D25"></path>
                                    <path d="M58.4376881,17.0053045 C58.1544788,17.5379737 57.8965561,18.0106577 57.6525409,18.4881405 C57.0507212,19.6590531 57.2985293,20.6907998 58.3643572,21.5293939 C59.2898447,22.2576152 60.396131,22.6055297 61.5365541,22.8598673 C62.3469879,23.0398231 63.1763865,23.1441975 63.9868203,23.3265527 C64.4166915,23.4225292 64.9439159,23.4033339 65.1677019,23.912009 C64.9692025,24.3391042 64.5532388,24.3738956 64.1600331,24.3870924 C62.0840078,24.4614741 60.110393,24.0763687 58.3087268,23.0710155 C57.0696861,22.3799851 56.2491377,21.3854293 56.0847752,19.9781747 C55.9671928,18.9812194 56.8825657,17.2488447 57.780238,16.8181504 C57.8636836,16.7773605 57.9800017,16.7605646 58.0685046,16.7809596 C58.1570075,16.7989552 58.2341315,16.876936 58.4376881,17.0053045" id="Fill-7" fill="#EF4D25"></path>
                                    <path d="M63.5100278,15.4616214 C63.4326333,15.7876321 63.3789565,16.1197251 63.2740994,16.4372207 C63.143028,16.833786 62.942052,17.2084551 62.8234636,17.6062368 C62.4739401,18.7898505 62.8546711,19.5185088 64.0555342,19.9369704 C64.7034012,20.1620151 65.3749858,20.3286699 66.0340874,20.5245196 C66.191373,20.570745 66.3723763,20.5962906 66.4922129,20.6911743 C66.5983183,20.7763264 66.6769611,20.9429812 66.6832298,21.0767915 C66.6856992,21.1509955 66.5159306,21.2921046 66.417315,21.2994034 C64.9255983,21.39672 63.4363782,21.4465948 62.2255287,20.3590813 C61.746182,19.9308881 61.4341074,19.3895643 61.390417,18.7655213 C61.3117742,17.6366483 61.6338352,16.5990096 62.4002904,15.7389738 C62.6050114,15.5078468 62.9657697,15.4080972 63.2553749,15.2475248 C63.3402592,15.3192958 63.4263918,15.3898503 63.5100278,15.4616214" id="Fill-9" fill="#EF4D25"></path>
                                    <path d="M47.2986182,22.1016851 C46.5829301,22.1735239 46.4921599,21.6957958 46.3920799,21.2863146 C46.170973,20.3823429 46.1663181,19.4580168 46.3850976,18.5636236 C46.7295589,17.1531883 47.4196451,15.9403097 48.540308,15.0147863 C48.6357331,14.936961 48.7358131,14.8603329 48.8428754,14.8004672 C49.186173,14.6076997 49.5946389,14.2676627 49.9100071,14.6807359 C50.2149019,15.0770466 49.7657058,15.36081 49.5166696,15.60147 C48.0538729,17.0154972 47.2893084,18.7432207 47.2567243,20.8085865 C47.2532331,21.0288922 47.286981,21.2480006 47.295127,21.4695036 C47.3032731,21.6526925 47.2986182,21.8358815 47.2986182,22.1016851" id="Fill-11" fill="#EF4D25"></path>
                                    <path d="M54.5390839,19.7992305 C54.0422462,19.9189921 53.8337828,19.5418705 53.8140946,19.1379936 C53.7862995,18.5825036 53.790932,17.9773253 53.9588608,17.4638793 C54.6745851,15.2597563 56.1558332,13.8863201 58.1107565,13.0836626 C58.418819,12.9575307 58.7430954,12.8441394 59.1055901,13.1945058 C58.9434519,13.3766963 58.8230064,13.5550646 58.6655007,13.6786484 C58.2450996,14.012452 57.7957452,14.3029376 57.3811346,14.6456596 C55.9334723,15.8458237 54.9710663,16.8332198 54.5390839,19.7992305" id="Fill-13" fill="#EF4D25"></path>
                                    <path d="M73.1159914,15.6199782 C73.738388,15.142075 74.2433513,15.1130378 74.6230524,15.5969905 C74.8500901,15.8873621 74.9962294,16.2890428 75.0158016,16.6471678 C75.0536412,17.3803561 74.7091701,18.0167538 74.1689769,18.5442623 C73.2725692,19.4153771 72.1830489,20.019108 70.9695713,20.428048 C70.5507258,20.5696042 69.9922651,20.7510864 69.7717514,20.2816523 C69.5160077,19.7372056 70.1762439,19.6597732 70.5272391,19.4625624 C71.0243735,19.1794501 71.5541282,18.9411034 72.0421289,18.6434725 C72.3839904,18.434163 72.7075844,18.1837175 72.9894244,17.9102843 C73.8166769,17.1069228 73.8492973,16.543118 73.1159914,15.6199782" id="Fill-15" fill="#EF4D25"></path>
                                    <path d="M84.1118012,18.501289 C84.073672,19.3017146 83.8030772,19.9291719 83.2668075,20.4277977 C83.1511897,20.5363502 82.8350858,20.6258165 82.7674371,20.5637865 C82.6358296,20.4409194 82.5362015,20.1975709 82.5583411,20.021024 C82.6075402,19.6524227 82.7932666,19.2981359 82.8350858,18.9283417 C82.9150342,18.2269256 82.7502174,17.5577173 82.3910643,16.9362244 C82.2323974,16.6630539 82.0798803,16.3863047 81.9421229,16.1023981 C81.8117455,15.8316133 81.7600864,15.5441281 82.0577407,15.3425306 C82.3627749,15.1361616 82.61738,15.2995868 82.8277059,15.5131131 C83.3516759,16.041561 83.7637179,16.6427748 83.9297647,17.3680487 C84.020783,17.7652792 84.0613722,18.1744387 84.1118012,18.501289" id="Fill-17" fill="#EF4D25"></path>
                                    <path d="M33.3416149,21.6322257 C33.4578909,20.0897599 34.200164,18.8520403 35.319658,17.7841794 C35.438638,17.670524 35.6103479,17.5581176 35.7712413,17.5406321 C35.9537675,17.5181509 36.1863194,17.5593665 36.3255801,17.6592834 C36.4039988,17.7167355 36.3701977,17.954038 36.3269322,18.0939215 C36.2904269,18.2113238 36.1579265,18.3012489 36.0835639,18.4124063 C35.3007294,19.58518 34.4529966,20.7342233 34.5435837,22.2129922 C34.5611603,22.5252322 34.4408282,22.847464 34.052791,22.8699452 C33.6715141,22.8936755 33.521437,22.5989209 33.4605949,22.282934 C33.4173295,22.0581211 33.3767681,21.8320593 33.3416149,21.6322257" id="Fill-19" fill="#EF4D25"></path>
                                    <path d="M42.3149134,19.0594059 C42.3566748,19.1769585 42.4388053,19.2957751 42.4346292,19.4133276 C42.3733793,21.0287274 42.302385,22.6415992 42.2244306,24.2544709 C42.2230385,24.2860711 42.1033228,24.3113512 41.9126127,24.3960396 C40.9994319,23.2837143 40.7920174,22.0146522 40.9855115,20.6823897 C41.130284,19.6737129 41.5117041,19.274287 42.3149134,19.0594059" id="Fill-21" fill="#EF4D25"></path>
                                    <path d="M57.5900621,24.3494328 C56.1440912,24.6002208 54.8100751,23.8060587 54.5699792,22.7557152 C54.5268159,22.5629051 54.6158403,22.2069478 54.7520745,22.1381834 C54.9085415,22.0599807 55.2403594,22.14897 55.3981753,22.2811056 C55.8284595,22.6438044 56.2047896,23.0725711 56.6094457,23.464933 C56.8711232,23.7170694 57.148987,23.9516776 57.5900621,24.3494328" id="Fill-23" fill="#EF4D25"></path>
                                    <path d="M34.0052197,46.7019261 C35.5791299,45.6181571 37.8380704,45.357051 37.8878477,46.6721195 C37.9198473,48.0050719 35.7580911,47.776157 34.0052197,46.7019261 L34.0052197,46.7019261 Z M33.5050765,45.1746345 C34.8952849,43.7677617 35.5566116,42.9498678 36.4040106,41.9686336 L36.8022288,42.3406203 C35.8766084,43.2848943 35.1702451,43.931102 33.864184,45.5084687 L33.5050765,45.1746345 Z M33.9068503,48.1958343 C35.30654,49.593169 36.1385317,50.2572606 37.0937815,51.131191 L36.7240074,51.5127158 C35.8043129,50.5803645 35.1240233,49.8709668 33.5750017,48.5570906 L33.9068503,48.1958343 Z M32.74301,47.3695946 C32.4467167,47.6700454 31.9655363,47.6891216 31.6479098,47.4113238 C31.3480609,47.1132576 31.3290982,46.6291979 31.6064287,46.3096709 C31.9027221,45.9889516 32.3815321,45.9710676 32.7003438,46.2691339 C33.0191554,46.5660079 33.0381182,47.0488752 32.74301,47.3695946 L32.74301,47.3695946 Z M32.3791618,48.4664785 C33.4671509,50.2822982 33.7444815,52.5738318 32.4194577,52.6036384 C31.0932487,52.6358295 31.3125057,50.2477225 32.3791618,48.4664785 L32.3791618,48.4664785 Z M32.2523482,45.0673306 C30.9237689,43.5114247 30.6654011,41.2198911 31.9904249,41.1686237 C33.3154487,41.1388171 33.3190043,43.2860866 32.2523482,45.0673306 L32.2523482,45.0673306 Z M31.0351752,48.5165536 C29.646152,49.9234264 29.003788,50.7603965 28.1374262,51.7225545 L27.7581708,51.369644 C28.6648284,50.42537 29.3711917,49.7600861 30.6760676,48.1827194 L31.0351752,48.5165536 Z M27.6112093,42.3418126 C29.0097138,43.7403396 29.8417056,44.385355 30.7981405,45.258093 L30.446144,45.6372333 C29.5086718,44.7263428 28.8461599,43.9966766 27.2793607,42.7030689 L27.6112093,42.3418126 Z M30.6251052,46.8306907 C28.8307527,48.1564895 26.5718122,48.4354796 26.5220349,47.1025272 C26.4912204,45.7874588 28.8746041,45.7564599 30.6251052,46.8306907 L30.6251052,46.8306907 Z" id="Fill-25" fill="#009C90"></path>
                                    <path d="M51.1787281,50.6977848 C54.0870969,50.6489126 56.6803405,52.9897695 56.8322981,55.9722317 C53.8840716,56.0236102 51.349369,53.6188434 51.1787281,50.6977848 M51.1488348,49.8857531 C51.1002582,46.9609351 53.4468821,44.3694512 56.3926175,44.2178218 C56.4623686,47.1827401 54.0522214,49.7153267 51.1488348,49.8857531 M45.1490007,56.4158416 C45.1004241,53.4910236 47.4271191,50.9007928 50.3915379,50.7278601 C50.4426056,53.7140817 48.0523873,56.2454152 45.1490007,56.4158416 M44.7080745,44.6614317 C47.6164434,44.6125594 50.1897581,46.9546695 50.3616446,49.9158284 C47.3934892,49.9885102 44.8774699,47.5824903 44.7080745,44.6614317" id="Fill-27" fill="#009C90"></path>
                                    <path d="M74.9256595,48.9890548 C76.4995697,47.9040936 78.7585102,47.6441798 78.8071023,48.9592482 C78.839102,50.2922006 76.6773458,50.0632857 74.9256595,48.9890548 L74.9256595,48.9890548 Z M74.4255163,47.4617632 C75.8145395,46.0536981 76.4770514,45.2369965 77.3232652,44.2557623 L77.7214835,44.627749 C76.7958631,45.572023 76.0894998,46.2182307 74.7846239,47.7955974 L74.4255163,47.4617632 Z M74.8272901,50.482963 C76.2257947,51.8802977 77.0577864,52.5443894 78.0130362,53.4183197 L77.6432621,53.7986523 C76.7247527,52.8674932 76.043278,52.1580955 74.4954416,50.8442193 L74.8272901,50.482963 Z M73.6622647,49.6567233 C73.3659713,49.9571741 72.8847909,49.9762503 72.5671645,49.6984525 C72.2673156,49.4003863 72.249538,48.9163266 72.5268686,48.5967996 C72.8219767,48.2760803 73.301972,48.2581963 73.6195984,48.5562626 C73.9395952,48.8531366 73.9573728,49.3360039 73.6622647,49.6567233 L73.6622647,49.6567233 Z M73.2996016,50.7524149 C74.3864056,52.5694269 74.6649213,54.8609605 73.3387123,54.8907671 C72.0136885,54.9229583 72.2317604,52.5348512 73.2996016,50.7524149 L73.2996016,50.7524149 Z M73.1716029,47.3544593 C71.8442087,45.7985534 71.5858409,43.5058276 72.9108647,43.4557524 C74.2358886,43.4259458 74.2394441,45.5732153 73.1716029,47.3544593 L73.1716029,47.3544593 Z M71.955615,50.8036823 C70.5654066,52.2105551 69.9242278,53.0475252 69.0566809,54.0096832 L68.6786106,53.6555804 C69.584083,52.7124987 70.2904464,52.0472148 71.5965075,50.4698481 L71.955615,50.8036823 Z M68.5304639,44.6289413 C69.9301537,46.0274683 70.7609602,46.6724837 71.7173951,47.5440295 L71.3665838,47.9243621 C70.4279265,47.0134715 69.7665997,46.2838053 68.1986154,44.9901976 L68.5304639,44.6289413 Z M71.545545,49.1166272 C69.7500073,50.4436182 67.4910669,50.7226083 67.4412896,49.3896559 C67.4104751,48.0745875 69.7938587,48.0435886 71.545545,49.1166272 L71.545545,49.1166272 Z" id="Fill-29" fill="#009C90"></path>
                                    <path d="M95.1277931,44.5987749 C98.0361619,44.5499027 100.629406,46.8907596 100.782609,49.8732218 C97.8343821,49.9246003 95.298434,47.5198335 95.1277931,44.5987749 M95.0978998,43.7879963 C95.0493232,40.8619252 97.3959471,38.2716944 100.341683,38.1188119 C100.411434,41.0837302 98.0012864,43.6163168 95.0978998,43.7879963 M89.0980657,50.3168317 C89.0494891,47.3920137 91.3774297,44.803036 94.3406029,44.6288502 C94.3929162,47.6150718 92.0014523,50.1464053 89.0980657,50.3168317 M88.6583851,38.5636749 C91.5655084,38.5135495 94.1388231,40.8556596 94.3107096,43.8168185 C91.3425542,43.8895003 88.8277805,41.4847335 88.6583851,38.5636749" id="Fill-31" fill="#009C90"></path>
                                    <g id="Group-37">
                                        <mask id="mask-4" fill="white">
                                            <use xlink:href="#path-3"></use>
                                        </mask>
                                        <g id="Clip-36"></g>
                                        <path d="M62.5015973,32.7094257 C71.1551089,32.4839802 78.6525328,31.6079282 85.9270669,29.3191658 C91.3413288,27.617297 95.8554589,24.5370248 99.4412899,20.1249084 C99.6690784,19.8443267 99.7927699,19.484104 99.985043,19.1741163 C100.105061,18.9854282 100.336523,18.6497104 100.392858,18.6742153 C100.652488,18.7832624 100.99662,18.9560223 101.066426,19.1826931 C101.157051,19.469401 101.04928,19.8394257 100.961104,20.1567649 C100.811695,20.7044505 100.7921,20.7032252 101.38484,20.6395124 C102.858117,20.4826807 104.327719,20.2903168 105.80467,20.1690173 C108.715709,19.9288688 111.6145,20.0281139 114.44471,20.811047 C115.359538,21.063448 116.226604,21.4898342 117.11204,21.8476064 C117.281044,21.914995 117.434128,22.0289431 117.589661,22.1294134 C120.198206,23.8178045 121.872328,27.0781881 119.694867,30.8495 C118.362427,33.1590916 116.342947,34.6967772 113.973213,35.809302 C111.96843,36.7502921 109.835056,37.2281386 107.640449,37.4633861 C105.573208,37.6851559 105.86223,37.4964678 105.716494,39.3723218 C105.498503,42.1769134 105.352767,44.9851807 105.221728,47.7946733 C105.077217,50.8749455 104.197905,53.7457005 102.822601,56.4780025 C102.078002,57.9568762 100.970902,59.0461213 99.4608846,59.7996485 C98.3378631,60.3595866 97.279749,61.0922847 96.2853178,61.8641906 C94.3895301,63.3344876 92.3455574,64.5609604 90.1374791,65.4443639 C88.2833302,66.1844134 86.3238597,66.6683861 84.39868,67.2258738 C83.743482,67.4157871 83.3172972,67.227099 83.2083017,66.8472723 C83.0944074,66.4527426 83.3283192,66.1207005 83.9982132,65.8793267 C85.0734726,65.494599 86.1438334,65.0718886 87.2509342,64.8096856 C90.1056377,64.1345743 92.5868172,62.7157376 94.9271598,61.029797 C96.3575732,59.9993639 97.7659427,58.9542277 99.3690344,58.19825 C100.392858,57.7142772 101.055404,56.8443515 101.544047,55.8629282 C102.750346,53.4369381 103.575773,50.892099 103.73253,48.164698 C103.890513,45.4189183 104.014204,42.6719134 104.180759,39.9261337 C104.228521,39.1272723 104.335067,38.3284109 104.477129,37.5393515 C104.626539,36.7147599 105.155596,36.2785718 106.006741,36.1768762 C107.264476,36.0286213 108.523436,35.8766906 109.76525,35.6402178 C112.071302,35.1991287 114.191204,34.3083738 116.060049,32.8589059 C117.126736,32.0318639 117.999925,31.0394134 118.626955,29.8472475 C119.983889,27.270552 119.137642,25.0197723 117.131634,23.5592772 C116.469088,23.0765297 115.698772,22.6599455 114.914983,22.4430767 C113.494367,22.0509975 112.035786,21.6981262 110.572307,21.56825 C107.516758,21.2999208 104.462433,21.5351683 101.426478,21.964005 C101.212161,21.9946361 100.989272,22.0816287 100.787201,22.0473218 C99.8772721,21.8892649 99.3212724,22.3854901 98.7322065,22.9834109 C94.5879265,27.1725322 89.6084221,29.8607252 83.910037,31.3359233 C79.0211582,32.6028292 74.0759445,33.4494752 69.0413301,33.7815173 C67.1933045,33.9040421 65.3428295,34.0449455 63.4923546,34.0780272 C57.7302867,34.1833985 52.0147563,33.6822723 46.3616839,32.5538193 C42.7011481,31.8235718 39.0516344,31.0418639 35.3886492,30.3189678 C31.9975406,29.6499827 28.5905113,29.0630891 25.2030767,28.3806262 C22.4781881,27.8317153 19.9455725,26.8012822 17.7240228,25.0847104 C17.5905339,24.9817896 17.4068336,24.9450322 17.2451772,24.8776436 C17.2157852,25.052854 17.1533271,25.2292896 17.1631244,25.399599 C17.1998645,25.9534109 17.2586486,26.5072228 17.3174327,27.0598094 C17.449697,28.2679035 17.0431068,28.9895743 15.9421294,29.5115297 C14.9746408,29.9697723 13.9336721,30.0837203 12.8890294,30.211146 C11.5112767,30.3777797 10.1249514,30.5125569 8.76434406,30.7759851 C4.49759709,31.6030272 2.07642638,33.9800074 1.3159069,39.150552 C1.197114,39.9555396 1.3514223,40.7482748 1.72617103,41.4895495 C2.04458498,42.125453 2.50506054,42.6082005 3.16148315,42.8716287 C5.06951754,43.6361832 7.01919066,43.8787822 9.04724261,43.3935842 C10.8781228,42.9537203 12.7175758,42.5555149 14.5607027,42.1695619 C15.5539093,41.9612698 16.076843,42.2038688 16.457715,43.1914183 C16.9230893,44.3970619 17.297838,45.6419134 17.649318,46.8867649 C17.8820051,47.7174827 18.0142694,48.5763812 18.1783751,49.426703 C18.2298112,49.6962574 18.2543045,49.9756139 18.2653266,50.2512946 C18.2787979,50.5796609 18.1955204,50.887198 17.8330184,50.9839926 C17.4129569,51.0967153 17.1765958,50.8234851 17.0761729,50.4791906 C16.8520585,49.7109604 16.6769308,48.926802 16.4699617,48.1524455 C16.1184817,46.8426559 15.7878211,45.5255149 15.3898036,44.229203 C15.1473192,43.4413688 15.0909844,43.4254406 14.3378129,43.5932995 C12.4114085,44.0209109 10.4899028,44.4779282 8.56594768,44.9239183 C8.35652927,44.971703 8.14466152,45.0513441 7.93401845,45.0513441 C6.25867118,45.0501188 4.60536797,44.9006386 3.02309555,44.2867896 C1.07097308,43.5295866 0.0385770751,42.0249827 0.00183700358,40.0204777 C-0.059396449,36.6449208 1.16772194,33.720255 3.72728026,31.4694752 C5.1025836,30.2601559 6.82446829,29.6683614 8.60268775,29.3559233 C10.3943786,29.0422599 12.2117874,28.8780767 14.0132756,28.6195495 C14.4982446,28.5484851 14.9697421,28.389203 15.4400151,28.2433985 C16.0180588,28.0657376 16.280138,27.6589554 16.2495213,27.0512327 C16.2005345,26.0624579 16.1993099,25.0724579 16.106235,24.0885842 C16.0743936,23.7516411 15.8833453,23.3926436 15.6702528,23.1169629 C14.9268787,22.1526931 14.3084209,21.1332871 14.0047029,19.939896 C13.7720158,19.0221856 13.7683418,18.1057005 13.9777602,17.1879901 C14.3561829,15.5253292 15.073839,14.0219505 16.2985081,12.8273342 C17.1802698,11.9696609 18.1146923,11.1426188 19.1201456,10.4393267 C22.0728226,8.37478465 25.2826802,6.76113366 28.6995069,5.64738366 C32.6894786,4.34739604 36.7100671,3.12827475 40.7649464,2.05128218 C45.7162833,0.734141089 50.7717172,0.213410891 55.9079792,0.538101485 C59.2990878,0.752519802 62.7012184,0.785601485 66.0911023,1.01104703 C70.2488538,1.28672772 74.3992572,1.68125743 78.5533346,2.01697525 C80.4001355,2.16645545 82.2518351,2.26692574 84.0961867,2.44336139 C88.7474798,2.88812624 93.2077244,4.04108416 97.3985419,6.14973515 C97.8663655,6.38620792 98.3256164,6.64718564 98.7591493,6.93879455 C98.9808144,7.0870495 99.1865588,7.30391832 99.3163737,7.5354901 C99.5049727,7.87365842 99.2980036,8.1775198 98.9171316,8.1309604 C98.648929,8.09910396 98.3819512,7.99250743 98.1284447,7.88591089 C96.9601104,7.39948762 95.8040228,6.88120792 94.6295652,6.40948762 C91.255602,5.05681436 87.7518238,4.21629455 84.1366008,3.8695495 C79.6800301,3.44071287 75.2234594,3.01800248 70.7619901,2.65287871 C68.4240969,2.4617401 66.0751816,2.387 63.7311651,2.27917822 C60.6768405,2.13827475 57.6212912,1.9924703 54.5657419,1.892 C48.8269427,1.70331188 43.2473505,2.6577797 37.7755292,4.32289109 C35.2061735,5.10459901 32.6282452,5.85690099 30.0735855,6.68026733 C26.4681599,7.84057673 23.0599059,9.43952475 19.9394491,11.5935099 C18.9058285,12.306604 17.9738553,13.1838812 17.0761729,14.0697351 C16.1527724,14.9788688 15.6616802,16.1636832 15.3555129,17.4097599 C15.0113809,18.8151188 15.3542882,20.1065297 16.120931,21.2986955 C17.3100847,23.1439183 18.9866566,24.4304282 20.9167351,25.414302 C22.7757827,26.3614183 24.7719932,26.9005272 26.8098425,27.2864802 C30.4801757,27.9824208 34.1823502,28.5288812 37.8159433,29.3755272 C42.0288048,30.359401 46.2735077,31.1472351 50.5414794,31.8162203 C52.552386,32.1298837 54.5853366,32.3308243 56.6158379,32.4717277 C58.9255637,32.6310099 61.2438622,32.6628663 62.5015973,32.7094257" id="Fill-35" fill="#444445" mask="url(#mask-4)"></path>
                                    </g>
                                    <path d="M51.5807855,26.7813009 C54.1725893,26.7813009 56.7656168,26.7861829 59.3586444,26.7800804 C62.3860866,26.7727575 65.4025155,26.6372833 68.4005889,26.1734978 C69.8935071,25.9428255 71.412123,25.8695962 72.9013701,25.6206166 C74.997574,25.2703365 77.0778698,24.8224174 79.1667315,24.4172153 C83.1082802,23.6531897 86.9935386,22.6731377 90.7613214,21.2830016 C91.9067078,20.8594922 93.0227253,20.2895242 94.0481888,19.6267991 C95.1850092,18.8932857 96.0073379,17.836343 96.2618683,16.4510889 C96.5690178,14.7802405 96.0501676,13.3486079 94.8998864,12.1342221 C93.4424556,10.5927455 91.6986782,9.44182519 89.8007142,8.5105927 C89.6930283,8.45689122 89.5535261,8.44956829 89.4568536,8.38244144 C89.372418,8.32141703 89.2659558,8.19570674 89.2769692,8.11515452 C89.2904299,8.01995644 89.4189188,7.86861591 89.4996832,7.86739542 C89.8618994,7.858852 90.2571556,7.81247345 90.5826607,7.93452227 C91.3597124,8.22377797 92.1685803,8.50693123 92.8489594,8.9646143 C93.9429503,9.70056868 95.0442834,10.4780197 95.965732,11.4092521 C98.2540574,13.7257387 98.3274796,17.0125134 96.2765527,19.5352625 C95.1727722,20.8924454 93.712894,21.7370232 92.1220796,22.374118 C89.4556299,23.4420452 86.7010735,24.2536699 83.9061349,24.8956466 C80.8126126,25.6071913 77.7056297,26.2723573 74.5827386,26.8459868 C72.765539,27.1779596 70.912852,27.3158747 69.0711784,27.4977275 C66.5858367,27.7406046 64.0980477,27.956631 61.6078112,28.1506887 C60.7181789,28.2202565 59.8187569,28.2104926 58.9242297,28.2019492 C55.7768645,28.1726574 52.6270519,28.1543501 49.4796867,28.0799003 C45.5002032,27.9871432 41.5170486,27.9139139 37.5436836,27.7003285 C33.2007602,27.4672153 29.0169182,26.4127135 24.9395384,24.9249384 C22.7013849,24.1108727 21.0763067,22.5242381 19.7339041,20.6471273 C18.7586125,19.2850624 18.7170066,17.7704366 19.441439,16.2655747 C20.0092374,15.0865831 20.7973024,14.0699164 21.8215421,13.236323 C23.8516661,11.5862229 26.0714641,10.2949464 28.600859,9.55166912 C33.5091334,8.10783159 38.3880389,6.5358428 43.4480526,5.69004449 C45.8159187,5.29460631 48.2131537,5.00290964 50.609165,4.8515691 C53.6880027,4.65873197 56.7766302,4.60625098 59.8628102,4.57940024 C63.8765574,4.5415651 67.8841861,4.70999247 71.8759066,5.16767554 C74.019835,5.41421416 76.1625397,5.67661912 78.3040206,5.94878798 C78.6980531,5.998828 79.103099,6.0818212 79.4640915,6.23804369 C79.6439759,6.31371395 79.8605714,6.61517454 79.8324262,6.77261751 C79.8030573,6.94226537 79.515487,7.16195325 79.3196945,7.18636301 C78.8962931,7.238844 78.4520888,7.22663912 78.0286874,7.16317373 C73.7518439,6.52241743 69.448079,6.13064073 65.1308534,6.00126898 C61.3997817,5.88898406 57.6625914,5.95611091 53.9290723,6.03544265 C51.710498,6.08304169 49.4907,6.25146906 47.2819154,6.47115693 C44.0268643,6.79702728 40.8024058,7.34502647 37.6513695,8.24452627 C34.6581909,9.10130898 31.6711309,9.97639901 28.687742,10.8636939 C26.3382314,11.5618132 24.2873045,12.821357 22.4884605,14.4433858 C21.7738177,15.0865831 21.2170326,15.9445863 20.7238802,16.7855026 C20.109581,17.82902 20.1976877,18.9482077 20.9404757,19.9099524 C22.1972191,21.5332017 23.6313995,22.9623934 25.6333783,23.6775994 C29.3363048,25.0006086 33.1212194,25.9733377 37.0529785,26.2821212 C38.4051708,26.3870832 39.7647053,26.4102725 41.1205687,26.4456667 C44.6068997,26.5347623 48.0932307,26.6104326 51.5795618,26.6922053 C51.5795618,26.721497 51.5807855,26.7520092 51.5807855,26.7813009" id="Fill-38" fill="#444445"></path>
                                    <path d="M57.2132597,72.3912176 C54.1165936,72.2054437 50.1190791,72.244554 46.1925555,71.503903 C44.3480196,71.155577 42.5255153,70.6654762 40.7189227,70.1472649 C38.464354,69.500723 36.2256969,68.8529589 33.8609701,68.679407 C31.5035871,68.5046329 29.3909999,67.5354312 27.3971386,66.3230123 C25.4926277,65.1655923 23.7068428,63.8517311 22.1683016,62.2225433 C21.7460289,61.7752194 21.2490936,61.4000051 20.820701,60.9587922 C20.651792,60.7852403 20.5759053,60.5200237 20.4596273,60.2975839 C20.7191108,60.279251 21.0079698,60.1778087 21.2307339,60.2584736 C21.6566785,60.4136926 22.0813991,60.6263548 22.4436968,60.8989046 C22.9859194,61.3034516 23.4755108,61.7801082 23.98591,62.2274321 C25.5036435,63.552293 27.1755984,64.6547142 28.9381278,65.6214716 C30.7471683,66.6114507 32.6688148,67.2164379 34.7434587,67.3508795 C36.6014584,67.471877 38.3835714,67.9790885 40.1571165,68.5168549 C42.7556233,69.3063938 45.3614739,70.0824885 48.0787066,70.346483 C50.012593,70.533479 51.9525992,70.6984755 53.8938294,70.7803627 C56.6073902,70.8928048 59.3246229,70.9600256 62.0406317,70.9649143 C63.456775,70.9661365 64.8741423,70.7999178 66.2890617,70.6899201 C66.5203937,70.6728094 66.7541736,70.5750337 66.9732658,70.4809246 C67.4077782,70.2927063 67.9157294,70.4601472 68.1225818,70.881805 C68.3208664,71.2851298 68.1287017,71.6786771 67.5852552,71.8632287 C67.2376452,71.9805596 66.8680036,72.0404472 66.502034,72.0893351 C63.7089146,72.4657716 60.8998835,72.455994 57.2132597,72.3912176" id="Fill-40" fill="#444445"></path>
                                    <path d="M9.28351139,40.4059406 C8.74785018,40.2851276 7.97736118,40.1910207 7.26145377,39.9379493 C6.05685071,39.5106529 5.74205455,38.4945522 6.39703366,37.3919748 C6.88699866,36.5653597 7.60163673,35.9841857 8.4584408,35.575965 C10.1288914,34.776056 11.9059665,34.4085302 13.7452393,34.3093364 C14.0244939,34.2940758 14.3177113,34.3538464 14.5944273,34.4199756 C14.937149,34.5000937 15.1732461,34.7239156 15.154206,35.0990717 C15.1338966,35.4793147 14.8597192,35.6624417 14.518267,35.7120386 C13.8848666,35.8036021 13.2336955,35.8048738 12.6155272,35.9536645 C11.4997779,36.2232682 10.3827593,36.5144911 9.31016752,36.912538 C8.79227706,37.1020237 8.32896818,37.5089726 7.91897157,37.8993893 C7.52928438,38.2694585 7.60925276,38.5390622 8.10810313,38.6331692 C8.73007943,38.7514387 9.37871184,38.8531759 10.0032268,38.8061225 C10.6975555,38.7527104 11.3791907,38.5250733 12.064634,38.369924 C12.5774471,38.2554696 13.0229852,38.0545386 13.3314346,37.5827321 C13.553569,37.2431841 13.8848666,37.0295359 14.3151727,37.2597164 C14.6477396,37.4377566 14.7530947,37.9057479 14.5500004,38.3775543 C14.3139033,38.9320223 13.9153308,39.3466016 13.3466667,39.5577063 C12.1103302,40.0155239 10.8333748,40.2953013 9.28351139,40.4059406" id="Fill-50" fill="#444445"></path>
                                </g>
                                <g id="lid" transform="translate(56.204134, 35.495259) rotate(10.000000) translate(-56.204134, -35.495259) translate(13.204134, 7.995259)">
                                    <path d="M80.4699407,23.6139886 C78.3037805,25.5590512 75.8599073,27.4157576 73.3061834,29.1313396 C68.1123358,32.6238621 62.5025362,35.3702659 56.9495134,38.2258877 C51.8235512,40.8618463 46.4445618,42.8940379 41.0988979,45.0109041 C35.44343,47.2504872 29.7780877,49.4655269 23.9769748,51.3173247 C19.7088368,52.6807092 15.3246765,53.5605893 10.8812708,54.0649556 C8.85581842,54.2968905 6.78346339,54.176628 4.73455966,54.1152696 C4.03225471,54.0944077 3.29909278,53.8551098 2.6523304,53.5556806 C1.3908969,52.9740026 0.857688219,51.879368 0.788568575,50.5258008 C0.673780595,48.25922 2.98928866,45.3238322 4.79627363,45.0648995 C5.2702369,44.9986324 5.35293362,44.7188379 5.43439606,44.3396428 C5.71828031,43.0204363 5.9935246,41.6975483 6.33788854,40.394295 C7.45491136,36.1617898 9.48900373,32.3882457 12.1846698,28.9484915 C16.8885084,22.9427273 22.8105808,18.4476079 29.6102257,15.0385329 C29.7867277,14.9489496 29.9669325,14.8655021 30.1446687,14.7759188 C30.9049848,14.3844519 30.9160933,14.2568264 30.1952741,13.7401883 C29.9533554,13.5671575 29.6990938,13.4039441 29.4275524,13.2885902 C28.5833053,12.9290297 28.2364728,12.233225 28.2500499,11.397523 C28.2611584,10.7876201 28.3463237,10.1237218 28.6042881,9.58008602 C30.008898,6.62751784 32.4132741,5.03833422 35.6594288,4.7008628 C36.4259163,4.61986966 37.1751239,4.74994955 37.8712574,5.12300887 C38.9203949,5.68259785 39.2721645,6.39558294 39.0413543,7.56630199 C38.9759375,7.88904739 38.8562124,8.20688411 38.841401,8.53208385 C38.8130126,9.1518041 38.7870927,9.78256887 38.8611495,10.3961533 C38.9598918,11.2269466 39.0043259,11.2367639 39.7806876,11.0023747 C43.8204839,9.78011453 47.9688968,9.10762602 52.1469324,8.61553133 C55.5399664,8.21547429 58.9490459,8.15166151 62.3605941,8.4277745 C65.1932652,8.65725507 67.9148512,9.33465225 70.4981978,10.4992355 C72.544633,11.4208392 74.5478684,12.4381622 76.5683837,13.4149886 C76.7152629,13.4873915 76.8670793,13.5696118 76.9855701,13.680057 C77.5138417,14.1831962 78.0445818,14.1512899 78.7049213,13.8739497 C79.4911572,13.5426141 80.3378728,13.3278596 81.1759485,13.1548288 C82.4089936,12.8995777 83.3680286,13.389218 84.0098539,14.4715809 C84.8257126,15.84601 84.7207988,17.2388466 84.1024249,18.6353647 C83.276692,20.5031157 82.0103214,22.0554842 80.4699407,23.6139886" id="Fill-33" fill="#F1EBDF"></path>
                                    <path d="M18.4380069,20.5139456 C15.6664663,22.8717209 13.7498839,25.9087514 11.6463178,28.7912943 C10.6535823,30.1510305 9.65346579,31.5058625 8.64473821,32.8521117 C7.96200186,33.7630983 7.56343145,34.7856592 7.34938437,35.8903683 C7.17224197,36.8148419 6.96311552,37.734411 6.80934607,38.6625629 C6.6949416,39.3577571 6.57069589,40.0639863 6.58668791,40.7640849 C6.61990211,42.1005255 7.43057464,42.9489813 8.7419205,43.1512865 C9.79001306,43.3119046 10.8196533,43.2297564 11.8615951,43.0299034 C13.1507981,42.7822328 14.4584535,42.6179364 15.7611883,42.452414 C16.7994396,42.3187699 17.8438417,42.2292652 18.8870136,42.1360822 C21.032405,41.9448118 23.04863,41.3906181 24.9356887,40.299396 C26.3737406,39.4668794 27.9840142,39.0291644 29.6373433,38.8047896 C30.022382,38.7532937 30.5488886,38.6000321 30.7038882,39.0880169 C30.8871814,39.6679585 30.306548,39.780759 29.9227394,39.9475075 C29.3347251,40.2013086 28.7319488,40.419553 28.1377837,40.6561888 C27.0749293,41.0767385 25.9468766,41.3844876 24.9639823,41.9460379 C22.8161306,43.1721301 20.4862159,43.6208799 18.0800316,43.796211 C15.8559103,43.9592813 13.6391699,44.0843427 11.4482628,44.5735535 C10.6142173,44.7599195 9.70144186,44.6618322 8.82926155,44.6103363 C7.58557425,44.5367708 6.56823558,44.0340729 5.88795953,42.918329 C5.51522239,42.3077351 5.40942901,42.3432917 4.97641424,42.9207812 C4.29367789,43.8317677 4.207567,44.7611456 4.84601775,45.7285324 C5.80922958,47.1863561 7.06029781,48.181943 8.90676135,48.1525168 C13.7474236,48.0740469 18.5634827,47.8778721 23.1015267,45.8621765 C29.4085344,43.0630079 36.0895094,41.3109221 42.5921119,39.0622689 C45.5272631,38.0470645 48.4451922,37.0012079 51.2474866,35.646376 C52.4579597,35.0603039 53.7164089,34.5379886 55.0019214,34.1431869 C58.3553256,33.1157216 61.4467066,31.5769758 64.3744769,29.6704024 C67.4806197,27.644898 70.6322784,25.6880548 73.7175086,23.630672 C75.7657176,22.2672575 77.7634903,20.8229208 79.7157472,19.3270883 C80.4206264,18.7876077 81.034474,18.0568567 81.5043935,17.3003578 C82.2289551,16.1306658 82.8108187,14.870243 83.4209759,13.6331159 C83.61165,13.2456708 83.7445068,12.8165385 83.8269272,12.3910845 C84.0200616,11.3991759 83.6030389,10.8032951 82.5783193,10.7579297 C81.745504,10.722373 80.8954664,10.815556 80.0724924,10.9541044 C79.7157472,11.015409 79.4697161,11.0644527 79.3491609,10.7003033 C79.2322961,10.3471888 79.4352718,10.0566049 79.7563424,10.0026568 C80.9459028,9.8028038 82.1514553,9.50118511 83.3434761,9.53061132 C84.5576396,9.56003754 85.406447,10.6892685 85.3535503,11.9104564 C85.3264869,12.5063372 85.240376,13.1451312 84.9881941,13.6748031 C84.1922834,15.3435146 83.3397856,16.9877043 82.441772,18.60492 C81.8070117,19.7537684 80.725705,20.4820672 79.6788426,21.2312095 C74.1652852,25.1780004 68.5139504,28.9139035 62.6744019,32.3629009 C60.7824226,33.4810971 58.7575865,34.317292 56.6835441,35.049269 C54.9367232,35.6659934 53.2292672,36.3967444 51.5107399,37.0907126 C49.1968172,38.0237688 46.9247198,39.0708516 44.5714322,39.8911073 C39.5376355,41.6456453 34.4534025,43.2530522 29.4109947,44.9879727 C27.2434606,45.7334368 25.1325136,46.6419711 23.0006539,47.4892009 C20.1848278,48.6086231 17.2853511,49.3124 14.2382557,49.3896438 C13.0240921,49.4202961 11.8111587,49.551488 10.5969951,49.6115665 C10.0237426,49.6422188 9.44802981,49.6287318 8.87600746,49.6152448 C6.47966437,49.5576185 4.80419246,48.3192653 3.64169543,46.3379002 C2.83102289,44.9585465 2.84332445,43.54241 3.9332423,42.3028307 C4.78204966,41.3378961 5.29256423,40.3312744 5.36145294,38.9997382 C5.4291115,37.7025326 5.79077724,36.4151358 6.05649085,35.1314172 C6.31359337,33.8942901 6.86224276,32.7822245 7.60771705,31.7621157 C9.63624362,28.9899212 11.6426274,26.2017875 13.6896063,23.444306 C14.2493271,22.6890332 14.8902381,21.9864823 15.5520618,21.3182621 C18.0726506,18.7716685 20.8700245,16.5487633 23.7055331,14.3626408 C25.365013,13.0862788 26.9802073,11.7620992 28.8475835,10.7934863 C29.5044865,10.4538588 30.1786118,10.1399792 30.8687291,9.87636933 C31.2574583,9.72923826 31.3927754,9.54042006 31.3521802,9.13335744 C31.3091248,8.71158171 31.049562,8.68705986 30.7248009,8.66008583 C30.3557542,8.63065962 29.9842472,8.58038984 29.6250418,8.49333729 C27.199175,7.91216957 26.1449316,5.39377612 27.8290146,3.60122927 C30.0273027,1.26307137 32.7348751,-0.312457149 36.1953028,0.204953774 C36.9284755,0.312849891 37.5497041,0.615694674 37.9384333,1.28146276 C38.1094249,1.57695099 38.300099,1.89328278 38.0036315,2.20103193 C37.7256163,2.4903897 37.4266885,2.28440621 37.1781971,2.12624031 C36.0316921,1.39548934 34.7904651,1.41265463 33.5689206,1.77557793 C32.1025751,2.20961458 30.7801579,2.9648874 29.5832165,3.92123934 C28.9189325,4.4496851 28.3948862,5.09951398 28.6470681,5.99823959 C28.9140119,6.94846107 29.7923429,7.03551362 30.6030155,7.14463583 C31.374323,7.24885367 32.0718213,7.00363522 32.7324148,6.63825974 C33.2035644,6.375876 33.6451903,6.05586593 34.1347922,5.83516932 C34.3771328,5.72604711 34.7855445,5.6647425 34.9602266,5.79348219 C35.2948289,6.043605 35.0930834,6.46170246 34.8827268,6.69343389 C34.4816961,7.13237491 34.0400702,7.56763765 33.5344763,7.8766129 C32.5466613,8.48352855 32.5257487,8.44797188 32.7631687,9.61766387 C32.9956681,10.7750949 32.9784459,11.8957432 32.2612652,12.9121737 C32.1640829,13.0482699 32.0878133,13.2027576 32.0263055,13.3584713 C31.8344012,13.8538125 31.9524962,14.1014832 32.4617806,14.1027093 C33.9551895,14.1051615 35.4436777,14.0524395 36.7193491,13.1083485 C36.9358565,12.9477304 37.1609749,12.7932428 37.398395,12.6694074 C37.7403782,12.4891719 38.1094249,12.3653366 38.3960511,12.75646 C38.6802171,13.142679 38.4772414,13.461463 38.1807739,13.7238468 C37.2298636,14.56372 36.1645489,15.2110967 34.8864172,15.3876539 C34.0868161,15.4980022 33.271223,15.5507242 32.4617806,15.5421416 C30.9019433,15.5274284 30.0974215,14.2817187 30.6842058,12.8263473 C30.8465863,12.4229629 31.0889269,12.0526831 31.2697598,11.6554292 C31.3128153,11.5610201 31.2783709,11.4102107 31.2303948,11.3084451 C31.215633,11.2728884 31.0397207,11.2777928 30.9585304,11.3108972 C30.710039,11.4151151 30.4652381,11.5315939 30.2302783,11.6615596 C28.4834574,12.6264942 26.8498108,13.7520469 25.302275,15.0136958 C23.0277174,16.863869 20.7260963,18.6821638 18.4380069,20.5139456" id="Fill-42" fill="#444445"></path>
                                    <path d="M76.1237107,18.7445981 C73.9382433,20.6076717 71.7809992,22.5065974 69.5550374,24.3214561 C67.926674,25.6492205 66.097066,26.6963495 64.1545646,27.4752057 C61.529795,28.5297523 58.8559412,29.4569621 56.1968127,30.4212603 C55.7967777,30.5671413 55.3292521,30.7612373 55.0187955,30.2531263 C54.8101883,29.906968 55.0507001,29.5113584 55.7403311,29.2257778 C57.0778715,28.6706882 58.4374997,28.1662861 59.7897653,27.6507574 C62.5347909,26.6036285 65.2319596,25.4575972 67.6787996,23.8009823 C68.4322397,23.2903988 69.1586837,22.7353091 69.8605857,22.1530214 C71.6288386,20.6855573 73.4044542,19.2267472 75.1174876,17.6937603 C75.8893343,17.00268 76.588782,16.1978618 77.1876075,15.3497739 C78.0441242,14.1369835 77.8821468,13.2567523 76.7249903,12.3666309 C75.2217912,11.2094731 73.6020175,10.2513563 71.8448084,9.51947866 C68.33898,8.05695972 64.7153499,7.28675744 60.9088817,7.45489148 C59.9995997,7.49568871 59.0878634,7.44376496 58.1798084,7.48579847 C55.9182608,7.59088225 53.6714383,7.46230916 51.4221616,7.20887181 C48.4893895,6.87754884 45.5627529,6.9900503 42.6962443,7.75036234 C41.7918707,7.99143689 40.9390353,8.42537108 40.0665662,8.78018337 C39.8481422,8.86919551 39.6493518,9.00518628 39.4321549,9.09296215 C39.0358011,9.25244223 38.6185867,9.54420425 38.2320498,9.11027006 C37.9657688,8.81232664 38.1768302,8.20036817 38.7412968,7.82701168 C40.3107594,6.78730042 42.0532432,6.14443495 43.8988036,5.85885433 C46.2339773,5.49662436 48.5936931,5.28398425 50.9497276,5.57821883 C53.7033429,5.91943204 56.4569582,5.98742742 59.2216174,5.8848162 C59.9615595,5.85638177 60.7051829,5.89594272 61.445125,5.86627201 C65.3988453,5.70679192 69.1316875,6.63523801 72.7491821,8.15338954 C74.565292,8.91493786 76.2231059,9.95217657 77.7655722,11.1686758 C79.4098879,12.4667696 79.7277072,14.1592365 78.5705506,15.9221715 C77.8907365,16.9581739 77.0109049,17.8606581 76.2194246,18.8224838 C76.1875199,18.7965219 76.1556153,18.77056 76.1237107,18.7445981" id="Fill-44" fill="#444445"></path>
                                    <path d="M65.605539,17.7044505 C62.3649345,20.4529994 58.4100493,23.3183492 54.0361521,25.5686305 C48.087897,28.6290626 42.0048719,31.3589731 35.5751205,33.1917532 C32.9262786,33.9459888 30.1977999,34.414435 27.5060766,35.0195631 C23.0353901,36.0210687 18.50712,36.6696865 13.9800752,37.3394278 C12.6985356,37.5282974 11.4292478,37.4288923 10.1624103,37.2188992 C9.99701083,37.1915629 9.83406172,37.1480732 9.67356297,37.1008558 C9.35011511,37.0076636 9.12590694,36.818794 9.17123864,36.44354 C9.21902071,36.0695286 9.50081241,35.9514852 9.81935954,35.917936 C10.0190641,35.898055 10.2248945,35.9030252 10.4233739,35.9266339 C12.0442888,36.1204737 13.6370244,35.9042678 15.2432371,35.6743937 C20.1733666,34.9648903 25.0508133,33.968355 29.9368362,32.9979134 C34.781203,32.0361698 39.4197394,30.466813 43.9639368,28.5507812 C48.4689284,26.6496601 52.9298134,24.6466489 57.0513233,21.9850794 C59.5127125,20.3958416 61.8466828,18.5916404 64.1745272,16.7986223 C66.2720376,15.1857758 67.8733495,13.1392748 68.815514,10.6119021 C68.9404824,10.2801378 69.0409473,9.93967563 69.491814,10.0241699 C69.9831117,10.1173621 70.1534119,10.4839181 70.1117558,10.9312407 C70.0762255,11.2990393 69.9769858,11.6668379 69.8581432,12.0172406 C69.1316107,14.1494784 67.7079501,15.7685377 65.605539,17.7044505" id="Fill-46" fill="#444445"></path>
                                    <path d="M62.2116272,14.8070496 C61.1848356,15.621023 60.1469503,16.4252627 59.1312525,17.2526198 C56.2850801,19.5716531 53.2564764,21.6449127 50.2217096,23.7072219 C47.106821,25.8267161 43.6973307,27.3500265 40.1473191,28.5898455 C34.7101313,30.4879 29.1546097,31.8968405 23.4252855,32.6280781 C20.5458317,32.995522 17.6873328,32.938337 14.8312992,32.4772071 C14.3074259,32.3932547 13.786018,32.2070994 13.3040546,31.9807929 C13.1314846,31.8992739 13.0809462,31.5622475 12.9749389,31.3432412 C13.1832556,31.2751059 13.3952702,31.1376187 13.5986563,31.1522191 C14.7437815,31.2398216 15.8852088,31.4150266 17.0315667,31.4612613 C18.4145921,31.5135794 19.8148744,31.5877982 21.1855733,31.4442275 C29.4220932,30.5803693 37.3257995,28.4779089 44.8498518,25.0395102 C47.3804677,23.8836436 49.6559265,22.3128818 51.8919407,20.6971021 C54.9193117,18.5082559 57.897377,16.2537078 60.9000951,14.0320107 C61.4954616,13.5915647 62.1006893,13.1645024 62.7108475,12.7471738 C62.9598414,12.5756188 63.2248596,12.4150142 63.5059022,12.3115946 C63.6303991,12.2665766 63.8707645,12.3298451 63.9533516,12.4283979 C64.034706,12.5257341 64.0445672,12.7617742 63.9817024,12.8822276 C63.8584381,13.1134009 63.6797049,13.3238903 63.4898778,13.5100457 C63.0584528,13.9322411 62.6036076,14.3337527 62.1586235,14.7437811 C62.1771132,14.7656817 62.1931375,14.785149 62.2116272,14.8070496" id="Fill-48" fill="#444445"></path>
                                </g>
                            </g>
                        </g>
                    </g>
                </g>
            </g>
        </g>
    </g>
</svg>