<?xml version="1.0" encoding="utf-8"?>
<!-- Generator: Adobe Illustrator 25.2.0, SVG Export Plug-In . SVG Version: 6.00 Build 0)  -->
<svg version="1.1" id="Layer_1" xmlns="http://www.w3.org/2000/svg" xmlns:xlink="http://www.w3.org/1999/xlink" x="0px" y="0px"
	 viewBox="0 0 175.87 134.45" style="enable-background:new 0 0 175.87 134.45;" xml:space="preserve">
<style type="text/css">
	.st0{fill:#F1EBDF;}
	.st1{fill:#FFD338;}
	.st2{fill:#FBC346;}
	.st3{fill:#1D1D1D;}
	.st4{fill:#D4E7E5;}
</style>
<g>
	<g>
		<path class="st0" d="M64.5,44.82v-7.55l-2.83,7.55h-0.69l-2.68-7.65v7.65h-4.9V22.17h4.34l3.78,9.8l4.03-9.74h4.29v22.6H64.5z"/>
		<path class="st0" d="M80.8,45.18c-1.22,0-2.32-0.29-3.28-0.88c-0.96-0.59-1.77-1.42-2.44-2.51c-0.66-1.09-1.17-2.41-1.52-3.98
			c-0.35-1.56-0.52-3.32-0.52-5.26c0-1.77,0.17-3.36,0.51-4.76c0.34-1.4,0.84-2.6,1.5-3.59c0.66-0.99,1.48-1.74,2.44-2.26
			c0.96-0.52,2.06-0.78,3.3-0.78c1.22,0,2.31,0.29,3.25,0.88c0.94,0.59,1.74,1.42,2.39,2.49c0.65,1.07,1.14,2.35,1.48,3.84
			c0.34,1.49,0.51,3.13,0.51,4.94c0,1.84-0.17,3.49-0.51,4.95c-0.34,1.46-0.84,2.71-1.49,3.74c-0.65,1.03-1.45,1.82-2.4,2.36
			C83.09,44.91,82.01,45.18,80.8,45.18z M78.33,32.91c0,0.9,0.06,1.76,0.18,2.58c0.12,0.82,0.29,1.53,0.52,2.14
			c0.23,0.61,0.5,1.1,0.82,1.47c0.32,0.37,0.67,0.55,1.06,0.55c0.77,0,1.35-0.56,1.76-1.67c0.41-1.11,0.61-2.62,0.61-4.53
			c0-0.77-0.06-1.56-0.19-2.4c-0.13-0.83-0.3-1.6-0.52-2.3c-0.22-0.7-0.48-1.28-0.78-1.74c-0.3-0.46-0.62-0.69-0.96-0.69
			c-0.38,0-0.72,0.17-1.02,0.5c-0.31,0.33-0.57,0.79-0.79,1.38c-0.22,0.59-0.39,1.28-0.51,2.09C78.39,31.1,78.33,31.97,78.33,32.91z
			"/>
		<path class="st0" d="M91.65,44.82V21.84h6.48c0.9,0,1.74,0.2,2.53,0.59c0.78,0.39,1.46,0.92,2.03,1.59
			c0.57,0.67,1.02,1.45,1.35,2.35c0.33,0.89,0.5,1.84,0.5,2.84c0,2.74-0.95,4.96-2.86,6.66l3.7,8.95h-4.82l-3.67-7.3h-0.33v7.3
			H91.65z M96.57,32.76h0.21c0.37,0,0.72-0.09,1.05-0.28c0.32-0.19,0.6-0.45,0.83-0.78c0.23-0.33,0.41-0.72,0.54-1.17
			c0.13-0.45,0.19-0.95,0.19-1.49c0-1.82-0.94-2.78-2.81-2.88V32.76z"/>
		<path class="st0" d="M108,44.82V21.94h11.97v4.62h-6.86v3.83h4.64v4.9h-4.62v5.13h6.74v4.41H108z"/>
	</g>
	<g>
		<path class="st0" d="M55.43,74.02V51.01H67.3v4.54h-6.74v4.01h4.51v4.46h-4.51v10H55.43z"/>
		<path class="st0" d="M76.84,74.38c-1.22,0-2.32-0.29-3.28-0.88c-0.96-0.59-1.77-1.42-2.44-2.51c-0.66-1.09-1.17-2.41-1.52-3.98
			c-0.35-1.56-0.52-3.32-0.52-5.26c0-1.77,0.17-3.36,0.51-4.76c0.34-1.4,0.84-2.6,1.5-3.59c0.66-0.99,1.48-1.74,2.44-2.26
			c0.96-0.52,2.06-0.78,3.3-0.78c1.22,0,2.31,0.29,3.25,0.88c0.94,0.59,1.74,1.42,2.39,2.49c0.65,1.07,1.14,2.35,1.48,3.84
			c0.34,1.49,0.51,3.13,0.51,4.94c0,1.84-0.17,3.49-0.51,4.95c-0.34,1.46-0.84,2.71-1.49,3.74c-0.65,1.03-1.45,1.82-2.4,2.36
			C79.12,74.11,78.04,74.38,76.84,74.38z M74.36,62.11c0,0.9,0.06,1.76,0.18,2.58c0.12,0.82,0.29,1.53,0.52,2.14
			c0.23,0.61,0.5,1.1,0.82,1.47c0.32,0.37,0.67,0.55,1.06,0.55c0.77,0,1.35-0.56,1.76-1.67c0.41-1.11,0.61-2.62,0.61-4.53
			c0-0.77-0.06-1.56-0.19-2.4c-0.13-0.83-0.3-1.6-0.52-2.3c-0.22-0.7-0.48-1.28-0.78-1.74c-0.3-0.46-0.62-0.69-0.96-0.69
			c-0.38,0-0.72,0.17-1.02,0.5c-0.31,0.33-0.57,0.79-0.79,1.38c-0.22,0.59-0.39,1.28-0.51,2.09C74.42,60.3,74.36,61.17,74.36,62.11z
			"/>
		<path class="st0" d="M94.34,74.38c-1.22,0-2.32-0.29-3.28-0.88c-0.96-0.59-1.77-1.42-2.44-2.51c-0.66-1.09-1.17-2.41-1.52-3.98
			c-0.35-1.56-0.52-3.32-0.52-5.26c0-1.77,0.17-3.36,0.51-4.76c0.34-1.4,0.84-2.6,1.5-3.59c0.66-0.99,1.48-1.74,2.44-2.26
			c0.96-0.52,2.06-0.78,3.3-0.78c1.22,0,2.31,0.29,3.25,0.88c0.94,0.59,1.74,1.42,2.39,2.49c0.65,1.07,1.14,2.35,1.48,3.84
			c0.34,1.49,0.51,3.13,0.51,4.94c0,1.84-0.17,3.49-0.51,4.95c-0.34,1.46-0.84,2.71-1.49,3.74c-0.65,1.03-1.45,1.82-2.4,2.36
			S95.55,74.38,94.34,74.38z M91.86,62.11c0,0.9,0.06,1.76,0.18,2.58c0.12,0.82,0.29,1.53,0.52,2.14c0.23,0.61,0.5,1.1,0.82,1.47
			c0.32,0.37,0.67,0.55,1.06,0.55c0.77,0,1.35-0.56,1.76-1.67c0.41-1.11,0.61-2.62,0.61-4.53c0-0.77-0.06-1.56-0.19-2.4
			c-0.13-0.83-0.3-1.6-0.52-2.3c-0.22-0.7-0.48-1.28-0.78-1.74c-0.3-0.46-0.62-0.69-0.96-0.69c-0.38,0-0.72,0.17-1.02,0.5
			c-0.31,0.33-0.57,0.79-0.79,1.38c-0.22,0.59-0.39,1.28-0.51,2.09C91.92,60.3,91.86,61.17,91.86,62.11z"/>
		<path class="st0" d="M104.67,74.02V51.24h2.35c2.23,0,3.72,0.11,4.49,0.33c0.97,0.29,1.85,0.78,2.64,1.47
			c0.79,0.69,1.47,1.53,2.03,2.54c0.56,1,1,2.14,1.3,3.41c0.31,1.27,0.46,2.61,0.46,4.04c0,1.22-0.14,2.4-0.42,3.53
			c-0.28,1.13-0.68,2.16-1.19,3.09c-0.51,0.93-1.12,1.73-1.84,2.41c-0.71,0.68-1.5,1.18-2.37,1.5c-0.41,0.15-1.02,0.27-1.82,0.34
			c-0.81,0.08-1.88,0.12-3.2,0.12H104.67z M109.64,69c0.46,0,0.88-0.15,1.26-0.46c0.38-0.31,0.71-0.74,0.97-1.3
			c0.26-0.56,0.47-1.23,0.61-2.02s0.22-1.65,0.22-2.6c0-4.1-1.02-6.34-3.06-6.74V69z"/>
	</g>
	<g>
		<path class="st1" d="M52.77,93.54c0.05-0.79,0.34-1.63,0.68-2.44c0.68-1.65,4.91-8.73,4.41-11.69c1.72-0.38,3.44,1.36,2.44,3.46
			c-1.13,2.53-6.06,9.93-3.12,12.66C54.33,97.41,52.65,95.6,52.77,93.54z"/>
		<path class="st1" d="M61.34,95.96c-6.74-0.11-2.4-10.36,2.1-9.68c4.14,0.61,0.5,7.01-1.99,4.16c-0.11,0.91,0.07,1.56,0.79,1.9
			c0.7,0.34,2.01,0.16,2.78-0.63C65.38,95.28,62.24,95.98,61.34,95.96z M61.52,89.79c1.67,0.57,2.89-2.51,2.06-2.49
			C62.71,87.32,61.83,88.52,61.52,89.79z"/>
		<path class="st1" d="M68.68,90.33c-0.66-1.67,0.41-3.98,2.49-4.05c2.53-0.09,3.19,2.83,0.81,3.23c0.52-1.13-0.9-2.19-1.33-0.5
			c-0.43,1.63,1.27,2.69,1.15,4.48c-0.66,4.66-8.71,3.19-5.5-1.83C66.69,93.81,69.41,92.18,68.68,90.33z"/>
		<path class="st1" d="M75.56,90.33c-0.66-1.67,0.41-3.98,2.49-4.05c2.53-0.09,3.19,2.83,0.81,3.23c0.52-1.13-0.9-2.19-1.33-0.5
			c-0.43,1.63,1.27,2.69,1.15,4.48c-0.66,4.66-8.71,3.19-5.5-1.83C73.57,93.81,76.28,92.18,75.56,90.33z"/>
		<path class="st1" d="M91.2,90.96c0.66-1.61,1.47-3.14,0.97-4.21c1.42-0.7,3.3,1.02,2.35,3.12c-0.07,0.14-0.2,0.45-0.36,0.9
			l0.02-0.05c-0.9,3.32,2.44,1.81,2.65-0.36c-0.86-2.13-0.09-4.73,1.29-4.95c0.63-0.11,1.22,0.34,1.4,1.02
			c0.16,0.68,0.07,1.56-0.39,2.83c-0.63,1.92-1.56,3.78-3.07,5.34c-0.81,0.86-1.76,1.56-2.62,1.72l-0.36,0.05
			c-1.04,0.16-2.01-0.61-2.4-1.67c-0.81,0.81-1.72,1.47-2.56,1.63l-0.36,0.05c-1.38,0.2-2.65-1.22-2.58-2.83
			c0.09-2.35,2.44-5.16,1.67-6.78c1.42-0.7,3.3,1.02,2.35,3.12c-0.07,0.14-0.2,0.45-0.36,0.9l0.02-0.05
			C88.06,93.7,90.21,92.68,91.2,90.96z"/>
		<path class="st1" d="M104.5,86.26c2.58-0.27,3.87,2.19,3.01,4.73c-0.57,2.35-2.15,4.79-4.79,5.2
			C96.52,96.48,100.02,86.76,104.5,86.26z M105.52,87.39c-1.67-0.52-4.61,5-2.33,5.36C105.74,93.04,106.92,87.82,105.52,87.39z"/>
		<path class="st1" d="M107.48,93.54c0.25-2.35,2.83-5.16,2.17-6.78c1.06-0.5,2.31,0.27,2.44,1.56c0.66-1.09,1.49-1.97,2.51-1.97
			c0.88,0,1.72,0.27,2.04,1.22c0.36,1.06-0.79,3.78-3.42,2.71c0.5-0.09,1.11-1.27,0.54-1.81c-0.66-0.29-1.42,0.52-2.08,1.61
			c-0.43,0.93-1.74,4.36-0.32,5.65C108.86,97.48,107.26,95.6,107.48,93.54z"/>
		<path class="st1" d="M115.53,93.54c0.05-0.79,0.34-1.63,0.68-2.44c0.68-1.65,4.91-8.73,4.41-11.69c1.72-0.38,3.44,1.36,2.44,3.46
			c-0.41,0.93-1.33,2.47-2.24,4.21c0.72-0.45,1.45-0.75,2.08-0.72c0.93,0.05,1.61,0.88,1.65,1.83c0.14,1.92-1.63,3.3-3.6,3.6
			c1.74,1.67,2.01,4.41,3.78,5.36c-2.78,2.26-3.8,0.45-4.32-1.29c-0.45-1.42-0.86-3.05-1.49-4.14c-0.45,1.63-0.47,3.12,0.29,4.14
			C117.45,97.52,115.42,95.6,115.53,93.54z M119.6,89.74l-0.16,0.38c0.93-0.02,1.74-0.52,2.44-1.27c0.66-0.66,0.9-1.06,0.84-1.13
			C122.23,87.25,120.66,88.66,119.6,89.74z"/>
	</g>
	<g>
		<g>
			<path class="st2" d="M14.86,31.19c0.02-0.83,0.08-1.61,0.04-2.37c-0.08-1.59-0.19-3.18-0.32-4.77c-0.24-3-0.5-6-0.75-8.99
				c-0.12-1.38-0.26-2.75-0.33-4.13c-0.03-0.59,0.05-1.2,0.2-1.78c0.17-0.65,0.6-1.12,1.35-1.17c0.62-0.04,1.13,0.31,1.37,1.11
				c0.28,0.95,0.53,1.92,0.65,2.9c0.48,3.72,0.91,7.45,1.33,11.17c0.22,1.93,0.36,3.88,0.57,5.81c0.05,0.48,0.19,0.98,0.4,1.41
				c0.21,0.45,0.66,0.41,0.88-0.04c0.38-0.75,0.44-1.56,0.4-2.38c-0.05-0.99-0.11-1.98-0.22-2.96c-0.56-5.1-1.14-10.2-1.69-15.3
				c-0.06-0.55-0.04-1.13,0.06-1.68c0.13-0.69,0.65-1.09,1.32-1.22c0.65-0.12,1.23,0.13,1.57,0.67c0.35,0.56,0.65,1.18,0.82,1.82
				c0.51,1.95,0.95,3.92,1.4,5.89c0.79,3.52,1.63,7.03,2.33,10.57c0.6,3.02,1.08,6.06,1.53,9.11c0.31,2.06-0.35,3.84-1.82,5.32
				c-0.5,0.5-1,1-1.5,1.5c-0.87,0.88-1.23,1.95-1.22,3.18c0.03,2.42,0.43,4.78,0.99,7.13c0.82,3.44,1.6,6.89,2.36,10.35
				c0.87,3.98,1.64,7.98,2.53,11.95c1.26,5.59,2.6,11.17,3.87,16.76c0.53,2.35,0.94,4.72,1.44,7.08c0.33,1.56,0.68,3.11,1.08,4.65
				c0.93,3.6,1.79,7.21,2.85,10.77c0.95,3.16,1.74,6.35,2.31,9.59c0.05,0.31,0.13,0.63,0.12,0.94c-0.01,0.62-0.32,1.12-0.92,1.3
				c-2.14,0.62-4.29,1.2-6.43,1.79c-0.03,0.01-0.07,0.02-0.1,0.02c-1.93,0.29-2.69-0.21-3.1-2.1c-0.23-1.07-0.41-2.16-0.6-3.24
				c-1.04-5.82-2.13-11.63-3.11-17.46c-0.61-3.63-1-7.3-1.58-10.93c-1-6.26-2.1-12.5-3.12-18.75c-0.67-4.12-1.28-8.26-1.9-12.39
				c-0.58-3.82-1.12-7.64-1.7-11.45c-0.21-1.4-0.52-2.78-0.76-4.18c-0.23-1.32-0.95-2.17-2.29-2.46c-0.55-0.12-1.1-0.28-1.63-0.47
				c-0.63-0.23-1.27-0.46-1.85-0.78c-1.84-1-2.95-2.52-3.04-4.66c-0.08-1.77-0.12-3.54-0.12-5.3c0-7.36,0.02-14.72,0.03-22.08
				c0-0.59,0-1.14,0.58-1.48c0.82-0.49,1.71-0.3,2.15,0.61c0.34,0.69,0.58,1.46,0.69,2.21c0.24,1.57,0.39,3.16,0.52,4.75
				c0.34,4.2,0.64,8.4,0.96,12.6c0.02,0.32,0.06,0.64,0.15,0.94C13.74,31.16,13.88,31.23,14.86,31.19z"/>
		</g>
		<g>
			<path class="st3" d="M12.54,31.6c0.02-0.83,0.08-1.61,0.04-2.37c-0.08-1.59-0.19-3.18-0.32-4.77c-0.24-3-0.5-6-0.75-8.99
				c-0.12-1.38-0.26-2.75-0.33-4.13c-0.03-0.59,0.05-1.2,0.2-1.78c0.17-0.65,0.6-1.12,1.35-1.17c0.62-0.04,1.13,0.31,1.37,1.11
				c0.28,0.95,0.53,1.92,0.65,2.9c0.48,3.72,0.91,7.45,1.33,11.17c0.22,1.93,0.36,3.88,0.57,5.81c0.05,0.48,0.19,0.98,0.4,1.41
				c0.21,0.45,0.66,0.41,0.88-0.04c0.38-0.75,0.44-1.56,0.4-2.38c-0.05-0.99-0.11-1.98-0.22-2.96c-0.56-5.1-1.14-10.2-1.69-15.3
				c-0.06-0.55-0.04-1.13,0.06-1.68c0.13-0.69,0.65-1.09,1.32-1.22c0.65-0.12,1.23,0.13,1.57,0.67c0.35,0.56,0.65,1.18,0.82,1.82
				c0.51,1.95,0.95,3.92,1.4,5.89c0.79,3.52,1.63,7.03,2.33,10.57c0.6,3.02,1.08,6.06,1.53,9.11c0.31,2.06-0.35,3.84-1.82,5.32
				c-0.5,0.5-1,1-1.5,1.5c-0.87,0.88-1.23,1.95-1.22,3.18c0.03,2.42,0.43,4.78,0.99,7.13c0.82,3.44,1.6,6.89,2.36,10.35
				c0.87,3.98,1.64,7.98,2.53,11.95c1.26,5.59,2.6,11.17,3.87,16.76c0.53,2.35,0.94,4.72,1.44,7.08c0.33,1.56,0.68,3.11,1.08,4.65
				c0.93,3.6,1.79,7.21,2.85,10.77c0.95,3.16,1.74,6.35,2.31,9.59c0.05,0.31,0.13,0.63,0.12,0.94c-0.01,0.62-0.32,1.12-0.92,1.3
				c-2.14,0.62-4.29,1.2-6.43,1.79c-0.03,0.01-0.07,0.02-0.1,0.02c-1.93,0.29-2.69-0.21-3.1-2.1c-0.23-1.07-0.41-2.16-0.6-3.24
				c-1.04-5.82-2.13-11.63-3.11-17.46c-0.61-3.63-1-7.3-1.58-10.93c-1-6.26-2.1-12.5-3.12-18.75c-0.67-4.12-1.28-8.26-1.9-12.39
				c-0.58-3.82-1.12-7.64-1.7-11.45c-0.21-1.4-0.52-2.78-0.76-4.18c-0.23-1.32-0.95-2.17-2.29-2.46c-0.55-0.12-1.1-0.28-1.63-0.47
				c-0.63-0.23-1.27-0.46-1.85-0.78c-1.84-1-2.95-2.52-3.04-4.66c-0.08-1.77-0.12-3.54-0.12-5.3c0-7.36,0.02-14.72,0.03-22.08
				c0-0.59,0-1.14,0.58-1.48c0.82-0.49,1.71-0.3,2.15,0.61c0.34,0.69,0.58,1.46,0.69,2.21c0.24,1.57,0.39,3.16,0.52,4.75
				c0.34,4.2,0.64,8.4,0.96,12.6c0.02,0.32,0.06,0.64,0.15,0.94C11.42,31.57,11.56,31.64,12.54,31.6z M7.08,10.66
				c0.14,1.05,0.28,1.82,0.33,2.59c0.27,4.85,0.08,9.69,0.04,14.54c-0.03,3.29-0.08,6.58-0.05,9.87c0.02,2.87,1.17,4.34,3.9,5.25
				c0.23,0.08,0.47,0.14,0.71,0.22c0.51,0.15,1.01,0.32,1.52,0.46c1.43,0.39,2.29,1.33,2.66,2.76c0.1,0.38,0.21,0.75,0.27,1.14
				c0.67,4.05,1.35,8.1,2,12.15c1.1,6.89,2.17,13.78,3.27,20.67c0.81,5.07,1.65,10.13,2.45,15.2c0.57,3.6,1.07,7.22,1.67,10.81
				c0.97,5.72,2,11.44,3,17.15c0.13,0.73,0.31,1.45,0.44,2.19c0.1,0.52,0.42,0.71,0.91,0.68c0.28-0.02,0.57-0.03,0.84-0.1
				c1.41-0.35,2.81-0.72,4.21-1.09c0.37-0.1,0.73-0.26,1.09-0.4c0.36-0.15,0.56-0.42,0.52-0.83c-0.06-0.6-0.1-1.2-0.21-1.79
				c-0.61-3.2-1.56-6.32-2.45-9.45c-0.73-2.59-1.51-5.16-2.13-7.78c-0.98-4.17-1.83-8.37-2.78-12.54
				c-1.29-5.66-2.65-11.3-3.92-16.97C24.63,72.1,24,68.8,23.3,65.51c-0.79-3.7-1.52-7.42-2.43-11.1c-0.7-2.87-1.19-5.75-1.4-8.68
				c-0.13-1.87,0.41-3.49,1.75-4.82c0.43-0.42,0.86-0.85,1.29-1.27c1.37-1.33,1.93-2.93,1.59-4.82c-0.54-3.1-1.04-6.21-1.62-9.31
				c-0.98-5.22-2.16-10.39-3.52-15.52c-0.07-0.27-0.13-0.55-0.24-0.81c-0.15-0.35-0.3-0.76-0.79-0.73
				c-0.36,0.03-0.56,0.43-0.53,1.01c0.02,0.35,0.07,0.7,0.11,1.06c0.63,5.52,1.28,11.04,1.89,16.56c0.15,1.38,0.15,2.75-0.39,4.08
				c-0.27,0.66-0.68,1.03-1.41,1.09c-0.78,0.07-1.32-0.27-1.64-0.92c-0.23-0.47-0.38-1-0.44-1.51c-0.24-2.07-0.4-4.16-0.63-6.23
				c-0.42-3.8-0.85-7.6-1.29-11.39c-0.08-0.7-0.26-1.39-0.43-2.08c-0.06-0.24-0.24-0.45-0.42-0.77c-0.57,0.65-0.53,1.29-0.48,1.91
				c0.23,2.82,0.48,5.64,0.7,8.47c0.25,3.18,0.51,6.35,0.73,9.53c0.05,0.77,0.02,1.56-0.09,2.33c-0.11,0.78-0.62,1.2-1.35,1.28
				c-0.92,0.1-1.78-0.43-2.07-1.31c-0.12-0.37-0.18-0.76-0.22-1.14c-0.15-1.62-0.3-3.24-0.42-4.86c-0.23-3.07-0.39-6.15-0.66-9.21
				c-0.13-1.51-0.4-3.01-0.64-4.51c-0.05-0.3-0.19-0.62-0.37-0.87C7.79,10.8,7.5,10.8,7.08,10.66z"/>
		</g>
	</g>
	<g>
		<g>
			<path class="st4" d="M146.67,118.82c-0.87-0.12-1.75-0.23-2.62-0.38c-1-0.17-1.37-0.79-1.2-1.83c0.42-2.56,0.85-5.13,1.25-7.69
				c0.5-3.3,0.97-6.6,1.46-9.9c0.55-3.66,1.14-7.32,1.65-10.99c0.78-5.64,1.47-11.29,2.28-16.92c0.84-5.82,1.78-11.62,2.66-17.42
				c0.3-1.96,0.67-3.93,0.82-5.9c0.18-2.32-0.38-4.48-1.76-6.35c-0.69-0.94-1.36-1.9-2-2.88c-2.63-4.04-3.36-8.53-2.79-13.35
				c0.48-4.08,2.33-7.45,5.05-10.33c2.37-2.52,5.27-3.95,8.74-3.85c1.01,0.03,1.98,0.24,2.91,0.65c1.99,0.88,3.63,2.25,4.84,4.08
				c0.5,0.76,0.85,1.67,1.08,2.57c0.72,2.7,0.78,5.48,0.48,8.27c-0.27,2.53-0.63,5.05-1.59,7.43c-1.09,2.68-2.64,5.01-5.07,6.61
				c-1.42,0.94-2.27,2.32-2.79,3.93c-0.81,2.51-1.29,5.1-1.66,7.71c-0.38,2.63-0.76,5.27-1.08,7.91c-0.44,3.71-0.93,7.41-1.22,11.13
				c-0.36,4.57-0.58,9.15-0.77,13.73c-0.13,3.14-0.04,6.29-0.2,9.44c-0.31,5.92-0.72,11.84-1.14,17.76
				c-0.1,1.43-0.45,2.84-0.63,4.27c-0.3,2.45-2.18,3.22-4.04,2.92c-0.9-0.15-1.79-0.35-2.69-0.53
				C146.66,118.85,146.67,118.83,146.67,118.82z"/>
		</g>
		<g>
			<path class="st3" d="M144.82,119.83c-0.87-0.12-1.75-0.23-2.62-0.38c-1-0.17-1.37-0.79-1.2-1.83c0.42-2.56,0.85-5.13,1.25-7.69
				c0.5-3.3,0.97-6.6,1.46-9.9c0.55-3.66,1.14-7.32,1.65-10.99c0.78-5.64,1.47-11.29,2.28-16.92c0.84-5.82,1.78-11.62,2.66-17.42
				c0.3-1.96,0.67-3.93,0.82-5.9c0.18-2.32-0.38-4.48-1.76-6.35c-0.69-0.94-1.36-1.9-2-2.88c-2.63-4.04-3.36-8.53-2.79-13.35
				c0.48-4.08,2.33-7.45,5.05-10.33c2.37-2.52,5.27-3.95,8.74-3.85c1.01,0.03,1.98,0.24,2.91,0.65c1.99,0.88,3.63,2.25,4.84,4.08
				c0.5,0.76,0.85,1.67,1.08,2.57c0.72,2.7,0.78,5.48,0.48,8.27c-0.27,2.53-0.63,5.05-1.59,7.43c-1.09,2.68-2.64,5.01-5.07,6.61
				c-1.42,0.94-2.27,2.32-2.79,3.93c-0.81,2.51-1.29,5.1-1.66,7.71c-0.38,2.63-0.76,5.27-1.08,7.91c-0.44,3.71-0.93,7.41-1.22,11.13
				c-0.36,4.57-0.58,9.15-0.77,13.73c-0.13,3.14-0.04,6.29-0.2,9.44c-0.31,5.92-0.72,11.84-1.14,17.76
				c-0.1,1.43-0.45,2.84-0.63,4.27c-0.3,2.45-2.18,3.22-4.04,2.92c-0.9-0.15-1.79-0.35-2.69-0.53
				C144.82,119.86,144.82,119.85,144.82,119.83z M165.96,30.72c0.18-1.4,0.41-2.79,0.52-4.19c0.18-2.3,0.11-4.59-0.47-6.81
				c-0.21-0.81-0.52-1.64-0.97-2.32c-1.01-1.52-2.37-2.67-3.99-3.46c-1-0.49-2.06-0.68-3.17-0.69c-1.96-0.01-3.72,0.67-5.34,1.76
				c-2.69,1.8-4.51,4.39-5.73,7.36c-1.45,3.55-1.55,7.26-0.67,10.98c0.47,2,1.2,3.88,2.4,5.53c0.68,0.95,1.34,1.92,2.02,2.87
				c1.65,2.29,2.18,4.91,1.86,7.7c-0.3,2.67-0.81,5.32-1.22,7.98c-0.67,4.39-1.36,8.77-1.97,13.16c-0.51,3.67-0.88,7.35-1.39,11.02
				c-0.77,5.55-1.6,11.08-2.43,16.62c-0.65,4.39-1.3,8.78-2.02,13.15c-0.34,2.04-0.41,4.14-1.15,6.11c-0.19,0.51-0.08,0.58,0.5,0.67
				c1.6,0.26,3.19,0.53,4.79,0.78c0.35,0.05,0.7,0.1,1.05,0.07c0.96-0.08,1.38-0.47,1.55-1.45c0.24-1.32,0.5-2.65,0.63-3.99
				c0.22-2.16,0.39-4.32,0.52-6.49c0.26-4.12,0.54-8.24,0.7-12.36c0.23-5.77,0.08-11.54,0.57-17.31c0.32-3.81,0.54-7.63,0.95-11.42
				c0.49-4.47,1.12-8.92,1.74-13.38c0.35-2.51,0.83-5.02,1.63-7.43c0.67-2.03,1.76-3.75,3.58-4.89c0.95-0.59,1.71-1.41,2.41-2.3
				C164.57,35.85,165.47,33.39,165.96,30.72z"/>
			<path class="st3" d="M149.07,25.82c0.46-2.1,1.44-3.98,2.53-5.76c1.2-1.95,2.94-3.3,5.16-3.81c0.92-0.21,1.86-0.3,2.8-0.39
				c0.27-0.03,0.59,0.09,0.82,0.25c0.16,0.11,0.3,0.41,0.27,0.6c-0.03,0.19-0.27,0.38-0.46,0.48c-0.17,0.09-0.4,0.05-0.61,0.08
				c-0.96,0.18-1.93,0.3-2.87,0.55c-1.68,0.46-2.99,1.56-3.91,3.03c-0.96,1.54-1.86,3.16-2.24,4.99c-0.17,0.8-0.29,1.63-0.32,2.45
				c-0.04,1.04,0.05,2.07,0.05,3.11c0.01,1.46,0.49,2.77,1.22,3.95c0.64,1.04,1.44,1.98,2.25,2.9c0.63,0.71,1.06,0.69,1.88,0.2
				c3.31-1.96,5.12-5.03,6-8.74c0.17-0.7,0.11-1.46,0.17-2.19c0.03-0.41-0.05-0.97,0.48-1.06c0.59-0.1,0.55,0.5,0.65,0.89
				c0.38,1.51,0.02,2.98-0.42,4.41c-0.78,2.47-2.2,4.56-3.98,6.36c-0.77,0.78-1.78,1.32-2.74,1.85c-0.93,0.52-1.89,0.32-2.63-0.38
				c-2.3-2.15-4.03-4.65-4.23-8.01c-0.09-1.49-0.06-2.99-0.05-4.48C148.89,26.66,149.01,26.24,149.07,25.82z"/>
		</g>
	</g>
</g>
</svg>
