<svg xmlns="http://www.w3.org/2000/svg" viewBox="0 0 1707.05 1675.22">
    <defs>
        <style>
            .cls-1{fill:none;}
            .cls-2{fill:#ec186e;}
            .cls-3{fill:#4e4949;}
            .cls-4{fill:#e64628;}
            .cls-4{fill:#e64628;}
            .cls-5{fill:#e64627;}
            .cls-6{fill:#eb502b;}
            .cls-7{fill:#ed1a70;}
            .cls-8{fill:#ed1a6f;}
            .cls-9{fill:#ed1b70;}
            .cls-10{fill:#ea522d;}
            .cls-11{fill:#eb5532;}
            .cls-12{fill:#dd5b3c;}
            .cls-13{fill:#ed4e27;}
            .cls-14{fill:none;}
            .cls-15{fill:none;}
            .cls-16{fill:none;}
            .cls-17{fill:none;}
            .cls-18{fill:#f6a08f;}
            .cls-19{fill:#f6a190;}
            .cls-20{fill:#ec176a;}
            .cls-21{fill:#ec176c;}
            .cls-22{fill:#ec196d;}
            .cls-23{fill:#ec186d;}
            .cls-24{fill:#ec166c;}
            .cls-25{fill:#ec1a6d;}
        </style>
    </defs>
    <g id="Layer_2" data-name="Layer 2">
        <g id="Layer_1-2" data-name="Layer 1">
            <g id="_8chKvn.tif" data-name="8chKvn.tif">
                <path
                        class="cls-1"
                        d="M0,878.05V0H1707.05V1675.22H0V895.38c1.16.67,2.86,1.07,3.39,2.07,3.73,7.17,9.51,10.16,17.47,9.52,3.28-.26,6.6,0,9.49,0,7.66-8.11,16.18-14.33,16.29-27.11.08-9.09.14-17.69-5.58-25.7-5.92-8.29-12.26-9.32-21.6-6-8,2.9-10.85,9.17-13.63,15.87C3.9,868.71,4.44,874.41,0,878.05ZM713.44,473.68l2.88,2.89c11.46,15.29,26.07,26.63,43.33,34.66a64,64,0,0,0,0,7.2c1.16,10.14-2.25,18.37-10.24,24.6-3.94,3.07-7.82,6.6-12.33,8.48A290.77,290.77,0,0,0,699,570.78c-11.31,6.79-22.41,14.46-32,23.42-18.09,16.83-36.44,33.74-50.87,53.86-10,13.92-21.39,27-29,42.7-6.39,13.26-16,25.27-20.47,39.06-5.19,16.14-11.85,31.68-17.07,47.76-5.88,18.09-12.16,36.48-12,55.43.34,42-4.19,84.25,5.23,126,2.48,11,4.6,22,8.36,32.62,6.37,18,12.88,36,19.3,54,1.49,4.19,1.92,9.15,4.48,12.5,9.77,12.78,17.37,27.19,29.12,38.48a70.73,70.73,0,0,1,9.59,11.76c2.78,4.14,5.83,10.48,13.11,9.44,9,14.32,25.34,21,35.55,34.09,8.14.94,9.87,11.31,18,12.24,23.85,18.76,51.59,31,77.83,45.62,6.38,3.57,13.83,6.57,21.9,6.41,2.95-.05,5.88,2,8.92,2.66,3.6.74,7.76,0,10.9,1.55,13.33,6.44,28.06,6.64,42.09,9.76,7.79,1.73,16.4,1.17,24.43.08,8.77-1.19,16.3,3.63,24.81,3.24,10.56-.49,21.16-.12,31.74-.12,2.88,0,6.35,1,8.52-.27,7-4,15-3.19,22.32-5.37,10.34-3.06,21.08-4.78,31.44-7.78,13.27-3.83,26.42-8.15,39.49-12.63,14.74-5,30.13-9.58,42.81-18.28,13.49-9.25,27.93-16.34,42.17-23.93,8.21-4.38,17.32-7.08,25.54-11.44,17-9,29.65-23.71,44.22-35.84,13.83-11.52,22.11-27.81,30.65-43.44,5.1-9.34,8.89-19.39,13.43-29,12.69-27,28.35-52.63,37.49-81.13,4.68-14.58,10-29.25,9.89-45,0-1.85-.37-4.38.64-5.43,4.43-4.62,3.34-11,1.76-14.83-3.69-8.87-2-17.64-2.33-26.41-.37-11.7-5-23-3-34.88.08-.46.21-1.2,0-1.4-5.54-4.6-1.78-10.8-2.84-16.16s-2.18-10.71-2.86-16.12c-1.15-9.2-2-18.44-2.94-27.66-5.92-4.43-1.86-11.33-4.2-17-4.46-10.85-10.16-20.82-15.68-31.07-7.75-14.39-17.82-26.78-28.72-38.48-10.61-11.39-21.66-22.37-34.12-32.07-12.63-9.84-23.21-22.16-35.49-32.68a290.5,290.5,0,0,0-49.47-34.22c-14.42-7.92-29.65-14.36-44.29-21.9-2.51-1.29-4.48-3.25-7.54-2.72l-2.89-2.89h-2.89c-1-1.48-1.7-3.84-3.06-4.31-10.4-3.58-20.87-7-31.43-10.07-9.77-2.85-19.6-5.68-29.58-7.61-7.49-1.46-14.63-5.17-22.58-4-.34-.82-.56-2.29-1-2.37-14.15-2.55-23.18-10.13-25-25-5.89-3.43-1.83-10.19-5.18-15.28-2.87-4.36-.41-12.1-.63-18.33-.6-16.88,7.11-30.48,16.43-43.65a219.6,219.6,0,0,0,14.2-22.92c3.34-6.2-.07-11-7.05-11.12a11.32,11.32,0,0,0-7.67,2.54c-2.68,2-6.68,2.25-10.1,3.26V392.54c-10.32,3.2-19.63,5.84-28.78,9-19,6.52-35.85,16.43-49.21,31.73-6-6.57-9.66-14.66-14.25-22.1a61.73,61.73,0,0,1-8.23-19.54c-1.27-6.18-4.65-4.4-8-4.31-1.41,3.8-2.8,7.54-4.2,11.29-4.12-5-7.76-10.26-8.75-17-.59-4-2.91-6.68-7.48-5.85a114,114,0,0,0-6.92,47.54c.28,4.27,0,8.58,0,12.88L766.1,421.06c-4.88,2.41-7.19,4.95-6.45,9.3-1.93-1.77-4.65-3.2-5.61-5.39a19.55,19.55,0,0,0-8.85-9.43c-6.86,3.72-6.84,8.81-4.64,14.49,3.29,8.47,6.6,16.94,10.27,26.32H739.43c-10.23-3.66-16.58-13.29-27.25-17.73l-4.52,6.18c-6.51-3-10-8.85-14-15.67L687.55,435C693.17,451,698.91,465.41,713.44,473.68Zm586.38,810.1c11,9.11,21.15,18.94,32.68,26.63,15.31,10.21,29.41,21.92,43.92,33.07,14.3,11,29,21.34,42.76,33.19,11.41,9.86,25.1,17.06,36,27.81,1.51,1.49,4.08,1.86,5.85,3.17,4.18,3.1,7.77,2.64,10.89-1.38,2.81-3.61,5.43-7.37,8.19-11,7.45-9.86,14.92-19.7,22.67-29.93l-47-35.17c8.74-.3,16.86-3.33,25.18,1.09,5.44,2.89,11.56-1.7,17.43-2.52,11.71-1.63,32.59-9.48,41-16,14.2-10.86,26-24.17,37.44-37.71,1-1.12.13-3.74.13-5.65q-13.72-12.27-27.4-24.52c-2.38-2.13-4.63-4.4-6.87-6.53-39.82,35-40.68,35.59-51.47,34.13.66-5.93,1.76-11.78,1.86-17.66.11-7,.31-14.33-1.18-21.14-4.13-18.83-18.47-30.73-31.63-43.06a38.51,38.51,0,0,0-16.33-9c-12.92-3.2-25.42-9.07-39.81-3.57-8.43,3.22-17.47,5.93-24,11.52-10.82,9.31-22.86,17.15-31.12,29.86-10.3,15.84-23.54,29.76-35.29,44.68C1309.09,1270.15,1304.87,1276.66,1299.82,1283.78ZM245.61,1359.59c-2.86,17,3.4,34.07,12.75,49.1,11.16,17.91,27,32,44.55,44.31,14.58,10.21,31.36,13,47.84,17,10.16,2.42,20.36-1.46,30-4a107.56,107.56,0,0,0,41.51-21.36c17.44-14.71,33.14-31.38,42.06-53.12,3.64-8.87,7.45-17.62,6.57-27.63a91.31,91.31,0,0,1,0-15.86c.8-9.07-2.5-17-5.82-25-10.74-26.17-29.42-45.73-51.91-61.9-18.23-13.11-38.56-20.43-61.37-18.93-4.46.29-8.84,1.81-13.24,2.8-10.13,2.27-19.71,5.59-28.37,11.72-15.59,11-30,22.86-41.72,38.47C254.27,1314,244.25,1333.62,245.61,1359.59ZM1010.53,227.75c1.29-8.08,1.24-15.86,2.7-23.63,2.41-12.7.43-26,3.19-39.14,2.09-9.9-.71-20.35,2.84-30.59,1.94-5.58,1.15-12.52.13-18.6-1.16-6.94,3.08-12.49,3.21-19,.22-10.7-.13-21.25,2.26-32.1,2.56-11.64.15-24.11,3.07-36.27,2.07-8.62-1.06-10.93-9.79-11-7.22-.1-15.18,1.92-21.45-.51-8.05-3.11-15.34-1.69-23.7-2.41-.9,9.37-2.8,17.69-2.19,25.82.68,9.15-2.87,17.42-3.19,26.23-.31,8.51,1,17.58-1.48,25.39-2.87,8.9,1,17.87-2.94,27.66-8-9.47-15.4-18.48-23.14-27.15C930,81.1,918.94,70.82,909.16,59.14c-16.45-19.66-35-37.57-52.26-55.78H836c-1.46,6.84-3.48,13-4,19.28-.89,11.63.21,23.22-2.67,34.94-2.39,9.77.64,20.33-2.91,30.56-1.94,5.58-1.16,12.52-.13,18.6,1.18,7-3,12.49-3.22,19-.63,18.84-1.81,37.66-2.77,56.5-.08,1.41.34,3.11-.29,4.19-5.22,8.9-1.62,18.12-2.32,27.42,18.89-1.74,36.34,6.28,54.38,1.7,1-6.31,2.53-12.56,3-18.9.52-7.17-1.94-15.29.67-21.38,2.88-6.72,1.56-12.89,2.28-19.24.77-6.85-.28-13.58,2.49-20.61,2.24-5.72.45-13,.45-21.72,11.92,13.16,22.93,23.85,33,35.67,18.22,21.33,38.39,41,57.82,61.28,5.65,5.9,11.54,11.58,17,17.07ZM936.05,1547.49c-.72-1.69-2.42-4.41-3-7.34-.6-3.26.88-7.13-.31-10-5.87-14.17-4.17-29.65-8.21-44.18-2.68-9.64-2.71-20-4.1-31.46-20,4.85-40.15,5.67-60.37,10.76,5.66,8.55,3.07,18.14,5.93,26.93,1.73,5.3,2.07,11.59,3.15,17.45,1.17,6.27-.83,13.09,3.12,19-.45,15.85,5.6,30.82,6.29,46.66.28,6.61.45,14.4,3,20.21,2.32,5.31.56,10.42,2.52,14.84,2.38,5.38,2.69,10.66,2.67,16.22,0,2.37-.38,4.93.37,7.06,3.4,9.58,4.27,19.58,5.31,29.53.81,7.8,4.82,11.86,12,8.82,4.62-2,8.86-2,13.39-2.58,4.94-.63,9.85-2.83,14.68-2.59,7.63.39,13.86-3.21,20.44-4.12-3.76-23.31-7.35-45.59-10.9-67.57l77.61-12.19c-1.16,11.64,2.64,21.51,3.51,31.73s3.18,20.6,5.27,30.83c.55,2.67,3.16,4.92,3.92,6l54.28-9.16c-1.14-12.14-.68-25-3.91-36.91-4-14.59-3.25-29.8-7.91-44.26-1.74-5.39-1.35-11.63-2.91-17.54-1.6-6.08.88-13.06-3.2-18.92.49-15.86-6.53-30.79-5.81-46.68a9.82,9.82,0,0,0-.57-4.08c-3.49-8.58-3.85-17.81-4.94-26.75-1.37-11.24-1-11.66-12.69-11.71-2.4,0-5.38-.91-7.11.17-5.18,3.24-10.92,1.71-16.17,3-5.86,1.41-11.49,2.9-17.63,2.76-5.28-.12-9.48,5.13-7,9.37,2.4,4.07,2.14,7.88,2.67,12s2.2,7.83,2.72,11.82c1.2,9.19,1.84,18.46,3,27.65.52,4,2.22,7.82,2.71,11.81.56,4.54-.45,9,2.72,13.43,1.43,2-.1,6.08-.23,8.26Zm-332.37,26.93c0,5.3.21,9.62,0,13.91-.5,8.07,3,15.25,6.28,21.92,5.34,11,26.21,28.31,38,32.49,17,6,34.75,9.75,52.65,12.16,6.9.92,13.66-1.1,20.51-2.36a138.48,138.48,0,0,0,19.51-5.29c16.14-5.46,28.92-17.69,35.92-36.7,5.8-15.74,4-30.75-4.24-46-7.82-14.4-19.7-23.51-32.62-32.11-14.27-9.51-29.86-16.88-43.49-27.49-5.11-4-6.12-8.57-5.74-14.07.25-3.56,5.91-9.4,9.38-9.05,9,.91,18.06,2.28,25.63,7.63,9,6.39,12.52,15.72,11.12,26.88h24.13c8.65,0,17.31-.1,26,.05,4.6.07,7.32-2.23,7.6-6.44,1-14.56-1.9-28.79-10.75-40.14-18.08-23.2-43.53-32.62-72.19-34.28-7.19-.41-14.46.37-21.63-.18a37.87,37.87,0,0,0-18.92,3.19c-11.7,5.43-23.21,10.51-31.23,22.4a83.73,83.73,0,0,0-12.15,28.17c-1.79,7.69-1,16.45,1.14,25.07,5.09,20.82,20.79,32.78,35.56,45.2,8.77,7.37,20.08,11.68,30.05,17.68a135.85,135.85,0,0,1,16.77,11.64c2.49,2.06,4.17,5.5,5.32,8.65,1.21,3.31-2,8.23-5.37,8.47-17.53,1.23-33.08-3.85-44.56-17.3-3.74-4.37-4.26-11.5-6.22-17.3-9.36,0-18.58.78-27.61-.21C622.79,1570,614.14,1574.2,603.68,1574.42ZM287.94,504.09c2.53-4.8,4.49-8.79,6.72-12.63,1.37-2.36,3.57-4.28,4.69-6.72,7.48-16.37,17.07-32.11,15.54-51.25a81.4,81.4,0,0,1,0-13c.63-8.11-2.38-15.44-6-22-13.12-23.79-48.09-52.6-82.41-49.35-9.35.88-18.25,2.52-26.09,6.81-16,8.73-28.06,22.08-38.56,36.72-7.11,9.92-13.79,20.17-20.22,30.54-7.09,11.43-13.84,23.06-20.41,34.8-4.18,7.46-3.89,8,1.69,12.83a19.9,19.9,0,0,0,4.59,2.81c11,5.16,21,12.37,30.95,19,19.56,13,39.73,25.18,59.48,37.87,22.29,14.33,45.17,27.83,67.47,42.23,6,3.88,11.42,2.62,15.05-3.4q10.44-17.32,21.15-34.49c3.05-4.89,2.6-8.77-2.24-11.87s-10.05-5.9-15-8.9C298.93,510.89,293.62,507.58,287.94,504.09ZM653.36,204.61c-2.2-6.7-4.5-13-6.28-19.41-1.23-4.45,1-7,6.4-9,12.15-4.51,25-6.52,37.11-11.41,7.74-3.14,11.81-7,7.88-12.59-3.44-4.84-.49-10-4.14-14.44-2.83-3.47-2.42-9.43-4.15-14-.86-2.31-3.27-4-4.35-5.28l-56.1,18.69c.22-16.19-10.82-28.85-8.51-43.69l72.16-22.92c-.81-15.29-9.9-28.93-12.72-45.41C657.53,30.24,636.25,39.91,614,46.05s-43.86,13.89-66.39,21.8l63.2,197.87c3.51,0,7.84,1.21,11-.19,18.44-8.2,38.37-11.65,57.23-18.53,20.52-7.48,41.62-13.39,62.63-20,.77-12.15-.79-18.09-12.13-45.25-18.38,1.49-34.5,11.78-52.62,14.9C669.1,198,661.73,201.68,653.36,204.61Zm817.83,752.76c-2.87,11.41-4.85,20.63-7.53,29.65-3.3,11.1-6.28,22.43-11,32.92-4.85,10.67-7.36,22-10.89,33-2.73,8.49-5.51,16.95-8.46,25.38-2.74,7.87-.68,10.27,8.34,13.57,18.85,6.89,38,12.83,57.18,18.71,37,11.34,73.7,24,110.53,36.07,7.11,2.33,14.33,4.3,21.86,6.53,7-23,15.41-44.12,21.24-66.19,5.89-22.3,15.8-43.48,20.84-66.8-16.36-3.76-30-13.08-46-12.11-7.65,24.6-15.06,48.44-22.57,72.61-7.05-1.22-13.85-2.2-20.55-3.64-2.8-.6-5.55-6.78-4-9.69,6.29-12.08,7.75-25.67,12.47-38.14,1.66-4.38,1.57-7.83,1.24-12.2-11-2.44-20.7-8.49-32.35-9.25-8.11-.53-7.91-1.64-10.37,5.7-5.24,15.56-10.64,31.07-16.08,46.92l-38.52-12.29c-.09-5.92.12-10.83,2.21-16.47,4.17-11.24,7.16-22.91,11.7-34.12,2.13-5.27,3.35-11,5.41-16.51,3.15-8.39.5-11.65-8.42-13.48-4.78-1-9.36-2.93-14.08-4.25C1486.31,961.3,1479.31,959.52,1471.19,957.37Zm-295.64,413.81c.6,3.36-.73,7.34,2.58,11.4,1.88,2.31.34,7.42.34,11.27,0,4.33-1.5,9.48.33,12.81,3.24,5.93,2,11.82,2.62,17.74s2.26,11.69,2.75,17.58c1.2,14.5,2,29,3,43.54,0,.48-.19,1.1,0,1.43,4,5.89,3.26,12.61,2.71,19-.58,6.73,2.06,12.69,3,19,1.09,7.76-2,16,3,23.33-2,13.76,3.08,27,2.9,40.66,0,3.68,0,7.35,0,12.23,4-1.33,6.7-1.93,9.11-3,11.41-5.26,21.06-13.55,32.73-18.56,7.18-3.08,9.52-11.2,6-19.36a18.54,18.54,0,0,1-1.19-10.3c7.69-4.76,14.12-8.82,20.64-12.75,11.93-7.19,24.09-14,35.81-21.53,10.21-6.56,15.09-7.31,24.58.1,5.24,4.1,9.35,4.57,15,1.1,8.36-5.17,17.21-9.54,25.75-14.42,4.84-2.77,9.48-5.89,14.66-9.13-13.23-9.15-25.29-17.83-37.67-26-27.18-18-54.57-35.55-81.77-53.46-20.44-13.46-40.45-27.6-61.2-40.56C1194,1368.87,1186.23,1360.9,1175.55,1371.18ZM1458.64,360.72c0-2.41-.39-4,.06-5.23,7-19.22,13.71-38.55,21.38-57.5,3.2-7.9,2-14.65-2.7-20.52-11-13.91-22.74-27.28-34.82-41.65-4,10.88-5.81,21.93-10.48,31.06-7.22,14.1-10.76,29.29-16.23,43.79-5.62,14.92-11.65,29.89-15.43,45.64-1.88,7.86-4.09,17.82-12.78,21.69-3.78,1.68-5.89,4.4-8.79,6.58-7.36,5.53-14.71,11.1-21.83,16.93-8.66,7.11-17.27,14.3-25.54,21.86-4.36,4-3.83,6.94.55,11.82,2.8,3.13,5.5,6.36,8.18,9.59,7.37,8.85,14.72,17.73,21.78,26.24,8.69-2.06,12.8-8.86,18.77-13,15.58-11,29.75-23.61,44.15-36,4.48-3.84,10-4.68,14.91-5.72,7.58-1.61,15.46-.75,23.37-2.82,7.37-1.93,15.43-1.35,23.28-3,11.81-2.41,24.13-2.31,36.23-3.26,1-.07,2.23.39,2.84-.07,6.34-4.76,14-1,20.39-3.13,7.36-2.44,14.57-2.44,22-2.62,2.14-.05,4.26-.46,7.95-.89-13.43-16.73-25.81-32.15-39.13-48.72-3.59.94-8.27,2.75-13.1,3.29-5.7.62-12.64-1.87-17.05.58-8,4.45-16.18.08-23.48,2.7C1475.31,361.19,1467.69,361.25,1458.64,360.72ZM242.07,1091.35c-9.39,3.87-19.62,7.24-29.06,12.12-21.4,11-43.45,20.56-65.5,30.16-16.68,7.26-32.89,15.59-50.11,23.83,3.73,9,7,18.28,11.38,27,4.5,9,6.94,19.31,14.54,26,15.62-7.16,30.13-14,44.77-20.48,19.51-8.69,38.68-18.08,58.46-26.21,14.76-6.08,28.84-13.82,43.25-20.84l26.06,56,42.21-19.1c-.16-2.32.36-4.58-.5-6-6.9-11.54-12-23.87-17.11-36.25-4.77-11.49-11-22.32-15.75-33.91-7.8-18.91-17.54-37-26.16-55.6A112.72,112.72,0,0,1,274,1037c-2.82-8.32-7.82-15.91-12-24l-42.48,20.49c6.19,13.28,12.86,27.33,19.28,41.5C241,1079.92,244.13,1084.76,242.07,1091.35Zm1093-942.08c-18.9-10-37.13-19.44-55.22-29.16q-34.86-18.72-69.54-37.77c-7.49-4.1-15.42-7.23-22.27-12.75-3.47-2.79-9.26-2.72-13.09-3.7-6.3,11.39-11.77,21.64-17.61,31.68-3,5.1-2.75,9.21,2.14,11.87,9.4,5.12,19,9.82,28.53,14.77,6.59,3.45,13.12,7,20.35,10.91-13.14,21.1-23.2,43.09-35.47,63.94-11.53,19.6-21.35,40.22-32,60.35-2.1,4-4.38,7.84-6.78,11.63-3.07,4.83-2.44,9.07,2.4,11.86,3.46,2,7.31,3.3,10.83,5.19,11.73,6.29,23.38,12.7,34.68,18.86,4.58-7.83,8.43-14.39,12.27-21,6.56-11.2,11.79-23.07,18.48-34.29,11.85-19.88,21.23-41.23,32.26-61.63,4.84-8.94,9.68-18.08,16.19-26,16.28,8.64,31.63,16.88,47.08,24.91,2.27,1.18,5,1.36,7.87,2.08C1321.35,176,1331.19,163.82,1335.07,149.27ZM358.92,178c-13,9.59-25.41,18.16-37.15,27.58-9.37,7.52-9,9.05-1.59,17.94,2,2.4,3.23,5.46,5.18,7.92,11.49,14.5,23.78,28.43,34.48,43.49,14.37,20.25,30.07,39.44,44.82,59.36,9.74,13.18,20.73,25.51,28.85,39.9,2.8,4.95,5.85,5.44,11.78,2.16a118.45,118.45,0,0,0,14.78-9.57c14.28-10.93,28.33-22.16,42.56-33.16,5.78-4.48,12.07-8.34,17.62-13.08C527.93,314,537.62,309.7,543.7,300q-11.46-14.53-23-29.13c-5.07-6.42-5.14-6.49-10.86-2.27-17,12.5-33.86,25.06-51.78,38.33-16.45-21.43-32.82-42.93-49.39-64.29S377.22,198.62,358.92,178ZM486.68,808.73c-6.37,6.73-14.13,11.73-19.39,19.34-5.68,8.21-12.89,15.19-16.86,24.77-6,14.37-1.69,27.19,12.15,32.86,8.1,3.32,18.71,4.42,26,.85,11.36-5.59,20.46-13,23.16-27.09,1.32-6.88.16-14.6,3.05-20.22,3-5.84,2.09-11.08,2.06-16.43,0-10.1-4.55-14-14.48-14.07C497.08,808.69,491.81,808.73,486.68,808.73Zm1055.73-90.85c-23-29.61-61.35-31.56-80.76-14.77.56,5.81-1.63,12,2.59,18.29,5.55,8.32,11.82,16,20.92,19.64,11.83,4.76,24.1,8.8,37.42,7.13,8.41-1.06,19.06-10.94,19.78-19.56C1542.64,725.28,1542.41,721.9,1542.41,717.88Zm-179.08,67.37c7,5.72,14.3,12.3,22.2,18.08a41.32,41.32,0,0,0,28.25,8.26c7.65-.62,15-8.28,16-15.86,1.77-13.66-2.24-24.57-13.12-33.6-8.11-6.74-18.15-7.65-27.32-10.66-4.77-1.57-11.32,1.85-16.93,3.48s-8.47,6.27-9,11.78C1362.91,772.45,1363.33,778.25,1363.33,785.25ZM278.76,852.05c1.34-1.34,2.78-2.63,4-4.09,3.22-3.75,4.31-11.66,2.23-15.61-9.87-18.83-37-31.88-57.93-26.14-8.38,2.3-17.41,5.48-23.23,13.66-6.07,8.54-6.23,11.81.95,19,2.73,2.71,5.27,4.54,9.65,4.83,5.84.39,12.42,1.29,17.32,3.27,6.25,2.51,12.86-.2,17.61,2.59,6.55,3.85,12.88,1.67,19.24,2.45C271.94,852.39,275.35,852.05,278.76,852.05ZM428.19,808c-12.25,1.16-25.27,2.09-38.18,3.8a24.51,24.51,0,0,0-12.18,5C366.47,826.44,358.52,838,361,851.19l11.2,12.22c14.34,1.83,26.92-2.84,38.24-11.38,10.44-7.88,19.54-17,24.78-29.3,1.39-3.27,2-6.16-1.07-8.85C432.33,812.3,430.72,810.51,428.19,808Zm-27.06-64.91c-2.29-1.86-4.85-5.4-8.14-6.31-6.59-1.81-13.55-2.28-20.39-3-1.08-.11-2.24,1.51-3.49,1.89-12.92,3.88-19.3,14.06-25.61,25-4.26,7.39-3,14.46-1.32,21.53.37,1.6-.07,7.54,5.39,6.38,5.3,7.65,13.34,5.38,20.7,5.83a16.65,16.65,0,0,0,14.6-6.31C392.67,775,404.39,762.39,401.13,743.08ZM1404.84,667.7c-4.83,3.37-6.14,8.5-7.27,15.08-2.67,15.68-4,19.43.59,30.79,2.45,6.14,5.61,11.48,12.91,14.89,18.37,8.55,39.26-5.66,38.92-23.46-.07-3.74,0-7.48,0-10.36-5.6-5.6-10.72-10.06-15-15.19C1427.09,670.13,1417.84,664.9,1404.84,667.7ZM202.2,870.82c-.2-14.62-.2-14.62-16.28-30.7-5.67.41-12.55-.79-17.72,1.64-12.22,5.74-24,12.06-31.75,24.7-3.45,5.66-4.76,11.17-3.09,15.75,1.77,4.85,8,7.22,13.84,7.34,8.65.19,17.33.41,26-.07,6.89-.38,13.42-2.32,18.35-7.91C194.69,878,198.28,874.74,202.2,870.82Zm1094.58-73.4c4.42-2.31,8-4.1,11.55-6,6.27-3.45,14.1-18.56,11.3-24.36-1.5-3.12-1.83-6-2.66-9-2.61-9.71-5.59-19.35-14.29-25.82-7.49-5.56-13.65-5.66-20.66.65-2.29,2.05-3.82,5.07-5.3,7.85-4.87,9.15-3.39,27.47,2,40C1282.33,789,1288.84,793.39,1296.78,797.42Zm343.28-26.24c2.67,0,7.53,1.48,10-.32,4.93-3.51,10-1.52,14.82-2.72s9.41-3,14.68-2.95c4.38.07,9-1.22,13.16-2.78,8.92-3.33,12-16.41,5.43-21.74-13.83-11.19-26.44-11.85-44.19-4.95-9.27,3.6-15.22,10.28-21.83,16.4C1630.94,759.75,1631.64,766.55,1640.06,771.18Zm-1221.24-5v12l10.07,10.23c8.59-1.06,16.09,4.39,24.87,3.16,8.33-1.17,17-.25,25.18-.25,2.14-3.67,4.1-6.24,5.24-9.13,4.33-11,.11-20.27-11-24.51a15.4,15.4,0,0,0-5.34-1c-7.39,0-14.66,1.44-21.9,2.25C436.68,760.07,428.35,762.87,418.82,766.21Zm1032.24-12.36c-2.15,2.64-6.24,5.36-6.55,8.44-1.12,11.42,3.91,21.18,10.78,30a5.54,5.54,0,0,0,3.47,1.92c3.67.34,7,.36,10.59,2.57,2.08,1.27,6.85-1.09,10.06-2.57,8.07-3.72,15-8.83,18.5-17.5,3.29-8.14-.14-18.39-7.16-19.86a156.23,156.23,0,0,0-20.43-2.89C1464.1,753.48,1457.82,753.85,1451.06,753.85ZM300.42,857.25c3.58,2.45,7.56,5.51,11.88,8,1.85,1.06,4.76,1.8,6.57,1.09,4.53-1.76,10.66-3.41,12.54-7,2.78-5.28,7.43-10.33,6.65-17.38-.58-5.2.05-10.53-.15-15.79-.38-9.62-7.74-16.73-17.2-17.48-8.94-.72-14.78,4.21-20.29,10.14Zm1047.3-138.77c-7.92-6.74-17.2-14-25.69-22-7.16-6.8-14.47-11.4-24.58-8.15l-6.27,6.26v15.07c8.39,7.3,17,15.25,26.15,22.52,3.39,2.69,7.58,4.88,12.53,4.43,3.81-.35,7.67-.07,11.51-.07C1346.3,732.57,1350.79,728.4,1347.72,718.48ZM312.14,788.81c-2.88-6.52-6.22-15.22-10.57-23.38-1.85-3.46-5.19-7.17-10.36-5.77-5.45,1.48-9.65,5.47-10.73,10.45a46.62,46.62,0,0,0,0,18.53c.81,4.1,4.27,7.82,7,11.37,3.11,4.07,14.31,7.79,17.43,5.43C309.38,802.05,311.84,797.09,312.14,788.81Z"/><path class="cls-2" d="M0,878.05c4.44-3.64,3.9-9.34,5.83-14,2.78-6.7,5.59-13,13.63-15.87,9.34-3.37,15.68-2.34,21.6,6,5.72,8,5.66,16.61,5.58,25.7-.11,12.78-8.63,19-16.29,27.11-2.89,0-6.21-.22-9.49,0-8,.64-13.74-2.35-17.47-9.52-.53-1-2.23-1.4-3.39-2.07Z"/><path class="cls-3" d="M759.65,430.36c-.74-4.35,1.57-6.89,6.45-9.3l19.55,15.08c4,8.76,12.76,11.48,19.68,17.39.56-7.58-.34-14.22,1.84-19.63,2.31-5.75,1.09-11.12,1.48-16.61.44-6.21.1-12.47.1-18.7,1.4-3.75,2.79-7.49,4.2-11.29,3.33-.09,6.71-1.87,8,4.31a61.73,61.73,0,0,0,8.23,19.54c4.59,7.44,8.29,15.53,14.25,22.1-1,5.39,2,9.65,4,14,5.94,2.38,8.92-1.95,11.91-5.43a91.5,91.5,0,0,1,43.12-28.08c5.69-1.74,10.59-4.7,16.09-6.48,1-1,1.93-1.92,2.89-2.89,3.42-1,7.42-1.25,10.1-3.26a11.32,11.32,0,0,1,7.67-2.54c7,.16,10.39,4.92,7.05,11.12A219.6,219.6,0,0,1,932,432.6c-9.32,13.17-17,26.77-16.43,43.65.22,6.23-2.24,14,.63,18.33,3.35,5.09-.71,11.85,5.18,15.28,1.78,14.87,10.81,22.45,25,25,.48.08.7,1.55,1,2.37,7.29,8,18,9,27.23,11.07,16,3.64,31.81,8.27,47.74,12.28,3.87,1,7.47,3,11.68,2.64h2.89l2.89,2.89c3.06-.53,5,1.43,7.54,2.72,14.64,7.54,29.87,14,44.29,21.9A290.5,290.5,0,0,1,1141.13,625c12.28,10.52,22.86,22.84,35.49,32.68,12.46,9.7,23.51,20.68,34.12,32.07,10.9,11.7,21,24.09,28.72,38.48,5.52,10.25,11.22,20.22,15.68,31.07,2.34,5.68-1.72,12.58,4.2,17,1,9.22,1.79,18.46,2.94,27.66.68,5.41,1.8,10.76,2.86,16.12s-2.7,11.56,2.84,16.16c.23.2.1.94,0,1.4-2,11.88,2.63,23.18,3,34.88.28,8.77-1.36,17.54,2.33,26.41,1.58,3.79,2.67,10.21-1.76,14.83-1,1-.66,3.58-.64,5.43.15,15.75-5.21,30.42-9.89,45-9.14,28.5-24.8,54.16-37.49,81.13-4.54,9.66-8.33,19.71-13.43,29-8.54,15.63-16.82,31.92-30.65,43.44-14.57,12.13-27.21,26.82-44.22,35.84-8.22,4.36-17.33,7.06-25.54,11.44-14.24,7.59-28.68,14.68-42.17,23.93-12.68,8.7-28.07,13.24-42.81,18.28-13.07,4.48-26.22,8.8-39.49,12.63-10.36,3-21.1,4.72-31.44,7.78-7.35,2.18-15.31,1.34-22.32,5.37-2.17,1.25-5.64.26-8.52.27-10.58,0-21.18-.37-31.74.12-8.51.39-16-4.43-24.81-3.24-8,1.09-16.64,1.65-24.43-.08-14-3.12-28.76-3.32-42.09-9.76-3.14-1.52-7.3-.81-10.9-1.55-3-.63-6-2.71-8.92-2.66-8.07.16-15.52-2.84-21.9-6.41-26.24-14.66-54-26.86-77.83-45.62-8.14-.93-9.87-11.3-18-12.24-10.21-13.08-26.54-19.77-35.55-34.09-.34-1.79-.15-4-1.12-5.28-2.22-3-5.56-5.33-7.45-8.52-12.12-20.38-26.23-39.72-34.26-62.32-6.57-18.51-13.89-36.8-17.82-56.15-6.14-5.19.39-14.11-5.71-19.3-1.95-12.67-3.95-25.33-5.8-38-.34-2.36-1-5.45.12-7.1,4.45-6.55,2.54-13.7,2.64-20.58.25-18.28.17-36.58,0-54.87-.07-9.83,2.55-19.39,3.63-29a106,106,0,0,1,6.2-24.65c3.16-8.45,4.38-17.38,7.57-25.74,4.91-12.89,8.66-26.35,15.87-38.17,9.65-15.83,20-31.23,30.34-46.65,13.62-20.38,27.71-40.42,45.1-57.86,7.13-7.16,13.94-14.7,21.53-21.35,9.74-8.54,19.37-17.65,30.43-24.17,12.8-7.56,26-14.45,37.88-23.45,3.31-2.5,7.29-4.53,9.67-7.74a50.77,50.77,0,0,0,8.12-15.32c.87-2.9-1.5-6.84-2.59-10.25-1.8-5.63-4.51-10.33-11.53-10-17.26-8-31.87-19.37-43.33-34.66l-2.88-2.89c-.31-2.71.37-6.28-1.11-8-5.41-6.3-4.69-13.6-4.67-20.89l4.52-6.18c10.67,4.44,17,14.07,27.25,17.73,11.11,6.66,11.91,6.79,27.07,4.12C758.23,451.57,759.55,440.85,759.65,430.36Zm135.76,0c-2.74.33-6-.18-8.11,1.15a100.82,100.82,0,0,0-14.1,11.06c-6.93,6.47-13.47,13.36-19.43,19.31-7.24.77-11.65.29-14-7.25-2.39-7.85-7.1-15.21-15.42-16.46.22-2.8.39-5.15.57-7.49-5.05.38-4.72-3-4.72-6.44,0-1.64-.71-3.28-1.1-4.93-1.72,10.74-1.36,21.21-1.81,31.64-.58,13.23-10.93,18.27-21.79,10.88-1.94-1.32-3.35-3.41-5.13-5-2.68-2.41-13.33-8.28-17.61-9.13h1.29a7.71,7.71,0,0,0-.87-2.19c-.14-.18-1.14.3-1.75.48a4.47,4.47,0,0,0,2.62,1.71c-.42,5.61,4,10.06,3.12,16.13-1.13,7.92-2,9.7-10.16,9.84a166.14,166.14,0,0,1-17.29-.09c-5.41-.45-10.74-1.81-23.25-6.15,2.09,2.27,2.67,3.34,3.1,3.28a23,23,0,0,0,4-1.25c-1.74-.5-3.48-1,0,1.34,1.64,9.9,9.47,16,16.76,19.73,12.79,6.46,22.94,15.31,32.35,25.18,0,7.11-.32,13.86.1,20.57a17,17,0,0,1-4.72,12.42c-8.82,9.73-17.66,19.83-29.52,26-17.86,9.25-33.92,20.82-50,32.91-16.5,12.43-28.22,28.78-42.34,43.11-.88,8.17-11.37,9.82-12.23,18-13.94,20.68-28.11,41.2-41.72,62.09-7.07,10.85-12.68,23-15.49,35.31-3.81,16.69-13.08,32.1-12.11,49.9-5.46,4.58-1.82,10.77-2.81,16.14-1.08,5.83-2.65,11.68-2.78,17.55-.38,16.83-.45,33.67,0,50.49s-1,33.81,2.36,50.83c2.3,11.56,5.32,22.87,8.09,34.27,3.9,16.07,11.91,30.66,17.22,46.23,2.58,7.58,4.08,15.6,8.25,22.55,9,15,18.25,30,27.5,44.87,5.93,9.56,13.09,17.79,23.16,23.48,4,2.28,8.43,6,10,10.14,3.9,10.16,13.37,14.34,20.88,19.5a696,696,0,0,0,76.28,45.48A58.07,58.07,0,0,0,786,1204a64.87,64.87,0,0,1,18.7,4c7.06,2.55,14.4,4.72,21.43,7.36,8.82,3.32,19.17,2.87,28.89,3.35s19.23.11,28.85.11a11.08,11.08,0,0,0,0,1.38c10,1,19.71,4.83,29.9,4.27,4-.21,8-3.06,11.75-2.5,7.36,1.11,14-1.71,20.3-3.66,6.54-2,13.3-2.54,19.79-4.11,10.94-2.64,21.34-6.66,32-9.82,28.76-8.49,53.07-17.67,69.82-29.59a207.61,207.61,0,0,1,30.13-18c10.82-5.22,20.43-12.57,32.21-16.27,9.13-2.87,15.94-10.44,23.73-16,18.66-13.3,32.11-30.42,42.1-50.36,10.34-20.64,19-42.11,29.15-62.86,10.76-22,19.45-44.81,28-67.69,2.66-7.09,5.63-14.41,6.27-21.82,1-11.92.66-24,.18-36s-1.82-24.19-2.78-36.28c0-.48.21-1.18,0-1.41-4.93-4.69-2-10.75-2.88-16.13s-2.28-10.7-2.8-16.11c-1.19-12.56-2-25.15-3-37.72-.07-.94.27-2.13-.18-2.8-4.19-6.24-3.14-14-6.13-20.53s-7.07-12.44-10-18.94c-2.16-4.85-4.83-8.77-9.71-11-2.28-6.24-6.55-11-11.13-15.64s-7.93-10.31-12.4-15c-7.82-8.14-16.7-15.2-25-22.8-17.35-15.9-34.44-32.08-53-46.53-8.58-6.67-17.31-13.72-27.08-18.15-19.44-8.8-37.62-20.3-58.11-26.87-10.15-3.25-19.78-8.52-30.11-10.73-15.42-3.29-30.64-7.2-45.61-12-15.26-4.85-29.89-11.08-40.59-24-2.67-3.22-3.5-8.45-8.88-9.27-.21,0,0-2.7,0-4.14-1.65-6-4.4-11.91-4.73-18a319.41,319.41,0,0,1,.13-39.26,39.59,39.59,0,0,1,5.92-17.4c5.25-8.47,12-16,17.83-24.12,1-1.31.74-3.47,2.75-7.9l-1.68,1.37,1.28,1.29a12.62,12.62,0,0,0,1.29-1.74c.05-.11-.56-.58-2.57,1.74-11.92.2-21.52,6.78-31.78,11.55Z"/><path class="cls-4" d="M1299.82,1283.78c5-7.12,9.27-13.63,14-19.7,11.75-14.92,25-28.84,35.29-44.68,8.26-12.71,20.3-20.55,31.12-29.86,6.49-5.59,15.53-8.3,24-11.52,14.39-5.5,26.89.37,39.81,3.57a38.51,38.51,0,0,1,16.33,9c13.16,12.33,27.5,24.23,31.63,43.06,1.49,6.81,1.29,14.09,1.18,21.14-.1,5.88-1.2,11.73-1.86,17.66,10.79,1.46,11.65.9,51.47-34.13,2.24,2.13,4.49,4.4,6.87,6.53q13.66,12.28,27.4,24.52c0,1.91.82,4.53-.13,5.65-11.48,13.54-23.24,26.85-37.44,37.71-8.46,6.47-29.34,14.32-41,16-5.87.82-12,5.41-17.43,2.52-8.32-4.42-16.44-1.39-25.18-1.09l47,35.17c-7.75,10.23-15.22,20.07-22.67,29.93-2.76,3.66-5.38,7.42-8.19,11-3.12,4-6.71,4.48-10.89,1.38-1.77-1.31-4.34-1.68-5.85-3.17-10.92-10.75-24.61-18-36-27.81-13.71-11.85-28.46-22.21-42.76-33.19-14.51-11.15-28.61-22.86-43.92-33.07C1321,1302.72,1310.85,1292.89,1299.82,1283.78Zm119.09,18.07c6-7.65,11.51-13,14.82-19.45,4.25-8.31,10.3-16.44,5-27.37-3.3-6.79-8-10.49-14.09-14.09-9-5.37-21.73-7.39-28.15-1.39-8.36,7.82-18.47,14.64-22.19,28Z"/><path class="cls-4" d="M245.61,1359.59c-1.36-26,8.66-45.62,22.85-64.53,11.71-15.61,26.13-27.43,41.72-38.47,8.66-6.13,18.24-9.45,28.37-11.72,4.4-1,8.78-2.51,13.24-2.8,22.81-1.5,43.14,5.82,61.37,18.93,22.49,16.17,41.17,35.73,51.91,61.9,3.32,8.07,6.62,16,5.82,25a91.31,91.31,0,0,0,0,15.86c.88,10-2.93,18.76-6.57,27.63-8.92,21.74-24.62,38.41-42.06,53.12a107.56,107.56,0,0,1-41.51,21.36c-9.64,2.58-19.84,6.46-30,4-16.48-3.92-33.26-6.75-47.84-17-17.52-12.27-33.39-26.4-44.55-44.31C249,1393.66,242.75,1376.54,245.61,1359.59Zm98.62,52.68c8.86.35,15.72-.54,22.81-4.07,18.74-9.33,32.23-24.34,42.7-41.28,10.94-17.69,7.9-35.09-6.71-49.75-2.72-2.73-5.28-5.64-8.19-8.13-13.24-11.35-30.7-12.83-43.87-6.09a99.37,99.37,0,0,0-46.7,49.27c-3.84,8.67-6.59,18.56-3.21,27,5.13,12.87,14.21,23.27,26.75,30.78C334.09,1413.76,339.88,1410.77,344.23,1412.27Z"/><path class="cls-4" d="M1010.53,227.75H988.85c-5.49-5.49-11.38-11.17-17-17.07-19.43-20.29-39.6-40-57.82-61.28-10.11-11.82-21.12-22.51-33-35.67,0,8.7,1.79,16-.45,21.72-2.77,7-1.72,13.76-2.49,20.61-.72,6.35.6,12.52-2.28,19.24-2.61,6.09-.15,14.21-.67,21.38-.46,6.34-2,12.59-3,18.9-18,4.58-35.49-3.44-54.38-1.7.7-9.3-2.9-18.52,2.32-27.42.63-1.08.21-2.78.29-4.19,1-18.84,2.14-37.66,2.77-56.5.22-6.54,4.4-12.08,3.22-19-1-6.08-1.81-13,.13-18.6,3.55-10.23.52-20.79,2.91-30.56,2.88-11.72,1.78-23.31,2.67-34.94.48-6.28,2.5-12.44,4-19.28H856.9c17.26,18.21,35.81,36.12,52.26,55.78,9.78,11.68,20.82,22,30.89,33.24,7.74,8.67,15.1,17.68,23.14,27.15,3.91-9.79.07-18.76,2.94-27.66,2.52-7.81,1.17-16.88,1.48-25.39.32-8.81,3.87-17.08,3.19-26.23-.61-8.13,1.29-16.45,2.19-25.82,8.36.72,15.65-.7,23.7,2.41,6.27,2.43,14.23.41,21.45.51,8.73.12,11.86,2.43,9.79,11-2.92,12.16-.51,24.63-3.07,36.27-2.39,10.85-2,21.4-2.26,32.1-.13,6.53-4.37,12.08-3.21,19,1,6.08,1.81,13-.13,18.6-3.55,10.24-.75,20.69-2.84,30.59-2.76,13.1-.78,26.44-3.19,39.14C1011.77,211.89,1011.82,219.67,1010.53,227.75Z"/><path class="cls-4" d="M936.05,1547.49l74.39-11.8c.13-2.18,1.66-6.29.23-8.26-3.17-4.38-2.16-8.89-2.72-13.43-.49-4-2.19-7.82-2.71-11.81-1.2-9.19-1.84-18.46-3-27.65-.52-4-2.19-7.83-2.72-11.82s-.27-7.89-2.67-12c-2.5-4.24,1.7-9.49,7-9.37,6.14.14,11.77-1.35,17.63-2.76,5.25-1.26,11,.27,16.17-3,1.73-1.08,4.71-.18,7.11-.17,11.72,0,11.32.47,12.69,11.71,1.09,8.94,1.45,18.17,4.94,26.75a9.82,9.82,0,0,1,.57,4.08c-.72,15.89,6.3,30.82,5.81,46.68,4.08,5.86,1.6,12.84,3.2,18.92,1.56,5.91,1.17,12.15,2.91,17.54,4.66,14.46,4,29.67,7.91,44.26,3.23,11.89,2.77,24.77,3.91,36.91l-54.28,9.16c-.76-1.12-3.37-3.37-3.92-6-2.09-10.23-4.42-20.67-5.27-30.83s-4.67-20.09-3.51-31.73l-77.61,12.19c3.55,22,7.14,44.26,10.9,67.57-6.58.91-12.81,4.51-20.44,4.12-4.83-.24-9.74,2-14.68,2.59-4.53.57-8.77.62-13.39,2.58-7.18,3-11.19-1-12-8.82-1-10-1.91-20-5.31-29.53-.75-2.13-.38-4.69-.37-7.06,0-5.56-.29-10.84-2.67-16.22-2-4.42-.2-9.53-2.52-14.84-2.53-5.81-2.7-13.6-3-20.21-.69-15.84-6.74-30.81-6.29-46.66-3.95-5.88-1.95-12.7-3.12-19-1.08-5.86-1.42-12.15-3.15-17.45-2.86-8.79-.27-18.38-5.93-26.93,20.22-5.09,40.38-5.91,60.37-10.76,1.39,11.44,1.42,21.82,4.1,31.46,4,14.53,2.34,30,8.21,44.18,1.19,2.88-.29,6.75.31,10C933.63,1543.08,935.33,1545.8,936.05,1547.49Z"/><path class="cls-4" d="M603.68,1574.42c10.46-.22,19.11-4.45,28.75-3.39,9,1,18.25.21,27.61.21,2,5.8,2.48,12.93,6.22,17.3,11.48,13.45,27,18.53,44.56,17.3,3.34-.24,6.58-5.16,5.37-8.47-1.15-3.15-2.83-6.59-5.32-8.65a135.85,135.85,0,0,0-16.77-11.64c-10-6-21.28-10.31-30.05-17.68-14.77-12.42-30.47-24.38-35.56-45.2-2.11-8.62-2.93-17.38-1.14-25.07A83.73,83.73,0,0,1,639.5,1461c8-11.89,19.53-17,31.23-22.4a37.87,37.87,0,0,1,18.92-3.19c7.17.55,14.44-.23,21.63.18,28.66,1.66,54.11,11.08,72.19,34.28,8.85,11.35,11.75,25.58,10.75,40.14-.28,4.21-3,6.51-7.6,6.44-8.65-.15-17.31-.05-26-.05H736.53c1.4-11.16-2.09-20.49-11.12-26.88-7.57-5.35-16.67-6.72-25.63-7.63-3.47-.35-9.13,5.49-9.38,9.05-.38,5.5.63,10.1,5.74,14.07,13.63,10.61,29.22,18,43.49,27.49,12.92,8.6,24.8,17.71,32.62,32.11,8.27,15.23,10,30.24,4.24,46-7,19-19.78,31.24-35.92,36.7a138.48,138.48,0,0,1-19.51,5.29c-6.85,1.26-13.61,3.28-20.51,2.36-17.9-2.41-35.61-6.11-52.65-12.16-11.78-4.18-32.65-21.49-38-32.49-3.24-6.67-6.78-13.85-6.28-21.92C603.89,1584,603.68,1579.72,603.68,1574.42Z"/><path class="cls-5" d="M287.94,504.09c5.68,3.49,11,6.8,16.35,10,5,3,10.13,5.77,15,8.9s5.29,7,2.24,11.87Q310.85,552,300.42,569.37c-3.63,6-9,7.28-15.05,3.4-22.3-14.4-45.18-27.9-67.47-42.23-19.75-12.69-39.92-24.83-59.48-37.87-10-6.64-19.92-13.85-30.95-19a19.9,19.9,0,0,1-4.59-2.81c-5.58-4.79-5.87-5.37-1.69-12.83,6.57-11.74,13.32-23.37,20.41-34.8,6.43-10.37,13.11-20.62,20.22-30.54,10.5-14.64,22.6-28,38.56-36.72,7.84-4.29,16.74-5.93,26.09-6.81,34.32-3.25,69.29,25.56,82.41,49.35,3.64,6.58,6.65,13.91,6,22a81.4,81.4,0,0,0,0,13c1.53,19.14-8.06,34.88-15.54,51.25-1.12,2.44-3.32,4.36-4.69,6.72C292.43,495.3,290.47,499.29,287.94,504.09ZM188.3,441c15.88,14.36,36.3,22.17,53.18,35.34,1.27,1,6.5-.42,7.35-2,3.53-6.75,8.81-12.21,11.49-19.79,4.81-13.62,1.58-23.87-8.12-33.57-4.41-4.41-9.77-6.6-15.09-9-16-7.34-24.09-4.66-35.74,8.74A90.65,90.65,0,0,0,188.3,441Z"/><path class="cls-4" d="M653.36,204.61c8.37-2.93,15.74-6.65,23.52-8,18.12-3.12,34.24-13.41,52.62-14.9,11.34,27.16,12.9,33.1,12.13,45.25-21,6.64-42.11,12.55-62.63,20-18.86,6.88-38.79,10.33-57.23,18.53-3.17,1.4-7.5.19-11,.19L547.56,67.85c22.53-7.91,44.13-15.67,66.39-21.8s43.58-15.81,66.71-20.95c2.82,16.48,11.91,30.12,12.72,45.41L621.22,93.43c-2.31,14.84,8.73,27.5,8.51,43.69l56.1-18.69c1.08,1.25,3.49,3,4.35,5.28,1.73,4.59,1.32,10.55,4.15,14,3.65,4.48.7,9.6,4.14,14.44,3.93,5.55-.14,9.45-7.88,12.59-12.07,4.89-25,6.9-37.11,11.41-5.4,2-7.63,4.58-6.4,9C648.86,191.63,651.16,197.91,653.36,204.61Z"/><path class="cls-4" d="M1471.19,957.37c8.12,2.15,15.12,3.93,22.08,5.88,4.72,1.32,9.3,3.27,14.08,4.25,8.92,1.83,11.57,5.09,8.42,13.48-2.06,5.48-3.28,11.24-5.41,16.51-4.54,11.21-7.53,22.88-11.7,34.12-2.09,5.64-2.3,10.55-2.21,16.47l38.52,12.29c5.44-15.85,10.84-31.36,16.08-46.92,2.46-7.34,2.26-6.23,10.37-5.7,11.65.76,21.36,6.81,32.35,9.25.33,4.37.42,7.82-1.24,12.2-4.72,12.47-6.18,26.06-12.47,38.14-1.52,2.91,1.23,9.09,4,9.69,6.7,1.44,13.5,2.42,20.55,3.64,7.51-24.17,14.92-48,22.57-72.61,16.1-1,29.69,8.35,46,12.11-5,23.32-15,44.5-20.84,66.8-5.83,22.07-14.23,43.19-21.24,66.19-7.53-2.23-14.75-4.2-21.86-6.53-36.83-12.05-73.48-24.73-110.53-36.07-19.2-5.88-38.33-11.82-57.18-18.71-9-3.3-11.08-5.7-8.34-13.57,3-8.43,5.73-16.89,8.46-25.38,3.53-11,6-22.29,10.89-33,4.76-10.49,7.74-21.82,11-32.92C1466.34,978,1468.32,968.78,1471.19,957.37Z"/><path class="cls-4" d="M1175.55,1371.18c10.68-10.28,18.49-2.31,25.55,2.11,20.75,13,40.76,27.1,61.2,40.56,27.2,17.91,54.59,35.51,81.77,53.46,12.38,8.18,24.44,16.86,37.67,26-5.18,3.24-9.82,6.36-14.66,9.13-8.54,4.88-17.39,9.25-25.75,14.42-5.62,3.47-9.73,3-15-1.1-9.49-7.41-14.37-6.66-24.58-.1-11.72,7.52-23.88,14.34-35.81,21.53-6.52,3.93-13,8-20.64,12.75a18.54,18.54,0,0,0,1.19,10.3c3.53,8.16,1.19,16.28-6,19.36-11.67,5-21.32,13.3-32.73,18.56-2.41,1.12-5.06,1.72-9.11,3,0-4.88,0-8.55,0-12.23.18-13.63-4.87-26.9-2.9-40.66-5-7.29-1.89-15.57-3-23.33-.89-6.34-3.53-12.3-3-19,.55-6.41,1.31-13.13-2.71-19-.22-.33,0-1,0-1.43-1-14.51-1.76-29-3-43.54-.49-5.89-2.08-11.69-2.75-17.58s.62-11.81-2.62-17.74c-1.83-3.33-.33-8.48-.33-12.81,0-3.85,1.54-9-.34-11.27C1174.82,1378.52,1176.15,1374.54,1175.55,1371.18Zm97.64,111.24c-12.49-12.14-26-18.68-40.24-29.08,1.32,10.16,2.84,17.67,3.16,25.23.51,11.83.17,11.84,5.41,23.63Z"/><path class="cls-4" d="M1458.64,360.72c9,.53,16.67.47,24.46-2.32,7.3-2.62,15.47,1.75,23.48-2.7,4.41-2.45,11.35,0,17.05-.58,4.83-.54,9.51-2.35,13.1-3.29,13.32,16.57,25.7,32,39.13,48.72-3.69.43-5.81.84-7.95.89-7.41.18-14.62.18-22,2.62-6.37,2.13-14-1.63-20.39,3.13-.61.46-1.88,0-2.84.07-12.1.95-24.42.85-36.23,3.26-7.85,1.6-15.91,1-23.28,3-7.91,2.07-15.79,1.21-23.37,2.82-4.93,1-10.43,1.88-14.91,5.72-14.4,12.35-28.57,25-44.15,36-6,4.19-10.08,11-18.77,13-7.06-8.51-14.41-17.39-21.78-26.24-2.68-3.23-5.38-6.46-8.18-9.59-4.38-4.88-4.91-7.83-.55-11.82,8.27-7.56,16.88-14.75,25.54-21.86,7.12-5.83,14.47-11.4,21.83-16.93,2.9-2.18,5-4.9,8.79-6.58,8.69-3.87,10.9-13.83,12.78-21.69,3.78-15.75,9.81-30.72,15.43-45.64,5.47-14.5,9-29.69,16.23-43.79,4.67-9.13,6.46-20.18,10.48-31.06,12.08,14.37,23.79,27.74,34.82,41.65,4.66,5.87,5.9,12.62,2.7,20.52-7.67,18.95-14.38,38.28-21.38,57.5C1458.25,356.74,1458.64,358.31,1458.64,360.72Z"/><path class="cls-4" d="M242.07,1091.35c2.06-6.59-1.06-11.43-3.29-16.33-6.42-14.17-13.09-28.22-19.28-41.5L262,1013c4.2,8.05,9.2,15.64,12,24a112.72,112.72,0,0,0,4.55,11.13c8.62,18.59,18.36,36.69,26.16,55.6,4.78,11.59,11,22.42,15.75,33.91,5.13,12.38,10.21,24.71,17.11,36.25.86,1.45.34,3.71.5,6L295.86,1199l-26.06-56c-14.41,7-28.49,14.76-43.25,20.84-19.78,8.13-39,17.52-58.46,26.21-14.64,6.51-29.15,13.32-44.77,20.48-7.6-6.72-10-17.07-14.54-26-4.38-8.73-7.65-18-11.38-27,17.22-8.24,33.43-16.57,50.11-23.83,22.05-9.6,44.1-19.11,65.5-30.16C222.45,1098.59,232.68,1095.22,242.07,1091.35Z"/><path class="cls-4" d="M1335.07,149.27c-3.88,14.55-13.72,26.73-18.89,41.75-2.82-.72-5.6-.9-7.87-2.08-15.45-8-30.8-16.27-47.08-24.91-6.51,8-11.35,17.1-16.19,26-11,20.4-20.41,41.75-32.26,61.63-6.69,11.22-11.92,23.09-18.48,34.29-3.84,6.57-7.69,13.13-12.27,21-11.3-6.16-23-12.57-34.68-18.86-3.52-1.89-7.37-3.2-10.83-5.19-4.84-2.79-5.47-7-2.4-11.86,2.4-3.79,4.68-7.67,6.78-11.63,10.64-20.13,20.46-40.75,32-60.35,12.27-20.85,22.33-42.84,35.47-63.94-7.23-3.88-13.76-7.46-20.35-10.91-9.5-4.95-19.13-9.65-28.53-14.77-4.89-2.66-5.11-6.77-2.14-11.87,5.84-10,11.31-20.29,17.61-31.68,3.83,1,9.62.91,13.09,3.7,6.85,5.52,14.78,8.65,22.27,12.75q34.7,19,69.54,37.77C1297.94,129.83,1316.17,139.3,1335.07,149.27Z"/><path class="cls-4" d="M358.92,178c18.3,20.64,33.2,43.3,49.76,64.65s32.94,42.86,49.39,64.29c17.92-13.27,34.82-25.83,51.78-38.33,5.72-4.22,5.79-4.15,10.86,2.27q11.52,14.56,23,29.13c-6.08,9.71-15.77,14-23.45,20.53-5.55,4.74-11.84,8.6-17.62,13.08-14.23,11-28.28,22.23-42.56,33.16a118.45,118.45,0,0,1-14.78,9.57c-5.93,3.28-9,2.79-11.78-2.16-8.12-14.39-19.11-26.72-28.85-39.9-14.75-19.92-30.45-39.11-44.82-59.36-10.7-15.06-23-29-34.48-43.49-1.95-2.46-3.17-5.52-5.18-7.92-7.43-8.89-7.78-10.42,1.59-17.94C333.51,196.14,345.92,187.57,358.92,178Z"/><path class="cls-6" d="M759.65,511.23c7-.32,9.73,4.38,11.53,10,1.09,3.41,3.46,7.35,2.59,10.25a50.77,50.77,0,0,1-8.12,15.32c-2.38,3.21-6.36,5.24-9.67,7.74-11.9,9-25.08,15.89-37.88,23.45-11.06,6.52-20.69,15.63-30.43,24.17-7.59,6.65-14.4,14.19-21.53,21.35C648.75,641,634.66,661,621,681.38,610.73,696.8,600.35,712.2,590.7,728c-7.21,11.82-11,25.28-15.87,38.17-3.19,8.36-4.41,17.29-7.57,25.74a106,106,0,0,0-6.2,24.65c-1.08,9.66-3.7,19.22-3.63,29,.12,18.29.2,36.59,0,54.87-.1,6.88,1.81,14-2.64,20.58-1.12,1.65-.46,4.74-.12,7.1,1.85,12.69,3.85,25.35,5.8,38,6.1,5.19-.43,14.11,5.71,19.3,3.93,19.35,11.25,37.64,17.82,56.15,8,22.6,22.14,41.94,34.26,62.32,1.89,3.19,5.23,5.48,7.45,8.52,1,1.33.78,3.49,1.12,5.28-7.28,1-10.33-5.3-13.11-9.44a70.73,70.73,0,0,0-9.59-11.76c-11.75-11.29-19.35-25.7-29.12-38.48-2.56-3.35-3-8.31-4.48-12.5-6.42-18-12.93-36-19.3-54C547.42,981,545.3,970,542.82,959c-9.42-41.72-4.89-84-5.23-126-.15-19,6.13-37.34,12-55.43,5.22-16.08,11.88-31.62,17.07-47.76,4.43-13.79,14.08-25.8,20.47-39.06,7.56-15.72,19-28.78,29-42.7,14.43-20.12,32.78-37,50.87-53.86,9.64-9,20.74-16.63,32-23.42a290.77,290.77,0,0,1,38.11-19.27c4.51-1.88,8.39-5.41,12.33-8.48,8-6.23,11.4-14.46,10.24-24.6A64,64,0,0,1,759.65,511.23Z"/><path class="cls-2" d="M486.68,808.73c5.13,0,10.4,0,15.66,0,9.93.09,14.45,4,14.48,14.07,0,5.35.94,10.59-2.06,16.43-2.89,5.62-1.73,13.34-3.05,20.22-2.7,14.1-11.8,21.5-23.16,27.09-7.26,3.57-17.87,2.47-26-.85-13.84-5.67-18.12-18.49-12.15-32.86,4-9.58,11.18-16.56,16.86-24.77C472.55,820.46,480.31,815.46,486.68,808.73Z"/><path class="cls-2" d="M1542.41,717.88c0,4,.23,7.4-.05,10.73-.72,8.62-11.37,18.5-19.78,19.56-13.32,1.67-25.59-2.37-37.42-7.13-9.1-3.67-15.37-11.32-20.92-19.64-4.22-6.32-2-12.48-2.59-18.29C1481.06,686.32,1519.44,688.27,1542.41,717.88Z"/><path class="cls-2" d="M1363.33,785.25c0-7-.42-12.8.11-18.52.52-5.51,3.29-10.13,9-11.78s12.16-5.05,16.93-3.48c9.17,3,19.21,3.92,27.32,10.66,10.88,9,14.89,19.94,13.12,33.6-1,7.58-8.37,15.24-16,15.86a41.32,41.32,0,0,1-28.25-8.26C1377.63,797.55,1370.3,791,1363.33,785.25Z"/><path class="cls-7" d="M278.76,852.05c-3.41,0-6.82.34-10.13-.07-6.36-.78-12.69,1.4-19.24-2.45-4.75-2.79-11.36-.08-17.61-2.59-4.9-2-11.48-2.88-17.32-3.27-4.38-.29-6.92-2.12-9.65-4.83-7.18-7.16-7-10.43-.95-19,5.82-8.18,14.85-11.36,23.23-13.66,20.94-5.74,48.06,7.31,57.93,26.14,2.08,3.95,1,11.86-2.23,15.61C281.54,849.42,280.1,850.71,278.76,852.05Z"/><path class="cls-8" d="M428.19,808c2.53,2.52,4.14,4.31,5.93,5.89,3,2.69,2.46,5.58,1.07,8.85-5.24,12.34-14.34,21.42-24.78,29.3-11.32,8.54-23.9,13.21-38.24,11.38L361,851.19c-2.45-13.22,5.5-24.75,16.86-34.39a24.51,24.51,0,0,1,12.18-5C402.92,810.08,415.94,809.15,428.19,808Z"/><path class="cls-2" d="M401.13,743.08c3.26,19.31-8.46,31.87-18.26,44.95a16.65,16.65,0,0,1-14.6,6.31c-7.36-.45-15.4,1.82-20.7-5.83-5.46,1.16-5-4.78-5.39-6.38-1.64-7.07-2.94-14.14,1.32-21.53,6.31-10.91,12.69-21.09,25.61-25,1.25-.38,2.41-2,3.49-1.89,6.84.75,13.8,1.22,20.39,3C396.28,737.68,398.84,741.22,401.13,743.08Z"/><path class="cls-8" d="M1404.84,667.7c13-2.8,22.25,2.43,30.1,11.75,4.32,5.13,9.44,9.59,15,15.19,0,2.88-.06,6.62,0,10.36.34,17.8-20.55,32-38.92,23.46-7.3-3.41-10.46-8.75-12.91-14.89-4.55-11.36-3.26-15.11-.59-30.79C1398.7,676.2,1400,671.07,1404.84,667.7Z"/><path class="cls-2" d="M202.2,870.82c-3.92,3.92-7.51,7.16-10.68,10.75-4.93,5.59-11.46,7.53-18.35,7.91-8.64.48-17.32.26-26,.07-5.81-.12-12.07-2.49-13.84-7.34-1.67-4.58-.36-10.09,3.09-15.75,7.72-12.64,19.53-19,31.75-24.7,5.17-2.43,12.05-1.23,17.72-1.64C202,856.2,202,856.2,202.2,870.82Z"/><path class="cls-8" d="M1296.78,797.42c-7.94-4-14.45-8.44-18-16.75-5.41-12.55-6.89-30.87-2-40,1.48-2.78,3-5.8,5.3-7.85,7-6.31,13.17-6.21,20.66-.65,8.7,6.47,11.68,16.11,14.29,25.82.83,3.06,1.16,5.93,2.66,9,2.8,5.8-5,20.91-11.3,24.36C1304.81,793.32,1301.2,795.11,1296.78,797.42Z"/><path class="cls-9" d="M1640.06,771.18c-8.42-4.63-9.12-11.43-7.88-19.06,6.61-6.12,12.56-12.8,21.83-16.4,17.75-6.9,30.36-6.24,44.19,4.95,6.58,5.33,3.49,18.41-5.43,21.74-4.18,1.56-8.78,2.85-13.16,2.78-5.27-.08-9.81,1.74-14.68,2.95s-9.89-.79-14.82,2.72C1647.59,772.66,1642.73,771.18,1640.06,771.18Z"/><path class="cls-7" d="M418.82,766.21c9.53-3.34,17.86-6.14,27.15-7.18,7.24-.81,14.51-2.28,21.9-2.25a15.4,15.4,0,0,1,5.34,1c11.08,4.24,15.3,13.54,11,24.51-1.14,2.89-3.1,5.46-5.24,9.13-8.22,0-16.85-.92-25.18.25-8.78,1.23-16.28-4.22-24.87-3.16l-10.07-10.23Z"/><path class="cls-7" d="M1451.06,753.85c6.76,0,13-.37,19.26.1a156.23,156.23,0,0,1,20.43,2.89c7,1.47,10.45,11.72,7.16,19.86-3.51,8.67-10.43,13.78-18.5,17.5-3.21,1.48-8,3.84-10.06,2.57-3.59-2.21-6.92-2.23-10.59-2.57a5.54,5.54,0,0,1-3.47-1.92c-6.87-8.81-11.9-18.57-10.78-30C1444.82,759.21,1448.91,756.49,1451.06,753.85Z"/><path class="cls-9" d="M300.42,857.25V818.81c5.51-5.93,11.35-10.86,20.29-10.14,9.46.75,16.82,7.86,17.2,17.48.2,5.26-.43,10.59.15,15.79.78,7-3.87,12.1-6.65,17.38-1.88,3.58-8,5.23-12.54,7-1.81.71-4.72,0-6.57-1.09C308,862.76,304,859.7,300.42,857.25Z"/><path class="cls-9" d="M1347.72,718.48c3.07,9.92-1.42,14.09-6.35,18-3.84,0-7.7-.28-11.51.07-4.95.45-9.14-1.74-12.53-4.43-9.15-7.27-17.76-15.22-26.15-22.52V694.57l6.27-6.26c10.11-3.25,17.42,1.35,24.58,8.15C1330.52,704.51,1339.8,711.74,1347.72,718.48Z"/><path class="cls-10" d="M918.51,407.25c-5.5,1.78-10.4,4.74-16.09,6.48a91.5,91.5,0,0,0-43.12,28.08c-3,3.48-6,7.81-11.91,5.43-2-4.34-5-8.6-4-14,13.36-15.3,30.23-25.21,49.21-31.73,9.15-3.14,18.46-5.78,28.78-9v11.82C920.44,405.33,919.48,406.29,918.51,407.25Z"/><path class="cls-10" d="M808.75,398.59c0,6.23.34,12.49-.1,18.7-.39,5.49.83,10.86-1.48,16.61-2.18,5.41-1.28,12.05-1.84,19.63-6.92-5.91-15.68-8.63-19.68-17.39,0-4.3.23-8.61,0-12.88a114,114,0,0,1,6.92-47.54c4.57-.83,6.89,1.87,7.48,5.85C801,388.33,804.63,393.54,808.75,398.59Z"/><path class="cls-9" d="M312.14,788.81c-.3,8.28-2.76,13.24-7.25,16.63-3.12,2.36-14.32-1.36-17.43-5.43-2.71-3.55-6.17-7.27-7-11.37a46.62,46.62,0,0,1,0-18.53c1.08-5,5.28-9,10.73-10.45,5.17-1.4,8.51,2.31,10.36,5.77C305.92,773.59,309.26,782.29,312.14,788.81Z"/><path class="cls-11" d="M759.65,430.36c-.1,10.49-1.42,21.21,6.85,30.11-15.16,2.67-16,2.54-27.07-4.12h11.39c-3.67-9.38-7-17.85-10.27-26.32-2.2-5.68-2.22-10.77,4.64-14.49A19.55,19.55,0,0,1,754,425C755,427.16,757.72,428.59,759.65,430.36Z"/><path class="cls-11" d="M707.66,444.8c0,7.29-.74,14.59,4.67,20.89,1.48,1.71.8,5.28,1.11,8-14.53-8.27-20.27-22.7-25.89-38.69l6.12-5.86C697.62,436,701.15,441.81,707.66,444.8Z"/><path class="cls-12" d="M1034.05,563.22c-4.21.4-7.81-1.66-11.68-2.64-15.93-4-31.7-8.64-47.74-12.28-9.26-2.1-19.94-3.11-27.23-11.07,8-1.17,15.09,2.54,22.58,4,10,1.93,19.81,4.76,29.58,7.61,10.56,3.07,21,6.49,31.43,10.07C1032.35,559.38,1033.05,561.74,1034.05,563.22Z"/><path class="cls-12" d="M1039.83,566.11l-2.89-2.89Z"/><path class="cls-11" d="M713.44,473.68l2.88,2.89Z"/><path class="cls-13" d="M909.85,519.9c0,1.44-.19,4.11,0,4.14,5.38.82,6.21,6.05,8.88,9.27,10.7,12.93,25.33,19.16,40.59,24,15,4.76,30.19,8.67,45.61,12,10.33,2.21,20,7.48,30.11,10.73,20.49,6.57,38.67,18.07,58.11,26.87,9.77,4.43,18.5,11.48,27.08,18.15,18.59,14.45,35.68,30.63,53,46.53,8.29,7.6,17.17,14.66,25,22.8,4.47,4.66,7.89,10.34,12.4,15s8.85,9.4,11.13,15.64a4,4,0,0,0-1.43,0c-.41.17-1,.85-1,1,6.31,10.74,11.31,22.08,13.85,34.27,1.59,7.64,0,16.64,3.54,23,4.13,7.46-.25,15.61,4.9,22.67,2.33,3.2-.52,9.93,1.56,13.61,3,5.28,1.65,10.32,1.38,15.21s3.2,8.58,3.21,13.24c0,13.6.13,27.07,2.56,40.67,3.25,18.16-3.93,35.8-5.82,53.76-.91,8.63-5,17.06-8.44,25.24-4.14,9.85-7.53,20.07-11.86,29.68-6.93,15.4-13.25,31.28-23.59,45.09-6.64,8.87-13.28,17.66-20.31,26.24-7.44,9.08-14.57,18.1-23.26,26.24-15.6,14.62-33.68,25.7-50.71,38.23-9.39,6.9-18.47,14.37-29.31,19.54-22.49,10.73-44.56,22-68.41,29.91-22,7.25-43,17-65.71,22.52-17.15,4.15-34.31,7.83-51.64,11-2.57.47-5,1.85-7.47,2.82-9.62,0-19.25.37-28.85-.11s-20.07,0-28.89-3.35c-7-2.64-14.37-4.81-21.43-7.36a64.87,64.87,0,0,0-18.7-4,58.07,58.07,0,0,1-23.13-6.51,696,696,0,0,1-76.28-45.48c-7.51-5.16-17-9.34-20.88-19.5-1.58-4.11-6-7.86-10-10.14-10.07-5.69-17.23-13.92-23.16-23.48C623.27,1084,614,1069.1,605,1054.06c-4.17-7-5.67-15-8.25-22.55-5.31-15.57-13.32-30.16-17.22-46.23-2.77-11.4-5.79-22.71-8.09-34.27-3.39-17-2-33.9-2.36-50.83s-.33-33.66,0-50.49c.13-5.87,1.7-11.72,2.78-17.55,1-5.37-2.65-11.56,2.81-16.14-1-17.8,8.3-33.21,12.11-49.9,2.81-12.3,8.42-24.46,15.49-35.31,13.61-20.89,27.78-41.41,41.72-62.09.86-8.19,11.35-9.84,12.23-18,14.12-14.33,25.84-30.68,42.34-43.11,16.07-12.09,32.13-23.66,50-32.91,11.86-6.15,20.7-16.25,29.52-26a17,17,0,0,0,4.72-12.42c-.42-6.71-.1-13.46-.1-20.57-9.41-9.87-19.56-18.72-32.35-25.18-7.29-3.68-15.12-9.83-16.76-19.73,5.37,1,10.7,2.33,16.11,2.78a166.14,166.14,0,0,0,17.29.09c8.12-.14,9-1.92,10.16-9.84.87-6.07-3.54-10.52-3.12-16.13,3,.85,13.64,6.72,16.32,9.13,1.78,1.6,3.19,3.69,5.13,5,10.86,7.39,21.21,2.35,21.79-10.88.45-10.43.09-20.9,1.81-31.64.39,1.65,1.1,3.29,1.1,4.93,0,3.43-.33,6.82,4.72,6.44-.18,2.34-.35,4.69-.57,7.49,8.32,1.25,13,8.61,15.42,16.46,2.31,7.54,6.72,8,14,7.25,6-5.95,12.5-12.84,19.43-19.31a100.82,100.82,0,0,1,14.1-11.06c2.1-1.33,5.37-.82,8.11-1.15.56,5.88-5.1,9.5-5.66,14.73C888.48,457,886,468.75,886.44,481c.32,9.86,3.32,18.41,7.15,27.09C896.78,515.27,901.89,519.42,909.85,519.9Zm239.73,196.4a37.79,37.79,0,0,0-3.51-4.9c-12.2-12.3-24.07-25-36.87-36.59-7-6.35-15.36-11.31-23.53-16.2-21.47-12.83-45.46-20.4-67.61-31.85-12.83-.92-23.41-8.56-35.53-11.9-12.34-3.39-24.13-9.19-36.28-13.28-15.42-5.19-31-11.53-48.06-9.5-1.41.17-3.53.58-4.19-.14-4.81-5.24-10.89-1.72-16.27-2.7-5.83-1.06-11.22-3.59-17.57-3.11-11.85.9-16,6.06-12.53,17.43,1.56,5.13,3.15,10.27,4.41,15.48,3.28,13.44,3,27.34,5.35,41,2.26,13.24-.23,27.12,3.17,40.62,2,8.09-1.42,16.68,2.12,25.13,3.38,8.05-1.54,17.77,3.84,25.83-1,16.37,6,31.26,9.13,46.83,1.8,9,6.43,17.46,8.42,26.77s6.1,18.14,5.56,28c6.06,5.22,1.26,12.56,3.65,18.69s4.55,13,4.78,19.58c.51,14.86,5.34,29,6.57,43.74.47,5.65.24,12.66,2.76,17.38,4.64,8.7,1.45,18,4.68,26.94,3.08,8.51.66,19,.67,28.62,0,2.4-1,5.82.24,7,4.63,4.56,1.5,10.05,2.74,14.86s2.91,9.44,3,14.7c.15,7.31,2.08,14.62,3.26,21.8a134.21,134.21,0,0,0,6,21.9c2.49,7.15,5,14.58,8.37,21,3.84,7.41,9.89,14.59,19.4,17.14,13.75,3.69,20.1,4.11,35.18,0a199.59,199.59,0,0,0,45.6-18.79c13-7.33,24.82-16.66,37.51-24.55,16.32-10.14,32.43-20.84,46.48-33.72,15.7-14.39,31.59-28.85,44.33-46.34A299.36,299.36,0,0,0,1187,967.5c7-13,9.66-27.73,14.54-41.58,3-8.4,5.76-16.86,8.69-25.27,5.46-15.7,2.41-31.92,2.67-47.88.16-10.17-.32-20.76-3.06-30.44-2.91-10.25-5.2-20.81-9.5-30.66s-8.81-19.44-13.23-29.16c4.46-.65,9.63,2,13.16-2.88,9.19,1.17,11.87-6.11,14.66-12.17,3.61-7.84-.87-14.12-6.13-19.5-9.44-9.66-21.86-14.29-34.45-17.06C1166.11,709.08,1156.54,708.62,1149.58,716.3ZM592.12,900.42c0,9.14-1.86,18.84.63,27.25,1.81,6.13,1.44,11.87,2.29,17.75s2.61,11.71,2.71,17.58c.23,13,4.34,25,8.13,37.12,6,19,15.71,36,26.57,52.52,3.75,5.7,7.19,11.77,11.79,16.72,9,9.75,17.76,20.35,28.53,27.86,18.67,13,38.42,24.64,60.83,30.7,7.3,2,14.27,6.21,21.59,6.81,8.36.67,16.12,5.42,24.78,3.31,1.35-.33,3.5-.61,4.19.11,5.29,5.52,11.85,1.69,17.71,2.7,6.32,1.1,12.65,2.56,19,2.79,12,.45,24.06.19,36.09.12,13.66-.09,27.74-12.44,29.76-26,1.08-7.25-.41-42.48-3.21-50.66-3.95-11.54-5.69-23.64-9.36-35.12-3.76-11.79-5.42-24.06-7-35.88a404.9,404.9,0,0,1-3.15-44.92c-.18-10.44-4.13-20.21-3.32-30.57-5.18-4.37-1.47-10.75-3.57-15.84-4-9.61-5.38-19.93-7.89-29.93s-3.21-20.76-6.67-30.48c-5.33-15-8.05-30.65-10.31-46.13-2.37-16.19.13-32.83-3-49.33-2.51-13.26-.71-27-2.46-40.71C825,694,823.13,679.87,820.12,666s-7.24-27.74-11.46-41.43c-3-9.69-13.59-13.86-22.74-9.28A196.8,196.8,0,0,0,758.05,632c-21.92,15.87-43.18,32.29-62.32,51.45-21.61,21.63-43.34,43-60.42,68.78-10,15-18.07,31.07-25.45,47.28-5.48,12-8.43,25.44-11.77,38.4-3.43,13.32-2.86,27.35-5.71,40.92C590.92,885.73,592.12,893.2,592.12,900.42Z"/><path class="cls-14" d="M883.85,1218.87c2.49-1,4.9-2.35,7.47-2.82,17.33-3.14,34.49-6.82,51.64-11,22.74-5.51,43.75-15.27,65.71-22.52,23.85-7.87,45.92-19.18,68.41-29.91,10.84-5.17,19.92-12.64,29.31-19.54,17-12.53,35.11-23.61,50.71-38.23,8.69-8.14,15.82-17.16,23.26-26.24,7-8.58,13.67-17.37,20.31-26.24,10.34-13.81,16.66-29.69,23.59-45.09,4.33-9.61,7.72-19.83,11.86-29.68,3.45-8.18,7.53-16.61,8.44-25.24,1.89-18,9.07-35.6,5.82-53.76-2.43-13.6-2.53-27.07-2.56-40.67,0-4.66-3.48-8.21-3.21-13.24s1.6-9.93-1.38-15.21c-2.08-3.68.77-10.41-1.56-13.61-5.15-7.06-.77-15.21-4.9-22.67-3.52-6.36-2-15.36-3.54-23-2.54-12.19-7.54-23.53-13.85-34.27-.06-.11.58-.79,1-1a4,4,0,0,1,1.43,0c4.88,2.21,7.55,6.13,9.71,11,2.9,6.5,7,12.47,10,18.94s1.94,14.29,6.13,20.53c.45.67.11,1.86.18,2.8,1,12.57,1.77,25.16,3,37.72.52,5.41,1.92,10.73,2.8,16.11s-2,11.44,2.88,16.13c.24.23,0,.93,0,1.41,1,12.09,2.29,24.17,2.78,36.28s.87,24.09-.18,36c-.64,7.41-3.61,14.73-6.27,21.82-8.55,22.88-17.24,45.69-28,67.69-10.14,20.75-18.81,42.22-29.15,62.86-10,19.94-23.44,37.06-42.1,50.36-7.79,5.55-14.6,13.12-23.73,16-11.78,3.7-21.39,11.05-32.21,16.27a207.61,207.61,0,0,0-30.13,18c-16.75,11.92-41.06,21.1-69.82,29.59-10.71,3.16-21.11,7.18-32,9.82-6.49,1.57-13.25,2.09-19.79,4.11-6.27,2-12.94,4.77-20.3,3.66-3.7-.56-7.78,2.29-11.75,2.5-10.19.56-19.87-3.26-29.9-4.27A11.08,11.08,0,0,1,883.85,1218.87Z"/><path class="cls-14" d="M909.85,519.9c-8-.48-13.07-4.63-16.26-11.85-3.83-8.68-6.83-17.23-7.15-27.09-.4-12.21,2-23.95,3.31-35.87.56-5.23,6.22-8.85,5.66-14.73l2.88-2.89c10.26-4.77,19.86-11.35,31.78-11.55-.33,1.77-.12,3.93-1.07,5.24-5.87,8.1-12.58,15.65-17.83,24.12a39.59,39.59,0,0,0-5.92,17.4,319.41,319.41,0,0,0-.13,39.26C905.45,508,908.2,513.91,909.85,519.9Z"/><path class="cls-13" d="M726.51,467.42l7.14,2a23,23,0,0,1-4,1.25C729.18,470.76,728.6,469.69,726.51,467.42Z"/><path class="cls-13" d="M772.8,447.69,771.47,446c.61-.18,1.61-.66,1.75-.48a7.71,7.71,0,0,1,.87,2.19Z"/><path class="cls-13" d="M898.29,427.47l-2.88,2.89Z"/><path class="cls-14" d="M931.75,413.26c.33.34.94.81.89.92a12.62,12.62,0,0,1-1.29,1.74l-1.28-1.29Z"/><path class="cls-1" d="M918.51,407.25c1-1,1.93-1.92,2.89-2.89C920.44,405.33,919.48,406.29,918.51,407.25Z"/><path class="cls-15" d="M1418.91,1301.85l-44.62-34.33c3.72-13.33,13.83-20.15,22.19-28,6.42-6,19.11-4,28.15,1.39,6.07,3.6,10.79,7.3,14.09,14.09,5.31,10.93-.74,19.06-5,27.37C1430.42,1288.87,1424.88,1294.2,1418.91,1301.85Z"/><path class="cls-16" d="M344.23,1412.27c-4.35-1.5-10.14,1.49-16.42-2.27-12.54-7.51-21.62-17.91-26.75-30.78-3.38-8.44-.63-18.33,3.21-27A99.37,99.37,0,0,1,351,1303c13.17-6.74,30.63-5.26,43.87,6.09,2.91,2.49,5.47,5.4,8.19,8.13,14.61,14.66,17.65,32.06,6.71,49.75-10.47,16.94-24,31.95-42.7,41.28C360,1411.73,353.09,1412.62,344.23,1412.27Z"/><path class="cls-15" d="M188.3,441a90.65,90.65,0,0,1,13.07-20.36c11.65-13.4,19.78-16.08,35.74-8.74,5.32,2.44,10.68,4.63,15.09,9,9.7,9.7,12.93,19.95,8.12,33.57-2.68,7.58-8,13-11.49,19.79-.85,1.62-6.08,3-7.35,2C224.6,463.18,204.18,455.37,188.3,441Z"/><path class="cls-17" d="M1273.19,1482.42l-31.67,19.78c-5.24-11.79-4.9-11.8-5.41-23.63-.32-7.56-1.84-15.07-3.16-25.23C1247.2,1463.74,1260.7,1470.28,1273.19,1482.42Z"/><path class="cls-18" d="M1187.13,762.51c4.42,9.72,9,19.38,13.23,29.16s6.59,20.41,9.5,30.66c2.74,9.68,3.22,20.27,3.06,30.44-.26,16,2.79,32.18-2.67,47.88-2.93,8.41-5.73,16.87-8.69,25.27-4.88,13.85-7.58,28.54-14.54,41.58a299.36,299.36,0,0,1-22.15,35.63c-12.74,17.49-28.63,31.95-44.33,46.34-14,12.88-30.16,23.58-46.48,33.72-12.69,7.89-24.52,17.22-37.51,24.55a199.59,199.59,0,0,1-45.6,18.79c-15.08,4.12-21.43,3.7-35.18,0-9.51-2.55-15.56-9.73-19.4-17.14-3.35-6.44-5.88-13.87-8.37-21a134.21,134.21,0,0,1-6-21.9c-1.18-7.18-3.11-14.49-3.26-21.8-.11-5.26-1.76-9.83-3-14.7s1.89-10.3-2.74-14.86c-1.21-1.19-.24-4.61-.24-7,0-9.62,2.41-20.11-.67-28.62-3.23-9,0-18.24-4.68-26.94-2.52-4.72-2.29-11.73-2.76-17.38-1.23-14.77-6.06-28.88-6.57-43.74-.23-6.6-2.34-13.36-4.78-19.58s2.41-13.47-3.65-18.69c.54-9.82-3.57-18.66-5.56-28s-6.62-17.82-8.42-26.77c-3.13-15.57-10.15-30.46-9.13-46.83-5.38-8.06-.46-17.78-3.84-25.83-3.54-8.45-.08-17-2.12-25.13-3.4-13.5-.91-27.38-3.17-40.62-2.33-13.64-2.07-27.54-5.35-41-1.26-5.21-2.85-10.35-4.41-15.48-3.44-11.37.68-16.53,12.53-17.43,6.35-.48,11.74,2,17.57,3.11,5.38,1,11.46-2.54,16.27,2.7.66.72,2.78.31,4.19.14,17-2,32.64,4.31,48.06,9.5,12.15,4.09,23.94,9.89,36.28,13.28,12.12,3.34,22.7,11,35.53,11.9,22.15,11.45,46.14,19,67.61,31.85,8.17,4.89,16.54,9.85,23.53,16.2,12.8,11.63,24.67,24.29,36.87,36.59a37.79,37.79,0,0,1,3.51,4.9c.33,5.63-1.3,12.59,1.43,16.58,4.72,6.89,8.6,14.62,17.43,19C1174.65,755,1181,758.86,1187.13,762.51ZM1007.87,837a29.31,29.31,0,0,1,3.65-4.21c10.59-9.14,12.65-22.61,13.12-34.55s-4.77-24.45-11.83-34.94c-2.39-3.56-6.86-6.1-10.87-8.11-4.63-2.3-10.57-3.46-14.3.68a101.71,101.71,0,0,0-14,20c-2.2,4.13-4.15,10.69-2.34,14.1,2.54,4.78,1.24,9.13,2.14,13.55,1.33,6.6,1.15,14.39,4.74,19.47C984.63,832.09,993.05,840.28,1007.87,837Zm-89.36,19.39c0,8.15-.71,16.38.25,24.42.66,5.58,3.82,10.83,5.48,16.34,2.8,9.32,8.41,16.07,17.38,19.84,2,.85,4.76,2,6.5,1.35,8.71-3.38,17.76-5.71,25.14-12.4,10.19-9.24,11.45-28.28.49-37.59-13.86-11.77-28.73-21.15-48.11-19.08Q922.09,852.82,918.51,856.37ZM971.14,980c-2.81,11,1.23,19.4,6,27.29,4.21,7,9.62,13.28,14.08,20.15,4.25,6.55,10.38,10.6,17.08,13.95,2,1,5.11,2,6.52,1.14,4.91-3.08,11.4-4.71,13.41-11.13,2.34-7.5,7.87-14.13,4.77-23.09-6.25-18.09-17.42-31-36.29-36-5.28-1.42-10.88-1.61-15.6-2.26ZM1042,917.48c3.33,14.3-1.49,28.47-2.24,42.92-.09,1.66-1.2,3.31-2,4.89-3.21,6.42,2,11.44,3.86,16.38,1.8,4.7,8.33,6.67,14.25,6.13,10.16-.94,24.21-12.38,27.24-22.48,6.7-22.26,2.93-36.49-11.78-48.74-5.23-4.36-11.09-5.7-17.34-6.78C1047.94,908.76,1046.39,914.54,1042,917.48Zm96.57,56.78c-1.13-3.83-3.14-7.67-3.25-11.57-.27-9.89-4.27-18.35-8.92-26.6-1.79-3.17-4-6.76-7-8.47-4.92-2.8-10.36-5.79-16.19-.58-3.28,2.94-7.64,11.18-5.33,15.52,2.16,4.06,3.21,6.69.92,11.23-2,3.87-1.33,9-2.35,13.41s-3.44,8.44-3.75,12.76,1.09,8.64,2,12.91c2,8.7,7.55,15.77,15.68,17.2,5.91,1,12.76-2.37,17.87-7.89C1135.74,994.13,1135.32,983.86,1138.56,974.26ZM1111.93,773.2c.19.95.22,3.87,1.33,6.29,4.64,10.15,8.56,20.87,16.25,29.15,4.73,5.09,11.2,10.13,18.33,8.22,3.41-.92,7.09-1.37,10.37-2.57,4.13-1.5,7.7-4.54,11.5-6.92-2.49-5.68,7.74-10.67.91-16.6-2.48-15.18-12.82-25.32-23.51-34.71-6.79-5.95-15.1-7-24.33-3.18C1113.85,756.62,1112,763.13,1111.93,773.2ZM1042,1034.06l.71.12c0,4.32-.78,8.83.2,12.91a47.16,47.16,0,0,0,6.22,14.61c1.45,2.21,5.28,3.46,8.23,4a26.94,26.94,0,0,0,31.56-26.55c0-2.88-.1-5.76,0-8.64.54-12.66-5.74-22.21-14.79-29.79-10.9-9.13-25.46-3.72-28.48,10.23C1044,1018.54,1043.2,1026.34,1042,1034.06Zm-13.48-282.5c-.78,8.64,2,14.51,4.71,21.07,3.5,8.49,11.37,8.29,16.74,12.53,4,3.17,8.52-1.68,12.44-3.53,9.76-4.61,15.44-14.41,11.83-23.34-7.33-18.13-15.93-35.77-31.25-49-3-2.54-5.77-2.58-8.84-.35-6,4.37-8,9.94-4.43,18.56,2,4.78,2.8,10.21.69,13.39C1027.56,745.2,1029.05,749.11,1028.52,751.56Zm-73.9,244.91c-3.76,0-7.58.07-11.4,0-4.64-.11-7,2.7-7.28,6.69-1,13-.23,25.92,5.85,37.77a43.62,43.62,0,0,1,3,7.45c1.53,5,3.39,10.87,7.1,14.08,4.81,4.16,11.7,4.87,18.19,2.36,6.22-2.41,11.58-8.87,12-14.9,1.06-15.93-2.08-30.31-15.08-41.22C962.55,1005,958.76,1000.61,954.62,996.47Zm163.19-273.58c-.2-8.51-5.67-15.1-15.21-21.17-9.92-6.31-21.19-9-31.77-13.48-1.32-.56-3.38-.08-4.84.54-7.67,3.27-11,11-7.66,18.52a97.62,97.62,0,0,0,27.46,35.89c3.22,2.67,8.17,4.71,12.26,4.6C1107.46,747.55,1118.07,733.41,1117.81,722.89Zm-103,377.56c2.64,0,5.21.57,7.39-.12,5.27-1.64,10.58-4,13.43-8.89,2.17-3.75,5.17-9.51,3.74-12.32-2.49-4.9-2-10.86-5.59-14.93a82.58,82.58,0,0,0-13.4-12.71c-6.94-4.94-14.3-4-21.21,1.6-7.63,6.2-9.65,14.59-8.29,23.79.91,6.16,1.56,12.64,6.63,17.35S1008.18,1101.12,1014.76,1100.45Zm139.08-236.77c3-3,5.49-5.22,7.68-7.74,3.67-4.2,3.74-9.85-.15-13.61-2.22-2.14-5.38-3.27-7.86-5.18-9-7-20.77-8-30.07-14.11-5.7-3.73-11.65-2.75-17.56-2.54-1.84.06-5,2.56-5.15,4.13-.52,6.87-1.89,14.7,3,20.12,6.63,7.42,13.06,14.79,24.77,16.59C1136.76,862.62,1144.94,863.17,1153.84,863.68ZM927.35,931.31a10.45,10.45,0,0,0-.16,1.37c0,6.72,0,13.45,0,20.17A42.71,42.71,0,0,0,929.87,969c4.2,11,14.19,14.84,25.09,10.4,5.83-2.37,8.2-7.49,12.66-10.17,0-4.4-.24-8.26,0-12.08.55-7.46-2.06-13.51-7.38-18.59-2.78-2.65-5.34-5.54-8.18-8.11a24,24,0,0,0-13.25-6.32C932.7,923.29,931,928.69,927.35,931.31Zm112.49-95.17c7.35,7.82,15.86,13.43,27.4,13.05,12.79-.42,23.1-12.89,18.5-24.44-3.86-9.71-9.86-18.83-19.24-24.65-8.7-5.4-16.13-3.09-20.85,6.54A57.62,57.62,0,0,0,1039.84,836.14Zm93,48c-4.2,11.27-5.44,22.11-.74,33.67,4.64,11.4,12.54,18.87,23,23.9,11.57-4,16-12,14.76-23.49-.3-2.86,0-5.77,0-8.66-.11-8-6.08-15.15-13.07-20.47C1149.19,883.37,1141.46,883.49,1132.83,884.15ZM1015.58,956a98,98,0,0,0,6.85-8.32c2.29-3.45,4.44-7.66,2.8-11.62-3.72-9-9.05-16.55-18.8-20.69-8.68-3.68-17.35-2.18-26-2.79l3,3.45-14.37,7c5.1,8.29,9.31,14.63,13,21.26,4.45,8,11,11.85,20.12,11.69C1006.43,956,1010.74,956,1015.58,956Zm51.91-95.68c-3.28,4.18-9.5,6.66-7.24,12.06,4.41,10.51,9.69,20.58,21,26,12,5.7,22.14,3.84,33.59-7.24,2.19-15.75-5.69-21.28-20.18-27.82C1085.7,859.25,1077,862.07,1067.49,860.35Zm-49.64,37.91a54,54,0,0,0,7.2,0c6.1-.82,13.62-8.17,14.78-14.15.52-2.69-5.57-16.09-8.3-17.53-9.06-4.76-18.11-9.58-27.42-13.82-2-.92-5.55-.19-7.63,1-4.25,2.54-6.93,6.49-5.74,11.9.87,3.94,2.1,7.82,2.84,11.78C996.22,891.64,1003.81,898.22,1017.85,898.26ZM985.32,1112c.27-5.79,7.07-7.34,4-15.12-3.77-9.5-9-14.19-18.16-18.26-6.52-2.91-11,.08-13.53,2.41-3.14,2.91-5.75,7.68-3,14.49s6.78,11.77,11.73,16.48Zm92.14-315.38c2.44,1.54,3.9,2.65,5.52,3.45,7.48,3.67,13.47,1.58,16.22-6,2.08-5.73,2.33-11.55-.38-17.36-4.91-10.53-9.88-11.65-18.72-3.87a35,35,0,0,0-2.64,2.87Z"/><path class="cls-19" d="M592.12,900.42c0-7.22-1.2-14.69.26-21.61,2.85-13.57,2.28-27.6,5.71-40.92,3.34-13,6.29-26.37,11.77-38.4,7.38-16.21,15.46-32.23,25.45-47.28,17.08-25.74,38.81-47.15,60.42-68.78,19.14-19.16,40.4-35.58,62.32-51.45a196.8,196.8,0,0,1,27.87-16.72c9.15-4.58,19.76-.41,22.74,9.28,4.22,13.69,8.44,27.44,11.46,41.43S825,694,826.84,708.2c1.75,13.7-.05,27.45,2.46,40.71,3.13,16.5.63,33.14,3,49.33,2.26,15.48,5,31.1,10.31,46.13,3.46,9.72,4.15,20.39,6.67,30.48s3.92,20.32,7.89,29.93c2.1,5.09-1.61,11.47,3.57,15.84-.81,10.36,3.14,20.13,3.32,30.57a404.9,404.9,0,0,0,3.15,44.92c1.54,11.82,3.2,24.09,7,35.88,3.67,11.48,5.41,23.58,9.36,35.12,2.8,8.18,4.29,43.41,3.21,50.66-2,13.55-16.1,25.9-29.76,26-12,.07-24.08.33-36.09-.12-6.37-.23-12.7-1.69-19-2.79-5.86-1-12.42,2.82-17.71-2.7-.69-.72-2.84-.44-4.19-.11-8.66,2.11-16.42-2.64-24.78-3.31-7.32-.6-14.29-4.83-21.59-6.81-22.41-6.06-42.16-17.68-60.83-30.7-10.77-7.51-19.48-18.11-28.53-27.86-4.6-4.95-8-11-11.79-16.72-10.86-16.48-20.62-33.54-26.57-52.52C602.09,988,598,976,597.75,963c-.1-5.87-1.87-11.7-2.71-17.58s-.48-11.62-2.29-17.75C590.26,919.26,592.12,909.56,592.12,900.42Zm163.16,113.83c-6-1.36-12.41-1.25-17.18,2.61-9.27,7.5-20.47,11-30.93,15.78-10.8,4.93-14.54,14.62-19.48,23.59-1.24,2.26.09,6.4,1.13,9.37,4.42,12.67,16,16.41,27,17,10.13.5,20.94-1.35,27.52-12.85a256.07,256.07,0,0,1,15.18-23.88c5-6.84,7.88-13.39,6.8-21.58Zm4.29-62.63c.93-8.89.29-18.3-8.19-25.67-6.3-5.47-7.63-5.63-15.87-2.24-11.17,4.59-19.73,12.61-26.84,21.63-8.12,10.3-9.75,23.67-5.91,35.6,6,18.46,27.76,19.84,39.84,10.71C755.29,982.06,760.7,968.69,759.57,951.62Zm-51.91,51.55c-3.66-3-7.26-6.89-11.61-9.48-11-6.53-31.94-3.28-42.27,6.15-3.17,2.9-6,6.17-9.17,9.09-7.23,6.7-11.45,14.35-8.41,24.12l12.25,12.54c6.48-.31,13,1.1,19-2.87,13.53-9,28.64-15.65,40.21-27.14ZM777,934.37c3.91,3.91,6.87,8,10.82,10.51s9.58,5.87,13.47,4.89a33,33,0,0,0,18.34-11.49,30.64,30.64,0,0,0,6.19-16.15c1-10,.42-20.15.23-30.23-.1-5.44-5.06-10.44-10.51-10.92-2.82-.25-5.68,0-8.21,0-5.74,5.74-11.29,11.06-16.59,16.63-9.19,9.67-17,20-13.75,34.65A13.89,13.89,0,0,1,777,934.37Zm-.34,100.83c-3.95,6.77-9.52,14.09-12.73,22.33-5.4,13.83-7.75,27.78,1.15,42,3.12,5,7.58,8,10.21,12.4h14.66l6.82-6.66c2.93-19.45-3.63-37.84-2.6-56.74.78-14.5-.14-14.78-15.13-14.48C778.62,1034.05,778.23,1034.41,776.64,1035.2Zm64.32.18c-1.11-10.14-2.05-20.31-3.42-30.41a44.5,44.5,0,0,0-3.13-10.2c-1.11-2.82-7.62-5.54-9.7-4a14.13,14.13,0,0,0-4.33,5.34c-4.81,11-10.65,21.7-13.62,33.17-2.38,9.17-6.31,18.6-1.31,29.17a22.45,22.45,0,0,0,14.75,12.72c2.63.79,6.16-2.86,10.2-3,1.76,0,3.41-4.88,5.1-7.53C840.44,1052.93,841,1044.29,841,1035.38Zm-32.46-34.33c.45-19.59.41-19.55-12.54-33.35-1.83-2-2.89-4.58-4.57-6.69-4.65-5.89-15.82-7.12-19-1.61-5.4,9.32-6.59,20.2-9.85,30.33,3.14,5.87,5.76,12.12,9.59,17.51,3.62,5.1,9.46,6.91,15.82,6.58,2.79-.14,5.59,0,7.81,0Zm27.83,79.31c-10-1.39-16.26,4.05-22.16,10.31-5.22,5.55-6,12.27-5.42,19.4.61,7.6,4.78,12,11.65,15.27,6.53,3.08,10.53-1.18,14.74-3.92s7.75-7.08,11.08-10.24v-19.77ZM834.54,948.5,825,944c-6,7.54-17.73,11.92-12.15,26.52l10,5.82,11.73-11.6Z"/><path class="cls-20" d="M1187.13,762.51c-6.18-3.65-12.48-7.53-18.69-10.62-8.83-4.39-12.71-12.12-17.43-19-2.73-4-1.1-11-1.43-16.58,7-7.68,16.53-7.22,24.79-5.4,12.59,2.77,25,7.4,34.45,17.06,5.26,5.38,9.74,11.66,6.13,19.5-2.79,6.06-5.47,13.34-14.66,12.17C1196.76,764.51,1191.59,761.86,1187.13,762.51Z"/><path class="cls-21" d="M1007.87,837c-14.82,3.3-23.24-4.89-29.7-14-3.59-5.08-3.41-12.87-4.74-19.47-.9-4.42.4-8.77-2.14-13.55-1.81-3.41.14-10,2.34-14.1a101.71,101.71,0,0,1,14-20c3.73-4.14,9.67-3,14.3-.68,4,2,8.48,4.55,10.87,8.11,7.06,10.49,12.31,22.94,11.83,34.94s-2.53,25.41-13.12,34.55A29.31,29.31,0,0,0,1007.87,837Z"/><path class="cls-21" d="M918.52,856.37l7.12-7.11c19.38-2.08,34.25,7.3,48.11,19.07,11,9.31,9.7,28.35-.49,37.59-7.38,6.69-16.43,9-25.14,12.4-1.74.67-4.45-.5-6.5-1.35-9-3.77-14.58-10.52-17.38-19.84-1.66-5.51-4.82-10.76-5.48-16.34C917.8,872.75,918.51,864.52,918.52,856.37Z"/><path class="cls-21" d="M971.14,980l10-10c4.72.65,10.32.84,15.6,2.26,18.87,5,30,17.92,36.29,36,3.1,9-2.43,15.59-4.77,23.09-2,6.42-8.5,8.05-13.41,11.13-1.41.89-4.57-.16-6.52-1.14-6.7-3.35-12.83-7.4-17.08-13.95-4.46-6.87-9.87-13.15-14.08-20.15C972.37,999.35,968.33,991,971.14,980Z"/><path class="cls-21" d="M1042,917.48c4.4-2.94,6-8.72,12-7.68,6.25,1.08,12.11,2.42,17.34,6.78,14.71,12.25,18.48,26.48,11.78,48.74-3,10.1-17.08,21.54-27.24,22.48-5.92.54-12.45-1.43-14.25-6.13-1.9-4.94-7.07-10-3.86-16.38.78-1.58,1.89-3.23,2-4.89C1040.5,946,1045.32,931.78,1042,917.48Z"/><path class="cls-22" d="M1138.56,974.26c-3.24,9.6-2.82,19.87-10.27,27.92-5.11,5.52-12,8.93-17.87,7.89-8.13-1.43-13.72-8.5-15.68-17.2-1-4.27-2.36-8.68-2-12.91s2.75-8.43,3.75-12.76.4-9.54,2.35-13.41c2.29-4.54,1.24-7.17-.92-11.23-2.31-4.34,2.05-12.58,5.33-15.52,5.83-5.21,11.27-2.22,16.19.58,3,1.71,5.21,5.3,7,8.47,4.65,8.25,8.65,16.71,8.92,26.6C1135.42,966.59,1137.43,970.43,1138.56,974.26Z"/><path class="cls-23" d="M1111.93,773.2c.09-10.07,1.92-16.58,10.85-20.32,9.23-3.86,17.54-2.77,24.33,3.18,10.69,9.39,21,19.53,23.51,34.71,6.83,5.93-3.4,10.92-.91,16.6-3.8,2.38-7.37,5.42-11.5,6.92-3.28,1.2-7,1.65-10.37,2.57-7.13,1.91-13.6-3.13-18.33-8.22-7.69-8.28-11.61-19-16.25-29.15C1112.15,777.07,1112.12,774.15,1111.93,773.2Z"/><path class="cls-24" d="M1042,1034.06c1.2-7.72,2-15.52,3.68-23.14,3-13.95,17.58-19.36,28.48-10.23,9,7.58,15.33,17.13,14.79,29.79-.13,2.88,0,5.76,0,8.64a26.94,26.94,0,0,1-31.56,26.55c-2.95-.51-6.78-1.76-8.23-4a47.16,47.16,0,0,1-6.22-14.61c-1-4.08-.2-8.59-.2-12.91Z"/><path class="cls-22" d="M1028.52,751.56c.53-2.45-1-6.36,1.89-10.64,2.11-3.18,1.28-8.61-.69-13.39-3.54-8.62-1.6-14.19,4.43-18.56,3.07-2.23,5.89-2.19,8.84.35,15.32,13.2,23.92,30.84,31.25,49,3.61,8.93-2.07,18.73-11.83,23.34-3.92,1.85-8.43,6.7-12.44,3.53-5.37-4.24-13.24-4-16.74-12.53C1030.52,766.07,1027.74,760.2,1028.52,751.56Z"/><path class="cls-24" d="M954.62,996.47c4.14,4.14,7.93,8.52,12.32,12.21,13,10.91,16.14,25.29,15.08,41.22-.4,6-5.76,12.49-12,14.9-6.49,2.51-13.38,1.8-18.19-2.36-3.71-3.21-5.57-9.06-7.1-14.08a43.62,43.62,0,0,0-3-7.45c-6.08-11.85-6.81-24.76-5.85-37.77.29-4,2.64-6.8,7.28-6.69C947,996.54,950.86,996.47,954.62,996.47Z"/><path class="cls-23" d="M1117.81,722.89c.26,10.52-10.35,24.66-19.76,24.9-4.09.11-9-1.93-12.26-4.6a97.62,97.62,0,0,1-27.46-35.89c-3.32-7.52,0-15.25,7.66-18.52,1.46-.62,3.52-1.1,4.84-.54,10.58,4.49,21.85,7.17,31.77,13.48C1112.14,707.79,1117.61,714.38,1117.81,722.89Z"/><path class="cls-23" d="M1014.76,1100.45c-6.58.67-12.32-1.62-17.3-6.23s-5.72-11.19-6.63-17.35c-1.36-9.2.66-17.59,8.29-23.79,6.91-5.61,14.27-6.54,21.21-1.6a82.58,82.58,0,0,1,13.4,12.71c3.59,4.07,3.1,10,5.59,14.93,1.43,2.81-1.57,8.57-3.74,12.32-2.85,4.9-8.16,7.25-13.43,8.89C1020,1101,1017.4,1100.45,1014.76,1100.45Z"/><path class="cls-23" d="M1153.84,863.68c-8.9-.51-17.08-1.06-25.39-2.34-11.71-1.8-18.14-9.17-24.77-16.59-4.84-5.42-3.47-13.25-3-20.12.12-1.57,3.31-4.07,5.15-4.13,5.91-.21,11.86-1.19,17.56,2.54,9.3,6.1,21.07,7.15,30.07,14.11,2.48,1.91,5.64,3,7.86,5.18,3.89,3.76,3.82,9.41.15,13.61C1159.33,858.46,1156.81,860.71,1153.84,863.68Z"/><path class="cls-21" d="M927.35,931.3c3.67-2.61,5.35-8,11.51-7.15a24,24,0,0,1,13.25,6.32c2.84,2.57,5.4,5.46,8.18,8.11,5.32,5.08,7.93,11.13,7.38,18.59-.29,3.82,0,7.68,0,12.08-4.46,2.68-6.83,7.8-12.66,10.17-10.9,4.44-20.89.55-25.09-10.4a42.71,42.71,0,0,1-2.71-16.17c.07-6.72,0-13.45,0-20.17A10.81,10.81,0,0,1,927.35,931.3Z"/><path class="cls-22" d="M1039.84,836.14a57.62,57.62,0,0,1,5.81-29.5c4.72-9.63,12.15-11.94,20.85-6.54,9.38,5.82,15.38,14.94,19.24,24.65,4.6,11.55-5.71,24-18.5,24.44C1055.7,849.57,1047.19,844,1039.84,836.14Z"/><path class="cls-21" d="M1132.83,884.15c8.63-.66,16.36-.78,23.9,5,7,5.32,13,12.5,13.07,20.47,0,2.89-.25,5.8,0,8.66,1.2,11.52-3.19,19.49-14.76,23.49-10.46-5-18.36-12.5-23-23.9C1127.39,906.26,1128.63,895.42,1132.83,884.15Z"/><path class="cls-21" d="M1015.58,956c-4.84,0-9.15-.06-13.46,0-9.08.16-15.67-3.66-20.12-11.69-3.68-6.63-7.89-13-13-21.26l14.37-7-3-3.45c8.69.61,17.36-.89,26,2.79,9.75,4.14,15.08,11.68,18.8,20.69,1.64,4-.51,8.17-2.8,11.62A98,98,0,0,1,1015.58,956Z"/><path class="cls-21" d="M1067.49,860.35c9.54,1.72,18.21-1.1,27.17,2.95,14.49,6.54,22.37,12.07,20.18,27.82-11.45,11.08-21.59,12.94-33.59,7.24-11.31-5.37-16.59-15.44-21-26C1058,867,1064.21,864.53,1067.49,860.35Z"/><path class="cls-22" d="M1017.85,898.26c-14,0-21.63-6.62-24.27-20.82-.74-4-2-7.84-2.84-11.78-1.19-5.41,1.49-9.36,5.74-11.9,2.08-1.24,5.61-2,7.63-1,9.31,4.24,18.36,9.06,27.42,13.82,2.73,1.44,8.82,14.84,8.3,17.53-1.16,6-8.68,13.33-14.78,14.15A54,54,0,0,1,1017.85,898.26Z"/><path class="cls-25" d="M985.32,1112h-19c-5-4.71-8.94-9.58-11.73-16.48s-.15-11.58,3-14.49c2.52-2.33,7-5.32,13.53-2.41,9.12,4.07,14.39,8.76,18.16,18.26C992.39,1104.63,985.59,1106.18,985.32,1112Z"/><path class="cls-25" d="M1077.46,796.59V775.68a35,35,0,0,1,2.64-2.87c8.84-7.78,13.81-6.66,18.72,3.87,2.71,5.81,2.46,11.63.38,17.36-2.75,7.58-8.74,9.67-16.22,6C1081.36,799.24,1079.9,798.13,1077.46,796.59Z"/><path class="cls-23" d="M755.28,1014.25l10,10c1.08,8.19-1.81,14.74-6.8,21.58a256.07,256.07,0,0,0-15.18,23.88c-6.58,11.5-17.39,13.35-27.52,12.85-10.93-.54-22.54-4.28-27-17-1-3-2.37-7.11-1.13-9.37,4.94-9,8.68-18.66,19.48-23.59,10.46-4.78,21.66-8.28,30.93-15.78C742.87,1013,749.3,1012.89,755.28,1014.25Z"/><path class="cls-21" d="M759.57,951.62c1.13,17.07-4.28,30.44-17,40-12.08,9.13-33.88,7.75-39.84-10.71-3.84-11.93-2.21-25.3,5.91-35.6,7.11-9,15.67-17,26.84-21.63,8.24-3.39,9.57-3.23,15.87,2.24C759.86,933.32,760.5,942.73,759.57,951.62Z"/><path class="cls-21" d="M707.66,1003.17v12.41c-11.57,11.49-26.68,18.15-40.21,27.14-6,4-12.52,2.56-19,2.87l-12.25-12.54c-3-9.77,1.18-17.42,8.41-24.12,3.16-2.92,6-6.19,9.17-9.09,10.33-9.43,31.29-12.68,42.27-6.15C700.4,996.28,704,1000.13,707.66,1003.17Z"/><path class="cls-24" d="M777,934.37a13.89,13.89,0,0,0,0-2.15c-3.21-14.65,4.56-25,13.75-34.65,5.3-5.57,10.85-10.89,16.59-16.63,2.53,0,5.39-.21,8.21,0,5.45.48,10.41,5.48,10.51,10.92.19,10.08.76,20.24-.23,30.23a30.64,30.64,0,0,1-6.19,16.15,33,33,0,0,1-18.34,11.49c-3.89,1-9.44-2.31-13.47-4.89S780.89,938.28,777,934.37Z"/><path class="cls-21" d="M776.64,1035.2c1.59-.79,2-1.15,2.38-1.16,15-.3,15.91,0,15.13,14.48-1,18.9,5.53,37.29,2.6,56.74l-6.82,6.66H775.27c-2.63-4.37-7.09-7.42-10.21-12.4-8.9-14.21-6.55-28.16-1.15-42C767.12,1049.29,772.69,1042,776.64,1035.2Z"/><path class="cls-22" d="M841,1035.38c.07,8.91-.52,17.55-5.46,25.33-1.69,2.65-3.34,7.49-5.1,7.53-4,.09-7.57,3.74-10.2,3a22.45,22.45,0,0,1-14.75-12.72c-5-10.57-1.07-20,1.31-29.17,3-11.47,8.81-22.21,13.62-33.17a14.13,14.13,0,0,1,4.33-5.34c2.08-1.56,8.59,1.16,9.7,4a44.5,44.5,0,0,1,3.13,10.2C838.91,1015.07,839.85,1025.24,841,1035.38Z"/><path class="cls-23" d="M808.5,1001.05l-12.74,12.75c-2.22,0-5-.12-7.81,0-6.36.33-12.2-1.48-15.82-6.58-3.83-5.39-6.45-11.64-9.59-17.51,3.26-10.13,4.45-21,9.85-30.33,3.18-5.51,14.35-4.28,19,1.61,1.68,2.11,2.74,4.74,4.57,6.69C808.91,981.5,809,981.46,808.5,1001.05Z"/><path class="cls-25" d="M836.33,1080.36l9.89,11.05v19.77c-3.33,3.16-6.73,7.42-11.08,10.24s-8.21,7-14.74,3.92c-6.87-3.23-11-7.67-11.65-15.27-.57-7.13.2-13.85,5.42-19.4C820.07,1084.41,826.32,1079,836.33,1080.36Z"/><path class="cls-25" d="M834.54,948.5v16.26l-11.73,11.6-10-5.82c-5.58-14.6,6.18-19,12.15-26.52Z"/>
            </g>
        </g>
    </g>
</svg>
