<?xml version="1.0" encoding="UTF-8"?>
<svg width="296px" height="212px" viewBox="0 0 296 212" version="1.1" xmlns="http://www.w3.org/2000/svg" xmlns:xlink="http://www.w3.org/1999/xlink">
    <title>71CB74A4-678D-4305-94F5-8D0B7AB5DDCB</title>
    <defs>
        <polygon id="path-1" points="0.678283231 0.216487414 57.9979664 0.216487414 57.9979664 211.275615 0.678283231 211.275615"></polygon>
        <polygon id="path-3" points="0 0.938953154 57.3165057 0.938953154 57.3165057 211.907463 0 211.907463"></polygon>
        <polygon id="path-5" points="0.519040073 0.430071389 53.478 0.430071389 53.478 189.995296 0.519040073 189.995296"></polygon>
    </defs>
    <g id="Website-UI" stroke="none" stroke-width="1" fill="none" fill-rule="evenodd">
        <g id="Website-Home---Desktop" transform="translate(-491.000000, -1993.000000)">
            <g id="promo-site/footer" transform="translate(0.000000, 1950.000000)">
                <g id="share-more-clean-less" transform="translate(491.000000, 43.000000)">
                    <path d="M89.5201753,67 C84.4874932,67 80.6467044,64.2393313 78,58.7179938 L84.7219281,51.9736032 C86.3783093,56.1223053 88.2713164,58.1944567 90.3921855,58.1944567 C91.9937922,58.1944567 92.7935001,57.4795425 92.7935001,56.0475143 C92.7935001,55.1412231 92.576593,54.3097228 92.1383969,53.5508139 C91.7023918,52.791905 91.0538616,52.0021997 90.1971882,51.1860977 C89.3383239,50.3655961 88.2910352,49.4483062 87.0553223,48.4254289 C85.8196093,47.4025517 84.4151908,46.175099 82.8442578,44.7452706 C81.6238817,43.6344039 80.7343436,42.4377475 80.1822165,41.1509019 C79.6300895,39.866256 79.3518349,38.5244171 79.3518349,37.1209855 C79.3518349,35.6031676 79.6366624,34.2239331 80.2041263,32.9810823 C80.7715903,31.7404311 81.5647252,30.6735592 82.5835311,29.7826661 C83.6001461,28.891773 84.8095673,28.2054553 86.2030309,27.7237132 C87.6008764,27.241971 89.1126529,27 90.7427424,27 C94.8442578,27 98.5820705,29.0149582 101.958371,33.0448746 L96.4151908,38.6102068 C94.0314041,36.4786626 92.1537338,35.4139903 90.786562,35.4139903 C89.9408435,35.4139903 89.3602337,35.5437747 89.0403506,35.8055433 C88.7204674,36.0695117 88.5627168,36.4786626 88.5627168,37.032996 C88.5627168,37.1781786 88.6613109,37.3695557 88.8650721,37.6027277 C89.0688333,37.8358997 89.4829286,38.2384514 90.11174,38.808183 C90.7361694,39.3757149 91.6147526,40.1742191 92.7518715,41.1970963 C93.8846084,42.2177739 95.3679021,43.5772107 97.2017528,45.2688077 C98.9479642,46.8768148 100.181486,48.5618126 100.908892,50.3304004 C101.636297,52.0989881 102,53.9005719 102,55.741751 C102,57.3761549 101.680117,58.8807743 101.040351,60.2534096 C100.400584,61.6282446 99.5154282,62.8095029 98.3783093,63.8015838 C97.2433814,64.7958645 95.9200292,65.5767708 94.4082527,66.1443027 C92.8942852,66.7140343 91.2663867,67 89.5201753,67" id="Fill-1" fill="#F1EBDF"></path>
                    <polygon id="Fill-3" fill="#F1EBDF" points="106 67 106 27 114.533117 27 114.533117 41.451842 118.844305 41.451842 118.844305 27.0443853 128 27.0443853 128 67 118.710417 67 118.710417 49.5854416 114.756263 49.5854416 114.756263 67"></polygon>
                    <path d="M144.755354,53.3672183 L148.014601,53.3672183 L146.429267,46.596983 L144.755354,53.3672183 Z M150.408501,67 L148.963984,61.1708882 L142.629461,61.1708882 L140.773848,67 L132,67 L145.025633,27 L150.183647,27 L160,67 L150.408501,67 Z" id="Fill-5" fill="#F1EBDF"></path>
                    <path d="M171.609986,45.9991083 L171.968362,45.9991083 C172.620159,45.9991083 173.231638,45.838609 173.79832,45.5109229 C174.362762,45.1876951 174.84433,44.7351761 175.247503,44.1578243 C175.648437,43.5804726 175.959776,42.8983504 176.183761,42.1159162 C176.407746,41.3312528 176.517499,40.4663397 176.517499,39.5189478 C176.517499,36.3513152 174.882408,34.6794472 171.609986,34.5011146 L171.609986,45.9991083 Z M163,67 L163,27 L174.331405,27 C175.908259,27 177.379841,27.3388319 178.75063,28.0209541 C180.116939,28.7008471 181.29734,29.6237182 182.296314,30.7940259 C183.290807,31.9643335 184.079235,33.3241195 184.659356,34.8800713 C185.239477,36.4315649 185.528418,38.0833705 185.528418,39.8288007 C185.528418,44.5947392 183.864209,48.4578689 180.531311,51.4181899 L187,67 L178.569202,67 L172.14531,54.3027196 L171.565189,54.3027196 L171.565189,67 L163,67 Z" id="Fill-7" fill="#F1EBDF"></path>
                    <polygon id="Fill-9" fill="#F1EBDF" points="189 67 189 27 210 27 210 35.0716485 197.954395 35.0716485 197.954395 41.7618248 206.10395 41.7618248 206.10395 50.3238175 198.001606 50.3238175 198.001606 59.2865939 209.822396 59.2865939 209.822396 67"></polygon>
                    <polygon id="Fill-11" fill="#F1EBDF" points="108.589584 114 108.589584 100.99853 103.590441 114 102.374006 114 97.6461874 100.824324 97.6461874 114 89 114 89 75 96.6558553 75 103.321378 91.8648649 110.434586 75.0882054 118 75.0882054 118 114"></polygon>
                    <path d="M131.925729,93.0204887 C131.925729,94.6356846 132.025312,96.1728738 132.228809,97.636645 C132.427977,99.0958276 132.722398,100.376054 133.112073,101.475029 C133.499584,102.569416 133.958535,103.445844 134.491091,104.099723 C135.023647,104.755896 135.618984,105.083982 136.281432,105.083982 C137.573855,105.083982 138.565362,104.085957 139.255953,102.089905 C139.94438,100.096148 140.288593,97.3911536 140.288593,93.9795113 C140.288593,92.6075125 140.18035,91.1758617 139.966028,89.6845587 C139.749542,88.1932558 139.457286,86.8212571 139.082764,85.5731512 C138.708243,84.322751 138.270941,83.2880162 137.766528,82.4643581 C137.26428,81.6429943 136.725229,81.2300181 136.15154,81.2300181 C135.517236,81.2300181 134.943547,81.5282787 134.426145,82.1225056 C133.908743,82.7167325 133.462781,83.5380963 133.090425,84.5888913 C132.715903,85.6396863 132.427977,86.8900864 132.228809,88.3355031 C132.025312,89.7832142 131.925729,91.3456408 131.925729,93.0204887 M136.108243,115 C134.038634,115 132.189842,114.474602 130.566195,113.423807 C128.942548,112.373012 127.570025,110.870238 126.450791,108.922367 C125.329392,106.972201 124.474271,104.597588 123.883264,101.793939 C123.294421,98.9925835 123,95.85167 123,92.3803756 C123,89.2119304 123.287927,86.3715719 123.861615,83.8593 C124.437469,81.3447338 125.286095,79.2064347 126.405329,77.43752 C127.528893,75.6708996 128.901415,74.3241383 130.525062,73.3926475 C132.148709,72.4657454 134.008326,72 136.108243,72 C138.177852,72 140.009326,72.5253975 141.604829,73.5761925 C143.200333,74.6269875 144.542548,76.1137018 145.635803,78.0317469 C146.729059,79.9520862 147.562531,82.2441042 148.13622,84.910095 C148.712073,87.5760858 149,90.5219827 149,93.75008 C149,97.0424181 148.712073,99.995198 148.13622,102.617597 C147.562531,105.235407 146.7204,107.467773 145.614155,109.310106 C144.50791,111.152438 143.157036,112.56344 141.561532,113.536229 C139.966028,114.511311 138.147544,115 136.108243,115" id="Fill-13" fill="#F1EBDF"></path>
                    <path d="M161.609986,92.9991083 L161.968362,92.9991083 C162.620159,92.9991083 163.231638,92.838609 163.79832,92.5109229 C164.362762,92.1876951 164.84433,91.7351761 165.247503,91.1578243 C165.648437,90.5804726 165.959776,89.8983504 166.183761,89.1159162 C166.407746,88.3312528 166.517499,87.4663397 166.517499,86.5189478 C166.517499,83.3513152 164.882408,81.6794472 161.609986,81.5011146 L161.609986,92.9991083 Z M153,114 L153,74 L164.331405,74 C165.908259,74 167.379841,74.3388319 168.75063,75.0209541 C170.116939,75.7008471 171.29734,76.6237182 172.296314,77.7940259 C173.290807,78.9643335 174.079235,80.3241195 174.659356,81.8800713 C175.239477,83.4315649 175.528418,85.0833705 175.528418,86.8288007 C175.528418,91.5947392 173.864209,95.4578689 170.531311,98.4181899 L177,114 L168.569202,114 L162.14531,101.30272 L161.565189,101.30272 L161.565189,114 L153,114 Z" id="Fill-15" fill="#F1EBDF"></path>
                    <polygon id="Fill-17" fill="#F1EBDF" points="180 114 180 74 201 74 201 82.0716485 188.954395 82.0716485 188.954395 88.7618248 197.10395 88.7618248 197.10395 97.3238175 189.001606 97.3238175 189.001606 106.286594 200.822396 106.286594 200.822396 114"></polygon>
                    <path d="M89.0490347,155.999052 C77.3447214,155.799491 84.8851285,137.868162 92.7013499,139.056558 C94.3095252,139.294237 96,140.005033 96,142.222625 C96,143.964859 94.4674512,146.26093 92.2297964,144.675654 C93.4464934,143.964859 94.3095252,140.83691 92.9349024,140.83691 C90.2256941,140.83691 87.35856,148.122003 90.6193968,149.664676 C91.8360938,150.258874 94.1137861,149.942716 95.4483714,148.557001 C96.0778508,154.810656 90.6193968,156.039413 89.0490347,155.999052" id="Fill-19" fill="#FED339"></path>
                    <path d="M97.0097839,152.086734 C97.0899574,150.689128 97.6168119,149.207711 98.2215492,147.769333 C99.4356051,144.849537 106.997112,132.332245 106.108331,127.095187 C109.180122,126.413373 112.254203,129.49173 110.476642,133.213393 C108.453979,137.691621 99.6371842,150.768409 104.894276,155.609063 C99.7998219,158.927527 96.8059141,155.726852 97.0097839,152.086734" id="Fill-21" fill="#FED339"></path>
                    <path d="M112.382023,145.192323 C115.29849,146.181276 117.425034,140.796973 115.965685,140.837339 C114.470633,140.875462 112.933184,142.974465 112.382023,145.192323 M112.067393,155.999052 C100.327889,155.799467 107.890174,137.865993 115.731386,139.056774 C122.938874,140.124216 116.599408,151.327872 112.263758,146.340496 C112.067393,147.923719 112.382023,149.069649 113.642776,149.663918 C114.863363,150.26043 117.150569,149.941991 118.48719,148.556111 C119.120914,154.810513 113.642776,156.039417 112.067393,155.999052" id="Fill-23" fill="#FED339"></path>
                    <path d="M131.988868,147.381918 C132.348904,146.605603 132.749699,145.829288 133.148229,145.050774 C133.988313,142.801001 133.628277,141.402315 132.70894,140.8987 C129.588627,139.2669 125.313482,147.421503 129.029326,148.664046 C129.710904,148.894962 130.589482,148.703632 131.588073,147.808561 C131.751108,147.694203 131.868856,147.53806 131.988868,147.381918 M130.750253,151.53839 C129.672409,153.398906 128.030736,155.107678 125.673518,155.107678 C122.394699,155.107678 120.596784,152.429063 121.076832,149.167661 C122.274687,140.975672 132.269651,135.697612 134.706121,141.364929 C134.866892,140.665586 134.866892,140.005828 134.626868,139.423043 C137.226373,138.217885 140.342157,141.169201 138.385735,144.780274 C137.946446,145.596174 134.907651,152.389477 137.665663,154.837178 C133.388253,157.671936 130.627977,154.837178 130.750253,151.53839" id="Fill-25" fill="#FED339"></path>
                    <path d="M146.82116,152.576877 C147.14378,149.451143 149.908774,145.812296 150.672157,143.006978 C150.672157,142.688803 150.590366,142.370628 150.351809,142.213781 C148.865937,141.53934 146.780264,144.427563 145.137627,147.356117 C144.215205,149.648322 142.729333,154.436632 144.935421,156.415143 C140.484622,159.460213 137.635565,156.177632 138.037705,152.576877 C138.478468,148.463008 143.051954,143.558183 141.886431,140.710292 C143.77217,139.840912 145.978257,141.185314 146.219087,143.439427 C147.382338,141.53934 148.865937,140 150.672157,140 C153.880186,140 156.086274,143.085402 154.441364,146.170803 C154.000601,147.002092 151.674098,153.565012 154.323221,156.374811 C149.147662,160.372165 146.41902,156.177632 146.82116,152.576877" id="Fill-27" fill="#FED339"></path>
                    <path d="M165.009784,152.086734 C165.089957,150.689128 165.616812,149.207711 166.221549,147.769333 C167.435605,144.849537 174.997112,132.332245 174.108331,127.095187 C177.180122,126.413373 180.254203,129.49173 178.476642,133.213393 C176.453979,137.691621 167.637184,150.768409 172.894276,155.609063 C167.799822,158.927527 164.805914,155.726852 165.009784,152.086734" id="Fill-29" fill="#FED339"></path>
                    <path d="M180.382023,145.192323 C183.29849,146.181276 185.425034,140.796973 183.965685,140.837339 C182.470633,140.875462 180.933184,142.974465 180.382023,145.192323 M180.067393,155.999052 C168.327889,155.799467 175.890174,137.865993 183.731386,139.056774 C190.938874,140.124216 184.599408,151.327872 180.263758,146.340496 C180.067393,147.923719 180.382023,149.069649 181.642776,149.663918 C182.863363,150.26043 185.150569,149.941991 186.48719,148.556111 C187.120914,154.810513 181.642776,156.039417 180.067393,155.999052" id="Fill-31" fill="#FED339"></path>
                    <path d="M192.541532,145.862344 C191.379815,143.025486 193.260799,139.118565 196.94562,139.003528 C201.433661,138.849422 202.595378,143.791676 198.388691,144.479729 C199.309896,142.563167 196.786792,140.763813 196.026684,143.639741 C195.264307,146.39629 198.268435,148.197815 198.071034,151.225678 C196.907048,159.117658 182.646515,156.630252 188.334845,148.121847 C189.015539,151.763965 193.821236,149.003075 192.541532,145.862344" id="Fill-33" fill="#FED339"></path>
                    <path d="M205.541532,145.862344 C204.379815,143.025486 206.260799,139.118565 209.94562,139.003528 C214.433661,138.849422 215.595378,143.791676 211.388691,144.479729 C212.309896,142.563167 209.786792,140.763813 209.026684,143.639741 C208.264307,146.39629 211.268435,148.197815 211.071034,151.225678 C209.907048,159.117658 195.646515,156.630252 201.334845,148.121847 C202.015539,151.763965 206.821236,149.003075 205.541532,145.862344" id="Fill-35" fill="#FED339"></path>
                    <g id="Group-39" transform="translate(4.000000, 0.000000)">
                        <mask id="mask-2" fill="white">
                            <use xlink:href="#path-1"></use>
                        </mask>
                        <g id="Clip-38"></g>
                        <path d="M11.982394,42.9893976 C12.0142494,41.5287443 12.1234678,40.1757889 12.0552063,38.8295646 C11.9186832,36.0451241 11.7138986,33.2629273 11.4863602,30.4829743 C11.0608632,25.2304559 10.5966848,19.9801814 10.148434,14.7299068 C9.94364938,12.3201653 9.67970477,9.91491133 9.56366015,7.50068249 C9.51132631,6.46857723 9.64329862,5.38935412 9.911794,4.39090446 C10.2189709,3.25558867 10.9835002,2.42092963 12.3032232,2.34464359 C13.3976832,2.27957609 14.3078371,2.89210812 14.7356094,4.28993764 C15.2407448,5.94579348 15.6707925,7.64876716 15.8937802,9.36295938 C16.7356725,15.8786848 17.5093032,22.4056287 18.2556294,28.9325727 C18.6447202,32.3228141 18.8927371,35.7265177 19.2704509,39.1145154 C19.3660171,39.9581493 19.6117586,40.826464 19.9826463,41.5915681 C20.3626355,42.3723781 21.1476432,42.3050669 21.5526617,41.515282 C22.2216248,40.2027134 22.3376694,38.7757157 22.2603063,37.3397431 C22.1670155,35.609845 22.0646232,33.8754594 21.8734909,32.1500486 C20.8768725,23.215607 19.8415725,14.283409 18.8608817,5.34672368 C18.756214,4.38192963 18.7880694,3.36553032 18.9723755,2.41195481 C19.2090155,1.20484039 20.1328217,0.498072654 21.3251232,0.271458238 C22.4787432,0.0515749428 23.5140432,0.500316362 24.110194,1.44491705 C24.731374,2.42990446 25.2660894,3.52034611 25.559614,4.63546854 C26.4606663,8.05487815 27.2547755,11.5012122 28.044334,14.9475463 C29.4550725,21.1132534 30.9386232,27.2654983 32.1878094,33.464861 C33.2526894,38.7510349 34.0991325,44.0843267 34.9091694,49.4176184 C35.4575371,53.021012 34.2788878,56.1442523 31.6712971,58.735734 C30.7861725,59.6130235 29.8896709,60.4858255 29.0068217,61.3676024 C27.4663863,62.9112729 26.8179017,64.7825246 26.8406555,66.9342397 C26.890714,71.1770898 27.600634,75.312242 28.5972525,79.4272008 C30.0534986,85.4560418 31.446034,91.5028324 32.7816848,97.5563541 C34.3175694,104.525308 35.6873509,111.527918 37.2687432,118.481166 C39.5008955,128.281679 41.8946002,138.041805 44.1472309,147.835586 C45.0915155,151.948301 45.8150878,156.105891 46.6956617,160.229824 C47.2781602,162.958172 47.9084417,165.677545 48.6138109,168.376725 C50.2543632,174.674811 51.7925232,181.011039 53.6810925,187.237327 C55.3603263,192.774796 56.7756155,198.352652 57.7836109,204.035962 C57.8814525,204.583426 58.0065986,205.139866 57.9979664,205.689574 C57.9770186,206.784503 57.4377525,207.657305 56.3705971,207.962449 C52.5752555,209.050647 48.7571602,210.062559 44.9481663,211.101395 C44.8890063,211.119345 44.8275709,211.12832 44.7638602,211.137295 C41.3371309,211.655591 39.9855525,210.778301 39.255154,207.46659 C38.8433094,205.588607 38.5293063,203.688187 38.1857232,201.794498 C36.3335602,191.603581 34.404034,181.423882 32.6701909,171.212771 C31.5871078,164.854105 30.8908402,158.432615 29.8532648,152.064974 C28.0716386,141.106709 26.1261848,130.175368 24.3195294,119.22159 C23.1249525,111.999097 22.0464202,104.758654 20.9405832,97.5249422 C19.9166602,90.8386951 18.9518971,84.1479605 17.9097709,77.4662008 C17.5297817,75.0183164 16.9905155,72.592869 16.5559171,70.149472 C16.1417971,67.8294788 14.8744078,66.3486322 12.4807032,65.8415543 C11.5000125,65.6328896 10.5284232,65.3501825 9.58413862,65.009139 C8.46920015,64.6120029 7.338334,64.2014045 6.29848323,63.6427214 C3.02420477,61.8903862 1.05599708,59.2271058 0.892169385,55.4823587 C0.753370923,52.3882866 0.678283231,49.2919708 0.678283231,46.1934113 C0.678283231,33.3055578 0.723790923,20.4132168 0.728341692,7.52311957 C0.728341692,6.4910143 0.732892462,5.53743879 1.76819246,4.92715046 C3.23126477,4.06332323 4.79900477,4.39539188 5.58173708,5.98842391 C6.17788785,7.19553833 6.61021092,8.53951888 6.81272015,9.86554977 C7.22911554,12.6208221 7.50898785,15.3985315 7.73652631,18.1762408 C8.33267708,25.5311127 8.86739246,32.890472 9.438514,40.2453438 C9.47947092,40.7995395 9.55000785,41.36271 9.70018323,41.8967122 C9.99598323,42.9355486 10.2440002,43.0499777 11.982394,42.9893976" id="Fill-37" fill="#FBC347" mask="url(#mask-2)"></path>
                    </g>
                    <g id="Group-42">
                        <mask id="mask-4" fill="white">
                            <use xlink:href="#path-3"></use>
                        </mask>
                        <g id="Clip-41"></g>
                        <path d="M1.603236,7.01938622 C1.84215138,8.86067287 2.10382062,10.204072 2.17890831,11.5564421 C2.66128985,20.0407143 2.32453292,28.5272291 2.25172062,37.013744 C2.20166215,42.775334 2.11064677,48.5369241 2.15842985,54.2985141 C2.20166215,59.3155156 4.23358062,61.9036335 9.08925138,63.4870055 C9.50792215,63.6215697 9.93114369,63.738192 10.3520898,63.8637852 C11.2531422,64.1329136 12.1519191,64.4199839 13.0575222,64.6666849 C15.6014022,65.3574477 17.1350114,66.9991308 17.7766698,69.490811 C17.9473237,70.1501756 18.1475575,70.8072974 18.2613268,71.4778756 C19.4559037,78.5694083 20.6595822,85.6586984 21.8086514,92.7569594 C23.7609314,104.816153 25.6631529,116.882076 27.6131575,128.94127 C29.0466498,137.815778 30.5347514,146.681315 31.9636929,155.558066 C32.9785145,161.864641 33.8568129,168.191401 34.9330698,174.486762 C36.6487098,184.509552 38.4781191,194.512156 40.2688468,204.521489 C40.4986606,205.802092 40.8149391,207.066995 41.0538545,208.347598 C41.2245083,209.258149 41.7933545,209.590074 42.6625514,209.536248 C43.163136,209.50485 43.6750975,209.484665 44.1574791,209.3658 C46.6558514,208.746805 49.1496729,208.112111 51.6321175,207.450503 C52.2942545,207.273327 52.9359129,207.001956 53.5730206,206.744041 C54.2192298,206.481641 54.5673637,206.003938 54.4900006,205.286263 C54.373956,204.241147 54.3170714,203.187061 54.1168375,202.157645 C53.0314791,196.550804 51.3363175,191.098712 49.7685775,185.615221 C48.4716083,181.087136 47.0858991,176.576993 45.9891637,171.999568 C44.2393929,164.706189 42.7444652,157.352256 41.0584052,150.040935 C38.7693683,140.134768 36.3574606,130.251028 34.0889022,120.338133 C32.7760052,114.596727 31.6610668,108.81271 30.4164314,103.05112 C29.0170698,96.5673686 27.7087237,90.0567046 26.1045775,83.6200509 C24.853116,78.6052921 23.995296,73.559135 23.6244083,68.4165403 C23.3854929,65.1399023 24.3457052,62.3005979 26.7371345,59.9703947 C27.4971129,59.2302916 28.254816,58.4879458 29.0216206,57.754571 C31.4517314,55.4243678 32.4460745,52.6344036 31.8544745,49.3106681 C30.8897114,43.8810031 30.0114129,38.4333962 28.9761129,33.0171876 C27.2331683,23.8847646 25.1352637,14.8241092 22.7301822,5.83746409 C22.6027606,5.35976122 22.4935422,4.87084466 22.3001345,4.41781189 C22.0339145,3.79657389 21.7722452,3.08338368 20.8962222,3.14169483 C20.2545637,3.18654956 19.8927775,3.89749703 19.9542129,4.91345666 C19.9951698,5.53020919 20.0884606,6.14471899 20.1589975,6.76147152 C21.2853129,16.425423 22.4343822,26.0916173 23.5242914,35.7600543 C23.7927868,38.1687533 23.788236,40.5819377 22.8280237,42.90317 C22.3547437,44.0536938 21.6266206,44.7130583 20.327376,44.8207097 C18.9439422,44.9350893 17.9746283,44.3407641 17.4103329,43.2059394 C17.0075898,42.3895833 16.7277175,41.4610904 16.6253252,40.5595104 C16.2043791,36.9262773 15.9063037,33.2795877 15.5035606,29.6441119 C14.7640606,22.9921555 13.9995314,16.3424418 13.2054222,9.69497084 C13.0575222,8.47043672 12.7435191,7.25935902 12.4363422,6.059495 C12.3271237,5.64458875 12.0085698,5.2790227 11.690016,4.72058132 C10.6729191,5.86437693 10.7525575,6.9812597 10.8412975,8.07347236 C11.2440406,13.0142208 11.690016,17.9527266 12.0904837,22.8957178 C12.5432852,28.4554616 12.9960868,34.0152053 13.3806268,39.5794345 C13.4739175,40.9273192 13.4079314,42.3088448 13.2236252,43.6500013 C13.0347683,45.022556 12.1200637,45.7581735 10.832196,45.890495 C9.19619446,46.0564575 7.66258523,45.1324501 7.15062369,43.5894474 C6.93673754,42.9502675 6.82751908,42.2617474 6.76380831,41.5866837 C6.49076215,38.7473793 6.22454215,35.9103176 6.010656,33.0687705 C5.61246369,27.6929311 5.31211292,22.3058781 4.84565908,16.936767 C4.61356985,14.2880952 4.12891292,11.6618507 3.70569138,9.03560632 C3.62150215,8.50407777 3.37348523,7.94787912 3.04582985,7.52175919 C2.85924831,7.27505818 2.35638831,7.26384449 1.603236,7.01938622 M11.3032006,43.694856 C11.3327806,42.2348345 11.4419991,40.8824644 11.3760129,39.5390653 C11.2372145,36.7535866 11.0347052,33.9725933 10.8071668,31.1916001 C10.3793945,25.9435967 9.91749138,20.6955933 9.46924062,15.4475899 C9.264456,13.0411337 9.00051138,10.6324347 8.88219138,8.22149297 C8.83440831,7.18983419 8.96182985,6.11332068 9.23260062,5.11081747 C9.53750215,3.97823554 10.3020314,3.14169483 11.6217545,3.06544179 C12.7184898,3.00264517 13.6286437,3.61491223 14.056416,5.01213706 C14.559276,6.66951932 14.9915991,8.36951358 15.2123114,10.0807215 C16.0564791,16.595871 16.8278345,23.1199915 17.576436,29.6463546 C17.9632514,33.0328867 18.2135437,36.4328752 18.5935329,39.8216501 C18.6868237,40.664919 18.9325652,41.532858 19.3034529,42.2953884 C19.6811668,43.0781034 20.4684498,43.0108214 20.8734683,42.2191354 C21.5424314,40.9093773 21.6562006,39.4852396 21.5788375,38.0498882 C21.4855468,36.3162529 21.3831545,34.5826176 21.1920222,32.8579533 C20.1999545,23.9273766 19.1623791,15.0012854 18.1816883,6.06846595 C18.0747452,5.10408926 18.108876,4.08588689 18.2931822,3.13720936 C18.5275468,1.92837439 19.4536283,1.21966966 20.6459298,0.993153277 C21.7995498,0.775607838 22.8348498,1.2219124 23.4310006,2.17058993 C24.0499052,3.15066578 24.586896,4.24512118 24.8781452,5.35976122 C25.7814729,8.77544889 26.5755822,12.2202921 27.3628652,15.6628926 C28.7736037,21.830418 30.2594298,27.9800014 31.508616,34.1744396 C32.5712206,39.4605695 33.4176637,44.7915541 34.229976,50.1225388 C34.7783437,53.7198881 33.5996945,56.8462627 30.9921037,59.4321379 C30.1047037,60.3135333 29.2104775,61.1837151 28.3276283,62.0673533 C26.7849175,63.6081132 26.1387083,65.4763127 26.1614622,67.6293398 C26.2092452,71.8681117 26.9214406,76.0037178 27.9157837,80.1168965 C29.3743052,86.1431295 30.7645652,92.1873043 32.100216,98.2404501 C33.638376,105.201904 35.0081575,112.201485 36.5918252,119.156211 C38.8194268,128.947998 41.2154068,138.706144 43.4657622,148.495689 C44.4100468,152.604383 45.1358945,156.762416 46.0164683,160.884566 C46.5989668,163.60949 47.2292483,166.32993 47.9323422,169.027942 C49.5751698,175.325546 51.1133298,181.654548 53.0018991,187.882627 C54.6811329,193.413216 56.0941468,198.990901 57.1044175,204.671753 C57.2022591,205.21898 57.3251298,205.775179 57.3165057,206.322407 C57.2978252,207.416862 56.7562837,208.291529 55.6914037,208.596542 C51.8960622,209.684269 48.0779668,210.6935 44.2689729,211.731887 C44.2098129,211.749829 44.1461022,211.761043 44.0846668,211.770014 C40.6579375,212.285843 39.3040837,211.411176 38.5759606,208.098654 C38.1618406,206.221484 37.8501129,204.324129 37.5065298,202.433502 C35.6543668,192.24475 33.727116,182.069454 31.9887222,171.862761 C30.9079145,165.506846 30.2093714,159.090376 29.1740714,152.72549 C27.3947206,141.769723 25.4469914,130.84311 23.640336,119.894071 C22.4457591,112.674702 21.3672268,105.437391 20.2591145,98.2045663 C19.2374668,91.525697 18.2727037,84.8356141 17.2328529,78.1589876 C16.8505883,75.7099193 16.3113222,73.2855212 15.8744483,70.8454239 C15.4626037,68.5264344 14.1929391,67.0439855 11.7992345,66.5348844 C10.8208191,66.3263099 9.84922985,66.0437251 8.90722062,65.7073146 C7.79000677,65.3058648 6.65914062,64.8976867 5.61928985,64.3414881 C2.34501138,62.5876681 0.376803692,59.9277827 0.212976,56.1824127 C0.0741775385,53.0896791 0.00136523077,49.99246 -0.000910153845,46.8974837 C-0.000910153845,34.0129626 0.0423221538,21.1284415 0.0468729231,8.24392034 C0.0468729231,7.21226155 0.0514236923,6.25685581 1.08672369,5.64907422 C2.55207138,4.78562068 4.117536,5.11754568 4.90481908,6.70764584 C5.49869446,7.91423807 5.93101754,9.25763723 6.13125138,10.5853372 C6.55219754,13.3371749 6.82979446,16.1181681 7.05505754,18.8946759 C7.65348369,26.2441234 8.19047446,33.6002991 8.75932062,40.9519893 C8.80255292,41.5059452 8.86853908,42.0711148 9.02098985,42.6026433 C9.31678985,43.6387876 9.56480677,43.7554099 11.3032006,43.694856" id="Fill-40" fill="#444445" mask="url(#mask-4)"></path>
                    </g>
                    <g id="Group-45" transform="translate(242.000000, 7.000000)">
                        <mask id="mask-6" fill="white">
                            <use xlink:href="#path-5"></use>
                        </mask>
                        <g id="Clip-44"></g>
                        <path d="M7.1928,188.653396 C5.66505,188.381502 4.13055,188.143314 2.6118,187.828726 C0.87255,187.466949 0.2538,186.365891 0.62055,184.54802 C1.52055,180.080867 2.4318,175.611467 3.28005,171.135326 C4.3668,165.385102 5.3883,159.623644 6.45705,153.871173 C7.6383,147.482785 8.9028,141.110126 10.02105,134.710502 C11.74005,124.877373 13.2858,115.012785 15.05205,105.186396 C16.8768,95.0431729 18.88605,84.9336553 20.7963,74.8039141 C21.44205,71.3793965 22.21155,67.9593729 22.60305,64.5033965 C23.0643,60.4497024 22.2183,56.6319494 19.90755,53.2568671 C18.75105,51.5670788 17.63505,49.8413376 16.5753,48.0796435 C12.21255,40.8306318 11.2068,32.9187376 12.4983,24.4990082 C13.59405,17.3735847 17.0478,11.5761729 21.9888,6.68882 C26.31105,2.41266706 31.4883,0.0869611765 37.56105,0.471208235 C39.33405,0.581314118 41.0283,1.00825529 42.63705,1.78573765 C46.08405,3.44631412 48.8628,5.94504353 50.88555,9.22799647 C51.72255,10.5874671 52.26705,12.2120906 52.63155,13.7962671 C53.7363,18.5780082 53.66205,23.4518788 52.9713,28.3167612 C52.33905,32.7322318 51.55605,37.1364671 49.7223,41.2418435 C47.6523,45.88202 44.7813,49.8660553 40.4253,52.5265729 C37.8693,54.0860318 36.30105,56.4544318 35.29305,59.25202 C33.7248,63.6113141 32.72355,68.1189141 31.90005,72.6669612 C31.0698,77.2621965 30.24855,81.8619259 29.5308,86.4728906 C28.52055,92.9421729 27.44505,99.4069612 26.70705,105.907702 C25.8003,113.895996 25.1343,121.917996 24.50655,129.933255 C24.07905,135.434055 24.05655,140.966314 23.5728,146.464867 C22.6593,156.826055 21.58605,167.173761 20.48355,177.521467 C20.21805,180.017949 19.51605,182.471738 19.1268,184.961479 C18.4563,189.237632 15.10605,190.480255 11.8593,189.835349 C10.2888,189.525255 8.7363,189.116291 7.17255,188.75002 C7.1793,188.718561 7.18605,188.687102 7.1928,188.653396" id="Fill-43" fill="#D4E7E4" mask="url(#mask-6)"></path>
                    </g>
                    <path d="M288.277002,43.20837 C288.673305,40.7798706 289.164181,38.3625727 289.443395,35.9228718 C289.900495,31.9216725 289.918509,27.9092717 289.042588,23.9842431 C288.722843,22.5549234 288.234219,21.0897586 287.479891,19.8710282 C285.800104,17.1490478 283.48308,15.0588357 280.677431,13.5735081 C278.950358,12.6617006 277.101692,12.2606846 275.158454,12.177793 C271.715567,12.0344129 268.587922,13.1254454 265.669686,14.9221766 C260.835234,17.8995527 257.471157,22.3129695 255.160888,27.4432866 C252.402525,33.5683027 251.999466,40.0450479 253.30997,46.5912428 C254.01476,50.1152554 255.185657,53.4398801 257.185188,56.4105353 C258.329064,58.1064523 259.418899,59.8449353 260.560523,61.5430926 C263.318886,65.638385 264.084472,70.2556703 263.361669,75.1081886 C262.665886,79.7590786 261.607575,84.3584414 260.733906,88.9869284 C259.292802,96.6107139 257.806664,104.225538 256.460133,111.867246 C255.336522,118.243177 254.465105,124.661674 253.343746,131.037606 C251.648197,140.684394 249.853573,150.311019 248.065703,159.939885 C246.649369,167.570392 245.248796,175.203139 243.708616,182.809002 C242.990316,186.357658 242.731368,190.016089 241.31053,193.419124 C240.943498,194.290606 241.132643,194.420544 242.145919,194.617692 C244.933554,195.164328 247.716686,195.737849 250.508825,196.277764 C251.112287,196.39426 251.736015,196.490594 252.348484,196.46147 C254.035025,196.378578 254.79836,195.726647 255.167643,194.019528 C255.663022,191.720967 256.201184,189.420166 256.525433,187.09248 C257.052336,183.333235 257.468905,179.558307 257.84044,175.781139 C258.549733,168.600936 259.290551,161.418492 259.835468,154.227087 C260.598803,144.15912 260.679865,134.053067 261.889041,124.005263 C262.690655,117.371696 263.303124,110.711245 264.269114,104.100081 C265.403983,96.3194732 266.775283,88.5702301 268.151087,80.8254676 C268.927932,76.4546167 269.911936,72.1106496 271.467877,67.9324656 C272.771626,64.4330965 274.786919,61.4915654 278.06543,59.6074621 C279.772238,58.6262049 281.154797,57.2506527 282.43828,55.7317204 C285.514135,52.0889712 287.261474,47.8390973 288.277002,43.20837 M245.678875,197.660037 C244.149954,197.388959 242.614278,197.153726 241.094364,196.837842 C239.353781,196.477152 238.734557,195.381639 239.101588,193.566985 C240.004529,189.113243 240.914226,184.6595 241.763126,180.194556 C242.850709,174.461595 243.872992,168.717432 244.942561,162.98223 C246.124717,156.61302 247.390186,150.259492 248.509293,143.881321 C250.231862,134.077711 251.776546,124.240496 253.544149,114.445847 C255.370298,104.330833 257.381088,94.2516642 259.292802,84.1523326 C259.939047,80.7380954 260.709137,77.3283389 261.100937,73.8827373 C261.562541,69.8434527 260.715892,66.0349204 258.403371,62.6722104 C257.245985,60.987495 256.129129,59.2646942 255.068567,57.510529 C250.702473,50.2810386 249.695952,42.3951364 250.988442,34.0006831 C252.085032,26.8966502 255.541429,21.1166423 260.486216,16.2439613 C264.811779,11.9806454 269.992998,9.65968104 276.070402,10.0405343 C277.844761,10.1525499 279.54031,10.5804497 281.150293,11.3533578 C284.599935,13.0111895 287.383067,15.5001773 289.405116,18.7755151 C290.242757,20.1286643 290.787674,21.7484106 291.152454,23.3278314 C292.258051,28.097458 292.183744,32.9566972 291.492464,37.8069751 C290.85973,42.2091904 290.07613,46.6002041 288.240974,50.6932562 C286.169387,55.3172624 283.296187,59.2915779 278.936848,61.9418683 C276.378889,63.498886 274.809437,65.8579357 273.800664,68.6471255 C272.231212,72.993333 271.229194,77.4896414 270.405063,82.0217949 C269.574177,86.6032352 268.752297,91.1891561 268.033997,95.788519 C267.025225,102.23838 265.946649,108.683761 265.208083,115.162747 C264.300638,123.1293 263.634127,131.124978 263.005896,139.118415 C262.578069,144.602702 262.555551,150.118352 262.071431,155.598158 C261.15723,165.928242 260.083158,176.247124 258.979813,186.561526 C258.714109,189.052754 258.011571,191.496936 257.622023,193.981443 C256.951009,198.242519 253.598191,199.483652 250.348952,198.840682 C248.777248,198.529279 247.223558,198.121542 245.65861,197.756371 C245.665365,197.727247 245.67212,197.693642 245.678875,197.660037" id="Fill-46" fill="#444445"></path>
                    <path d="M259.593198,33.045971 C260.532664,29.352556 262.355541,26.0753324 264.373486,22.9755019 C266.582015,19.5845648 269.714314,17.3034717 273.629128,16.5256712 C275.243484,16.2072734 276.902684,16.1026569 278.546188,16.002589 C279.019284,15.9730235 279.570856,16.2004506 279.963234,16.4915572 C280.234535,16.6939672 280.472204,17.2375178 280.40494,17.5627385 C280.337675,17.8925077 279.916148,18.2245512 279.577582,18.3951214 C279.272648,18.5452233 278.871301,18.4519782 278.512555,18.5042864 C276.828692,18.7567304 275.120165,18.9113808 273.463208,19.3071039 C270.494587,20.0166762 268.129106,21.8952235 266.443001,24.4492291 C264.676178,27.1260453 263.003526,29.941592 262.227738,33.1574102 C261.884687,34.5742807 261.620112,36.0298137 261.512488,37.4762496 C261.380201,39.3115858 261.469887,41.156019 261.416075,42.998178 C261.342084,45.5862977 262.108903,47.9469903 263.312944,50.0779816 C264.37797,51.9610774 265.714299,53.6872486 267.068564,55.3611116 C268.12238,56.6619942 268.875746,56.6574457 270.351088,55.8387083 C276.261425,52.5683076 279.608972,47.2396922 281.38028,40.701165 C281.714362,39.4639619 281.656066,38.1198681 281.80629,36.8303568 C281.891492,36.1003161 281.7749,35.1041856 282.714366,34.9836493 C283.754729,34.8494674 283.649347,35.897906 283.795087,36.596107 C284.364596,39.304763 283.656073,41.8883341 282.783873,44.3968543 C281.27714,48.7361621 278.649327,52.3545262 275.427341,55.4270654 C274.032717,56.7552393 272.227777,57.6558504 270.512524,58.5473643 C268.860051,59.4070385 267.196367,58.9953956 265.927304,57.7081586 C262.041638,53.757751 259.155977,49.2023875 259.014721,43.2369764 C258.954182,40.5897257 259.093196,37.933378 259.198578,35.283853 C259.229968,34.5356181 259.454184,33.7919317 259.593198,33.045971" id="Fill-48" fill="#444445"></path>
                </g>
            </g>
        </g>
    </g>
</svg>