<?xml version="1.0" encoding="UTF-8"?>
<svg width="164px" height="47px" viewBox="0 0 164 47" version="1.1" xmlns="http://www.w3.org/2000/svg" xmlns:xlink="http://www.w3.org/1999/xlink">
    <title>10CF2892-E3B8-49CB-8D76-C52CAA8AF0C2</title>
    <g id="Website-UI" stroke="none" stroke-width="1" fill="none" fill-rule="evenodd">
        <g id="Website-Home---Desktop" transform="translate(-126.000000, -324.000000)">
            <g id="lid" transform="translate(126.976744, 325.000000)">
                <path d="M40.6071259,40.2392308 C40.6041118,40.2586747 40.6026048,40.2751272 40.5995908,40.2945711 C43.568426,40.6221255 46.5342472,40.9661324 49.5045894,41.2667646 C50.8322766,41.401376 52.169006,41.4597076 53.5042283,41.532996 C54.5244829,41.5898319 55.5507655,41.5838492 56.5710201,41.6571377 C59.979906,41.8994382 63.3435812,42.4797629 66.7147916,43.0032517 C68.7658498,43.3218321 70.813894,43.6538735 72.8679663,43.9425402 C74.8964192,44.2252242 76.9324072,44.4465852 78.9608601,44.7173037 C81.643361,45.0762674 84.3424391,45.195922 87.0415172,45.3080982 C88.4882593,45.3679255 89.9380153,45.4232657 91.3847574,45.5055282 C93.8849085,45.643131 96.3820455,45.8076561 98.8791825,45.9467545 C99.5889903,45.9871379 100.300305,45.9751725 101.01162,45.9991034 C101.4366,46.0125645 101.762117,45.8749618 102.057494,45.5518944 C102.750725,44.7980705 103.386688,44.0098459 103.87195,43.1049581 C104.568194,41.8126886 105.273481,40.5234105 105.995345,39.2431064 C106.228933,38.8273067 106.504719,38.4294552 106.798588,38.0525433 C107.074373,37.6965709 107.466199,37.545507 107.930362,37.5948645 C108.240809,37.6292652 108.557284,37.6756314 108.866224,37.6561875 C110.108011,37.5843947 111.300066,37.8491305 112.483079,38.1602324 C114.244789,38.6268853 116.030611,38.9514484 117.83301,39.2131928 C120.759649,39.6439493 123.678752,40.1046194 126.599363,40.572768 C127.889374,40.7791721 129.174865,41.0229684 130.458849,41.2667646 C131.378133,41.4432551 132.292896,41.655642 133.213687,41.8366195 C133.909931,41.9727266 134.613711,42.0774244 135.31297,42.2075487 C135.621909,42.2643847 135.86454,42.1821221 136.072509,41.9458043 C136.25938,41.7334175 136.459814,41.5315003 136.666276,41.3385573 C137.398689,40.6580219 138.201933,40.0836799 139.154371,39.7396729 C139.663745,39.555704 140.145992,39.5631824 140.625225,39.8533448 C141.060755,40.1195762 141.509848,40.3648681 141.972504,40.5832378 C142.944534,41.0454036 143.931634,41.4776558 144.906678,41.9353346 C145.173421,42.0594762 145.384404,42.0146057 145.621007,41.8605504 C146.431785,41.3295832 147.176254,40.7163535 147.825781,40.0014173 C148.95002,38.7659838 150.065217,37.5230718 151.16233,36.2637073 C152.765802,34.4255137 154.43257,32.6591129 156.442938,31.2412061 C156.555965,31.1619349 156.549937,31.0258278 156.423347,30.9944185 C155.983296,30.8867294 155.544753,30.7625877 155.097167,30.6967777 C153.91114,30.5187915 152.753746,30.2376032 151.634028,29.8158208 C151.317553,29.6976619 151.002586,29.5555721 150.716251,29.3760902 C150.016993,28.9333683 149.848206,28.4024011 150.184272,27.635116 C150.363608,27.2223077 150.595689,26.8304389 150.832292,26.4445529 C151.522508,25.3108257 152.226288,24.1860726 152.921026,23.0523454 C153.067207,22.8130363 153.193797,22.5587703 153.31888,22.306 C153.395738,22.1489533 153.335457,22.0292987 153.163656,21.990411 C152.389047,21.8109291 151.614437,21.6269602 150.83832,21.4609395 C149.448845,21.1632987 148.065398,20.8267702 146.663866,20.5994265 C144.050689,20.1761484 141.481214,19.5763798 138.913247,18.9452018 C137.229903,18.5308978 135.536009,18.167447 133.843622,17.7905351 C132.597314,17.5123382 131.340457,17.2670463 130.097163,16.9738925 C127.827587,16.4414296 125.562531,15.8999926 123.250758,15.5769253 C121.956225,15.3974434 120.666213,15.173091 119.376202,14.9607042 C118.954235,14.8919028 118.53679,14.8051532 118.122359,14.7079339 C117.588873,14.5837922 117.109639,14.3325176 116.680138,14.0034675 C116.241594,13.6684346 116.209947,13.2346868 116.565604,12.8323482 C116.696715,12.6842757 116.853445,12.5586384 117.001134,12.4270183 C117.489409,11.9932705 117.994262,11.5804621 118.462946,11.1272704 C119.19988,10.4168213 120.018194,9.81256566 120.877197,9.25318048 C121.612624,8.77306646 122.320925,8.24957765 123.036761,7.73954998 C123.098548,7.6961752 123.131703,7.61241699 123.178421,7.54660697 C123.116633,7.50622354 123.060873,7.44340489 122.994564,7.43143943 C122.741384,7.39255169 122.486697,7.36712509 122.23201,7.34319417 C119.798168,7.11136342 117.365833,6.85859311 114.92747,6.65667599 C113.682669,6.5549696 112.430333,6.52356027 111.179504,6.4951423 C109.078714,6.45027184 106.971896,6.48616821 104.872613,6.38894886 C102.685923,6.28873815 100.50526,6.07934262 98.3230911,5.90434779 C96.1409218,5.72935296 93.9602596,5.52294881 91.7765833,5.35842375 C90.7563288,5.28064827 89.7330602,5.26868281 88.7097916,5.22979507 C86.7491548,5.15351528 84.7870109,5.1176189 82.8308951,4.99497295 C81.0721993,4.88279678 79.3195316,4.67190557 77.5623428,4.51635461 C75.8352945,4.3652907 74.1082462,4.17683473 72.3751698,4.10205061 C70.3331537,4.01230968 68.2836025,4.02427513 66.2385723,4 C65.6432983,3.99436149 65.0450101,4.0691456 64.4587782,4.00931831 C63.9735168,3.96145648 63.654028,4.11252039 63.3435812,4.45503164 C62.9291499,4.91719747 62.474029,5.34496261 62.0294572,5.78020616 C61.4824079,6.31416475 60.9082321,6.82269673 60.3822811,7.37609918 C59.7583736,8.03270372 59.1691276,8.72071758 58.5738536,9.40274871 C57.9604952,10.1072151 57.1949276,10.4706659 56.2545452,10.4631875 C55.2599101,10.4542134 54.2652749,10.451222 53.2691328,10.4392565 C51.7349834,10.4213084 50.200834,10.4018645 48.6666847,10.3809249 C47.1596617,10.3599854 45.6541458,10.3450286 44.1471228,10.3166106 C42.7260002,10.2896883 41.3048775,10.2283653 39.8852619,10.2208869 C37.6111643,10.2119128 35.3370666,10.2971667 33.062969,10.1849906 C31.557453,10.1087108 30.0489231,10.0294396 28.5675195,9.74376428 C27.8968943,9.6151356 27.2925781,9.66898016 26.6566144,9.90828933 C25.7222602,10.262766 24.8150323,10.639678 24.0524787,11.3112393 C23.7797076,11.5535399 23.4436414,11.727039 23.1316877,11.9229734 C22.6554684,12.2280926 22.1807562,12.240058 21.6939878,11.9289561 C21.0007572,11.4862342 20.2999916,11.0554777 19.6007329,10.6262168 C19.2616527,10.4198127 18.9120234,10.2328524 18.5714362,10.0309353 C18.2745527,9.85294908 17.9882183,9.86042749 17.6898278,10.032431 C17.4939148,10.1461028 17.2814246,10.2328524 17.0764695,10.3285761 C14.9380039,11.3187177 12.8100875,12.3283033 10.6595657,13.290027 C9.48860887,13.8135158 8.36286272,14.4028147 7.28835535,15.0968113 C6.64636357,15.5141066 6.00135775,15.9463588 5.30662016,16.2589564 C3.77548484,16.9469703 2.34682708,17.8264315 0.853367328,18.5802553 C0.770481065,18.6221344 0.719242285,18.7193538 0.652933275,18.7926422 C0.746368698,18.8509738 0.830761984,18.9392191 0.933239545,18.9616543 C1.29191101,19.0439169 1.65510354,19.118701 2.02131012,19.1710499 C2.61206312,19.2563037 3.21035123,19.2966872 3.79658316,19.3983936 C4.72038823,19.5599273 5.63967224,19.7453919 6.55443517,19.9443176 C6.76843243,19.9891881 6.98242969,20.0998686 7.15724435,20.23448 C7.43755062,20.4528496 7.47070513,20.870145 7.2521868,21.1483419 C7.16930054,21.2590224 7.05325977,21.3487633 6.94023305,21.4310258 C6.22741119,21.9440449 5.52965956,22.4809948 4.78971129,22.9521347 C3.35502544,23.8719793 2.13433684,25.0849777 0.628820908,25.9016202 C0.574568081,25.9330296 0.545934645,26.0212748 0.523255814,26.0900762 C0.520315255,26.1020417 0.610736632,26.1603733 0.661975413,26.1693474 C1.33410765,26.2830192 2.00322584,26.4310918 2.68138617,26.4969018 C5.96368217,26.8154821 9.24899222,27.1161143 12.5343023,27.4167464 C12.844749,27.4451644 13.1582098,27.4346946 13.4716705,27.4481557 C14.6637257,27.4975133 15.863316,27.4885392 17.047836,27.6111851 C20.9811659,28.0195064 24.9069607,28.4771852 28.8342626,28.9139244 C30.1619498,29.0605013 31.4926511,29.1995997 32.8203383,29.3506636 C33.6687922,29.4463873 34.5142321,29.5480937 35.359672,29.6662526 C35.6384712,29.7036447 35.9217915,29.7739417 36.1809995,29.8771438 C36.6918802,30.083548 36.8244983,30.6279763 36.4824041,31.0617242 C36.3603352,31.2157795 36.1990837,31.3384254 36.0544095,31.4760282 C35.1110132,32.3719419 34.1374763,33.242429 33.2272345,34.1727434 C31.9733914,35.4530474 30.6306339,36.6196796 29.1477233,37.6337522 C28.799601,37.8715657 28.4786051,38.1557454 28.1591163,38.4339423 C27.9797805,38.5879976 28.0189631,38.7614967 28.2450166,38.792906 C28.7513763,38.8646988 29.2607501,38.9080736 29.7686168,38.9604225 C30.898884,39.0770857 32.0321653,39.1728093 33.1594184,39.3119078 C34.3439385,39.456989 35.5224304,39.6574104 36.7069505,39.805483 C38.0029902,39.9670166 39.3065651,40.0956453 40.6071259,40.2392308" id="Fill-1" fill="#EDFFFE" opacity="0.370047433"></path>
                <path d="M90.0772983,34.1158736 C88.8282244,33.97776 86.5422685,33.737175 84.2593225,33.4713435 C83.5264321,33.3881783 82.805581,33.2248181 82.0757004,33.1193765 C81.1772701,32.9901735 80.27583,32.8713661 79.3743899,32.7703798 C77.1757187,32.5238544 74.9755427,32.2802992 72.7723568,32.0560503 C70.5992691,31.8362566 68.4231716,31.6238883 66.2470741,31.4412219 C61.9746392,31.0818295 57.7172533,30.6021446 53.468897,30.0437498 C51.7502916,29.8150456 50.0286764,29.6754469 48.293517,29.6398047 C46.9330799,29.613073 45.5741476,29.5195122 44.2152153,29.4125855 C43.7125759,29.372488 43.218966,29.2091278 42.7223462,29.0962608 C42.6139928,29.0724993 42.5056394,29.0309167 42.4048105,28.9819087 C42.0887798,28.8215187 41.9563478,28.5601424 42.0556718,28.3032214 C42.1384417,28.0834277 42.3431093,27.9854116 42.6937529,28.0017476 C42.7765229,28.0062029 42.8623027,28.0180836 42.9465776,28.0299643 C44.2107006,28.248273 45.4913776,28.2185711 46.7675399,28.2349071 C49.5501155,28.2690643 52.3206519,28.410148 55.0806538,28.8185485 C58.5630118,29.3294203 62.0634287,29.6873276 65.57438,29.9620698 C68.1763666,30.1655274 70.7708287,30.4670012 73.3667956,30.7372881 C75.2584655,30.9303501 77.1471255,31.1501438 79.0387953,31.346176 C80.620454,31.5095362 82.1885686,31.7560616 83.7627027,31.9803105 C86.0351144,32.3025756 88.325585,32.5387053 90.6145506,32.7213717 C93.8425791,32.9782927 97.0600732,33.2961025 100.250479,33.8500421 C100.441602,33.8827141 100.64326,33.9361774 100.804285,34.0341935 C101.115801,34.2242854 101.090218,34.7247616 100.757633,34.8643603 C100.528887,34.9579211 100.264023,35.0054441 100.015713,34.9995037 C99.4212745,34.9876229 98.820816,34.9742571 98.2339018,34.8881217 C95.8727005,34.5346697 93.4949453,34.3534884 90.0772983,34.1158736" id="Fill-22" stroke="#444445" stroke-width="0.25" fill="#444445"></path>
                <path d="M126.704683,5.92838172 C126.706683,5.92838172 126.712683,5.93238172 126.714683,5.93238172 C127.682683,6.18038172 127.410683,6.04438172 126.704683,5.92838172" id="Fill-11" stroke="#444445" stroke-width="0.25" fill="#E34425"></path>
                <path d="M43.8549103,37.8698085 C43.8518896,37.8893712 43.8503792,37.9059243 43.8473585,37.925487 C46.8227906,38.2550437 49.7952019,38.6011534 52.7721444,38.9036233 C54.1027818,39.0390575 55.4424814,39.0977457 56.7806706,39.1714821 C57.8031922,39.2286654 58.8317553,39.2226461 59.8542769,39.2963826 C63.2707375,39.5401642 66.6418869,40.1240363 70.0205883,40.650725 C72.076204,40.9712527 74.1287991,41.3053238 76.1874356,41.5957551 C78.2203958,41.880167 80.2609078,42.1028811 82.293868,42.3752544 C84.9823295,42.7364124 87.6874051,42.8567984 90.3924806,42.9696602 C91.8424374,43.0298532 93.2954149,43.0855317 94.7453716,43.1682971 C97.2510782,43.306741 99.7537639,43.4722718 102.25645,43.6122205 C102.967835,43.6528507 103.68073,43.6408121 104.393626,43.6648893 C104.81955,43.6784328 105.145791,43.5399889 105.441823,43.2149467 C106.136594,42.4565149 106.773971,41.6634722 107.260311,40.7530531 C107.958103,39.4528844 108.664956,38.1557253 109.388424,36.8675951 C109.622532,36.4492538 109.89893,36.0489704 110.193453,35.6697545 C110.469851,35.3116061 110.862547,35.1596188 111.327742,35.209278 C111.638878,35.243889 111.956056,35.2905386 112.265682,35.2709759 C113.510229,35.1987443 114.704933,35.4650983 115.890574,35.7781019 C117.656199,36.2476072 119.445989,36.5741543 121.252394,36.8374986 C124.185535,37.2708882 127.111125,37.7343743 130.038225,38.2053845 C131.331103,38.4130503 132.61945,38.6583368 133.906287,38.9036233 C134.827614,39.0811926 135.744409,39.2948777 136.667246,39.4769616 C137.365038,39.6139006 138.070382,39.7192384 138.771194,39.8501581 C139.08082,39.9073415 139.32399,39.8245761 139.532421,39.5868138 C139.719707,39.3731286 139.920587,39.1699773 140.127508,38.9758549 C140.861548,38.2911595 141.666576,37.7133067 142.621131,37.367197 C143.131637,37.1821035 143.614956,37.1896277 144.095254,37.4815637 C144.531751,37.7494225 144.981842,37.9962138 145.445526,38.2159183 C146.419716,38.6809092 147.409009,39.1158036 148.38622,39.57628 C148.653555,39.7011805 148.865007,39.6560357 149.102136,39.5010388 C149.914716,38.9668259 150.660839,38.3498477 151.311809,37.6305414 C152.438547,36.387556 153.556222,35.1370464 154.655772,33.8699839 C156.262808,32.020554 157.933279,30.2433558 159.948114,28.8167817 C160.061392,28.737026 160.055351,28.6000869 159.92848,28.5684856 C159.487451,28.4601382 159.047933,28.3352377 158.599353,28.2690254 C157.41069,28.0899513 156.250725,27.8070442 155.128519,27.3826836 C154.811341,27.2638024 154.495673,27.120844 154.208702,26.940265 C153.50789,26.4948369 153.338728,25.960624 153.675541,25.1886488 C153.855275,24.7733171 154.087873,24.379053 154.325001,23.9908082 C155.016751,22.8501509 155.722095,21.7185225 156.418376,20.5778652 C156.564882,20.3370932 156.691753,20.081273 156.817114,19.8269576 C156.894143,19.668951 156.833728,19.548565 156.661546,19.5094395 C155.885215,19.3288605 155.108884,19.1437671 154.331042,18.9767315 C152.93848,18.6772713 151.551959,18.3386857 150.147313,18.1099523 C147.528329,17.6840869 144.953145,17.0806521 142.379472,16.4456159 C140.692387,16.0287794 138.994729,15.663107 137.298582,15.2838911 C136.049504,15.0039937 134.789854,14.7572024 133.543798,14.4622567 C131.269178,13.926539 128.99909,13.3817924 126.68218,13.0567502 C125.38477,12.8761712 124.091892,12.6504475 122.799014,12.4367623 C122.37611,12.3675404 121.957737,12.2802605 121.542385,12.1824469 C121.007713,12.0575464 120.527415,11.8047359 120.096959,11.4736744 C119.657441,11.1365936 119.625723,10.7001944 119.982171,10.2953964 C120.113573,10.1464188 120.270652,10.0200135 120.418668,9.88758889 C120.908029,9.45118966 121.414003,9.03585797 121.883729,8.57989602 C122.622301,7.86510418 123.442432,7.2571549 124.303344,6.69435038 C125.040406,6.21130157 125.75028,5.68461285 126.467707,5.17146755 C126.529632,5.12782762 126.56286,5.04355743 126.609682,4.97734513 C126.547756,4.93671486 126.491873,4.87351221 126.425416,4.86147361 C126.171674,4.82234816 125.916421,4.79676614 125.661168,4.77268894 C123.221918,4.53944107 120.784178,4.28512566 118.340397,4.08197429 C117.09283,3.9796462 115.837711,3.94804487 114.584103,3.9194532 C112.478645,3.87430845 110.367145,3.91042425 108.263198,3.81261063 C106.071648,3.71178736 103.886141,3.50111187 101.699123,3.32504735 C99.5121045,3.14898283 97.3265967,2.94131699 95.1380683,2.77578625 C94.1155467,2.69753535 93.0900044,2.68549675 92.064462,2.64637131 C90.0994685,2.56962524 88.1329647,2.53350944 86.1725023,2.41011379 C84.4098987,2.29725192 82.6533365,2.08507161 80.8922432,1.92856981 C79.1613573,1.7765825 77.4304714,1.58697455 75.6935441,1.51173331 C73.6469905,1.42144381 71.5928851,1.43348241 69.5433108,1.40905889 C68.946714,1.40338591 68.3470965,1.47862716 67.7595619,1.41843416 C67.2732223,1.37027976 66.9530235,1.52226708 66.6418869,1.86687199 C66.2265347,2.3318629 65.7704025,2.76224283 65.3248429,3.20014688 C64.776578,3.73736938 64.2011264,4.24900986 63.6740067,4.80579509 C63.0487129,5.46641323 62.4581576,6.1586327 61.8615608,6.84483287 C61.2468395,7.55360541 60.4795707,7.91927787 59.5370988,7.91175375 C58.5402536,7.9027248 57.5434083,7.89971515 56.5450527,7.88767655 C55.0074944,7.86961865 53.4699361,7.85005593 51.9323778,7.82898838 C50.4220061,7.80792083 48.9131449,7.79287258 47.4027733,7.76428091 C45.9784928,7.73719406 44.5542124,7.67549623 43.1314423,7.66797211 C40.8522916,7.65894316 38.5731408,7.74471818 36.29399,7.63185631 C34.7851288,7.55511024 33.2732468,7.47535452 31.7885515,7.18793296 C31.1164361,7.05851801 30.5107771,7.11269171 29.8734003,7.3534637 C28.9369699,7.71010721 28.0277261,8.08932309 27.2634781,8.76498949 C26.9901008,9.00877113 26.653288,9.18333082 26.340641,9.38046288 C25.8633636,9.68744717 25.3875966,9.69948577 24.8997465,9.38648218 C24.2049756,8.941054 23.5026528,8.50766442 22.8018403,8.07577967 C22.4620067,7.86811383 22.1116005,7.68001071 21.7702565,7.47685934 C21.4727133,7.29778518 21.1857427,7.3053093 20.8866891,7.47836417 C20.6903408,7.59273086 20.4773784,7.68001071 20.2719679,7.7763195 C18.1287506,8.77251361 15.9961058,9.78827044 13.8408055,10.7558729 C12.6672468,11.2825616 11.5389992,11.8754626 10.4621042,12.5737014 C9.81868591,12.9935475 9.17224686,13.428442 8.47596555,13.7429504 C6.94142798,14.4351698 5.50959569,15.3200069 4.01281741,16.0784387 C3.92974697,16.1205738 3.87839434,16.2183874 3.81193799,16.2921238 C3.90558103,16.350812 3.99016184,16.4395966 4.09286711,16.462169 C4.45233555,16.5449344 4.81633511,16.6201756 5.18335542,16.6728445 C5.77542109,16.7586195 6.37503862,16.7992498 6.96257318,16.9015779 C7.88843099,17.064099 8.80975767,17.2506973 9.72655325,17.450839 C9.94102602,17.4959837 10.1554988,17.6073408 10.3307019,17.742775 C10.611631,17.9624795 10.6448592,18.3823256 10.4258553,18.6622231 C10.3427849,18.7735801 10.2264863,18.8638696 10.1132084,18.946635 C9.3988026,19.4627899 8.69950055,20.0030221 7.95790808,20.4770419 C6.5200343,21.4025093 5.29663329,22.6229223 3.78777204,23.4445567 C3.73339866,23.476158 3.7047016,23.5649427 3.68197238,23.6341647 C3.67902529,23.6462033 3.76964758,23.7048914 3.82100022,23.7139204 C4.49462596,23.8282871 5.16523096,23.9772647 5.84489819,24.043477 C9.13448757,24.3640047 12.4270977,24.6664746 15.7197078,24.9689444 C16.0308444,24.997536 16.3450017,24.9870023 16.659159,25.0005457 C17.8538629,25.0502049 19.0561187,25.041176 20.2432708,25.1645716 C24.1853407,25.5753888 28.1198588,26.0358652 32.0558873,26.4752741 C33.3865246,26.622747 34.7201828,26.7626957 36.0508202,26.914683 C36.9011594,27.0109918 37.7484779,27.1133199 38.5957964,27.2322011 C38.8752151,27.2698217 39.159165,27.3405485 39.4189489,27.4443814 C39.9309649,27.6520472 40.0638776,28.1998035 39.7210232,28.6362027 C39.5986831,28.7911997 39.4370734,28.9145953 39.2920777,29.0530392 C38.346585,29.9544294 37.370885,30.8302375 36.4586205,31.7662386 C35.2019913,33.0543687 33.8562502,34.2281322 32.3700445,35.2484035 C32.0211487,35.4876707 31.6994396,35.7735874 31.3792408,36.0534848 C31.1995065,36.2084818 31.2387762,36.3830415 31.4653319,36.4146428 C31.9728168,36.4868744 32.4833224,36.5305143 32.9923177,36.5831832 C34.1250964,36.7005596 35.2608958,36.7968683 36.3906538,36.9368171 C37.5778059,37.0827851 38.7589165,37.2844316 39.9460686,37.4334093 C41.2449882,37.5959304 42.5514596,37.7253453 43.8549103,37.8698085 L43.8549103,37.8698085 Z M28.2361574,27.4067608 C26.4795952,27.2126383 24.7215227,27.0380787 22.9694916,26.819879 C20.7613283,26.5460009 18.5471235,26.3759557 16.3223461,26.3654219 C16.0081888,26.3639171 15.6940315,26.3413447 15.382895,26.312753 C12.4875126,26.0433894 9.59515092,25.7680064 6.70127889,25.4986427 C5.10934721,25.3511699 3.5506437,25.0005457 1.99194019,24.6664746 C1.9647535,24.6604553 1.93605644,24.654436 1.91038012,24.6469118 C1.5977332,24.5536127 1.30925222,24.4272074 1.24581661,24.0645446 C1.18389137,23.7094059 1.37872931,23.4656243 1.65965843,23.2895597 C2.14297735,22.9870899 2.63988961,22.7102021 3.11867742,22.4032179 C3.66845268,22.0480792 4.21218647,21.6854164 4.74232691,21.3031908 C5.71349586,20.6064569 6.67107146,19.8931699 7.63619893,19.187407 C7.84160947,19.0354197 8.05306149,18.8924613 8.25847203,18.7359595 C8.29925207,18.705863 8.35211507,18.6215928 8.33852173,18.6020301 C8.29925207,18.5418371 8.23732683,18.4711103 8.17087048,18.4560621 C7.83858872,18.3763063 7.5047966,18.3010651 7.16798372,18.2483962 C6.80247379,18.189708 6.43394312,18.1490778 6.06390207,18.1174764 C5.00966268,18.0301966 3.97656849,17.8451031 2.96310914,17.5396237 C2.63686887,17.4418101 2.29854563,17.3771026 1.96777424,17.295842 C1.85600674,17.27026 1.74272887,17.2552118 1.63549249,17.2160863 C1.32888705,17.1092437 1.0494683,16.9617709 1.02530235,16.5885743 C1.00113641,16.2334356 1.1929536,16.0001878 1.4965383,15.8482004 C1.7517911,15.7217952 2.00100242,15.5803416 2.26682782,15.4795183 C3.36184725,15.0626818 4.37228586,14.4788098 5.38725559,13.900957 C5.85849153,13.6361078 6.32972748,13.368249 6.82059825,13.14403 C7.8612443,12.671515 8.84600659,12.104196 9.79603034,11.4736744 C10.8653734,10.763397 11.9951314,10.1720008 13.1702005,9.6468169 C15.2499823,8.71833991 17.305598,7.74020371 19.370276,6.78163022 C19.7826075,6.59051746 20.2040012,6.41294812 20.6087808,6.20377745 C21.0785063,5.96300546 21.552763,5.97203441 22.0104056,6.1827099 C22.4982557,6.40993847 22.9694916,6.6777973 23.4331757,6.95468509 C24.0433658,7.3173479 24.6429833,7.69957343 25.2365594,8.08932309 C25.4903018,8.25485383 25.7077953,8.24432006 25.9419029,8.07126519 C26.1926246,7.88316208 26.4599604,7.72064098 26.7016199,7.52049927 C27.2982167,7.02089739 27.9793943,6.67629248 28.7013519,6.39489022 C30.5847853,5.66053565 30.5787438,5.69213697 32.5875381,5.96300546 C33.912134,6.14207963 35.2518336,6.26848492 36.5870021,6.30159107 C38.7785513,6.35726959 40.9731213,6.30309589 43.1661809,6.31814414 C44.6191584,6.32867792 46.0706255,6.38134679 47.523603,6.40843364 C48.9765805,6.43251084 50.429558,6.44454944 51.8795147,6.46862664 C53.5892554,6.49721831 55.2974857,6.53483893 57.0072264,6.56794508 C57.7760055,6.58299333 58.5447847,6.59202228 59.3135638,6.61158501 C60.0219281,6.62813808 60.5641515,6.34824064 61.0127319,5.79897954 C61.5519346,5.1383614 62.1198343,4.50031562 62.7073689,3.88484223 C63.276779,3.29043638 63.8930106,2.7366608 64.4850763,2.1633225 C64.8732418,1.78862109 65.2840629,1.43197759 65.6390002,1.0286845 C66.1359125,0.464375153 66.7838619,0.208554915 67.4816536,0.0279759225 C67.5617033,0.0054035485 67.6538359,-0.0081398759 67.735396,0.0054035485 C68.9814526,0.223603164 70.2380818,0.0791399702 71.4871591,0.0821496201 C74.5109231,0.0881689198 77.5226041,0.270252737 80.529754,0.563693599 C82.5732868,0.763835315 84.6153092,0.959462556 86.6633731,1.08737268 C88.4818605,1.20173937 90.3063895,1.21528279 92.129408,1.28600957 C93.4675973,1.34018326 94.8057865,1.38231836 96.1394446,1.49367541 C99.0650345,1.73595222 101.984583,2.03842203 104.910173,2.2776892 C106.557988,2.41161862 108.208824,2.48986951 109.85966,2.54855769 C112.421251,2.64035201 114.985862,2.67646781 117.547452,2.76826213 C118.51409,2.80136827 119.479217,2.90971567 120.442834,3.00752929 C122.74011,3.24077716 125.034364,3.48606362 127.330129,3.73135008 C127.583871,3.75843693 127.843655,3.77950448 128.088335,3.85173608 C128.615455,4.00522822 128.823886,4.50783975 128.574675,5.00292715 C128.364734,5.41976366 128.027921,5.72825277 127.653348,5.99310196 C126.72598,6.6537201 125.819757,7.34593957 124.85614,7.94937437 C123.685602,8.68372894 122.749172,9.68443752 121.699464,10.5527215 C121.569572,10.6595641 121.620924,10.8040273 121.802169,10.8476672 C122.164658,10.934947 122.522616,11.0267414 122.888126,11.0854295 C124.406049,11.3322208 125.931525,11.5428963 127.446428,11.8152696 C129.015704,12.0966719 130.577428,12.4187044 132.136131,12.7527756 C133.945557,13.1395156 135.750451,13.5563521 137.555345,13.9656645 C139.165401,14.3313369 140.776967,14.6924949 142.380982,15.0807397 C144.844398,15.6766504 147.298752,16.3071721 149.805969,16.7074555 C151.044474,16.9045876 152.266364,17.1874946 153.489765,17.459868 C154.76905,17.742775 156.040783,18.0542738 157.312516,18.3672774 C158.292747,18.6080494 158.541958,19.0459534 158.185511,19.9804497 C157.995204,20.4800516 157.732399,20.9600907 157.457512,21.4190624 C156.768782,22.5642341 156.051356,23.6898432 155.350543,24.825986 C155.202527,25.066758 155.063573,25.3150541 154.938212,25.5693695 C154.865714,25.7153375 154.926129,25.8582959 155.060552,25.9335372 C155.231224,26.0328556 155.413979,26.1216403 155.601265,26.1848429 C156.465197,26.4752741 157.333661,26.7386185 158.235353,26.8936155 C159.245792,27.0666703 160.244147,27.3149664 161.245524,27.5316612 C161.327084,27.551224 161.411665,27.5722915 161.490204,27.6069025 C161.990137,27.8220924 162.16685,28.3277136 161.898004,28.8062479 C161.817954,28.9507111 161.703166,29.0876502 161.579316,29.2005121 C161.348229,29.4111876 161.120163,29.6354065 160.851317,29.7904035 C160.05233,30.2508799 159.392298,30.8768871 158.736796,31.5059039 C157.628184,32.5698151 156.554309,33.662318 155.561995,34.8390911 C154.500204,36.1001344 153.381019,37.3130233 152.279958,38.5409604 C151.47795,39.4378361 150.518864,40.1496183 149.528061,40.8237799 C149.084011,41.1247449 148.626369,41.1127063 148.14305,40.9336321 C147.04803,40.5273294 145.974156,40.0743771 144.951635,39.5085629 C144.504565,39.2602668 144.042391,39.0330382 143.610425,38.7621697 C143.355172,38.6011534 143.131637,38.6192113 142.883936,38.7275587 C142.172551,39.0405623 141.562361,39.5070581 140.98993,40.023213 C140.715042,40.2700043 140.447706,40.5288342 140.201516,40.8027123 C139.843558,41.2014909 139.40706,41.3278962 138.890513,41.243626 C138.047726,41.1036773 137.200407,40.9878058 136.360641,40.8282943 C135.354733,40.6371816 134.356378,40.3964096 133.35047,40.203792 C132.062123,39.9570007 130.775287,39.7162287 129.480898,39.5085629 C126.611192,39.0480864 123.741486,38.5936293 120.865738,38.1737832 C119.088031,37.9134484 117.322407,37.6034545 115.594541,37.1083671 C114.266925,36.7261416 112.915142,36.5967266 111.540704,36.5876977 C111.3217,36.5861929 111.148007,36.6478907 111.030198,36.8269648 C110.87463,37.0647272 110.725103,37.307004 110.58766,37.5553001 C109.827943,38.9186715 109.066715,40.2835477 108.31455,41.6514336 C107.719464,42.7334027 106.911415,43.6453266 106.045972,44.5136106 C105.728794,44.8326335 105.360263,45.008698 104.902621,45 C103.821195,44.9816112 102.736748,45.0056884 101.658343,44.948505 C98.2720894,44.7709357 94.8888569,44.5527361 91.5026038,44.3706522 C89.7671868,44.2773531 88.0272387,44.2683241 86.2963528,44.140414 C84.4491683,44.0064846 82.6080253,43.7927995 80.7683927,43.5836288 C79.3803612,43.4256222 78.0013919,43.1998984 76.6148707,43.0449015 C74.1771309,42.774033 71.7665778,42.352682 69.3484729,41.9508937 C66.3685097,41.4543015 63.3870361,40.9682431 60.3723344,40.7259662 C59.2380453,40.6356768 58.0962043,40.6356768 56.9588945,40.5694645 C55.3095687,40.4716508 53.6557118,40.4114578 52.0139378,40.2338885 C48.076399,39.808023 44.1433913,39.3309935 40.211894,38.8554689 C38.6849083,38.6703754 37.1654744,38.4220793 35.6415095,38.2249472 C34.794191,38.1165998 33.9438518,38.0338344 33.0904918,37.9781559 C32.2930156,37.925487 31.4985601,37.8622844 30.7328017,37.6185028 C30.4881215,37.5402519 30.2419309,37.4604961 30.0168856,37.3431198 C29.6151267,37.1384636 29.4550273,36.7712863 29.6015334,36.3424112 C29.6921557,36.0805717 29.8371513,35.8262563 30.0017819,35.5990277 C30.3733333,35.0903969 30.8460796,34.6735604 31.3656474,34.3229362 C33.0028903,33.2183947 34.4634196,31.9152163 35.8257748,30.4931567 C36.3166456,29.9800114 36.858869,29.5165253 37.3769265,29.0304669 C37.5007769,28.9130905 37.6246274,28.797219 37.7288431,28.6632896 C37.7514986,28.6346979 37.700146,28.4932444 37.6608763,28.4827106 C37.4977562,28.4375658 37.3270842,28.4180031 37.1564122,28.3999452 C34.1840009,28.0688837 31.2100791,27.7423367 28.2361574,27.4127801 L28.2361574,27.4067608 Z" id="Fill-19" stroke="#444445" stroke-width="0.25" fill="#444445"></path>
                <path d="M99.3804717,9.79540805 C96.2993853,9.47095372 93.4077163,9.13019514 90.5084095,8.8742186 C87.6106302,8.61661164 84.7097958,8.38020019 81.8028512,8.25628798 C77.8556389,8.0867239 73.9389778,7.58781422 70.0070412,7.23890352 C69.5487735,7.1965125 69.0920334,7.11662174 68.6383484,7.0318397 C68.0777342,6.92423173 67.6377973,6.58347315 67.25438,6.15141084 C67.1948052,6.08619389 67.1474509,6.00630312 67.1077343,5.92478193 C66.9885847,5.68674006 66.9885847,5.4568503 67.1520335,5.23674309 C67.3154823,5.01663587 67.5323957,4.95631019 67.7706949,5.02967926 C67.9310886,5.0802224 68.0930098,5.16337402 68.2304901,5.26772114 C68.5726633,5.52369768 68.9576082,5.63130565 69.3624113,5.68510963 C69.7045845,5.72913108 70.0482852,5.76989167 70.391986,5.80413057 C72.5718126,6.02586821 74.7485841,6.26391009 76.9314658,6.45793052 C78.4223633,6.59162527 79.919371,6.66662477 81.4133236,6.75629808 C82.5360794,6.82477588 83.6588353,6.85575393 84.7785359,6.93727512 C87.2211027,7.11336089 89.6651969,7.271512 92.1016534,7.51281472 C95.4011807,7.83889948 98.6930702,8.21552738 101.98496,8.6068291 C104.876629,8.94758767 107.765243,9.31280261 110.675242,9.44812778 C111.278628,9.47747541 111.886597,9.51823601 112.479289,9.6274744 C112.926864,9.70899559 113.359163,9.89486391 113.78688,10.0693193 C113.893809,10.1133407 113.999211,10.2861656 114.019069,10.4133387 C114.051148,10.6220329 113.893809,10.7720319 113.721195,10.8013795 C113.212518,10.8894224 112.696203,11.0214868 112.187526,10.9970304 C108.820786,10.8405097 105.460156,10.5682289 102.114802,10.1198624 C101.141747,9.99105891 100.168692,9.88834221 99.3804717,9.79540805" id="Fill-24" stroke="#444445" stroke-width="0.25" fill="#444445"></path>
                <path d="M30.4290052,21.3628052 C30.9189941,21.4171106 31.8070989,21.5257214 32.6982662,21.6157133 C33.877302,21.7320821 35.0486817,21.8841372 36.2078117,22.1385969 C36.9688257,22.3046164 37.7528079,22.3527154 38.521478,22.4830485 C38.8874385,22.5435602 39.2579926,22.6366552 39.6009848,22.7778493 C39.9715389,22.9299045 40.1016922,23.2960782 39.9776637,23.6451845 C39.8888533,23.896541 39.7112323,24.0299772 39.4509257,23.9942908 C37.9350225,23.7925849 36.4114633,23.6793193 34.9062787,23.375209 C33.7517424,23.1409198 32.5589256,23.0757533 31.3798899,22.9888647 C29.3908412,22.8414642 27.4094486,22.6459647 25.4448994,22.3030648 C23.2537303,21.9229268 21.0763421,21.4760708 18.8591424,21.2635038 C18.4870571,21.2262658 18.1195654,21.136274 17.7536049,21.0571432 C17.3876445,20.9795641 17.1089633,20.782513 17.0385274,20.3868592 C16.9680915,19.9974117 17.1472437,19.7010593 17.4534867,19.4900439 C17.9557254,19.1440408 18.4594952,18.8026924 18.977046,18.4861694 C19.8421826,17.9555279 20.7333499,17.4683307 21.5892993,16.9252764 C23.1281706,15.9462273 24.6532611,14.9392496 26.1814139,13.9415814 C26.4233459,13.7817683 26.6576219,13.6110941 26.8903666,13.4388684 C28.2898974,12.4039622 29.6848345,11.3644013 31.0874277,10.3357014 C31.2696424,10.2022652 31.4809501,10.0936544 31.693789,10.02073 C31.8637539,9.9617698 32.056687,10.0300395 32.1363102,10.20692 C32.1899027,10.3248403 32.212871,10.4986177 32.1684657,10.6149864 C32.0964986,10.7996249 31.978595,10.9811601 31.8392544,11.1223542 C31.4549194,11.518008 31.0629283,11.9074555 30.6495002,12.2689744 C30.2544466,12.6103228 29.8149878,12.8989173 29.4153406,13.2356109 C26.7188705,15.5102323 23.7222822,17.3271366 20.7241626,19.1440408 C20.4516063,19.3100602 20.1759875,19.4667702 19.9049624,19.6358928 C19.8636196,19.6607181 19.8222768,19.724333 19.8222768,19.7724321 C19.8207456,19.8096701 19.8789318,19.8515629 19.9172122,19.8841461 C19.937118,19.9012135 19.9723359,19.9027651 19.9998978,19.9058683 C23.3471344,20.3542759 26.6407785,21.1781667 30.4290052,21.3628052" id="Fill-26" stroke="#444445" stroke-width="0.25" fill="#444445"></path>
                <path d="M81.2819767,27.8295322 C80.684892,27.6876718 79.9231976,27.7474025 79.1674889,27.8429716 C78.3489293,27.9445138 77.5348589,27.9504869 76.7177957,27.8519312 C75.7645553,27.7354564 74.8098184,27.6428738 73.8610674,27.4965335 C73.1382807,27.3845384 72.4184869,27.2292386 71.7091683,27.0455667 C71.0193036,26.8663746 70.3204601,26.8066439 69.6156309,26.7588593 C68.8000641,26.7021151 67.9859938,26.6229719 67.1719235,26.5542816 C67.0327534,26.5423355 66.8801152,26.484098 66.7544132,26.5184432 C66.0989668,26.6991286 65.6934281,26.2616012 65.253471,25.9271092 C65.0379818,25.7598632 64.9766273,25.507501 65.0574357,25.2387128 C65.1412371,24.960965 65.3567263,24.8116382 65.6186055,24.7907325 C65.8640238,24.7683335 66.1318888,24.7892392 66.3668319,24.8639026 C67.1809022,25.1237312 68.0204122,25.2163138 68.865908,25.279031 C69.5976734,25.3342819 70.3339282,25.3716136 71.0582113,25.4746491 C71.6986931,25.5642451 72.3257068,25.7568767 72.9631957,25.8614054 C74.2725919,26.0734494 75.5819881,26.2899732 76.8988665,26.4407933 C77.5393483,26.5154567 78.199284,26.4960442 78.8412622,26.4303404 C79.8603466,26.3228251 80.8749415,26.28848 81.8730755,26.5244163 C82.7978834,26.7424333 83.5101949,26.4437798 84.1686341,25.8046612 C85.0171228,24.9803775 85.8940441,24.1829725 86.7904194,23.4079666 C90.1424736,20.5080408 93.346379,17.4572949 96.2839158,14.1347743 C96.545795,13.8406006 96.8256317,13.5598663 97.1099577,13.2880916 C97.2296739,13.1746032 97.3778227,13.0655947 97.5319574,13.0178101 C97.6486807,12.9819717 97.8342408,13 97.9150493,13.0745543 C97.9973542,13.1492177 98.04973,13.3478223 98.0093258,13.4493645 C97.8940989,13.7345786 97.7564253,14.021286 97.5708651,14.2646886 C96.8884827,15.1606492 96.212086,16.0640762 95.4788242,16.9182253 C93.5693504,19.1506605 91.4189478,21.1471594 89.2431055,23.1152862 C87.7990285,24.4204021 86.3519587,25.719545 84.8959101,27.0097283 C83.9785846,27.8235591 82.9250818,28.1923963 81.6905083,27.9012091 C81.6096999,27.8817966 81.524402,27.8713437 81.2819767,27.8295322" id="Fill-28" stroke="#444445" stroke-width="0.25" fill="#444445"></path>
                <path d="M93.41693,28.5388558 C95.0858492,28.6194416 96.3194651,28.9169892 97.5438519,29.3059708 C98.452913,29.5973195 99.397352,29.781737 100.331024,29.9878507 C101.124722,30.1629699 101.926111,30.2915972 102.721347,30.463617 C102.999756,30.5240563 103.276628,30.6356367 103.535041,30.7611646 C103.776535,30.8789438 103.939581,31.0866073 104.002646,31.3624587 C104.094937,31.7808851 103.871901,32.025742 103.441213,31.9978469 C102.307578,31.9296589 101.21086,31.6429593 100.097221,31.4693899 C98.5698142,31.2291822 97.1254684,30.685228 95.6334393,30.3210421 C95.0166314,30.1722683 94.3798272,30.088583 93.7460993,30.0265939 C91.9202863,29.8483753 90.1236986,29.5275817 88.3671034,29.0006745 C88.0656213,28.9092406 87.75491,28.7945608 87.4918822,28.6240908 C86.9150668,28.2475071 86.8704598,27.6353649 87.3595992,27.1410019 C87.5211075,26.9751811 87.7087648,26.8326062 87.8856549,26.6838324 C89.4668981,25.3495173 91.0527559,24.0276 92.5247888,22.5693067 C92.8954889,22.2020214 93.3061814,21.8703798 93.7184122,21.551136 C96.2271746,19.6046786 98.6944063,17.6117295 100.91553,15.3320808 C101.261619,14.978743 101.646163,14.6641484 102.016863,14.337156 C102.126073,14.2395232 102.242975,14.1511887 102.367567,14.0783515 C102.587526,13.9528236 102.856706,13.9807187 103.010524,14.1434401 C103.185876,14.3278576 103.264322,14.558767 103.148959,14.7865768 C103.018215,15.0422818 102.859783,15.2948874 102.664434,15.5041005 C101.433895,16.8275675 100.195665,18.1463854 98.8128458,19.3086807 C97.4761722,20.432233 96.0995061,21.5077436 94.7443745,22.6095996 C94.2721549,22.9954817 93.7999354,23.3860129 93.3430976,23.7904917 C92.1017909,24.8892483 90.8666368,25.9973032 89.6268683,27.100709 C89.4976616,27.2169385 89.3607641,27.3269692 89.2315575,27.4431987 C89.1192707,27.5470304 89.1361906,27.657061 89.2746263,27.7004534 C89.5222724,27.7825889 89.7699185,27.8755726 90.0252554,27.9236141 C91.2788676,28.1591727 92.5355561,28.3792339 93.41693,28.5388558" id="Fill-30" stroke="#444445" stroke-width="0.25" fill="#444445"></path>
                <path d="M141.887578,19.4153789 C145.20875,20.194487 148.565475,20.7810569 151.94442,21.2527009 C152.080704,21.2735965 152.222913,21.2855369 152.357715,21.3183729 C152.885073,21.4527018 153.13542,21.8885248 152.975435,22.4124078 C152.919144,22.5989758 152.833226,22.7825588 152.728051,22.9467387 C152.560659,23.2049488 152.390305,23.4691292 152.176991,23.6885332 C150.880815,25.0094349 149.624636,26.3706352 148.220322,27.5795961 C147.562606,28.1467629 146.934516,28.7497508 146.285687,29.3258729 C146.076818,29.5109484 145.853135,29.6855761 145.617601,29.8348305 C145.481318,29.9228906 145.310963,29.9766222 145.149497,29.9960253 C144.940627,30.0228911 144.76731,29.9109503 144.651765,29.7393077 C144.534739,29.56468 144.496224,29.3587089 144.638433,29.1870663 C144.908038,28.8676618 145.180605,28.5467648 145.481318,28.2572112 C146.878225,26.918399 148.286983,25.5945122 149.680927,24.2557 C150.146069,23.8079367 150.584547,23.3333076 151.024506,22.8631562 C151.092647,22.7900215 151.113386,22.6750956 151.154864,22.5795728 C151.080797,22.5467368 151.008211,22.4974828 150.9297,22.4840499 C149.965345,22.3303179 148.999509,22.1586753 148.03071,22.0333016 C146.31087,21.8064348 144.626582,21.3974777 142.931925,21.0377745 C141.237268,20.6795639 139.54113,20.3347862 137.84351,19.9870234 C136.640659,19.7422461 135.431882,19.5109017 134.229031,19.2601543 C133.928318,19.1974674 133.633531,19.097467 133.349113,18.9855261 C133.106173,18.8900033 132.999516,18.6765695 133.027662,18.4511953 C133.063214,18.1855224 133.245419,18.0153724 133.547613,18.0019395 C133.741669,17.9929842 133.937207,18.0168649 134.131263,18.036268 C134.464565,18.069104 134.796386,18.1108952 135.13117,18.1467163 C137.376887,18.6168677 139.65223,18.8900033 141.887578,19.4153789 Z" id="Fill-32" stroke="#444445" stroke-width="0.25" fill="#444445"></path>
                <path d="M13.4388729,16 C13.1996739,15.9801426 12.9857319,15.734216 13.0288175,15.5142568 C13.0600173,15.3523425 13.1194457,15.1751531 13.2219595,15.0544811 C13.3645875,14.8818742 13.5443582,14.7291248 13.7345288,14.6145628 C14.603668,14.0891047 15.4624073,13.5453168 16.3597749,13.0748486 C18.20651,12.1109997 20.0755307,11.1914482 21.9341515,10.2505118 C22.058951,10.1878845 22.1792933,10.1115098 22.3070642,10.0519375 C22.5046634,9.96181539 22.6888912,9.9862553 22.8463762,10.1466422 C23.0187184,10.319249 23.0796324,10.5712856 22.9637472,10.7759698 C22.8656904,10.9455217 22.7438624,11.113546 22.5997487,11.2418555 C22.4095781,11.4083524 22.1956361,11.5534644 21.9757513,11.6787189 C20.5078718,12.5157857 19.0414779,13.357435 17.5111987,14.0768848 C16.6227452,14.4969457 15.7773774,15.0132387 14.9022953,15.4638495 C14.5293826,15.6563138 14.1326986,15.7953158 13.7404716,15.9480652 C13.6394435,15.98778 13.5220726,15.9862526 13.4388729,16" id="Fill-34" stroke="#444445" stroke-width="0.25" fill="#444445"></path>
                <path d="M146.574221,35 C146.169103,34.9659918 145.923189,34.5702596 146.062493,34.2224482 C146.177631,33.934924 146.338257,33.6535832 146.528734,33.4170714 C147.161286,32.6240613 147.796682,31.8356887 148.466192,31.0813243 C149.283535,30.1569188 150.134994,29.2680673 150.97508,28.3699408 C151.087376,28.2493662 151.211044,28.1272457 151.350347,28.0515001 C151.660227,27.8830048 152.039758,28.1504331 152.022701,28.5276153 C152.015594,28.6961107 151.97295,28.8816101 151.890504,29.0207347 C151.702871,29.3376296 151.505287,29.6529786 151.273588,29.9312278 C150.06392,31.3734859 148.848567,32.8080149 147.624684,34.2363606 C147.425679,34.4682349 147.191137,34.6707385 146.952331,34.8531463 C146.828663,34.9474418 146.658087,34.9690834 146.574221,35" id="Fill-36" stroke="#444445" stroke-width="0.25" fill="#444445"></path>
            </g>
        </g>
    </g>
</svg>