<?xml version="1.0" encoding="UTF-8"?>
<svg width="213px" height="212px" viewBox="0 0 213 212" version="1.1" xmlns="http://www.w3.org/2000/svg" xmlns:xlink="http://www.w3.org/1999/xlink">
    <title>1F76111F-E59E-4A77-AFCE-5A89259A2CD2</title>
    <g id="Website-UI" stroke="none" stroke-width="1" fill="none" fill-rule="evenodd">
        <g id="Website-Home---Desktop" transform="translate(-99.000000, -333.000000)">
            <g id="tupperware" transform="translate(205.710768, 438.771934) rotate(-43.000000) translate(-205.710768, -438.771934) translate(124.210768, 371.771934)">
                <path d="M21.5928036,76.963527 L21.5282137,76.7533543 L21.7446604,76.4498602 C22.1702423,75.8543797 22.6075233,75.2416384 23.0697233,74.6648967 C23.432461,74.2104058 23.8142439,73.770322 24.1945638,73.3316762 C24.4534746,73.033973 24.7123843,72.7348306 24.965434,72.4313659 C25.3179494,72.0099681 25.666069,71.5842491 26.0141886,71.1585301 C26.5934145,70.4523558 27.1916533,69.7202914 27.8001674,69.0213366 C29.0537642,67.5802806 30.099684,66.4240164 31.0944519,65.3828458 C32.2091774,64.2165625 32.9682758,63.2428444 33.5589631,62.2229372 C34.2885493,60.9627978 35.0856491,59.9070767 35.9955983,58.9910471 C36.1053198,58.8817572 36.2047762,58.7523105 36.3042327,58.6228637 C36.4636559,58.4157492 36.6157665,58.2187032 36.7914001,58.1425674 C36.9758149,58.0621211 37.2349854,58.0882345 37.5131895,58.1143631 C37.6640045,58.1274368 37.8104249,58.1376286 37.9641601,58.1406304 C38.4092499,58.1366702 38.8543386,58.1312707 39.2994261,58.1244321 C39.844074,58.1176733 40.3872566,58.1094743 40.931908,58.1070331 L41.4794864,58.1031551 C44.3154782,58.0881614 47.1529342,58.0731689 49.9889364,58.0709202 C50.9962505,58.069058 52.0050415,58.0828205 53.0182248,58.0965864 L54.3901193,58.1120795 C58.1047636,58.3208646 61.4664217,58.3638602 64.6683599,58.2440999 C66.1895361,58.1863144 67.7385664,58.173166 69.2378177,58.1614168 C69.9039889,58.1561948 70.5716231,58.1495348 71.236329,58.1428725 C71.3285676,58.1415073 71.4208085,58.1430206 71.5115852,58.1445326 C71.6331086,58.1460694 71.756096,58.1476073 71.8820083,58.14483 C71.9947411,58.1391637 72.0415988,58.1463973 72.068088,58.314803 C72.1519527,58.8257806 72.2431392,59.3382033 72.3357875,59.8477487 L72.4505049,60.491156 C72.5416914,61.0035786 72.6387332,61.5145668 72.7343121,62.026993 C72.951922,63.1741972 73.1739532,64.3573845 73.3183755,65.5275569 C73.5276336,67.2144483 73.6066309,68.9588026 73.6634712,70.4599169 C73.7053034,71.5033588 73.7164028,72.5640462 73.7260116,73.5916312 C73.7339901,74.4119724 73.7434338,75.2337539 73.7660523,76.0526677 C73.7826701,76.6916787 73.6660296,77.301799 73.5406321,77.9464527 C73.4910643,78.2112227 73.4400312,78.4745524 73.3992481,78.7393295 C73.3846761,78.8256688 73.3554064,78.8414763 73.2880625,78.8486182 C73.1724072,78.861478 73.0582183,78.8772174 72.9440294,78.8929567 C72.796168,78.9115474 72.6468437,78.9315762 72.4989765,78.9429709 C70.8211958,79.0711507 69.1681262,78.9762768 67.485758,78.8612308 L66.6540902,78.8029958 C65.2733463,78.7069014 63.8457459,78.6050125 62.4372206,78.5549496 C61.6377865,78.5255242 60.8281163,78.5119216 60.0243071,78.5040805 C59.397658,78.4978207 58.7754035,78.4944429 58.161935,78.4925112 L57.2190376,78.488876 C54.3068906,78.4779033 51.3419267,78.3316048 48.476529,78.1925823 L47.5335982,78.1472107 C45.9449662,78.0725371 44.330003,78.026626 42.7692136,77.9821976 C41.0971485,77.9348015 39.3723739,77.885924 37.6753888,77.8010891 C35.9344788,77.7147798 34.1657135,77.5823942 32.4540525,77.4543721 C31.1318724,77.3568854 29.8067617,77.256518 28.4816683,77.1777384 C27.7012528,77.1296189 26.9076348,77.0498268 26.1389092,76.9729329 C24.6512417,76.8235028 23.11086,76.6668345 21.5809106,76.7390047 L21.5928036,76.963527 Z" id="Fill-1" fill="#E2FFFE" opacity="0.280343192" transform="translate(47.647926, 68.537627) rotate(29.000000) translate(-47.647926, -68.537627) "></path>
                <path d="M68.6616606,23.5156305 C72.8615756,23.6937002 77.1581033,23.5606202 80.9457555,23.4432802 C82.4550345,23.3975141 83.9714408,23.2255011 85.4372521,23.0593197 L86.4000038,22.9499886 C87.1386946,22.8698387 87.8875537,22.849887 88.5887091,22.8357693 C89.3780538,22.8231905 90.167402,22.8150158 90.9567502,22.8068411 C92.2578736,22.793205 93.602368,22.7796037 94.925151,22.7336879 C95.9269979,22.7007269 96.9418127,22.6134583 97.921934,22.5305661 C98.3729635,22.4927587 98.8239931,22.4549514 99.275025,22.4200802 C99.5236722,22.4026632 99.7723159,22.380842 100.019514,22.3590196 C100.574627,22.3124875 101.149979,22.2645036 101.710898,22.2458692 C102.221218,22.2286622 102.730092,22.2114541 103.24041,22.191311 C105.534675,22.1065375 107.907005,22.0174225 110.239027,22.1426109 L110.314206,22.1456074 C110.334446,22.1456236 110.354686,22.1456399 110.374927,22.1471242 L110.348928,22.1764644 C109.941635,22.6708712 109.538684,23.1696857 109.137178,23.6685013 C107.532593,25.6549567 105.874571,27.7088996 103.934376,29.4381764 C102.505595,30.7112993 101.072509,32.0240561 99.6870968,33.2942777 L98.3898055,34.480891 C95.9584676,36.7045073 93.4433377,39.0014589 91.2030649,41.514435 C91.0210696,41.7183482 90.8346372,41.7974734 90.5368253,41.8016385 L90.3922571,41.8044586 C89.0998139,41.8254419 87.7596613,41.8449189 86.4483121,41.726422 C85.5880537,41.6464566 84.7104974,41.6296036 83.8633021,41.614243 C83.5076538,41.6080853 83.1520067,41.6033957 82.7963537,41.5913658 C82.390101,41.5792952 81.9852975,41.57163 81.5819398,41.563966 C80.7361902,41.5486066 79.860082,41.5346908 79.0070639,41.4694118 C77.454283,41.3521892 76.0720625,41.193998 74.7823294,40.9889034 C73.5027186,40.786753 72.1855937,40.6770598 70.8063811,40.6642082 C69.8840138,40.6546595 68.9342111,40.6861943 67.9468542,40.7602724 C64.1651178,41.043507 61.2548853,41.0074057 58.510644,40.6411257 C56.5442748,40.3782339 54.5635839,40.2841567 52.624955,40.3604073 L51.9932005,40.383389 C51.8688734,40.3876934 51.5392631,40.4006412 51.4842992,40.3668319 C51.4698268,40.3477356 51.4466237,40.2581658 51.4277719,40.1862161 C51.4074708,40.109861 51.3828208,40.018822 51.3480379,39.9116262 C50.7567337,38.0951703 50.3359934,36.24215 49.8861718,34.1806428 C49.566944,32.7182061 49.1855426,31.245443 48.8186395,29.8240734 C48.6025607,28.990046 48.3864819,28.1560186 48.1819675,27.3205324 C48.0601315,26.8257008 47.9628572,26.3118043 47.8670427,25.8155255 C47.8133256,25.5336163 47.7596061,25.2487709 47.7001073,24.9683251 C47.6797909,24.8728854 47.6942232,24.8420678 47.6942232,24.8420678 C47.7000014,24.8362003 47.7317916,24.8171411 47.8098538,24.8098635 C48.0628264,24.7777694 48.31724,24.7398043 48.5702067,24.7003699 C49.0587951,24.6258914 49.5676211,24.5484931 50.0591528,24.5386112 C51.1636531,24.516009 52.2754148,24.5345181 53.3481426,24.5529958 C53.787643,24.5606889 54.2242508,24.5669115 54.6536289,24.5716604 C57.6868194,24.6988797 60.9250057,24.4592503 64.8466824,23.8105829 C66.3716994,23.559302 67.5513187,23.4648254 68.6616606,23.5156305" id="Fill-3" fill="#E2FFFE" opacity="0.280343192" transform="translate(79.032089, 31.950382) rotate(29.000000) translate(-79.032089, -31.950382) "></path>
                <path d="M101.765326,75.3465534 C101.768366,75.4999428 101.77434,75.6739828 101.769983,75.6975773 C101.723329,75.7226128 101.542456,75.7106686 101.239038,75.6676536 C99.5964931,75.4333049 98.2399751,75.3805954 96.9667403,75.5078874 C96.3104327,75.5722551 95.6336719,75.5953099 94.9802459,75.6154336 C94.5018445,75.6297983 94.0234443,75.6456379 93.5465156,75.6777023 C92.3301263,75.7563691 91.1152156,75.86011 89.898844,75.9609 L89.166688,76.022257 C88.8983276,76.0441647 88.6285157,76.0749205 88.3587026,76.1042014 C87.9474217,76.1510673 87.5244722,76.1979238 87.1117091,76.2152909 C85.7158994,76.2746404 84.3186193,76.3192398 82.9227966,76.3623656 L81.3709121,76.4127405 C81.2863158,76.4141475 81.2002598,76.4140784 81.1200369,76.4125392 L80.9800123,76.4109519 L80.9756366,76.4109484 C80.8268605,76.4093541 80.802034,76.3709874 80.7902636,76.2441387 C80.7755336,76.0641922 80.7549692,75.8842409 80.7329462,75.7042885 C80.7065156,75.4845109 80.680085,75.2647334 80.6667828,75.0464412 C80.5958001,73.835512 80.5262771,72.6260588 80.4582127,71.4166068 C80.3783295,70.0198362 80.2984475,68.6245405 80.2141898,67.2292413 C80.1121677,65.5079805 80.0057711,63.788191 79.8774971,62.0698589 L79.8332265,61.4297277 C79.760946,60.4193804 79.6871798,59.3751098 79.5288362,58.3558442 C79.3397088,57.1448201 79.0820235,55.9278415 78.834579,54.7492179 L78.6032297,53.6340268 C78.5710191,53.4820889 78.5402648,53.3272023 78.5358252,53.2475555 C78.6145789,53.2358197 78.776481,53.2359497 78.938383,53.2360797 C79.4007519,53.2364508 79.8631268,53.2441964 80.3284187,53.2519442 C81.3421404,53.2660318 82.3894129,53.284571 83.4205831,53.2308284 C85.3764508,53.1276823 87.3659995,53.1912241 89.2913708,53.2547143 L90.0235942,53.2774252 C92.5061538,53.3561115 95.0309813,53.396485 97.4712102,53.4353157 L100.166696,53.4817256 C100.289219,53.4847737 100.389858,53.4819048 100.48029,53.4819774 C100.634898,53.4806266 100.808468,53.479291 100.84495,53.5014434 C100.891666,53.5531016 100.92111,53.8938213 100.943209,54.1681657 C101.041895,55.3673182 101.11143,56.5915201 101.176557,57.7758969 L101.237208,58.8349057 C101.299307,59.8806418 101.357031,60.9278493 101.403087,61.9750474 C101.468443,63.4455501 101.529425,64.9175241 101.591866,66.3894993 L101.663265,68.1195848 L101.629719,68.1210327 L101.765326,75.3465534 Z" id="Fill-5" fill="#E2FFFE" opacity="0.280343192" transform="translate(90.153673, 64.795023) rotate(29.000000) translate(-90.153673, -64.795023) "></path>
                <path d="M42.5846659,38.4582979 L42.2216285,37.3655465 C42.2043409,37.3133727 42.1913636,37.2597535 42.1783863,37.2061343 C42.1582046,37.1293271 42.138023,37.05252 42.1120951,36.978606 C42.1063348,36.9641125 42.1020129,36.9510691 42.0991294,36.9394757 C42.1134997,36.9380383 42.1307443,36.9366033 42.1508632,36.9351705 C42.409544,36.9281337 42.6682202,36.9153014 42.9254581,36.901019 C43.4428082,36.8724566 43.9745298,36.8439057 44.4919252,36.8718499 C45.956443,36.9527142 47.4138181,37.0871816 49.0321688,37.2406137 C50.7209445,37.3998979 52.3737729,37.535971 54.0134915,37.4532518 C55.2651952,37.3890567 56.5169024,37.3292083 57.7700467,37.269361 L59.9070034,37.1682055 C61.5309157,37.0883714 63.1464457,37.30845 64.7964927,37.5604318 C66.446542,37.8153114 68.212976,38.0398578 70.0740956,38.0572895 C72.7816895,38.0681562 75.0280101,38.1424037 77.1378632,38.2933326 C77.8033,38.3402311 78.4758783,38.3320776 79.1312085,38.3210126 C79.4674966,38.315487 79.8052217,38.3099625 80.1429538,38.3131314 C80.2794841,38.3146899 80.4461933,38.3148237 80.4778245,38.3322357 C80.5065918,38.3626854 80.5455342,38.536583 80.567167,38.630778 L80.623411,38.874236 C81.0993441,40.9624627 81.5911428,43.1216975 81.681997,45.3052416 C81.7098035,45.9297338 81.7692297,46.5571491 81.8272036,47.1657278 C81.8750431,47.6815696 81.9228803,48.1945136 81.9534741,48.7103416 C82.0205275,49.8883397 82.0775232,51.0692275 82.1373909,52.2472198 C82.2031512,53.6048788 82.2689104,54.9610888 82.3504782,56.3173115 C82.4116878,57.3764963 82.5045251,58.4487465 82.5930242,59.4876687 C82.6321862,59.9354059 82.6699099,60.3816931 82.7061976,60.829428 C82.7134508,60.9134692 82.7265082,61.0670616 82.7495026,61.06708 C82.7078393,61.0844332 82.536821,61.0871937 82.4807734,61.0885976 C81.3756192,61.1036482 80.2719,61.1158022 79.1667435,61.1279551 C78.2512883,61.1373624 77.3358331,61.1467698 76.4189419,61.1576249 C74.3279158,61.186373 72.2368897,61.2151211 70.1444288,61.2467658 L67.5130409,61.2823245 L67.511563,61.2316123 L65.2911076,61.153039 C63.8093661,61.0996897 62.3290617,61.0463415 60.8473353,61.0118277 C57.8005233,60.9369377 54.6460215,60.9822188 51.4671824,61.14484 C50.6638503,61.1862129 49.8446782,61.1884531 49.0499376,61.1907129 L48.801311,61.1905133 C48.3974735,61.1916381 48.3960364,61.1916369 48.3037696,60.8307902 L48.261968,60.6757259 C47.9462461,59.4453683 47.6175562,58.1729825 47.3636061,56.910799 C47.203439,56.1079876 47.0648117,55.2834602 46.9319562,54.4879152 C46.758677,53.4634137 46.5810572,52.4026866 46.3517211,51.3679979 C45.5569675,47.7697761 44.5913142,44.3221013 43.4778321,41.1206184 C43.1695748,40.2379994 42.8771192,39.3466997 42.5846659,38.4582979" id="Fill-7" fill="#E2FFFE" opacity="0.280343192" transform="translate(62.424316, 49.071370) rotate(29.000000) translate(-62.424316, -49.071370) "></path>
                <path d="M118.801987,88.0731068 L117.74789,88.2426231 C116.039671,88.5124121 114.429569,88.6743836 112.822277,88.7398187 C111.789739,88.7801608 110.744248,88.8758602 109.733414,88.9687481 C109.264097,89.010962 108.793338,89.0545944 108.324018,89.0925492 C108.087191,89.1108151 107.850368,89.1333399 107.613545,89.1558648 C107.048922,89.20794 106.465526,89.2614198 105.895096,89.2751588 C104.767231,89.2998078 103.639348,89.3017418 102.511464,89.3022561 L101.155406,89.3068463 C101.068755,89.3053571 100.97777,89.301025 100.852124,89.2952454 C100.66582,89.285158 100.473738,89.2736463 100.44051,89.2580031 C100.415925,89.2153928 100.412888,89.0294114 100.409855,88.8491087 C100.394613,87.8510566 100.380817,86.8544254 100.36702,85.8577942 C100.336286,83.5493588 100.302602,81.1642579 100.237176,78.8160434 C100.19111,77.1989831 100.085813,75.5549013 99.9848931,73.9676104 L99.8927512,72.5208756 C99.8298362,71.5029096 99.7553669,70.4835147 99.6823428,69.4655406 L99.5742549,67.9435496 C99.5698723,67.8810799 99.5596596,67.7518802 99.5394414,67.751864 L99.5379973,67.7518628 C99.5740875,67.7348555 99.7271589,67.7236209 99.7849217,67.7194082 L100.381324,67.6772963 C101.345963,67.6070863 102.343815,67.5340636 103.32581,67.4965203 C104.651504,67.4464758 105.977213,67.4148872 107.304366,67.3832997 L112.777595,67.2372063 C113.413054,67.276048 114.067285,67.3120653 114.734513,67.3480931 C116.36215,67.4402596 118.044664,67.5324701 119.735874,67.6630192 C121.04147,67.7634453 122.474208,67.9335381 124.11208,68.183298 C126.111033,68.4872959 128.154499,68.4704803 129.913445,68.427882 L130.226818,68.416776 C130.401556,68.4112376 130.576293,68.4042794 130.751037,68.4058393 C130.805916,68.4073031 130.857908,68.4101842 130.882462,68.414463 C130.882462,68.4357583 130.876731,68.4712458 130.865219,68.5223453 C130.807671,68.794879 130.741457,69.065986 130.675245,69.3385127 C130.587439,69.697623 130.499635,70.058153 130.432052,70.4229582 L130.204831,71.6138931 C129.93304,73.0532373 129.652623,74.540844 129.42996,76.0143002 C128.862579,79.8299629 127.762238,83.562856 126.774116,86.7648762 C126.67329,87.0955823 126.582398,87.2076646 126.235814,87.223003 C124.820595,87.2885922 123.577259,87.3898116 122.439378,87.5308669 C121.222078,87.6832159 119.990372,87.8809834 118.801987,88.0731068" id="Fill-9" fill="#E2FFFE" opacity="0.280343192" transform="translate(115.210230, 78.272026) rotate(29.000000) translate(-115.210230, -78.272026) "></path>
                <path d="M159.398039,57.4166668 C155.541338,61.308607 152.193534,64.2264884 148.86136,66.6033265 C146.6078,68.2105215 143.96896,70.147423 141.489507,72.3379839 C141.283737,72.5191149 141.072042,72.5968457 140.782881,72.5938679 L140.77996,72.5938679 C140.308245,72.5834852 139.788349,72.5887334 139.293277,72.5911687 C138.339641,72.593236 137.353877,72.5952774 136.391438,72.546348 C135.656831,72.5103489 134.911952,72.4134374 134.18752,72.3179586 C133.7625,72.2623788 133.336021,72.2067977 132.90955,72.1625477 C132.379384,72.1082998 131.850674,72.049804 131.323424,71.9898929 C129.886266,71.8286887 128.402374,71.6646143 126.934612,71.5827026 C125.291593,71.4879028 123.720166,71.4342355 122.194041,71.4188467 C120.859231,71.4064442 119.556572,71.422395 118.277303,71.4681086 C117.113404,71.511082 115.949496,71.5441407 114.787049,71.5772006 C113.684478,71.6103086 112.584826,71.6420026 111.483721,71.6821936 C111.086504,71.6946222 110.693685,71.7282999 110.297944,71.7605589 C109.975218,71.787211 109.651032,71.8138619 109.326838,71.8305982 C109.245059,71.8347817 109.096106,71.8431604 109.078583,71.8459791 C109.058113,71.8148023 109.030263,71.6873061 109.000948,71.5541431 C108.159536,67.6315206 107.500961,64.0673881 106.985626,60.6549229 C106.768333,59.2142933 106.622568,57.735479 106.482683,56.3048262 C106.41496,55.6249111 106.347235,54.9435795 106.273671,54.265076 C106.247195,54.0285198 106.214876,53.791959 106.184017,53.5539829 C106.15903,53.3542537 106.131123,53.1545222 106.109056,52.9547954 C106.104645,52.9165497 106.097298,52.8613051 106.094343,52.8188114 C106.143993,52.8146021 106.206789,52.8132362 106.259362,52.811862 C106.304634,52.8104819 106.348447,52.8119335 106.39518,52.8133874 L116.967061,52.92102 C117.900272,52.9458475 118.833481,52.9664259 119.763768,52.9870019 C121.860931,53.032593 124.028194,53.0796568 126.153165,53.2017546 C128.390594,53.3324409 130.660213,53.5396374 132.856809,53.7425261 C133.779845,53.8268333 134.702883,53.9125568 135.627377,53.992616 C136.158997,54.0383668 136.690621,54.0883667 137.222244,54.1383667 C138.126296,54.2226586 139.027428,54.3083645 139.931463,54.3714108 C141.355429,54.4731166 142.791175,54.6966402 144.178723,54.9130433 C144.736664,54.9998902 145.294604,55.086737 145.852538,55.166502 C148.081356,55.4855595 150.402168,55.7919434 152.746335,56.0841824 C154.74143,56.3294007 156.800866,56.6780661 158.869136,57.1173868 C159.041493,57.1543509 159.21094,57.2068929 159.378931,57.2636828 C159.431519,57.2807215 159.470961,57.2949169 159.498719,57.3076866 C159.476833,57.3331638 159.444733,57.3685475 159.398039,57.4166668" id="Fill-11" fill="#E2FFFE" opacity="0.280343192" transform="translate(132.796531, 62.702587) rotate(29.000000) translate(-132.796531, -62.702587) "></path>
                <path d="M110.718352,54.1906943 L110.477625,54.186107 C108.611631,54.1494569 106.74278,54.1025518 104.873929,54.0556467 L102.742983,54.0026725 L102.74292,53.9235799 L101.150425,53.9047254 C100.09778,53.8892337 99.0451359,53.873742 97.9910847,53.8802192 C97.2489763,53.8854822 96.5054552,53.9053909 95.764784,53.9267665 C95.078239,53.9467208 94.3916928,53.9652105 93.7051371,53.9719828 C92.7735868,53.9814877 91.8249202,53.9616854 90.9090136,53.9404448 L90.3221508,53.9282563 L90.7163859,53.524322 C91.161857,53.0677006 91.6229849,52.596445 92.0941094,52.1574203 C93.8803931,50.4876584 95.6752302,48.8266915 97.4700673,47.1657246 L98.9802355,45.7681709 C99.3460342,45.4286596 99.7118364,45.0935424 100.08619,44.7642907 C103.096679,42.1229665 105.591507,39.4475407 107.712995,36.5872661 C107.963419,36.2505915 108.240913,35.9212621 108.509869,35.6021786 C108.544309,35.9185763 108.581598,36.236441 108.617463,36.5543046 C108.722165,37.4536999 108.831166,38.3838569 108.897421,39.2978681 C109.119151,42.2566923 109.590093,45.1424828 110.02079,47.5771206 C110.182485,48.4970672 110.352727,49.4170206 110.521542,50.3355081 C110.710384,51.3594685 110.899228,52.3848935 111.078099,53.4088459 L111.121019,53.6432286 C111.163949,53.8907933 111.212583,54.1456861 111.218306,54.1764489 C111.164201,54.2042343 110.937716,54.1981938 110.718352,54.1906943" id="Fill-13" fill="#E2FFFE" opacity="0.280343192" transform="translate(100.770228, 44.899584) rotate(29.000000) translate(-100.770228, -44.899584) "></path>
                <path d="M53.7041827,20.0552987 L53.7405504,20.1794472 C53.7652764,20.258724 53.7914518,20.3365065 53.8147162,20.4023233 C53.6406241,20.3962019 53.4694275,20.3826058 53.2982309,20.3690096 C53.0994681,20.3524005 52.9007065,20.3372869 52.7034028,20.3311468 C50.7550126,20.2503259 48.8066248,20.1724958 46.858237,20.0946658 L45.3276731,20.035116 L45.3277091,20.0799785 C44.6328059,20.073439 43.9408007,20.0624156 43.2458951,20.0528853 C41.4745368,20.0260414 39.6480521,20.0006486 37.8477116,20.0141576 C36.7074485,20.0237102 35.5512609,20.0751216 34.4327934,20.1280586 C33.6914981,20.1603627 32.9516548,20.1941633 32.2132527,20.2160017 C32.1421695,20.2189355 32.0681908,20.229344 31.9927613,20.2397514 C31.8941239,20.2546263 31.8157906,20.2620405 31.7577579,20.2575077 C31.8592033,20.1259928 31.9563013,20.000456 32.0679233,19.8958667 C36.2225836,16.0036506 40.3425355,12.2474892 45.0505164,9.09594669 C46.5874634,8.06983162 48.3868122,6.81961522 50.0858796,5.34351094 L50.1337201,5.30167778 C50.1395206,5.29869161 50.1438692,5.29420886 50.1482201,5.29271694 C50.2428532,5.71150857 50.334586,6.13179329 50.4234185,6.55357109 C50.6243564,7.47341145 50.828222,8.42615325 51.0799402,9.35201602 C51.6925107,11.6150678 52.2006852,13.9483201 52.6928406,16.2052936 L52.8602906,16.9740703 C53.0160928,17.6904983 53.2255696,18.4039785 53.4277711,19.0905354 C53.5208754,19.412124 53.6154305,19.7337137 53.7041827,20.0552987" id="Fill-15" fill="#E2FFFE" opacity="0.280343192" transform="translate(42.786237, 12.847520) rotate(29.000000) translate(-42.786237, -12.847520) "></path>
                <path d="M16.4578182,21.0216929 L16.4835877,20.9240586 C16.5522768,20.6268405 16.6785506,20.5106175 16.9643148,20.5137191 C17.0203184,20.5137641 17.0820694,20.5181219 17.1510038,20.5267939 C17.16393,20.5296765 17.1768539,20.5296868 17.1897789,20.5311333 L17.1898077,20.5670359 L17.4253031,20.5586083 C17.8173167,20.544562 18.2093337,20.5348239 18.6013508,20.5250859 C19.4528763,20.505664 20.3345566,20.4848302 21.2018412,20.4194657 C23.500722,20.2489787 25.9361313,20.215031 28.6401765,20.3134205 L32.8219031,20.4733125 C34.7533676,20.5481042 36.6862692,20.6243331 38.6206091,20.7034354 C38.9552039,20.7151928 38.9552039,20.7151928 39.0646132,21.0570731 C39.4043508,22.1100092 39.7555752,23.1615184 40.1053625,24.2115903 C41.0942699,27.1836809 42.1177229,30.2577626 42.881279,33.3531771 C43.2572999,34.8843646 43.5371463,36.4614301 43.8069005,37.988224 L43.9540337,38.8141012 C44.3463802,41.0059091 44.7559171,43.1460311 45.4281675,45.1958895 C45.4958225,45.3998704 45.4672064,45.5290967 45.3237376,45.6912611 C45.2089632,45.8218543 45.095626,45.9538848 44.9837248,46.0859165 C44.791483,46.3112303 44.6006761,46.5351092 44.3954978,46.7446155 C43.8115303,47.3430016 43.2951292,48.0347886 42.8606382,48.7998827 C42.0719565,50.1865249 41.1022688,51.4839835 39.8884536,52.7697573 C38.1667312,54.5950981 36.9171556,56.0546116 35.8355805,57.5013351 C35.2732749,58.2519655 34.6420223,58.9781268 34.0322888,59.6784555 C33.8113503,59.9324684 33.5904118,60.1864812 33.3737812,60.4404976 C32.2303721,61.7794637 31.3625118,62.9175966 30.6425319,64.0228178 C30.5564738,64.1491258 30.468981,64.2768687 30.352781,64.4203857 C30.2952574,64.315504 30.247781,64.204886 30.2017395,64.092833 L30.1197292,63.894585 C29.4837793,62.3445196 28.8262446,60.7384288 28.2965015,59.1180795 C27.912148,57.9401667 27.4631784,56.7665102 27.0285998,55.6316402 C26.8688722,55.2164782 26.7120176,54.8027547 26.556598,54.3875962 L26.4184516,54.0241513 C25.9752191,52.8418829 25.5334237,51.6610517 25.0672246,50.4902537 C24.5290751,49.1312684 24.1085431,47.6057896 23.7451352,45.6868645 C23.3009687,43.3399159 22.449116,41.1606641 21.7570922,39.5229514 C21.0808989,37.9283344 20.5238213,36.2447747 19.9868936,34.6186753 C19.8357473,34.1604372 19.6831651,33.7021979 19.5305851,33.2468308 C19.4010397,32.8647234 19.3246156,32.4697338 19.2438639,32.050327 C19.1977257,31.8176413 19.1515863,31.5835195 19.0982693,31.3522641 L18.9858809,30.8768239 C18.828818,30.2031655 18.6645555,29.5050877 18.4758973,28.8270957 C18.318923,28.2640174 18.1576419,27.7023717 17.99349,27.1421599 C17.5514205,25.619536 17.0920766,24.0437624 16.7792012,22.4652343 C16.7056709,22.0975329 16.5847622,21.7412824 16.4667347,21.3965229 L16.4365064,21.3060242 C16.4077186,21.221271 16.4234604,21.1537868 16.4578182,21.0216929" id="Fill-17" fill="#E2FFFE" opacity="0.280343192" transform="translate(30.942289, 42.339579) rotate(29.000000) translate(-30.942289, -42.339579) "></path>
                <path d="M70.1758975,76.839766 C70.1403887,76.6406015 70.1254968,76.4371245 70.1061608,76.2018976 C70.11205,76.1990163 70.1341362,76.1903759 70.1768496,76.1904102 L70.6569995,76.1806946 C73.5084702,76.1584522 76.4643959,75.9876633 79.4423014,75.6754766 C80.5512831,75.5580396 81.6882957,75.4983457 82.7884875,75.4400652 C83.1699477,75.4216123 83.5514055,75.4002732 83.9313893,75.37749 L84.4881115,75.3461906 C85.4631087,75.2878097 86.470507,75.2265687 87.4617395,75.2100482 C87.5589482,75.2088035 87.6561581,75.2088035 87.7548409,75.2088035 C88.2570967,75.2150157 88.7667411,75.2515002 89.2631274,75.285088 L89.8405253,75.3230698 C88.2715468,76.7042182 86.8396789,78.2514232 85.4549026,79.7481606 C84.7706071,80.4864347 84.0863105,81.2232658 83.3872724,81.9442118 C80.6514501,84.7558938 77.5550738,87.9424702 74.8831488,91.4569515 C74.2151684,92.3366541 73.4322643,93.1672019 72.6758499,93.9703538 C72.3682801,94.2962281 72.062182,94.6206607 71.76198,94.95087 C71.7683701,93.735857 71.7791822,92.5251766 71.7886685,91.4977579 L71.79403,90.8368616 C71.7595798,90.1210988 71.7325196,89.4370883 71.7069518,88.7776102 C71.6498299,87.340322 71.5957186,85.983845 71.4797615,84.6460775 C71.3831577,83.5651822 71.1908135,82.479881 71.0043897,81.4306598 C70.9452027,81.0915039 70.8845439,80.7537899 70.8253581,80.416077 C70.7010485,79.6829259 70.56643,78.9512095 70.4303386,78.219492 C70.3430709,77.7605433 70.2587466,77.298711 70.1758975,76.839766" id="Fill-19" fill="#E2FFFE" opacity="0.280343192" transform="translate(79.973343, 85.079837) rotate(29.000000) translate(-79.973343, -85.079837) "></path>
                <path d="M71.2165535,104.545476 C72.5296865,103.117291 73.7573419,101.591225 74.9474011,100.111846 C75.6458188,99.2423081 76.3471326,98.3742328 77.0643799,97.5207692 C78.4742926,95.8444802 79.9884529,94.207692 81.4534446,92.6263404 C82.070967,91.9582036 82.6884906,91.2915267 83.2987722,90.6190044 L83.749979,90.1259217 C84.5497096,89.2462462 85.3769182,88.3373948 86.2070486,87.4621234 C87.050199,86.5781031 87.9266406,85.6941095 88.7727093,84.8392894 L89.3786989,84.2295392 C89.4727055,84.1332616 89.5782999,84.0472124 89.6853428,83.9626244 C89.7837046,83.882409 89.8806178,83.8007326 89.9731863,83.716133 C90.1872465,83.5148391 90.4245582,83.4288957 90.7415625,83.4466689 C91.4117536,83.4778647 92.0804751,83.4813213 92.7520949,83.4891599 L93.0488233,83.4923179 C95.4602825,83.5161521 97.6429332,83.3996525 99.7198034,83.1370785 C101.057106,82.968804 102.264201,82.8792594 103.407667,82.8611986 C105.703284,82.8265439 107.953768,82.4648362 109.65716,82.1552457 C111.580528,81.8020348 113.68201,81.5453201 116.077382,81.363296 C116.206198,81.35464 116.335015,81.3489038 116.462386,81.3431665 C116.466728,81.3431665 116.469623,81.3431665 116.472519,81.3446345 L116.430656,81.4847509 C116.401784,81.5810809 116.374361,81.6788719 116.342593,81.7737397 C114.491431,87.3344585 112.729156,91.8309843 110.792863,95.9215192 C110.557328,96.4191548 110.265336,96.9065258 109.983462,97.377846 C109.823014,97.6492579 109.659669,97.9192076 109.507909,98.1950062 C109.426968,98.3394709 109.303963,98.3744097 109.060839,98.4326104 C108.670106,98.52719 108.276481,98.626147 107.885749,98.7236464 C107.176643,98.8997246 106.467538,99.0772627 105.756972,99.237281 L105.042064,99.3972957 C103.175199,99.8177071 101.246105,100.251208 99.3386798,100.630709 C98.4616681,100.803733 97.5600264,100.947539 96.6887763,101.08553 C95.9318603,101.206094 95.1763906,101.325199 94.4238344,101.467665 C91.1791532,102.073837 87.8026645,102.567491 84.0975381,102.976208 C82.977316,103.0994 81.8455447,103.26054 80.7499573,103.418789 C79.9814523,103.527664 79.2115011,103.637998 78.4415394,103.735193 C77.4125121,103.865758 76.380577,103.980261 75.3500894,104.094766 C74.8333987,104.152747 74.3181543,104.209269 73.8000174,104.268709 L72.9982107,104.364419 C72.4815235,104.426779 71.9648364,104.48914 71.4437975,104.539818 C71.3699849,104.548519 71.2976139,104.54992 71.2165535,104.545476" id="Fill-21" fill="#E2FFFE" opacity="0.280343192" transform="translate(93.844536, 92.945551) rotate(29.000000) translate(-93.844536, -92.945551) "></path>
                <path d="M117.96633,95.4775596 L118.022705,95.3018945 C118.1846,94.7911355 118.1846,94.7911355 118.56571,94.7722461 C118.658451,94.7664143 118.768583,94.7620731 118.898997,94.7518419 C119.310529,94.7196879 119.722056,94.6816278 120.13503,94.6406156 C120.668274,94.5893642 121.202969,94.5395904 121.736228,94.5060576 C122.391207,94.4637632 123.047655,94.4450949 123.702652,94.4234723 L124.35475,94.4018474 L124.995324,94.4658536 C125.673558,94.5077416 126.350342,94.5496285 127.073511,94.6063182 C126.959132,94.7346869 126.838951,94.8571448 126.71732,94.9781249 C125.971615,95.7335239 125.230261,96.4918795 124.487459,97.2517106 C122.238786,99.559242 119.909022,101.943489 117.448658,104.106148 C116.610193,104.842277 115.812361,105.649314 115.040592,106.429794 C114.568554,106.90782 114.096516,107.385845 113.611426,107.852048 C113.523095,107.934665 113.440568,108.027621 113.359488,108.117626 C113.29144,108.194353 113.22339,108.269603 113.153885,108.337468 C113.236317,108.126387 113.317302,107.916781 113.406982,107.708658 C115.054474,103.862071 116.587267,99.7451813 117.96633,95.4775596 Z" id="Fill-23" fill="#E2FFFE" opacity="0.280343192" transform="translate(120.113698, 101.369658) rotate(29.000000) translate(-120.113698, -101.369658) "></path>
                <path d="M138.456955,100.296708 L138.277251,100.287936 C137.18588,100.235292 136.097416,100.163956 135.008949,100.089745 C133.873731,100.014057 132.744493,100.108059 131.648854,100.199211 L131.220823,100.23338 C130.880445,100.261866 130.538607,100.29179 130.198231,100.323153 C129.875386,100.354529 129.55254,100.384468 129.231152,100.410094 C129.187327,100.414373 129.153726,100.415763 129.127429,100.415763 C129.13325,100.387008 129.143447,100.349628 129.158016,100.29931 L129.341587,99.6653 C129.737861,98.2880161 130.135595,96.9107335 130.540636,95.5348947 C131.054959,93.7996441 131.370543,92.0009621 131.674485,90.2597907 C131.739923,89.8802118 131.805361,89.4991949 131.875181,89.1181816 C131.985718,88.5013692 132.090411,87.8831142 132.193641,87.26342 C132.459712,85.6631419 132.735965,84.0082282 133.156898,82.4109505 C133.276334,81.959515 133.346051,81.4505197 133.377677,80.8077601 C133.393505,80.5057933 133.494163,80.3218103 133.751135,80.1278869 C134.504528,79.5590445 135.250611,78.9830063 135.996693,78.40553 C137.303434,77.3971045 138.653976,76.3542022 140.011869,75.3702636 C143.514652,72.8335712 146.873967,69.9286361 149.996374,66.7330354 C149.984713,66.7660999 149.973053,66.8006025 149.958474,66.8379788 C149.936607,66.8969191 149.916201,66.9558607 149.897256,67.0148034 L149.739886,67.5294803 C148.942844,70.1445585 148.145803,72.7610748 147.334148,75.3718274 C145.149834,82.4162634 142.636865,89.5337735 140.45327,95.6521396 C140.209839,96.3349931 139.973716,97.0221666 139.737592,97.707902 C139.49564,98.4123267 139.253687,99.1167514 139.002966,99.8182931 C138.969441,99.9131741 138.940289,99.9965545 138.918431,100.066999 C138.88491,100.167632 138.847016,100.281203 138.835342,100.29845 C138.795911,100.315674 138.629355,100.306912 138.456955,100.296708 Z" id="Fill-25" fill="#E2FFFE" opacity="0.280343192" transform="translate(139.561902, 83.574399) rotate(29.000000) translate(-139.561902, -83.574399) "></path>
                <path d="M68.6616606,23.5156305 C72.8615756,23.6937002 77.1581033,23.5606202 80.9457555,23.4432802 C82.4550345,23.3975141 83.9714408,23.2255011 85.4372521,23.0593197 L86.4000038,22.9499886 C87.1386946,22.8698387 87.8875537,22.849887 88.5887091,22.8357693 C89.3780538,22.8231905 90.167402,22.8150158 90.9567502,22.8068411 C92.2578736,22.793205 93.602368,22.7796037 94.925151,22.7336879 C95.9269979,22.7007269 96.9418127,22.6134583 97.921934,22.5305661 C98.3729635,22.4927587 98.8239931,22.4549514 99.275025,22.4200802 C99.5236722,22.4026632 99.7723159,22.380842 100.019514,22.3590196 C100.574627,22.3124875 101.149979,22.2645036 101.710898,22.2458692 C102.221218,22.2286622 102.730092,22.2114541 103.24041,22.191311 C105.534675,22.1065375 107.907005,22.0174225 110.239027,22.1426109 L110.314206,22.1456074 C110.334446,22.1456236 110.354686,22.1456399 110.374927,22.1471242 L110.348928,22.1764644 C109.941635,22.6708712 109.538684,23.1696857 109.137178,23.6685013 C107.532593,25.6549567 105.874571,27.7088996 103.934376,29.4381764 C102.505595,30.7112993 101.072509,32.0240561 99.6870968,33.2942777 L98.3898055,34.480891 C95.9584676,36.7045073 93.4433377,39.0014589 91.2030649,41.514435 C91.0210696,41.7183482 90.8346372,41.7974734 90.5368253,41.8016385 L90.3922571,41.8044586 C89.0998139,41.8254419 87.7596613,41.8449189 86.4483121,41.726422 C85.5880537,41.6464566 84.7104974,41.6296036 83.8633021,41.614243 C83.5076538,41.6080853 83.1520067,41.6033957 82.7963537,41.5913658 C82.390101,41.5792952 81.9852975,41.57163 81.5819398,41.563966 C80.7361902,41.5486066 79.860082,41.5346908 79.0070639,41.4694118 C77.454283,41.3521892 76.0720625,41.193998 74.7823294,40.9889034 C73.5027186,40.786753 72.1855937,40.6770598 70.8063811,40.6642082 C69.8840138,40.6546595 68.9342111,40.6861943 67.9468542,40.7602724 C64.1651178,41.043507 61.2548853,41.0074057 58.510644,40.6411257 C56.5442748,40.3782339 54.5635839,40.2841567 52.624955,40.3604073 L51.9932005,40.383389 C51.8688734,40.3876934 51.5392631,40.4006412 51.4842992,40.3668319 C51.4698268,40.3477356 51.4466237,40.2581658 51.4277719,40.1862161 C51.4074708,40.109861 51.3828208,40.018822 51.3480379,39.9116262 C50.7567337,38.0951703 50.3359934,36.24215 49.8861718,34.1806428 C49.566944,32.7182061 49.1855426,31.245443 48.8186395,29.8240734 C48.6025607,28.990046 48.3864819,28.1560186 48.1819675,27.3205324 C48.0601315,26.8257008 47.9628572,26.3118043 47.8670427,25.8155255 C47.8133256,25.5336163 47.7596061,25.2487709 47.7001073,24.9683251 C47.6797909,24.8728854 47.6942232,24.8420678 47.6942232,24.8420678 C47.7000014,24.8362003 47.7317916,24.8171411 47.8098538,24.8098635 C48.0628264,24.7777694 48.31724,24.7398043 48.5702067,24.7003699 C49.0587951,24.6258914 49.5676211,24.5484931 50.0591528,24.5386112 C51.1636531,24.516009 52.2754148,24.5345181 53.3481426,24.5529958 C53.787643,24.5606889 54.2242508,24.5669115 54.6536289,24.5716604 C57.6868194,24.6988797 60.9250057,24.4592503 64.8466824,23.8105829 C66.3716994,23.559302 67.5513187,23.4648254 68.6616606,23.5156305" id="Fill-30" fill="#E2FFFE" opacity="0.280343192" transform="translate(79.032089, 31.950382) rotate(29.000000) translate(-79.032089, -31.950382) "></path>
                <path d="M148.86136,66.6033265 C146.6078,68.2105215 143.96896,70.147423 141.489507,72.3379839 C141.283737,72.5191149 141.072042,72.5968457 140.782881,72.5938679 C140.308245,72.5834852 139.788349,72.5887334 139.293277,72.5911687 C138.339641,72.593236 137.353877,72.5952774 136.391438,72.546348 C135.656831,72.5103489 134.911952,72.4134374 134.18752,72.3179586 C133.7625,72.2623788 133.336021,72.2067977 132.90955,72.1625477 C132.379384,72.1082998 131.850674,72.049804 131.323424,71.9898929 C129.886266,71.8286887 128.402374,71.6646143 126.934612,71.5827026 C125.291593,71.4879028 123.720166,71.4342355 122.194041,71.4188467 C120.859231,71.4064442 119.556572,71.422395 118.277303,71.4681086 C117.113404,71.511082 115.949496,71.5441407 114.787049,71.5772006 C113.684478,71.6103086 112.584826,71.6420026 111.483721,71.6821936 C111.086504,71.6946222 110.693685,71.7282999 110.297944,71.7605589 C109.975218,71.787211 109.651032,71.8138619 109.326838,71.8305982 C109.245059,71.8347817 109.096106,71.8431604 109.078583,71.8459791 C109.058113,71.8148023 109.030263,71.6873061 109.000948,71.5541431 C108.159536,67.6315206 107.500961,64.0673881 106.985626,60.6549229 C106.768333,59.2142933 106.622568,57.735479 106.482683,56.3048262 C106.41496,55.6249111 106.347235,54.9435795 106.273671,54.265076 C106.247195,54.0285198 106.214876,53.791959 106.184017,53.5539829 C106.15903,53.3542537 106.131123,53.1545222 106.109056,52.9547954 C106.104645,52.9165497 106.097298,52.8613051 106.094343,52.8188114 C106.143993,52.8146021 106.206789,52.8132362 106.259362,52.811862 C106.304634,52.8104819 106.348447,52.8119335 106.39518,52.8133874 L116.967061,52.92102 C117.900272,52.9458475 118.833481,52.9664259 119.763768,52.9870019 C121.860931,53.032593 124.028194,53.0796568 126.153165,53.2017546 C128.390594,53.3324409 130.660213,53.5396374 132.856809,53.7425261 C133.779845,53.8268333 134.702883,53.9125568 135.627377,53.992616 C136.158997,54.0383668 136.690621,54.0883667 137.222244,54.1383667 C138.126296,54.2226586 139.027428,54.3083645 139.931463,54.3714108 C141.355429,54.4731166 142.791175,54.6966402 144.178723,54.9130433 C144.736664,54.9998902 145.294604,55.086737 145.852538,55.166502 C148.081356,55.4855595 150.402168,55.7919434 152.746335,56.0841824 C154.74143,56.3294007 156.800866,56.6780661 158.869136,57.1173868 C159.041493,57.1543509 159.21094,57.2068929 159.378931,57.2636828 C159.431519,57.2807215 159.470961,57.2949169 159.498719,57.3076866 C159.476833,57.3331638 159.444733,57.3685475 159.398039,57.4166668 C155.541338,61.308607 152.193534,64.2264884 148.86136,66.6033265 Z" id="Fill-32" fill="#E2FFFE" opacity="0.280343192" transform="translate(132.796531, 62.702587) rotate(29.000000) translate(-132.796531, -62.702587) "></path>
                <path d="M53.7041827,20.0552987 L53.7405504,20.1794472 C53.7652764,20.258724 53.7914518,20.3365065 53.8147162,20.4023233 C53.6406241,20.3962019 53.4694275,20.3826058 53.2982309,20.3690096 C53.0994681,20.3524005 52.9007065,20.3372869 52.7034028,20.3311468 C50.7550126,20.2503259 48.8066248,20.1724958 46.858237,20.0946658 L45.3276731,20.035116 L45.3277091,20.0799785 C44.6328059,20.073439 43.9408007,20.0624156 43.2458951,20.0528853 C41.4745368,20.0260414 39.6480521,20.0006486 37.8477116,20.0141576 C36.7074485,20.0237102 35.5512609,20.0751216 34.4327934,20.1280586 C33.6914981,20.1603627 32.9516548,20.1941633 32.2132527,20.2160017 C32.1421695,20.2189355 32.0681908,20.229344 31.9927613,20.2397514 C31.8941239,20.2546263 31.8157906,20.2620405 31.7577579,20.2575077 C31.8592033,20.1259928 31.9563013,20.000456 32.0679233,19.8958667 C36.2225836,16.0036506 40.3425355,12.2474892 45.0505164,9.09594669 C46.5874634,8.06983162 48.3868122,6.81961522 50.0858796,5.34351094 L50.1337201,5.30167778 C50.1395206,5.29869161 50.1438692,5.29420886 50.1482201,5.29271694 C50.2428532,5.71150857 50.334586,6.13179329 50.4234185,6.55357109 C50.6243564,7.47341145 50.828222,8.42615325 51.0799402,9.35201602 C51.6925107,11.6150678 52.2006852,13.9483201 52.6928406,16.2052936 L52.8602906,16.9740703 C53.0160928,17.6904983 53.2255696,18.4039785 53.4277711,19.0905354 C53.5208754,19.412124 53.6154305,19.7337137 53.7041827,20.0552987" id="Fill-34" fill="#E2FFFE" opacity="0.280343192" transform="translate(42.786237, 12.847520) rotate(29.000000) translate(-42.786237, -12.847520) "></path>
                <path d="M140.931951,74.8519115 C140.892243,74.869649 140.724584,74.8607802 140.551044,74.8504334 L140.370149,74.8415646 C139.271547,74.7883522 138.175886,74.7159242 137.080225,74.6405399 C135.937503,74.5636776 134.800663,74.6612337 133.697649,74.7558335 L133.266738,74.7913085 C132.924068,74.8208709 132.579927,74.8519115 132.237258,74.8844302 C131.912236,74.9169489 131.587215,74.9479894 131.263664,74.9745957 C131.219543,74.97903 131.185717,74.9805081 131.159245,74.9805081 C131.165128,74.9509457 131.175423,74.9125145 131.19013,74.8607802 L131.375436,74.2089282 C131.775462,72.7928867 132.17696,71.3768453 132.58581,69.962282 C133.104962,68.178188 133.424101,66.3290566 133.731474,64.5390502 C133.797655,64.1488258 133.863836,63.7571233 133.934429,63.3654208 C134.046201,62.7313062 134.15209,62.0957135 134.256509,61.4586427 C134.525645,59.8134922 134.805075,58.1121731 135.230103,56.4699789 C135.350699,56.0058485 135.421292,55.4825931 135.453647,54.8218723 C135.469825,54.5114665 135.571302,54.3222668 135.830143,54.1227203 C136.589016,53.5373837 137.340537,52.9446566 138.092057,52.3504513 C139.408321,51.3128092 140.768705,50.2396922 142.136443,49.2271783 C145.664618,46.6168138 149.048665,43.6280499 152.194462,40.3407052 C152.182696,40.3747021 152.170931,40.410177 152.156224,40.4486082 C152.134164,40.5092112 152.113574,40.5698142 152.094455,40.6304173 L151.935621,41.1595852 C151.131156,43.8482901 150.326691,46.5384733 149.507519,49.2227439 C147.302961,56.4655446 144.767499,63.7837295 142.564412,70.0746193 C142.318808,70.7767275 142.080557,71.4832701 141.842306,72.1883346 C141.598172,72.9126146 141.354038,73.6368947 141.10108,74.3582185 C141.067254,74.4557746 141.037841,74.5415057 141.01578,74.6139337 C140.981954,74.7174023 140.943717,74.834174 140.931951,74.8519115 L140.931951,74.8519115 Z M125.704472,89.785384 C127.378112,85.9319184 128.93851,81.8109126 130.341544,77.5361821 L130.398901,77.3602855 C130.562147,76.8503332 130.562147,76.8503332 130.950408,76.8311176 C131.043061,76.8252051 131.156304,76.8192926 131.287195,76.8089458 C131.70634,76.7779052 132.124015,76.7379959 132.54316,76.6980866 C133.082902,76.6463523 133.625585,76.5960961 134.166797,76.5606212 C134.833018,76.5192338 135.499238,76.49854 136.163988,76.4778463 L136.825797,76.4556745 L137.474369,76.5192338 C138.16265,76.5591431 138.850931,76.6020086 139.583332,76.6581773 C139.468619,76.7867739 139.346552,76.9094581 139.223014,77.0306642 C138.464141,77.7859848 137.71262,78.547218 136.958159,79.3084511 C134.672713,81.6187567 132.307851,84.0074028 129.809156,86.1743305 C128.956158,86.9119137 128.147281,87.7204467 127.361935,88.5023736 C126.882491,88.9827634 126.403048,89.4616752 125.910368,89.9272838 C125.822127,90.0115368 125.738298,90.1031804 125.654469,90.194824 C125.585347,90.2716863 125.517695,90.3455925 125.447102,90.4135861 C125.529461,90.2036927 125.61329,89.9923212 125.704472,89.785384 L125.704472,89.785384 Z M82.5648504,100.463342 C83.9017036,99.0177377 85.1488451,97.4701434 86.36069,95.971327 C87.0710312,95.090366 87.782843,94.210883 88.5123031,93.3461813 C89.9462216,91.6478185 91.4875001,89.9893649 92.9773047,88.38708 C93.6038168,87.7100999 94.2317995,87.0345979 94.8538996,86.3531834 L95.3112828,85.8535779 C96.1245719,84.96227 96.9658041,84.0413996 97.8114484,83.1545261 C98.6688581,82.2587838 99.5586229,81.3630415 100.418974,80.4968617 L101.035191,79.8790064 C101.132257,79.7814503 101.239617,79.6942411 101.346977,79.60851 C101.446983,79.5272132 101.54699,79.4444384 101.639643,79.3587073 C101.858775,79.1547263 102.099968,79.0689952 102.420577,79.0852546 C103.101505,79.1162952 103.780961,79.1192514 104.463359,79.1281201 L104.76485,79.1310764 C107.215012,79.1517701 109.432806,79.0320422 111.544711,78.764502 C112.902154,78.5930398 114.128705,78.5013962 115.290547,78.4821806 C117.623055,78.4452275 119.909971,78.0786531 121.642438,77.7623349 C123.59698,77.4046292 125.730944,77.1415234 128.164929,76.9552799 C128.29582,76.9464112 128.426711,76.9404987 128.557602,76.9345862 C128.562014,76.9345862 128.564956,76.9345862 128.567897,76.9360643 L128.523776,77.0779641 C128.495833,77.1755202 128.46642,77.2745544 128.435535,77.3706324 C126.550116,83.0037576 124.754409,87.5563751 122.78369,91.6995528 C122.543969,92.2035926 122.248361,92.6972855 121.961577,93.1747191 C121.79686,93.4496499 121.632144,93.7245807 121.476251,94.0024678 C121.395363,94.1488019 121.270355,94.1842768 121.02328,94.2434017 C120.624724,94.3409578 120.226168,94.439992 119.827612,94.5390263 C119.106976,94.7178791 118.387811,94.8996882 117.665704,95.0608035 L116.939186,95.223397 C115.042001,95.6505744 113.081577,96.091055 111.141743,96.476845 C110.251978,96.6527416 109.335741,96.7990757 108.448918,96.9394973 C107.68122,97.0621815 106.912051,97.1833876 106.148765,97.3282436 C102.850017,97.9446207 99.4189078,98.4471824 95.6554232,98.864013 C94.5156419,98.9896534 93.3655657,99.153725 92.2522567,99.3148403 C91.4713226,99.4256995 90.6903885,99.5380369 89.9079838,99.6385492 C88.8623263,99.7701021 87.8137274,99.8868738 86.7665993,100.005124 C86.2400938,100.06277 85.7165297,100.120417 85.1914949,100.18102 L84.3767351,100.278576 C83.8502296,100.342136 83.3251949,100.405695 82.7972187,100.457429 C82.7222138,100.466298 82.6472088,100.467776 82.5648504,100.463342 L82.5648504,100.463342 Z M79.8426113,80.3904368 C79.8058441,80.1864559 79.792608,79.9780406 79.7734891,79.7371066 C79.7793718,79.7341504 79.8014321,79.7252817 79.844082,79.7252817 L80.3235255,79.7149348 C83.1707729,79.6898067 86.1209683,79.512432 89.0961653,79.1902013 C90.2035916,79.0704734 91.3389609,79.0083922 92.4375631,78.9477892 C92.8184706,78.9270955 93.1993782,78.9049236 93.5788151,78.8827518 L94.1347343,78.848755 C95.1083282,78.7881519 96.1142771,78.7245927 97.1040486,78.7068552 C97.2011138,78.7053771 97.2981791,78.7053771 97.3952443,78.7053771 C97.8982188,78.7112896 98.407076,78.7482426 98.9026971,78.7822394 L99.4777352,78.8221488 C97.911455,80.2381902 96.4790072,81.8227376 95.0965627,83.3570289 C94.4126939,84.1138276 93.728825,84.8691483 93.0302494,85.6082096 C90.2962448,88.4920267 87.2019222,91.7586777 84.5311571,95.3593843 C83.8634658,96.2610391 83.0810611,97.1139158 82.3251286,97.935752 C82.0177553,98.2698077 81.7118527,98.6023853 81.4118329,98.9408753 C81.4191863,97.6962961 81.4309518,96.4561513 81.4412466,95.403728 L81.4471293,94.7267478 C81.4133035,93.993599 81.3868312,93.294447 81.3618295,92.618945 C81.3059435,91.1452568 81.2529988,89.7558216 81.1382853,88.3856019 C81.0426908,87.2784881 80.8500309,86.1669399 80.6647246,85.0923448 C80.6058971,84.744986 80.545599,84.3991053 80.4882423,84.0532246 C80.3647047,83.3023383 80.2308723,82.5529302 80.0955692,81.803522 C80.0087988,81.333479 79.9249697,80.8604798 79.8426113,80.3904368 L79.8426113,80.3904368 Z M11.1439439,53.5920743 L11.1704163,53.4915619 C11.2410092,53.1855906 11.3704295,53.0658626 11.663096,53.0688189 C11.7204527,53.0688189 11.7836922,53.0747314 11.8542851,53.082122 C11.8675213,53.0850782 11.8807574,53.0850782 11.8939936,53.0865563 L11.8939936,53.1235094 L12.1351861,53.1146407 C12.5366832,53.0998594 12.9381804,53.0895126 13.3396776,53.0806438 C14.2117942,53.058472 15.1147952,53.0363002 16.0030893,52.9683065 C18.357657,52.7909318 20.8519398,52.7539788 23.6212409,52.853013 L27.9038774,53.0156065 C29.8819496,53.0895126 31.8614925,53.166375 33.842506,53.2461936 C34.1851758,53.2594967 34.1851758,53.2594967 34.2969479,53.6098117 C34.6440297,54.6932756 35.002877,55.7752613 35.3602536,56.8557689 C36.3706146,59.9154827 37.4162721,63.0771869 38.1957355,66.2625411 C38.5795844,67.8382198 38.8648975,69.4626765 39.1399157,71.0324427 L39.2899256,71.8823632 C39.6899521,74.1394564 40.1076268,76.3403809 40.794437,78.45114 C40.8635592,78.6595553 40.8341455,78.7925863 40.687077,78.9596142 C40.5694221,79.0941233 40.4532379,79.2301106 40.3385245,79.367576 C40.1414526,79.5981631 39.9458514,79.8287502 39.7355434,80.0460343 C39.1369743,80.6624114 38.6075275,81.3733883 38.1619097,82.1612277 C37.3530326,83.5890941 36.3588491,84.9253169 35.1146491,86.2497148 C33.3498263,88.1298867 32.0688591,89.6331374 30.9599622,91.123085 C30.3834534,91.8961431 29.7363517,92.6440731 29.1113103,93.3653969 C28.8848247,93.6270246 28.6583392,93.8886523 28.4362656,94.1517581 C27.2641292,95.5293684 26.3743644,96.7015196 25.6360802,97.839674 C25.547839,97.9712269 25.4581272,98.1013017 25.3390017,98.249114 C25.2801743,98.141211 25.2316416,98.0273956 25.1845797,97.9135801 L25.1007506,97.7081211 C24.4507076,96.1132268 23.7786042,94.4621639 23.2373919,92.7933635 C22.8447188,91.581303 22.3858649,90.3736768 21.9417179,89.20596 C21.7784718,88.7787825 21.618167,88.3530832 21.459333,87.9259058 L21.3181472,87.5519408 C20.865176,86.336924 20.4136755,85.1204291 19.9371734,83.9157592 C19.3871369,82.5189334 18.9576967,80.947689 18.5870839,78.9729173 C18.1341128,76.5576649 17.2634669,74.315353 16.5560671,72.6302932 C15.8648448,70.9895772 15.2956895,69.2572175 14.7471237,67.5839827 C14.5927018,67.1139397 14.4368091,66.6409405 14.2809164,66.1723756 C14.1485547,65.779195 14.0706084,65.3727113 13.98825,64.9410995 C13.941188,64.7016437 13.8941261,64.4607097 13.8397107,64.2242101 L13.7249972,63.7349515 C13.5646925,63.0402339 13.3970343,62.3218663 13.2043745,61.6241924 C13.0440698,61.0447684 12.879353,60.4683006 12.7116948,59.8903546 C12.2601943,58.3235447 11.7910456,56.7035223 11.4719068,55.0775875 C11.3969019,54.6991881 11.2733643,54.3326137 11.1527681,53.9778643 L11.1218837,53.8847425 C11.0924699,53.7975333 11.1086475,53.7280615 11.1439439,53.5920743 L11.1439439,53.5920743 Z M33.5513103,51.0290097 L33.5895481,51.1516939 C33.6130791,51.2300344 33.6395514,51.3068967 33.6630824,51.3719341 C33.4866001,51.3645435 33.3130592,51.3527185 33.1395183,51.3394154 C32.9380344,51.3231561 32.7380211,51.3083749 32.5365372,51.3009842 C30.5614064,51.2241219 28.5862756,51.1487376 26.6126154,51.0733534 L25.0595714,51.0157066 L25.0595714,51.0600503 C24.355113,51.0526597 23.6535959,51.0437909 22.9491375,51.0349222 C21.1549011,51.0097941 19.3018372,50.9861441 17.478187,51.0009254 C16.3222281,51.0112722 15.1500916,51.0630065 14.0147223,51.1147408 C13.2632019,51.1487376 12.514623,51.1827344 11.7645733,51.2049063 C11.6925097,51.2078625 11.6175047,51.2182094 11.5424998,51.2285562 C11.4410224,51.2418593 11.3616054,51.2507281 11.302778,51.2462937 C11.4071967,51.1147408 11.5042619,50.9905785 11.6175047,50.888588 C15.8324897,47.0380787 20.0121783,43.3220785 24.7874946,40.2032398 C26.3464213,39.1877696 28.1715422,37.950581 29.8951858,36.4901959 L29.9437184,36.4488085 C29.9496011,36.4458522 29.9540132,36.4414178 29.9584253,36.4399397 C30.0540198,36.8538141 30.146673,37.2691665 30.2363848,37.6845189 C30.4393395,38.5950425 30.6467061,39.5351284 30.9011348,40.4515644 C31.5188227,42.6879639 32.032092,44.9938352 32.5291838,47.2243221 L32.6983126,47.9840772 C32.8571466,48.6920979 33.0674547,49.3956842 33.27188,50.0756206 C33.3660039,50.393417 33.4630691,50.7112133 33.5513103,51.0290097 L33.5513103,51.0290097 Z M98.9762314,52.9993471 L98.7276855,52.9949127 C96.7996167,52.9579597 94.8715478,52.913616 92.9420082,52.8677942 L90.7418625,52.8160599 L90.7418625,52.7362413 L89.097636,52.7170257 C88.0107993,52.7037226 86.9224919,52.6889414 85.8356552,52.696332 C85.069428,52.7022445 84.3017301,52.7229382 83.5369736,52.74511 C82.8266324,52.7658037 82.1192326,52.7850193 81.4088915,52.7924099 C80.4485338,52.8027568 79.4690571,52.7820631 78.5219356,52.7628475 L77.9160131,52.7510225 L78.3248637,52.3415826 C78.7851883,51.8818864 79.2602198,51.405931 79.7470167,50.9624942 C81.5927272,49.2759563 83.4487325,47.5982872 85.303267,45.920618 L86.8621938,44.5090109 C87.24016,44.1660865 87.6195969,43.8275964 88.0063872,43.4950189 C91.1168874,40.8255295 93.6949993,38.1235214 95.8877916,35.2367479 C96.1466322,34.8967797 96.4334159,34.5642022 96.7113755,34.2404933 C96.746672,34.5612459 96.7834391,34.8819985 96.8216769,35.2027511 C96.929037,36.1103184 97.0393384,37.0489262 97.1084606,37.9712747 C97.3334755,40.9556042 97.8188018,43.8689839 98.2600075,46.3256236 C98.4276656,47.2538846 98.6026772,48.1821456 98.7762181,49.1089284 C98.9703486,50.1421361 99.1644791,51.1753438 99.3483149,52.2100296 L99.3924354,52.4465293 C99.436556,52.696332 99.4850886,52.9535253 99.4909714,52.9845659 C99.436556,53.0126502 99.202717,53.0067377 98.9762314,52.9993471 L98.9762314,52.9993471 Z M152.066512,37.8116375 C148.180961,41.8764746 144.807208,44.9258415 141.449633,47.4090875 C139.178894,49.0867566 136.518424,51.1103064 134.019729,53.3984402 C133.812362,53.5876399 133.600583,53.6689366 133.307917,53.666121 L133.304975,53.666121 C132.829944,53.6556335 132.307851,53.661546 131.807817,53.6645023 C130.84893,53.6674585 129.856218,53.6718929 128.887036,53.6216367 C128.147281,53.5832055 127.395761,53.4826932 126.667771,53.3851371 C126.238331,53.3260122 125.810361,53.2683654 125.380921,53.2225436 C124.845592,53.166375 124.313203,53.1057719 123.782286,53.0436908 C122.335131,52.8781411 120.840915,52.708157 119.362876,52.6224258 C117.708354,52.5263479 116.125897,52.4701792 114.58903,52.4568761 C113.244823,52.4450511 111.932972,52.4627886 110.644651,52.5115667 C109.472515,52.5559103 108.301849,52.5913853 107.131183,52.6283383 C106.020816,52.6623352 104.911919,52.6978101 103.803022,52.7391975 C103.402995,52.7539788 103.007381,52.7879756 102.608825,52.8234505 C102.285274,52.8500567 101.957311,52.8796192 101.630819,52.8958785 C101.549931,52.9003129 101.398451,52.9091816 101.380802,52.9121379 C101.361683,52.8810973 101.33227,52.7465881 101.304327,52.6076446 C100.458683,48.5162013 99.7983447,44.7957667 99.2836047,41.2364475 C99.0644725,39.7317187 98.9203453,38.1885588 98.7791595,36.6971331 C98.711508,35.9861561 98.6438564,35.2766572 98.5703222,34.5671584 C98.5453205,34.3203119 98.5114947,34.0734655 98.482081,33.8251409 C98.4556087,33.6182037 98.4291363,33.4097884 98.4056054,33.199895 C98.4011933,33.1599857 98.3938399,33.103817 98.3908985,33.0594734 C98.4409018,33.055039 98.5041413,33.0535609 98.5585567,33.0520828 C98.6041479,33.0506046 98.6467978,33.0520828 98.6938597,33.0535609 L109.341624,33.1555513 C110.279921,33.1821575 111.219689,33.2013731 112.157987,33.2220668 C114.268421,33.2678886 116.450918,33.3151886 118.592236,33.440829 C120.843856,33.5753381 123.130772,33.791144 125.341213,33.9995593 C126.270686,34.0882467 127.200159,34.1754559 128.131103,34.2582308 C128.666433,34.3055307 129.201763,34.357265 129.738563,34.4104774 C130.647447,34.4962085 131.55486,34.586374 132.465214,34.6514114 C133.900603,34.75488 135.344816,34.9869452 136.741968,35.213098 C137.30377,35.3017853 137.865572,35.3934289 138.427374,35.4747257 C140.67164,35.8058251 143.008559,36.1250996 145.37048,36.4266366 C147.377966,36.6823518 149.451633,37.0444919 151.534124,37.4997536 C151.707665,37.5396629 151.878264,37.5928753 152.048864,37.6520003 C152.101809,37.6712158 152.140046,37.6845189 152.16946,37.6978221 C152.145929,37.7259064 152.115045,37.7613813 152.066512,37.8116375 L152.066512,37.8116375 Z M121.208586,75.9634597 L120.133515,76.1408344 C118.395165,76.4216777 116.75535,76.5931399 115.118477,76.6626117 C114.065466,76.7054772 113.00216,76.8059895 111.97268,76.9035456 C111.493237,76.9478893 111.015264,76.9937111 110.537291,77.0336204 C110.296099,77.052836 110.054906,77.076486 109.813714,77.1001359 C109.238676,77.1548265 108.644519,77.2109951 108.063598,77.2242982 C106.914992,77.2523826 105.766387,77.2553388 104.617781,77.2568169 L103.236808,77.2627294 C103.148567,77.2612513 103.055913,77.2568169 102.927964,77.2509044 C102.738245,77.2405576 102.541173,77.2287326 102.508818,77.2124733 C102.482346,77.1681296 102.479405,76.9744955 102.477934,76.7867739 C102.463227,75.7476538 102.449991,74.7100117 102.436755,73.6723697 C102.407341,71.2689423 102.374986,68.7856964 102.310276,66.3408816 C102.264684,64.6573 102.158795,62.945634 102.055847,61.293093 L101.964665,59.786886 C101.901425,58.7270721 101.82642,57.6657801 101.752886,56.6059662 L101.644055,55.0214188 C101.639643,54.9563814 101.629348,54.8218723 101.608759,54.8218723 L101.607288,54.8218723 C101.644055,54.8041348 101.799948,54.7923098 101.858775,54.7878754 L102.466168,54.7435318 C103.448586,54.6696256 104.46483,54.5927633 105.464896,54.5528539 C106.814986,54.4981634 108.165075,54.4656447 109.516635,54.4316479 L115.090534,54.2749669 C115.737636,54.3133981 116.403856,54.3518293 117.083313,54.3887823 C118.740776,54.4833822 120.454124,54.577982 122.176297,54.7124912 C123.504326,54.8159598 124.964717,54.9918564 126.632475,55.2505278 C128.667904,55.5653679 130.748924,55.5446742 132.540219,55.5003305 L132.859358,55.4885055 C133.037311,55.4825931 133.215264,55.4752024 133.393217,55.4766806 C133.449103,55.4781587 133.502047,55.4811149 133.527049,55.4840712 C133.527049,55.5077211 133.521166,55.5431961 133.509401,55.5978866 C133.450573,55.8816862 133.382922,56.1640076 133.31527,56.4478071 C133.225558,56.8217721 133.135847,57.1972153 133.065254,57.5756146 L132.834356,58.8172376 C132.556396,60.3160539 132.268142,61.8651264 132.041657,63.3994177 C131.460736,67.3711331 130.337132,71.2600736 129.328242,74.5947181 C129.225294,74.9391207 129.13264,75.0558924 128.779676,75.0721517 C127.338404,75.1416235 126.072144,75.2480483 124.911773,75.3958606 C123.673455,75.5554978 122.41896,75.762435 121.208586,75.9634597 L121.208586,75.9634597 Z M36.6279846,54.7716161 L36.2573718,53.6571117 C36.2397236,53.6038992 36.2264874,53.5492087 36.2132513,53.4945182 C36.1926617,53.4161777 36.1735428,53.3378372 36.1455997,53.263931 C36.139717,53.2476717 36.1353049,53.2343686 36.1323636,53.2225436 C36.1470704,53.2210655 36.1647186,53.2195874 36.1853082,53.2181092 C36.4500317,53.2107186 36.7147551,53.1974155 36.9780078,53.1826343 C37.5074546,53.1530719 38.0516083,53.1235094 38.5810551,53.1515937 C40.0796838,53.2328905 41.570959,53.3688778 43.2269511,53.5240806 C44.9550067,53.685196 46.6462952,53.8226614 48.3243475,53.7369303 C49.6053146,53.6704148 50.8862818,53.6083336 52.1701904,53.5462525 L54.3556292,53.4413058 C56.017504,53.3585309 57.6705547,53.5817274 59.3589018,53.8374426 C61.0487196,54.0961141 62.8547215,54.3237449 64.7592594,54.3400043 C67.5300312,54.348873 69.8287128,54.4227792 71.9876793,54.5750258 C72.6686068,54.6223257 73.3568876,54.613457 74.0275203,54.601632 C74.3716607,54.5957195 74.7187425,54.589807 75.062883,54.5927633 C75.2040688,54.5942414 75.3731976,54.5942414 75.4055527,54.6119789 C75.4349664,54.6430194 75.474675,54.8203941 75.4967352,54.9164721 L75.554092,55.1647967 C76.0394182,57.2947714 76.540922,59.497174 76.6321045,61.7247048 C76.6600476,62.3617756 76.7203457,63.0018027 76.7791731,63.6226142 C76.8277057,64.1488258 76.8762384,64.6720812 76.9071228,65.1982928 C76.9747743,66.4000065 77.032131,67.6046764 77.0924292,68.8063901 C77.15861,70.191391 77.2262615,71.5749137 77.3071493,72.9584364 C77.3689181,74.0389441 77.4630419,75.1327548 77.5527538,76.1925687 C77.5924623,76.6493085 77.6307001,77.1045703 77.6674672,77.5613102 C77.6748207,77.6470413 77.6880568,77.8037223 77.7115878,77.8037223 C77.6689379,77.8214598 77.4939263,77.824416 77.4365696,77.8258941 C76.3056123,77.8421535 75.1761258,77.8554566 74.0466392,77.8687597 C73.1083418,77.8791065 72.171515,77.8894534 71.2332176,77.9012784 C69.09337,77.932319 66.9535224,77.9633595 64.8122041,77.9973564 L62.1193787,78.0357875 L62.117908,77.9840532 L59.8456987,77.9057128 C58.3294218,77.8525003 56.8146156,77.7992879 55.2983387,77.7652911 C52.1804852,77.691385 48.9523302,77.740163 45.6991736,77.908669 C44.8770603,77.9515346 44.0387695,77.9544908 43.2254804,77.957447 L42.9725224,77.957447 C42.5577891,77.9589252 42.5563184,77.9589252 42.4621945,77.5908726 L42.4210153,77.4327135 C42.0974645,76.1777874 41.7621482,74.8814739 41.5047782,73.592551 C41.3400614,72.7736711 41.2003462,71.9326194 41.0635725,71.1211301 C40.8885609,70.0760974 40.7076666,68.9941117 40.4723569,67.9387321 C39.6634798,64.2685537 38.6766497,60.7521001 37.5398097,57.4869273 C37.225083,56.5867506 36.9265338,55.6777052 36.6279846,54.7716161 L36.6279846,54.7716161 Z M100.654284,76.751299 C100.657225,76.9050238 100.663108,77.0794422 100.658696,77.1030922 C100.611634,77.1282203 100.429269,77.1163953 100.123366,77.0735297 C98.4673742,76.8399864 97.0996365,76.7897302 95.815728,76.9168487 C95.1539194,76.9818861 94.4715213,77.0055361 93.8126541,77.0262298 C93.3302692,77.041011 92.849355,77.0572704 92.3684408,77.0897891 C91.141889,77.1696077 89.9168079,77.2745544 88.6902561,77.3765449 L87.9519719,77.438626 C87.679895,77.462276 87.4078182,77.4918384 87.1357413,77.522879 C86.7224787,77.5687008 86.2959799,77.6160007 85.8783051,77.6337382 C84.470859,77.6943412 83.0619421,77.740163 81.654496,77.7845067 L80.0896865,77.8377191 C80.0043867,77.8391972 79.9190869,77.8391972 79.8367285,77.8377191 L79.6955427,77.836241 L79.6911307,77.836241 C79.5411207,77.8347629 79.5161191,77.7948536 79.5043536,77.667735 C79.4911174,77.4874041 79.4690571,77.3070731 79.4469969,77.1267421 C79.4219952,76.90798 79.3940522,76.6862616 79.380816,76.4674995 C79.3116938,75.2539608 79.2425715,74.0419003 79.1734493,72.8298398 C79.0940323,71.4315358 79.0146153,70.0317537 78.9322569,68.6334497 C78.8293089,66.9084807 78.7234195,65.1849897 78.5954699,63.4629769 L78.5513493,62.8214717 C78.4792857,61.8089577 78.4057514,60.7624469 78.2469174,59.7410642 C78.0571989,58.5275256 77.7983583,57.3080745 77.5498124,56.1270545 L77.3174441,55.0095938 C77.2865597,54.8588253 77.2542046,54.7021443 77.2497925,54.6223257 C77.3292095,54.6119789 77.4924556,54.6119789 77.6571724,54.6119789 C78.1219091,54.6119789 78.5881164,54.6193695 79.0587358,54.625282 C80.0793917,54.6385851 81.135344,54.6563225 82.1751187,54.601632 C84.1487788,54.4966853 86.1533233,54.5587664 88.0946284,54.6208476 L88.8329126,54.6430194 C91.3360195,54.7198818 93.8817764,54.758313 96.3437041,54.7967442 L99.0600605,54.8396097 C99.1835981,54.842566 99.2865461,54.8396097 99.3762579,54.8396097 C99.5336212,54.8381316 99.7086328,54.8366535 99.7439293,54.8603034 C99.7909912,54.9105596 99.8204049,55.2520059 99.8439359,55.5269367 C99.9410012,56.7286504 100.010123,57.9554922 100.076304,59.1424246 L100.136602,60.2037166 C100.198371,61.2517055 100.254257,62.3011726 100.299848,63.3506396 C100.364559,64.8243278 100.424857,66.2994942 100.486626,67.7746605 L100.557218,69.5084983 L100.523393,69.5099764 L100.654284,76.751299 Z M53.0717207,34.3380494 C57.3440625,34.513946 61.7149402,34.3764806 65.5681365,34.2552745 C67.1035323,34.2079746 68.6462816,34.0335562 70.1360861,33.8650502 L71.1155627,33.754191 C71.8685538,33.6728942 72.6303689,33.6522005 73.3436515,33.6374193 C74.1466458,33.6226381 74.9496402,33.6152475 75.7526345,33.6063787 C77.0762516,33.5915975 78.4439892,33.5768163 79.7896666,33.5295163 C80.8088517,33.4955195 81.8412731,33.4068322 82.8383979,33.3225792 C83.2972518,33.284148 83.7561058,33.2457168 84.2149597,33.2102419 C84.4664469,33.1910263 84.7194049,33.1703326 84.9723628,33.1481607 C85.5371061,33.1008608 86.1209683,33.0520828 86.693065,33.0328672 C87.212217,33.0151297 87.7298983,32.9973922 88.2490504,32.9766985 C90.5830285,32.8880111 92.9964236,32.7978457 95.3686395,32.922008 L95.4436445,32.9249642 C95.4657048,32.9249642 95.4862944,32.9249642 95.5054133,32.9264423 L95.4804116,32.9560048 C95.0656783,33.4541321 94.655357,33.9566938 94.2465064,34.4592555 C92.6125746,36.4591553 90.9242275,38.5300051 88.947626,40.2712335 C87.4945886,41.555722 86.0356685,42.8786417 84.625281,44.1572178 L83.3031346,45.3544971 C80.8294413,47.5953309 78.2689777,49.9100709 75.9879442,52.4420949 C75.8026379,52.6475539 75.6129194,52.7273725 75.3099582,52.7318069 L75.1628896,52.7347632 C73.8480966,52.756935 72.4847711,52.7761506 71.1508592,52.6579008 C70.2758012,52.5795603 69.3830951,52.5633009 68.5212733,52.5485197 C68.1594846,52.5426072 67.7962253,52.5366947 67.4344366,52.5263479 C67.0226446,52.5145229 66.6108526,52.5071323 66.2005313,52.4997417 C65.3401802,52.4849604 64.4489448,52.4701792 63.5812402,52.4051418 C62.0017239,52.2883701 60.5957484,52.1316891 59.2824261,51.9262301 C57.98234,51.7237273 56.6425454,51.6143462 55.2380406,51.6025213 C54.3012139,51.5936525 53.3335027,51.6261712 52.3304951,51.7015555 C48.4831815,51.9897894 45.5226913,51.9557926 42.73133,51.5892182 C40.7311975,51.3261123 38.7163582,51.2329906 36.7441688,51.3113311 L36.1014792,51.3349811 C35.9750002,51.3394154 35.6396839,51.3527185 35.5837978,51.3187217 C35.5676203,51.298028 35.54556,51.2093406 35.5264411,51.1369126 C35.5043808,51.0600503 35.4808498,50.9684067 35.4440827,50.8605037 C34.8455136,49.0320661 34.4190148,47.1666754 33.9631022,45.0913912 C33.6395514,43.6191811 33.2527611,42.1366242 32.8806776,40.7043234 C32.6615455,39.8662279 32.4409426,39.0266543 32.2350466,38.1841244 C32.111509,37.6859971 32.0115024,37.1701323 31.9159078,36.6705269 C31.8614925,36.3867273 31.8070771,36.0999715 31.746779,35.8176501 C31.7261894,35.720094 31.7408963,35.6905316 31.7408963,35.6905316 C31.746779,35.6846191 31.7791341,35.6654035 31.8585511,35.6565348 C32.1159211,35.6254942 32.3747618,35.587063 32.6306611,35.5471537 C33.1292235,35.4702913 33.6469048,35.3934289 34.1469379,35.3830821 C35.2690711,35.3594321 36.401499,35.3771696 37.4927478,35.3949071 C37.9398362,35.4022977 38.3825126,35.406732 38.8193062,35.4111664 C41.9062754,35.5382849 45.2006112,35.2943947 49.1905813,34.6381083 C50.7421546,34.3838712 51.9422341,34.2877932 53.0717207,34.3380494 L53.0717207,34.3380494 Z M27.2155966,99.0753845 L27.1508864,98.8595786 L27.3685479,98.5462166 C27.7950467,97.935752 28.2362524,97.3045936 28.6995184,96.7133446 C29.0657191,96.2462579 29.4480973,95.7939523 29.8319463,95.3416468 C30.0922577,95.0356754 30.352569,94.728226 30.6055269,94.4163421 C30.9614329,93.9832522 31.311456,93.5457279 31.6614792,93.1096817 C32.2438707,92.3824454 32.8453812,91.6315591 33.4571864,90.9117134 C34.7160933,89.4306346 35.7691042,88.2437021 36.7691704,87.1735414 C37.8898329,85.9733058 38.6531187,84.974095 39.245805,83.9261061 C39.9796772,82.6312707 40.7812008,81.5448506 41.6959673,80.6047646 C41.8077394,80.4909492 41.907746,80.3593963 42.006282,80.2263652 C42.1680574,80.0120374 42.319538,79.8095346 42.4960203,79.7326723 C42.6813267,79.6498974 42.9431087,79.6765036 43.222539,79.7016317 C43.3740196,79.7164129 43.5210882,79.7267598 43.6755102,79.729716 C44.1225986,79.7252817 44.569687,79.7193692 45.0167755,79.7119786 C45.5623998,79.7031098 46.1080242,79.6942411 46.6551193,79.6912848 L47.2066264,79.6868505 C50.0553445,79.6705911 52.9055332,79.6528537 55.7542513,79.6484193 C56.766083,79.645463 57.7793854,79.6587661 58.7956292,79.6720692 L60.1751323,79.6868505 C63.9062618,79.898222 67.282956,79.9381313 70.4978748,79.8124909 C72.0259171,79.7518879 73.5833732,79.7385848 75.0878846,79.7252817 C75.7585173,79.7193692 76.4291499,79.7119786 77.0968412,79.7031098 C77.1894944,79.7016317 77.2821476,79.7031098 77.3733301,79.7045879 C77.495397,79.7075442 77.6189346,79.7090223 77.7454136,79.7045879 C77.8571857,79.6986755 77.9057183,79.7075442 77.9321906,79.8790064 C78.0160197,80.4052181 78.1072022,80.9299516 78.1998554,81.4546851 L78.3145689,82.1154059 C78.4042807,82.6416175 78.5028167,83.166351 78.5969406,83.6910846 C78.8160727,84.8691483 79.0381462,86.0856432 79.1822734,87.2873568 C79.3896401,89.0197165 79.4690571,90.8112011 79.5249432,92.3528829 C79.5646517,93.4230437 79.5749465,94.5138982 79.5852413,95.5692777 C79.5925947,96.4118076 79.6014188,97.2543375 79.6220084,98.0968673 C79.6396567,98.7531538 79.5220018,99.3798777 79.3955229,100.042077 C79.3455195,100.314051 79.2940455,100.58307 79.2528663,100.856522 C79.2381595,100.943731 79.2072751,100.961469 79.1396236,100.96886 C79.0234394,100.982163 78.9101966,100.996944 78.7954831,101.013203 C78.6454732,101.033897 78.4969339,101.054591 78.346924,101.064937 C76.6629889,101.197969 75.0025849,101.103369 73.3112964,100.986597 L72.4774176,100.927472 C71.0905611,100.828438 69.6566426,100.726447 68.241843,100.676191 C67.437378,100.646629 66.6255595,100.631848 65.8181531,100.625935 C65.1886996,100.620023 64.5621875,100.617066 63.9459703,100.615588 L63.0003194,100.612632 C60.0751257,100.603763 57.0969873,100.454473 54.2188555,100.315529 L53.2717339,100.268229 C51.67604,100.194323 50.0538738,100.147023 48.4861229,100.104158 C46.8065999,100.056858 45.0726615,100.00808 43.3696076,99.9223487 C41.6209623,99.8336614 39.8443741,99.7006303 38.1251426,99.5705556 C36.7956428,99.4700432 35.466143,99.3695309 34.1351725,99.2882341 C33.351297,99.2409342 32.5541854,99.1581594 31.7820754,99.081297 C30.2878588,98.9290504 28.7406976,98.7694131 27.2038311,98.8433192 L27.2155966,99.0753845 Z M152.823915,36.0733653 L152.623902,36.0098061 C152.282703,35.900425 151.931209,35.7880877 151.572362,35.7038347 C149.207499,35.1465825 146.808811,34.803658 144.568957,34.5169022 C143.155628,34.3365713 141.717297,34.1207654 140.32897,33.9123501 C139.51274,33.7896659 138.696509,33.6669817 137.880278,33.5502101 L136.559603,33.3595322 C135.215396,33.1614638 133.825598,32.9574829 132.449036,32.8111488 C129.879749,32.5376961 127.128096,32.2790246 123.786698,32.0011376 C121.330653,31.7956785 119.112859,31.619782 116.868593,31.5310946 C115.071415,31.4616228 113.243353,31.4364948 111.477059,31.4128448 C110.479934,31.3995417 109.48428,31.3862386 108.487155,31.3640668 L105.588434,31.3034637 C101.972018,31.2280795 98.2335351,31.1526952 94.5582917,31.0359235 C92.7596432,30.9827111 90.9477585,31.0388798 89.1932306,31.0965266 C88.7226111,31.1127859 88.2519917,31.1290453 87.7799017,31.1423484 C86.8577818,31.1674764 85.9194843,31.233992 85.0370729,31.2990294 C83.698749,31.3980636 82.3604251,31.5089228 81.0235719,31.6242163 C78.9484344,31.8045473 76.8321178,31.7927223 74.7834527,31.7808973 L74.6834461,31.7808973 C73.5716077,31.7749848 72.7230221,31.7971567 71.9317933,31.8533253 C71.0390871,31.9168846 70.1360861,32.0262657 69.2639695,32.1326905 L68.8786499,32.1785123 C66.8020418,32.428315 64.672489,32.4756149 62.6149998,32.5199586 L61.5031614,32.5465648 C59.2721313,32.6042116 56.9734497,32.5923866 54.670356,32.5155243 C52.3540261,32.4386619 49.9832809,32.6071679 47.4110517,33.0343453 C45.1785509,33.4038759 43.1725357,33.5782944 41.2797633,33.5664694 L40.3223469,33.5605569 C38.5472294,33.5516882 36.7765239,33.5413413 34.9999356,33.5162132 C33.9542781,33.5043883 33.0645133,33.5753381 32.2291639,33.7453222 L32.0115024,33.7926222 C31.7350135,33.8561814 31.4482298,33.9241751 31.2188029,33.8680064 C30.5805253,33.718716 30.1496144,33.9906906 29.781943,34.3099651 L29.5951659,34.4755148 C29.4407439,34.6115021 29.2863219,34.7504456 29.1201345,34.8716517 C28.6656926,35.2027511 28.2127214,35.5353287 27.7626916,35.8693844 C26.6126154,36.7163487 25.4213601,37.5943535 24.2227513,38.4073209 C21.2784386,40.3968739 17.8473291,42.8180387 14.7162393,45.6722934 C14.0044275,46.3197111 13.291145,46.9641726 12.5778624,47.6071559 C11.611622,48.4777701 10.6483229,49.3483843 9.69237722,50.2278672 C9.36441433,50.5279261 9.08498406,50.8782412 8.8143779,51.2182094 L8.71290059,51.3438498 C8.39082044,51.7458991 8.36140672,52.1804672 8.62171808,52.7111132 L8.72319539,52.9150941 C9.11733914,53.7118022 9.52471906,54.5365946 9.69237722,55.4234682 C10.0306349,57.2119965 10.5424335,58.9813092 11.0365839,60.6914971 C11.171887,61.1571057 11.3057194,61.6227143 11.4366104,62.089801 C11.639565,62.8096467 11.8234007,63.5708799 11.9851761,64.3513286 C12.3337286,66.0334321 12.7543447,67.8234386 13.4690979,69.5173671 C13.6249906,69.8854196 13.7544109,70.2786002 13.8794192,70.6599558 C13.9617776,70.9112367 14.044136,71.1625175 14.1353185,71.4123202 L14.3191542,71.9237506 C14.5191675,72.482481 14.7265341,73.0633831 14.9839041,73.6147229 C15.7677796,75.2879576 16.3398763,77.0217954 16.6854874,78.7689363 C17.0487468,80.597374 17.4252423,82.3829461 18.076756,84.1212182 C18.4385447,85.0849542 18.8047454,86.047212 19.1694754,87.012426 C20.191602,89.7040873 21.2490249,92.4873921 22.1799689,95.2662626 C22.5182266,96.2772984 22.9697271,97.2632062 23.4065208,98.2180734 C23.6256529,98.6984632 23.8462558,99.1803312 24.0536224,99.6666335 C24.3742319,100.418998 24.9463286,100.745663 25.7728539,100.634804 C25.9228639,100.615588 26.0728738,100.603763 26.2243544,100.605241 C26.5582001,100.606719 26.8935164,100.603763 27.2288327,100.600807 C28.0053547,100.591938 28.8083491,100.586026 29.5892832,100.642194 C30.7525955,100.727926 31.9350268,100.847653 33.0777495,100.962947 C33.917511,101.048678 34.7587432,101.132931 35.5985047,101.205359 L36.0191208,101.242312 C37.9074811,101.406384 39.8605516,101.57489 41.7886205,101.675402 C43.3210749,101.756699 44.878531,101.806955 46.3874545,101.857211 C47.3772259,101.888252 48.368468,101.92077 49.3567688,101.962158 C50.3818367,102.003545 51.4039632,102.053802 52.4275604,102.104058 C54.0320784,102.183876 55.6924825,102.266651 57.3264142,102.312473 C59.2662486,102.365685 61.238438,102.39377 63.1429759,102.418898 C64.6136615,102.44107 66.0858179,102.461763 67.5579742,102.492804 C69.0213064,102.525323 70.4890507,102.612532 71.73178,102.695307 C72.7627306,102.7633 73.795152,102.851988 74.679034,102.92885 L75.6746882,103.014581 L75.684983,103.014581 C77.6762913,103.005712 79.2690439,102.893375 80.8485603,102.648007 L81.1426974,102.602185 C82.2427702,102.430723 83.3825516,102.253348 84.5061554,102.118839 C85.2400276,102.030152 85.9768411,101.957724 86.7121839,101.883817 C87.5798884,101.798086 88.4461222,101.712355 89.3108854,101.601496 C90.3256585,101.471421 91.3360195,101.331 92.3507926,101.192056 C94.0200208,100.961469 95.7436644,100.724969 97.448189,100.534291 C100.605751,100.18102 103.795668,99.6873272 106.93117,99.0665158 C107.74593,98.9039223 108.58275,98.7738475 109.393098,98.6467289 C110.225506,98.515176 111.087328,98.3791887 111.92856,98.2121609 C113.852217,97.8263709 115.794992,97.381456 117.675999,96.9528004 L118.301041,96.8079444 C119.582008,96.5152762 120.857092,96.1856548 121.821862,95.9299396 C122.523379,95.7451743 123.03959,95.4465935 123.445499,94.9898536 C124.145545,94.2049706 124.879417,93.474778 125.569169,92.8022322 C126.325101,92.0631709 127.09427,91.3359346 127.863439,90.6086983 L129.494429,89.0655383 C130.31066,88.2910021 131.125419,87.5164658 131.949003,86.7493202 C132.331382,86.3916145 132.721113,86.0398214 133.112316,85.6880282 C133.771183,85.0938229 134.453581,84.4789239 135.0948,83.840375 C136.161047,82.7805611 137.214058,81.7089222 138.267069,80.6372833 C139.365671,79.5198226 140.462802,78.4038401 141.574641,77.2996825 C142.084969,76.7912083 142.434992,76.2280436 142.677655,75.521501 C143.305638,73.6797603 143.943915,71.8394976 144.580722,70.0007131 C145.82051,66.4251346 147.100007,62.72835 148.300086,59.0699966 C149.572229,55.1840123 150.79731,51.2122969 151.981212,47.3706563 C152.475363,45.7654151 152.970984,44.1586959 153.469546,42.5549329 C153.915164,41.1241102 154.213713,39.9460465 154.412256,38.8463233 C154.600503,37.8101594 154.006346,36.4488085 152.823915,36.0733653 L152.823915,36.0733653 Z" id="Fill-1" stroke="#444445" stroke-width="0.25" fill="#444445" transform="translate(81.446571, 67.014581) rotate(29.000000) translate(-81.446571, -67.014581) "></path>
            </g>
        </g>
    </g>
</svg>