<?xml version="1.0" encoding="UTF-8"?>
<svg width="81px" height="87px" viewBox="0 0 81 87" version="1.1" xmlns="http://www.w3.org/2000/svg" xmlns:xlink="http://www.w3.org/1999/xlink">
    <title>8AB3011B-BB49-44CC-9610-F8149BBE7423</title>
    <g id="Website-UI" stroke="none" stroke-width="1" fill="none" fill-rule="evenodd">
        <g id="header/home" transform="translate(-548.000000, 0.000000)" fill="#EE99BB">
            <path d="M624.845271,36.5804209 C626.362811,36.7698937 627.88303,36.9228252 629.404588,37.0635764 C632.28028,37.3301915 635.155971,37.5765061 638.033002,37.8309409 C639.352311,37.9486846 640.675638,38.0353007 641.989589,38.2004127 C642.552137,38.2694349 643.121382,38.4413137 643.635712,38.6808614 C644.22103,38.9515367 644.601419,39.4428124 644.521055,40.1601019 C644.455425,40.7542342 644.040211,41.1873147 643.245947,41.2847579 C642.304348,41.3997949 641.346678,41.4715238 640.401061,41.4268624 C636.806112,41.2658106 633.211163,41.0655109 629.616213,40.850324 C627.753108,40.7393471 625.891342,40.5512278 624.028237,40.4348374 C623.563465,40.4064165 623.071905,40.4578448 622.625885,40.5837088 C622.167811,40.713633 622.132986,41.1440067 622.522751,41.4349827 C623.168342,41.9194915 623.926443,42.1157311 624.708652,42.2104674 C625.652929,42.3227977 626.598545,42.4324212 627.54818,42.4919698 C632.462438,42.801893 637.379375,43.0874554 642.294973,43.4041456 C642.826714,43.4393333 643.37185,43.553017 643.868768,43.7411363 C644.499625,43.9820373 644.795632,44.5463954 644.808434,45.2095499 C644.821081,45.8510504 644.483552,46.3653335 643.916986,46.5967609 C643.328989,46.8363085 642.690096,47.0217211 642.060578,47.0745028 C640.133181,47.2355546 638.199088,47.3384112 636.264994,47.4372077 C632.806664,47.6131467 629.348333,47.8296869 625.885985,47.916303 C622.933947,47.9893853 619.976552,47.9406638 617.023176,47.8743483 C615.028809,47.8283335 613.449657,46.8985638 612.292415,45.2528579 C611.898632,44.6912067 611.511545,44.128202 611.115083,43.5692575 C610.423952,42.5948264 609.474318,42.0697163 608.310379,41.8788902 C606.015987,41.5040049 603.717577,41.4958846 601.404433,41.6434027 C598.015752,41.8585895 594.623052,42.0358819 591.230352,42.1820465 C587.327341,42.3498652 583.421651,42.4256543 579.519979,42.6191872 C574.02576,42.8939226 568.534221,43.2606876 563.040002,43.5462501 C560.734895,43.6653472 558.421752,43.6626405 556.112626,43.7465498 C554.588389,43.8020383 553.060134,43.8845942 551.538576,44.0077515 C547.986487,44.2973741 544.426362,44.5247414 540.889007,44.9537617 C537.745436,45.3340605 534.604543,45.5668413 531.44222,45.5736082 C531.138176,45.5736082 530.827435,45.5884953 530.531428,45.5316535 C529.940752,45.4179699 529.520181,45.0430846 529.453211,44.4421854 C529.214798,42.2984369 529.021924,40.1492749 528.811638,38.0014663 C528.808434,37.9676319 528.808434,37.9324441 528.808434,37.8986097 C528.845123,36.0079426 529.442496,35.3610286 531.298904,35.2811794 C532.350333,35.2378714 533.40444,35.2486984 534.458548,35.2432849 C540.132246,35.2094505 545.804605,35.1336614 551.478303,35.1634357 C555.008961,35.1823829 558.540958,35.4138103 562.074295,35.4584718 C568.153831,35.5356142 574.236046,35.5207271 580.315582,35.5829824 C584.324406,35.6235837 588.331891,35.7264403 592.340714,35.8157632 C596.042816,35.8969658 599.744917,36.009296 603.447018,36.081025 C604.80517,36.1080925 606.164661,36.0458372 607.521473,36.0431304 C608.812654,36.0390703 609.730143,35.4977197 610.225721,34.2580268 C610.42797,33.7505105 610.670402,33.2538213 610.939621,32.7801395 C611.258398,32.2157815 611.585212,31.6473634 611.980335,31.1398472 C613.228656,29.5455696 614.84799,28.7362504 616.885217,29.0028656 C618.567504,29.2221126 620.247111,29.4724872 621.918682,29.7661699 C628.878204,30.9842088 635.832368,32.2252552 642.790551,33.4446474 C643.34908,33.5420906 643.86341,33.6354735 644.097805,34.2485531 C644.428637,35.1174209 644.105841,35.9308002 643.173619,36.2014755 C642.466416,36.4071887 641.701618,36.5141055 640.966288,36.4965116 C639.440711,36.4599704 637.915135,36.3476402 636.393577,36.2082424 C632.36868,35.8347104 628.346462,35.4273441 624.322905,35.0402784 C624.020201,35.0091507 623.70946,34.9929102 623.408095,35.0253913 C622.820098,35.0862932 622.735716,35.2080971 622.608473,36.1486938 C623.393361,36.3029787 624.113959,36.4897447 624.845271,36.5804209 Z" id="fork" transform="translate(586.808434, 38.452748) rotate(-51.000000) translate(-586.808434, -38.452748) "></path>
        </g>
    </g>
</svg>