<?xml version="1.0" encoding="UTF-8"?>
<svg width="121px" height="121px" viewBox="0 0 121 121" version="1.1" xmlns="http://www.w3.org/2000/svg" xmlns:xlink="http://www.w3.org/1999/xlink">
    <title>A95C6C7D-C24B-442D-B0F1-71327FFDBE6E</title>
    <g id="Website-UI" stroke="none" stroke-width="1" fill="none" fill-rule="evenodd">
        <g id="Website-Home---Desktop" transform="translate(-8.000000, -189.000000)">
            <g id="spoon" transform="translate(68.573738, 249.177915) rotate(15.000000) translate(-68.573738, -249.177915) translate(19.573738, 200.177915)">
                <path d="M104.321221,54.143074 C104.265284,55.0364596 104.227126,55.9327376 104.144518,56.824699 C104.048415,57.8449183 103.449227,58.2741043 102.363165,58.1851012 C99.6946786,57.9683645 97.0261999,57.7457986 94.3547123,57.5596686 C90.9260795,57.3220165 87.4944377,57.1208003 84.0657886,56.8962637 C80.2593095,56.6445079 76.4528866,56.3475762 72.644875,56.1366263 C66.7891355,55.8087216 60.9273403,55.5842917 55.0745971,55.2301522 C49.0307152,54.8631344 42.9943746,54.3897254 36.9549997,53.9731543 C34.9117462,53.8328774 32.8641378,53.6197416 30.8221833,53.6266489 C28.4245901,53.6354551 26.2513251,54.3755402 24.4371365,55.9254302 C23.5263358,56.7018372 22.5933331,57.4578696 21.6351793,58.1818731 C17.6942808,61.1669156 13.1437229,62.274274 8.14132218,62.0983247 C3.90943388,61.9491071 0.295772776,60.3578664 -2.88850747,57.8523743 C-5.67160518,55.6611578 -7.37368824,52.85071 -7.55455999,49.3432479 C-7.60811517,48.3188426 -7.47054624,47.3189738 -7.12555678,46.3465359 C-6.3850186,44.2587833 -5.1099503,42.4982562 -3.32857343,41.1189094 C-2.59140093,40.5481953 -1.67955998,40.1273648 -0.778222063,39.8114719 C1.94061532,38.859403 4.78902591,38.5731527 7.67700049,38.6453456 C10.2952927,38.7105869 12.9194019,38.8647155 15.437529,39.6412366 C18.2830155,40.5164466 20.8003953,41.8948276 22.6423793,44.2139965 C23.7238983,45.5752157 25.2107234,46.3165852 26.9113687,46.7050261 C29.560106,47.3123399 32.2581614,47.5829595 34.9667162,47.751556 C37.7063893,47.9201139 40.4460696,48.0828426 43.1858259,48.1843652 C47.0294826,48.329693 50.8760558,48.5129066 54.7184261,48.5008492 C59.4439634,48.4862378 64.1681926,48.3317286 68.8909708,48.1524474 C72.1303794,48.0289276 75.3611866,47.6722528 78.6020354,47.5822489 C84.7117869,47.4099892 90.8258681,47.3309904 96.9384439,47.2709381 C98.4143537,47.25599 99.8929122,47.4946062 101.373177,47.5525169 C103.912895,47.6484587 104.860458,49.4863767 104.702505,51.3883306 C104.624305,52.3108895 104.488319,53.2291484 104.379004,54.1488314 C104.359744,54.1459407 104.341964,54.1445055 104.321221,54.143074" fill="#F5BE00" transform="translate(48.576744, 50.375483) rotate(44.000000) translate(-48.576744, -50.375483) "></path>
                <path d="M29.5308634,9.99633922 C28.5627504,8.93859257 27.6335861,7.84135401 26.6206142,6.83369566 C24.9593093,5.18390787 23.1409377,3.73409975 21.0540458,2.73177858 C20.2937947,2.36760753 19.4604824,2.06869253 18.6442157,1.98049651 C16.8272883,1.78723825 15.0757853,2.11672232 13.4330346,2.89054224 C12.4215534,3.36618316 11.6006135,4.08533787 10.8933753,4.96110893 C9.63803728,6.51473636 9.05728381,8.36363091 8.86586748,10.3697876 C8.55084627,13.69127 9.3963246,16.8464044 10.9321509,19.7643095 C12.7650998,23.2504269 15.5710361,25.7650052 18.9996338,27.5070525 C20.8473485,28.4440831 22.7620536,29.093408 24.8026742,29.2272928 C25.9686278,29.30545 27.1353051,29.4234863 28.3012206,29.4995446 C31.1157544,29.6855908 33.480659,30.9877023 35.435575,33.0682411 C37.311656,35.0640153 39.038888,37.2081933 40.8410625,39.2786856 C43.8097131,42.6891492 46.760405,46.1188086 49.7700379,49.4897464 C52.2824192,52.305262 54.8997123,55.017198 57.4120555,57.8306148 C61.213754,62.0858779 64.9704413,66.3828337 68.7321171,70.6744573 C71.7117806,74.0752891 74.7015355,77.4717533 77.6281681,80.9207103 C78.9937766,82.5292464 80.5677847,83.9642395 81.6251847,85.8508627 C81.8943482,86.3355602 82.0176684,86.2936095 82.4568815,85.8926111 C83.668497,84.7879654 84.8905467,83.6978422 86.0990548,82.5900991 C86.3601805,82.3516397 86.6209635,82.0942902 86.8180221,81.8002132 C87.3615746,80.9838632 87.3295009,80.3933787 86.6816471,79.6095224 C85.8060777,78.55128 84.9464335,77.4738759 83.9989147,76.4861198 C82.4708161,74.8907951 80.8987802,73.3402944 79.310819,71.8089554 C76.2892305,68.9001159 73.2795384,65.9742814 70.1971658,63.1346919 C65.8829105,59.1619783 61.3148488,55.494787 57.1637607,51.3219919 C54.4225834,48.5648851 51.6075757,45.8866943 48.933283,43.0602355 C45.7872074,39.7367165 42.7369498,36.3129189 39.6907593,32.8890534 C37.9714413,30.9567967 36.3349712,28.9381251 34.9723992,26.712274 C33.8309705,24.8469997 33.1875752,22.851635 33.462852,20.6467213 C33.605772,19.4990361 33.4589745,18.3593385 33.2103874,17.2150421 C32.6165094,14.4735143 31.287448,12.1326786 29.5308634,9.99633922 M83.1047067,87.1793075 C82.3400193,87.8597311 81.6271949,87.7551108 80.9288155,86.9332568 C79.214996,84.9116779 77.5041696,82.8868996 75.7673647,80.8877497 C73.536149,78.3215828 71.2769212,75.7810782 69.036688,73.2224102 C66.5503233,70.3833652 64.0979188,67.5101604 61.5825443,64.697844 C57.717548,60.3733034 53.7806023,56.1192491 49.9365959,51.7744124 C45.9680272,47.2909867 42.0763964,42.7317426 38.1448191,38.2130567 C36.8142298,36.6847681 35.5314544,35.101093 34.1011323,33.6815464 C32.4201853,32.0142405 30.398937,31.0423162 28.0695203,30.9111547 C26.9037953,30.845591 25.7354273,30.7464787 24.5714384,30.6084519 C19.7790095,30.0460264 15.8458789,27.6835929 12.4737402,24.0646648 C9.62022384,21.0018516 8.18536932,17.3148788 7.67645964,13.2586704 C7.23171013,9.71157852 7.96608335,6.46392521 10.2350631,3.76906698 C10.9001615,2.98113051 11.6788475,2.34351369 12.5856602,1.87277003 C14.5302067,0.859811561 16.6231558,0.458489875 18.8110194,0.69174338 C19.7148792,0.786874746 20.6392349,1.11471264 21.4845049,1.51210627 C24.0336661,2.71141259 26.2180626,4.49103433 28.1849129,6.55667705 C29.9682748,8.43117668 31.6939219,10.3759249 32.922001,12.7006009 C34.3111853,15.3280693 35.1241794,18.0942817 34.8264303,21.0784997 C34.6507403,22.8303496 35.1818494,24.4108309 36.1035589,25.8819119 C37.536489,28.1737733 39.235145,30.2564921 41.0128867,32.2696552 C42.808275,34.3024691 44.6097258,36.3330823 46.4520826,38.3199718 C49.037175,41.1069792 51.5974008,43.9248452 54.2892481,46.5977444 C57.5973568,49.8828654 61.0033172,53.0676739 64.4200619,56.2302572 C66.7671632,58.4008253 69.2666092,60.3914382 71.591799,62.5875667 C75.9751332,66.7239405 80.295688,70.9316973 84.6042702,75.1522512 C85.6469374,76.1709611 86.5160413,77.3773289 87.5098969,78.4524918 C89.2163738,80.293633 88.622247,82.3023158 87.2094445,83.5856329 C86.5250309,84.2059288 85.8032525,84.7848579 85.0980849,85.3824055 C85.0866149,85.3668505 85.0741473,85.352362 85.0616796,85.3378734 C84.4097259,85.9534282 83.7733093,86.58447 83.1047067,87.1793075 Z" id="spoon-outline" stroke="#444445" stroke-width="0.25" fill="#444445"></path>
                <path d="M13.5567124,21.4155607 C11.9985745,19.6091777 11.0044093,17.5369381 10.1810792,15.4381636 C9.28057549,13.1397053 9.32475378,10.81357 10.4663332,8.66772259 C10.9368357,7.78072071 11.5364042,6.95553902 12.1338342,6.13681843 C12.3036834,5.90274823 12.6423675,5.723877 12.9490458,5.64407267 C13.1600787,5.58833268 13.5393712,5.6770468 13.6843251,5.8280521 C13.8293503,5.98120775 13.8377415,6.3059229 13.7909758,6.52764069 C13.7493428,6.72675462 13.5405134,6.88464197 13.4291792,7.07437448 C12.8941772,7.96702748 12.301947,8.83626664 11.8518249,9.77049649 C11.0532228,11.4406622 11.0980185,13.2567107 11.7672126,14.9980549 C12.4697562,16.8231332 13.2806295,18.6520519 14.6563314,20.2054324 C15.2622277,20.8867666 15.9168735,21.5485374 16.6324594,22.1326249 C17.5366163,22.870758 18.5374206,23.5084739 19.4803503,24.2098807 C20.8032026,25.196785 22.3406756,25.7031772 23.9307626,25.9157794 C25.3341956,26.1033677 26.7666463,26.1015739 28.1747242,26.0740757 C29.2713529,26.0532794 29.5652187,25.6928674 29.7214283,24.6910668 C30.3461241,20.6795637 28.8819487,17.1275139 26.1623393,13.8797489 C25.6492325,13.2657659 24.9245885,12.7989284 24.3078516,12.252057 C23.9612845,11.9438355 23.3947079,11.6333242 23.7018375,11.1405897 C24.0437497,10.5971665 24.5486707,11.0348296 24.9711471,11.22014 C26.6147281,11.9475995 27.6829163,13.2356057 28.649186,14.5713602 C30.3228943,16.8848091 31.1774129,19.4641252 31.5089494,22.1263166 C31.6540598,23.2773818 31.4111754,24.4677347 31.2007928,25.6095592 C30.9973257,26.7115669 30.1246622,27.3518779 28.9516261,27.4805327 C25.3504148,27.8732984 21.8296357,27.5689055 18.6554037,25.4392716 C17.2493059,24.4957348 15.9163366,23.4518808 14.5722481,22.4274301 C14.1933236,22.1365516 13.8925871,21.7560877 13.5567124,21.4155607" id="Fill-6" stroke="#444445" stroke-width="0.25" fill="#444445"></path>
            </g>
        </g>
    </g>
</svg>