<?xml version="1.0" encoding="UTF-8"?>
<svg width="64px" height="119px" viewBox="0 0 64 119" version="1.1" xmlns="http://www.w3.org/2000/svg" xmlns:xlink="http://www.w3.org/1999/xlink">
    <title>36C23E9B-44E1-45DB-BF79-A6FD91DC9073</title>
    <g id="Website-UI" stroke="none" stroke-width="1" fill="none" fill-rule="evenodd">
        <g id="Website-Home---Desktop" transform="translate(-1175.000000, -144.000000)">
            <g id="fork" transform="translate(1175.972024, 144.495113)">
                <path d="M68.0368369,57.9515483 C69.554377,58.141021 71.0745958,58.2939526 72.5961541,58.4347037 C75.4718457,58.7013189 78.3475372,58.9476335 81.2245682,59.2020683 C82.5438771,59.319812 83.8672042,59.4064281 85.1811555,59.5715401 C85.7437034,59.6405623 86.3129484,59.8124411 86.8272779,60.0519887 C87.4125957,60.322664 87.7929852,60.8139397 87.7126212,61.5312293 C87.6469907,62.1253616 87.2317767,62.5584421 86.4375126,62.6558852 C85.4959144,62.7709222 84.5382435,62.8426512 83.5926272,62.7979898 C79.9976779,62.636938 76.4027286,62.4366382 72.8077793,62.2214514 C70.944674,62.1104745 69.0829082,61.9223551 67.2198029,61.8059648 C66.7550312,61.7775438 66.2634714,61.8289722 65.8174513,61.9548362 C65.3593765,62.0847603 65.3245521,62.5151341 65.7143175,62.80611 C66.3599082,63.2906188 67.1180086,63.4868584 67.9002181,63.5815948 C68.844495,63.6939251 69.7901113,63.8035486 70.7397459,63.8630971 C75.654004,64.1730204 80.570941,64.4585828 85.4865386,64.7752729 C86.0182804,64.8104607 86.5634161,64.9241444 87.0603335,65.1122637 C87.6911908,65.3531647 87.9871982,65.9175228 88,66.5806773 C88.0126468,67.2221778 87.6751181,67.7364609 87.1085519,67.9678882 C86.5205553,68.2074359 85.8816616,68.3928485 85.2521437,68.4456302 C83.3247472,68.606682 81.3906538,68.7095386 79.4565603,68.8083351 C75.9982298,68.984274 72.5398993,69.2008143 69.0775506,69.2874304 C66.1255132,69.3605127 63.1681183,69.3117912 60.2147415,69.2454757 C58.2203751,69.1994609 56.6412226,68.2696912 55.4839811,66.6239853 C55.0901976,66.062334 54.703111,65.4993294 54.3066486,64.9403849 C53.6155183,63.9659538 52.6658838,63.4408436 51.5019453,63.2500175 C49.2075532,62.8751322 46.909143,62.867012 44.5959994,63.01453 C41.2073177,63.2297169 37.8146178,63.4070092 34.4219179,63.5531739 C30.5189066,63.7209926 26.6132165,63.7967817 22.7115446,63.9903145 C17.2173263,64.26505 11.7257868,64.631815 6.23156841,64.9173775 C3.9264612,65.0364746 1.61331759,65.0337679 -0.695807813,65.1176772 C-2.22004489,65.1731656 -3.74830016,65.2557216 -5.26985843,65.3788789 C-8.82194694,65.6685015 -12.3820718,65.8958687 -15.9194269,66.3248891 C-19.0629985,66.7051879 -22.2038912,66.9379687 -25.3662144,66.9447356 C-25.6702581,66.9447356 -25.9809989,66.9596227 -26.2770063,66.9027809 C-26.8676816,66.7890973 -27.2882532,66.414212 -27.3552232,65.8133128 C-27.5936364,63.6695643 -27.78651,61.5204023 -27.9967957,59.3725937 C-28,59.3387593 -28,59.3035715 -28,59.2697371 C-27.9633107,57.37907 -27.3659384,56.732156 -25.5095302,56.6523068 C-24.4581012,56.6089988 -23.4039935,56.6198258 -22.3498858,56.6144123 C-16.6761879,56.5805779 -11.0038294,56.5047888 -5.33013143,56.534563 C-1.79947332,56.5535103 1.73252419,56.7849377 5.26586109,56.8295991 C11.3453972,56.9067416 17.4276121,56.8918545 23.5071482,56.9541098 C27.515972,56.9947111 31.5234565,57.0975677 35.5322804,57.1868906 C39.2343817,57.2680931 42.936483,57.3804234 46.6385843,57.4521524 C47.9967357,57.4792199 49.3562266,57.4169646 50.7130387,57.4142578 C52.0042202,57.4101977 52.9217091,56.8688471 53.4172871,55.6291541 C53.6195365,55.1216379 53.8619679,54.6249487 54.1311872,54.1512669 C54.4499644,53.5869089 54.776778,53.0184907 55.1719009,52.5109745 C56.4202216,50.9166969 58.0395561,50.1073778 60.0767833,50.3739929 C61.7590696,50.5932399 63.4386771,50.8436146 65.1102481,51.1372973 C72.0697699,52.3553362 79.0239342,53.5963825 85.9821166,54.8157748 C86.5406463,54.9132179 87.0549759,55.0066009 87.2893709,55.6196805 C87.6202027,56.4885482 87.2974073,57.3019276 86.365185,57.5726029 C85.6579818,57.7783161 84.8931845,57.8852329 84.1578539,57.867639 C82.6322775,57.8310978 81.106701,57.7187675 79.5851427,57.5793698 C75.5602461,57.2058378 71.5380282,56.7984715 67.5144709,56.4114058 C67.2117665,56.3802781 66.9010258,56.3640376 66.5996608,56.3965186 C66.0116642,56.4574206 65.9272821,56.5792245 65.8000391,57.5198212 C66.5849274,57.6741061 67.3055245,57.8608721 68.0368369,57.9515483 Z" fill="#47BFB9" transform="translate(30.000000, 59.823875) rotate(-69.000000) translate(-30.000000, -59.823875) "></path>
                <path d="M89.542308,54.4441302 C88.5270488,54.39947 87.7783286,54.4130034 87.0403236,54.3250364 C82.4140633,53.7823477 77.8601302,52.7998241 73.2834274,51.9580476 C70.1773772,51.3855855 67.0740057,50.7928233 63.9572403,50.275848 C61.243632,49.823833 59.6577918,50.6723761 58.3559026,53.1340987 C58.2447331,53.3452194 58.1429393,53.5644603 58.0371273,53.7782877 C57.8080913,54.2384228 57.5696795,54.6944978 57.352698,55.1586929 C56.744614,56.4606044 55.7159608,57.1305069 54.3122779,57.2401273 C53.9399269,57.2699008 53.5662365,57.3159143 53.1938855,57.3132076 C49.253394,57.2847875 45.3142419,57.2631341 41.3737504,57.2103539 C34.6808081,57.1223869 27.9892053,57.0046464 21.296263,56.9126194 C16.3713183,56.8435992 11.4450342,56.8084124 6.52008954,56.7380388 C3.02025802,56.6879653 -0.478234112,56.5607514 -3.97672624,56.5472181 C-9.54725792,56.522858 -15.119129,56.5607514 -20.6896607,56.5783448 C-21.4035567,56.5810515 -22.1161133,56.631125 -22.8286698,56.6392451 C-23.3362994,56.6446584 -23.5680143,56.9193861 -23.6189112,57.3917012 C-23.6483778,57.6650756 -23.6845414,57.9425099 -23.6644505,58.2131776 C-23.5613173,59.6138828 -23.447469,61.0145881 -23.3202267,62.4152933 C-23.2854025,62.7874613 -23.1983421,63.1569227 -23.1166391,63.5236774 C-23.0349362,63.8971988 -22.808579,64.129973 -22.4147977,64.1556865 C-21.8401985,64.1922266 -21.2642599,64.2612468 -20.6896607,64.2504201 C-17.5621802,64.1962866 -14.4601481,63.8011118 -11.3554372,63.4749572 C-8.789162,63.2056429 -6.22556555,62.8862551 -3.65259336,62.7292678 C0.447285819,62.4775469 4.55788013,62.3665731 8.66043809,62.150039 C14.2242728,61.8577179 19.78275,61.4936699 25.3452453,61.2094688 C28.5691621,61.0457149 31.7957576,60.9929347 35.0210137,60.8670742 C38.6521057,60.7276803 42.2885552,60.63836 45.9129502,60.3839324 C48.7363887,60.1849916 51.5424151,60.2012317 54.3537991,60.4867861 C56.1445663,60.6694868 57.5897704,61.4530697 58.6277992,62.9593353 C58.9572897,63.4384171 59.2881195,63.9161456 59.6135918,64.3965807 C60.6489419,65.9244997 62.0646793,66.7229694 63.9130404,66.7189094 C66.934709,66.713496 69.9577169,66.7568028 72.9793854,66.7107893 C78.0730935,66.6363557 83.1574259,66.3643347 88.2337219,65.9190864 C88.5042791,65.8960796 88.7788545,65.8838996 89.0413753,65.821646 C89.4016718,65.737739 89.8101864,65.6660121 89.8584045,65.1869303 C89.8945681,64.8391223 89.542308,64.5765747 88.989139,64.5143211 C88.6529516,64.477781 88.3114066,64.469661 87.9725404,64.4507142 C82.6484569,64.1421531 77.323034,63.8471253 71.9989504,63.5182641 C70.6742917,63.4370638 69.3710632,63.2056429 68.205792,62.4707802 C67.6298534,62.1067321 67.3392054,61.6520104 67.4008174,60.9442145 C67.4664476,60.1890517 67.877641,59.7235032 68.5419795,59.5286225 C69.0201424,59.386522 69.5465235,59.3242684 70.043438,59.3540419 C72.0458292,59.4717823 74.0428628,59.6571897 76.0425751,59.7830501 C79.7031337,60.014471 83.3663711,60.2310051 87.028269,60.4312992 C87.7033226,60.4678394 88.3864126,60.4123525 89.0628056,60.3609256 C89.2971992,60.3419789 89.5235565,60.2066451 89.8557257,60.0861979 C89.330684,59.4325355 88.7212606,59.3689286 88.1225524,59.3134417 C85.4169803,59.0630741 82.7073902,58.8357133 80.0018181,58.5853457 C76.9573799,58.3038513 73.9129417,58.0210036 70.8738611,57.7016157 C70.135856,57.6244754 69.3951722,57.4593681 68.6893126,57.234714 C67.9647015,57.0019398 67.6512837,56.4403043 67.6981624,55.735215 C67.7597745,54.839305 68.4000039,54.1017356 69.2799845,53.9718151 C69.6469779,53.9176816 70.0287047,53.9244483 70.3983769,53.9542217 C71.9560899,54.0760222 73.5124635,54.199176 75.0674977,54.3548099 C78.0088027,54.6457776 80.9447502,54.9935856 83.888734,55.2507199 C85.3392956,55.3765804 86.8019118,55.3644003 88.2605097,55.3847004 C88.5565154,55.3887604 88.8779695,55.3089134 89.139151,55.1722263 C89.2905023,55.095086 89.3427386,54.8257716 89.542308,54.4441302 M68.8420033,56.1953501 C69.626887,56.3496307 70.34748,56.5363914 71.0787881,56.627065 C72.5963193,56.8165324 74.1165293,56.9694596 75.6394181,57.1115602 C78.5137535,57.3768145 81.3907677,57.6244754 84.2664425,57.878903 C85.5857438,57.9966435 86.9090631,58.0819038 88.2230068,58.2470111 C88.7855514,58.3160313 89.3547931,58.4892586 89.8691196,58.7274462 C90.4557734,58.9994672 90.8348213,59.490729 90.7544578,60.2079984 C90.6874882,60.8021139 90.2736161,61.2351822 89.4793565,61.3312692 C88.5391033,61.446303 87.5800986,61.5180299 86.6344878,61.4747231 C83.0395594,61.3136759 79.444631,61.1120284 75.8497027,60.898201 C73.9866083,60.7872272 72.1248533,60.5991132 70.2604195,60.4827261 C69.7969898,60.4529526 69.3067723,60.5043795 68.8594154,60.63024 C68.4026827,60.7615138 68.3651797,61.1905221 68.7549428,61.4828431 C69.4018692,61.9673383 70.1613045,62.162219 70.9421701,62.2569527 C71.8864415,62.3706331 72.8320523,62.4789002 73.7816813,62.5384471 C78.6959109,62.8483616 83.6141586,63.1352693 88.5283882,63.4505972 C89.0601268,63.485784 89.6052594,63.6008177 90.1021739,63.7889318 C90.7330275,64.0284726 91.0290332,64.5928148 91.0427395,65.2573039 C91.0544816,65.897433 90.7169548,66.4117015 90.150392,66.6444757 C89.5637382,66.8826633 88.9235088,67.0680707 88.2939945,67.1208509 C86.3666093,67.2832515 84.4338666,67.3847518 82.4997844,67.4835455 C79.0401346,67.6594795 75.5818243,67.877367 72.1194957,67.9626273 C69.1674756,68.0370609 66.2100978,67.9883408 63.2567383,67.9206738 C61.2623835,67.8760137 59.6832402,66.9462702 58.5260054,65.2992574 C58.1335636,64.7389753 57.7451399,64.1746332 57.3500192,63.6170578 C56.6588929,62.6426541 55.7079245,62.1175588 54.5439928,61.9267381 C52.2509535,61.5518634 49.9512173,61.5437434 47.6380872,61.6899039 C44.2494252,61.9050847 40.856745,62.0823721 37.4640649,62.2285326 C33.5624157,62.3976999 29.655409,62.4734868 25.7537599,62.6670142 C20.2582342,62.9403886 14.7694054,63.3071433 9.27387966,63.5926977 C6.96878588,63.7131448 4.65565575,63.7090848 2.3465438,63.7929918 C0.822315603,63.8484786 -0.704591375,63.9310323 -2.22748018,64.0555394 C-5.77954799,64.3424472 -9.33965215,64.5711613 -12.8769867,65.0001696 C-16.0192005,65.3804577 -19.1614143,65.6145852 -22.3250584,65.6199986 C-22.627761,65.6199986 -22.9385,65.6362386 -23.2345056,65.5780451 C-23.8251776,65.4643647 -24.2457467,65.0908433 -24.3127163,64.4886077 C-24.5511281,62.3449197 -24.7440005,60.1958183 -24.9542851,58.0480703 C-24.9569639,58.0155902 -24.9569639,57.9804034 -24.9569639,57.94657 C-24.9208003,56.0532496 -24.3234314,55.4090605 -22.467034,55.3292135 C-21.4156112,55.2845534 -20.3615096,55.2967334 -19.3074081,55.2899667 C-13.6337432,55.2574866 -7.9614177,55.1816996 -2.28909221,55.2101197 C1.24422411,55.2304198 4.77486165,55.4618407 8.30817797,55.5065008 C14.3876786,55.5836411 20.4698581,55.5674011 26.5506982,55.631008 C30.5581593,55.6716081 34.5669598,55.7744618 38.5744209,55.8624288 C42.27784,55.9436291 45.9785804,56.0559562 49.6806601,56.1276832 C51.0388037,56.1547499 52.3982866,56.0938497 53.7564302,56.0897897 C55.0462648,56.087083 55.9650878,55.543041 56.4593235,54.3047364 C56.6615717,53.7972345 56.9040016,53.3019126 57.1732194,52.8268908 C57.4919948,52.2639021 57.817467,51.6941466 58.2139271,51.1879981 C59.4622405,49.5924121 61.0815655,48.7844691 63.1174415,49.0497234 C64.8010574,49.2689642 66.480655,49.5206852 68.1522164,49.8130063 C75.113037,51.0310108 82.0671607,52.2720221 89.0239632,53.4927333 C89.5824897,53.5888204 90.0981557,53.683554 90.3312099,54.2966163 C90.6620398,55.1654596 90.3392463,55.9774626 89.40569,56.2494836 C88.6998303,56.4551911 87.9350375,56.5593981 87.1997112,56.543158 C85.6741436,56.5079713 84.148576,56.3956442 82.6270266,56.254897 C78.6021534,55.8813756 74.579959,55.4753741 70.5564252,55.0869659 C70.2537225,55.0571925 69.9429836,55.0395991 69.6416204,55.0720792 C69.0536272,55.1329795 68.9692455,55.2561332 68.8420033,56.1953501" id="Fill-3" stroke="#444445" stroke-width="0.25" fill="#444445" transform="translate(33.043036, 58.500000) rotate(-69.000000) translate(-33.043036, -58.500000) "></path>
            </g>
        </g>
    </g>
</svg>