<?xml version="1.0" encoding="UTF-8"?>
<svg width="56px" height="85px" viewBox="0 0 56 85" version="1.1" xmlns="http://www.w3.org/2000/svg" xmlns:xlink="http://www.w3.org/1999/xlink">
    <title>1E7B1CEA-B84E-44C1-99F7-033CD524FD3F</title>
    <g id="Website-UI" stroke="none" stroke-width="1" fill="none" fill-rule="evenodd">
        <g id="header/home" transform="translate(-938.000000, 0.000000)" fill="#18B585">
            <path d="M1015.58656,42.2325971 C1015.49413,43.2101726 1014.91781,43.6214192 1013.87319,43.5361362 C1011.30654,43.3284588 1008.7399,43.1151959 1006.17036,42.9368459 C1002.87257,42.7091273 999.571886,42.5163217 996.274081,42.3011705 C992.612865,42.0599377 988.951703,41.7754173 985.289013,41.5732848 C979.656741,41.2590861 974.018644,41.0440371 968.389253,40.7047001 C962.576018,40.3530232 956.770037,39.899402 950.961137,39.500243 C948.995858,39.3658295 947.026391,39.1616025 945.062362,39.1682211 C942.756265,39.1766592 940.665937,39.8858098 938.920981,41.3709165 C938.044939,42.1148706 937.147541,42.839302 936.225953,43.5330431 C932.435447,46.3933149 928.058548,47.4543872 923.247049,47.2857923 C919.176658,47.1428118 915.700902,45.6180828 912.63814,43.2173169 C909.961251,41.1176903 908.324123,38.4247154 908.150154,35.0638605 C908.098643,34.0822739 908.230962,33.1241983 908.562786,32.192407 C909.275063,30.1919196 910.501472,28.5049802 912.214868,27.1832882 C912.923909,26.6364292 913.800952,26.2331889 914.667893,25.9304999 C917.282974,25.0182261 920.022683,24.7439407 922.800447,24.8131161 C925.318819,24.8756304 927.842787,25.0233165 930.264817,25.7673801 C933.001714,26.6060076 935.423026,27.9267741 937.194716,30.1490049 C938.234962,31.453327 939.665047,32.1637082 941.300792,32.5359128 C943.848448,33.1178417 946.44354,33.3771497 949.04873,33.5386991 C951.683852,33.7002115 954.31898,33.8561384 956.954182,33.9534175 C960.651157,34.0926708 964.350937,34.2682264 968.046674,34.2566729 C972.591875,34.2426722 977.135818,34.0946213 981.678366,33.9228338 C984.794152,33.804477 987.901665,33.4627108 991.018836,33.3764688 C996.895427,33.2114093 1002.77618,33.1357126 1008.65549,33.0781705 C1010.07508,33.0638471 1011.49721,33.2924895 1012.92098,33.3479796 C1015.36378,33.4399112 1016.27518,35.2010067 1016.12326,37.0234615 C1016.04804,37.9074587 1015.91725,38.7873356 1015.8121,39.6685771 C1015.79358,39.6658072 1015.77648,39.664432 1015.75652,39.6630603 C1015.70272,40.5191036 1015.66602,41.3779184 1015.58656,42.2325971 Z" id="spoon" transform="translate(962.139371, 36.052950) rotate(-120.000000) translate(-962.139371, -36.052950) "></path>
        </g>
    </g>
</svg>