<?xml version="1.0" encoding="UTF-8"?>
<svg width="62px" height="206px" viewBox="0 0 62 206" version="1.1" xmlns="http://www.w3.org/2000/svg" xmlns:xlink="http://www.w3.org/1999/xlink">
    <title>7399E10E-E59A-4E69-BCB2-7BAE9C9C4C5A</title>
    <defs>
        <polygon id="path-1" points="0.470249963 0.245050313 9.03985065 0.245050313 9.03985065 8.859375 0.470249963 8.859375"></polygon>
    </defs>
    <g id="Website-UI" stroke="none" stroke-width="1" fill="none" fill-rule="evenodd">
        <g id="Website-Home---Desktop" transform="translate(-1085.000000, -367.000000)">
            <g id="mailbbox" transform="translate(1085.113497, 367.500000)">
                <path d="M47.8865031,57.6191903 C47.8421102,54.3245762 47.825036,51.3174921 47.7464947,48.3138309 C47.7089314,46.9206798 47.5842898,45.5292402 47.4391592,44.142935 C47.2393911,42.2397606 46.9901079,40.3382976 46.7476543,38.4385461 C46.4386114,36.0133678 45.9895601,33.6138618 45.1785358,31.3050647 C43.4984351,26.5265907 40.2816569,23.1549596 35.6801614,21.1011742 C35.2089137,20.8906612 34.6898582,20.7862604 34.1861694,20.6647448 C32.8373081,20.3361391 31.4833245,20.5586326 30.1720263,20.8153557 C26.6223013,21.5085083 23.396986,22.9803879 20.4960803,25.1539774 C17.2195424,27.6099625 14.812081,30.7642346 13.053439,34.4370875 C11.2555263,38.1903803 10.0142323,42.1302253 9.34321649,46.2360847 C8.90611712,48.8991598 8.56804807,51.5793497 8.23168644,54.2561167 C7.96020674,56.4160144 7.77580544,58.5724891 7.96191416,60.7666165 C8.18558611,63.4108652 8.3255945,66.0688058 8.2641274,68.7284579 C8.24876063,69.3377476 8.30510547,69.9487488 8.34096128,70.5580384 C8.40072096,71.5575473 8.46731032,72.5570562 8.5356071,73.5548536 C8.54755903,73.7260024 8.55438871,73.9108431 8.61585581,74.064877 C8.65512646,74.1624318 8.80025711,74.2873704 8.89245776,74.282236 C9.23564907,74.2616981 9.58225522,74.2154879 9.92032427,74.138471 C11.5970102,73.7482518 13.2873554,73.857787 14.9811155,73.9929945 C16.8848882,74.1470284 18.7886609,74.3181772 20.6958484,74.4362699 C23.5694353,74.6176876 26.4344851,74.3815023 29.2858756,74.1076642 C31.2391635,73.9176891 33.1907439,73.8218457 35.1457392,73.8406721 C38.4069103,73.8697674 41.666374,73.9348039 44.9275452,73.9775911 C45.492701,73.9861486 46.0578568,73.9724567 46.6213053,73.931381 C47.0498675,73.9022857 47.2052427,73.714022 47.2735395,73.2639007 C47.2854914,73.1766148 47.2940285,73.0893289 47.2991508,73.0020431 C47.4511111,70.6110945 47.6525866,68.2218575 47.739665,65.8291975 C47.8438176,63.0001081 47.8472324,60.1641728 47.8865031,57.6191903" id="Fill-1" fill="#FDDBCF"></path>
                <path d="M40.8865031,50.5185194 C40.8352434,51.8829059 40.5954802,53.201282 40.0200487,54.4294068 C39.8117028,54.8718149 39.6033569,55.3230711 39.3321765,55.7176991 C37.906826,57.7917081 36.7840731,60.0656856 35.547226,62.2635689 C34.6526615,63.8544684 33.5762077,65.2914098 32.4468406,66.6876497 C32.2814868,66.8911574 32.0995975,67.0840473 31.8962122,67.2415446 C31.4381819,67.5990103 30.9156636,67.5972407 30.5138537,67.1636807 C29.6540135,66.2417023 28.762756,65.3391899 28.0103958,64.3216513 C26.5222109,62.3095794 25.1150493,60.2302614 23.6913523,58.1668702 C23.19033,57.4430906 22.7256856,56.6892272 22.2676553,55.9353639 C21.5235628,54.7072391 21.0489972,53.369397 20.913407,51.9076808 C20.7579743,50.2442264 21.2705714,48.8816096 22.5934025,47.9578615 C23.7227695,47.1686055 24.9959945,46.8748465 26.3337074,47.0641972 C27.3440197,47.2057678 28.1261436,47.8162909 28.762756,48.633861 C29.057086,49.0107927 29.2869279,49.4496615 29.5630688,49.8442895 C29.7036197,50.044258 29.7796824,50.4141111 30.0905477,50.3097028 C30.2310986,50.2601531 30.3303109,49.9787816 30.3931454,49.7823524 C30.7718058,48.619704 31.3472373,47.5791602 32.0648732,46.6253284 C33.1710907,45.1547639 34.6262049,44.5 36.3739955,44.5 C38.1746993,44.5 39.4049322,45.4414444 40.1738278,47.1155165 C40.6649289,48.1808352 40.8451646,49.336405 40.8865031,50.5185194" id="Fill-3" fill="#EE99BB"></path>
                <path d="M3.18304547,189.883907 C2.22217233,189.967397 1.88809392,189.657291 1.88650307,188.98085 C1.88650307,188.302705 2.19830958,187.813692 2.80283242,187.61093 C3.02873306,187.534255 3.27849645,187.501881 3.51712389,187.500177 C4.59731075,187.491658 5.60113683,187.789837 6.4951943,188.445831 C6.82768186,188.69119 7.14426092,188.967219 7.44334064,189.258583 C8.57602554,190.372921 9.70234705,191.494075 10.8223051,192.622044 C11.1468385,192.94919 11.4570541,193.293374 11.7513613,193.651189 C12.2381613,194.244139 12.6136018,194.913765 12.7774593,195.690735 C13.1465364,197.423582 13.4949324,199.158133 13.8544644,200.892684 C13.9387795,201.296504 13.848101,201.671358 13.6826527,202.025765 C13.4487978,202.521595 12.8315482,202.663017 12.4433809,202.284755 C12.2381613,202.085401 12.0440776,201.838338 11.9358999,201.569125 C11.6447744,200.856903 11.3695574,200.134457 11.1532019,199.391565 C10.8986659,198.524289 10.7014006,197.638271 10.4993627,196.753957 C10.348232,196.10137 10.0443797,195.554424 9.59416927,195.094376 C9.21395623,194.704187 8.83692488,194.312295 8.45193928,193.927218 C7.6246975,193.099131 6.76882042,192.298307 5.97180478,191.437847 C5.32432901,190.739256 4.57822055,190.257057 3.70961668,189.982732 C3.44871735,189.900946 3.17031868,189.882203 3.18304547,189.883907" id="Fill-7" fill="#444445"></path>
                <path d="M50.8865031,200.706145 C50.9114359,199.860073 51.1341689,199.095063 51.5513777,198.372272 C52.1165212,197.401232 52.7946933,196.541651 53.6972607,195.869522 C54.5832061,195.210904 55.4541919,194.543842 56.4648014,194.074365 C57.315841,193.680883 57.9956753,193.018887 58.6688609,192.365335 C58.9098779,192.128908 59.150895,191.882348 59.4251558,191.689829 C59.7609175,191.453402 60.1382339,191.429759 60.495604,191.664498 C60.8147438,191.872216 60.9011775,192.206591 60.8845557,192.562921 C60.8479875,193.319487 60.6003217,193.998371 60.0119077,194.489801 C59.1342731,195.226103 58.2666117,195.970848 57.2161098,196.465656 C55.9777807,197.04828 54.8774132,197.840311 54.0280358,198.944763 C53.5825698,199.524009 53.2251997,200.147164 53.0938869,200.89022 C53.0357104,201.226284 52.9376414,201.56066 52.809653,201.873081 C52.6550696,202.251364 52.3791467,202.511434 51.9403294,202.499613 C51.4998499,202.487792 51.2255891,202.210834 51.0976008,201.830862 C50.9779233,201.472844 50.9529905,201.082739 50.8865031,200.706145" id="Fill-9" fill="#444445"></path>
                <g id="Group-13" transform="translate(0.886503, 195.500000)">
                    <mask id="mask-2" fill="white">
                        <use xlink:href="#path-1"></use>
                    </mask>
                    <g id="Clip-12"></g>
                    <path d="M2.12983333,0.245050313 C3.2065,0.275172188 3.98983333,0.477165938 4.70483333,0.890012813 C6.4415,1.89643781 7.74483333,3.30507844 8.31483333,5.38171594 C8.46983333,5.94340031 8.69983333,6.47850656 8.86983333,7.03310344 C8.95983333,7.32900656 9.0365,7.64262844 9.03985065,7.94916281 C9.04316667,8.54451281 8.56483333,8.95735969 8.01483333,8.84041594 C7.77816667,8.78725969 7.5065,8.67917531 7.34816667,8.49844406 C7.00483333,8.10685969 6.6965,7.67097844 6.4315,7.21737844 C6.23316667,6.87717844 6.1265,6.47673469 5.97316667,6.10818469 C5.31316667,4.53653156 4.22316667,3.48758156 2.65483333,3.01626281 C2.24816667,2.89400344 1.8365,2.78414719 1.4415,2.62645031 C1.20983333,2.53431281 0.979833333,2.39433469 0.793166667,2.21891906 C0.278166667,1.73342531 0.394833333,0.813822188 1.0315,0.539181563 C1.45483333,0.356678438 1.92316667,0.298206563 2.12983333,0.245050313" id="Fill-11" fill="#444445" mask="url(#mask-2)"></path>
                </g>
                <path d="M37.6591366,47.3372781 C37.548347,46.6206677 37.5169291,45.8014317 37.1614103,45.0635884 C36.8075451,44.3257451 36.2684794,43.9063953 35.4565737,43.8974023 C34.3734816,43.8887012 33.4838579,44.2815099 32.8191205,45.2139881 C32.2800548,45.9712949 31.8319358,46.7799145 31.5690172,47.696468 C31.4714562,48.0415026 31.4102739,48.4060007 31.2664129,48.7244942 C31.0861731,49.1279193 30.8811297,49.5331138 30.6132504,49.867532 C30.1915886,50.387738 29.6558301,50.5416766 29.0158963,50.2886512 C28.1180047,49.9383083 27.3689349,49.4092552 26.8497121,48.5280899 C26.5801793,48.0715825 26.2941107,47.6221528 25.9683563,47.2134195 C25.4309442,46.5357361 24.7595924,46.2597084 23.9344581,46.5640466 C23.7757149,46.6224371 23.6070501,46.6472088 23.4499604,46.7109075 C22.4495471,47.1019468 22.075839,47.7973242 22.2808824,48.9226679 C22.4594686,49.906459 22.7934909,50.8300901 23.3375173,51.6493262 C24.3346234,53.1550927 25.3449582,54.6520121 26.3536394,56.1471622 C26.9439659,57.0265581 27.5326389,57.9024152 28.1345404,58.7676559 C28.7132919,59.5992778 29.3019649,60.4185139 29.8989057,61.2342111 C30.0956812,61.5049306 30.3437176,61.5120082 30.5239574,61.2377499 C31.1771198,60.2451119 31.8633537,59.2701679 32.4487195,58.2315252 C33.74843,55.9189085 34.8860901,53.4983579 36.402419,51.3255245 C36.652109,50.968104 36.8406166,50.5576012 37.0357385,50.1594844 C37.4574003,49.3048601 37.5847257,48.3706125 37.6591366,47.3372781 M39.8865031,47.5212965 C39.8352422,48.8855104 39.5971273,50.2019502 39.0183758,51.4299196 C38.8116789,51.8722716 38.6033283,52.3217014 38.3321419,52.7198182 C36.9084132,54.7935648 35.7839817,57.0654851 34.5487607,59.2630902 C33.6541762,60.8555577 32.5776984,62.2905479 31.4466526,63.6866111 C31.2829486,63.8883236 31.0994017,64.0847279 30.8976655,64.2422053 C30.439625,64.5996258 29.9137879,64.5960869 29.5136226,64.1643513 C28.6554168,63.2407202 27.7624859,62.3400913 27.0117625,61.3209121 C25.5235444,59.3108643 24.1163515,57.2318095 22.6893156,55.1669099 C22.1915893,54.4449913 21.725281,53.6912234 21.2672405,52.935686 C20.5231314,51.7094861 20.0485552,50.3718134 19.912962,48.9085127 C19.7591794,47.2452688 20.2701343,45.8828244 21.5929949,44.9591933 C22.7240407,44.1718066 23.9939869,43.8780848 25.3350368,44.0656421 C26.3420644,44.2071947 27.1258593,44.8158712 27.7641395,45.6351073 C28.0568224,46.0137607 28.2866694,46.4490351 28.5644701,46.8453826 C28.7050241,47.0470951 28.7810886,47.4169015 29.0903072,47.310737 C29.2308611,47.2629629 29.3317293,46.9798576 29.3945651,46.7852227 C29.7715804,45.620952 30.3470248,44.5787705 31.0663302,43.6250594 C32.1725723,42.1564505 33.6260654,41.5 35.3755485,41.5 C37.1762925,41.5 38.4032456,42.4430946 39.1754655,44.1187243 C39.6665775,45.1821387 39.8451637,46.3393318 39.8865031,47.5212965" id="Fill-14" fill="#444445"></path>
                <path d="M25.5614212,33.5 C25.2339223,33.4107254 24.8913853,33.3721749 24.5839374,33.2200023 C23.7969377,32.8324691 23.6415429,31.6069718 24.2948696,30.9495858 C24.5137591,30.7304571 24.802827,30.5721975 25.0801984,30.4869808 C25.5296738,30.3449529 25.9975293,30.2861128 26.4553593,30.1968382 C26.9198729,30.1075635 26.9984058,29.9979992 27.0418495,29.3953954 C27.0852932,28.7806177 27.0969896,28.1577242 27.1989153,27.5571493 C27.3242337,26.8409232 27.7703673,26.455419 28.2833374,26.5041143 C28.7428383,26.5467226 29.1338318,26.9565744 29.225732,27.5875838 C29.3243158,28.2449698 29.3610759,28.9165586 29.4362669,29.5780026 C29.4713561,29.8762611 29.64346,30.0304627 29.8807296,30.014231 C30.4739035,29.9736516 31.0654064,29.8924928 31.6569094,29.8600293 C32.0378774,29.8377106 32.4238582,29.8377106 32.7998135,29.9026377 C33.4397729,30.0081441 33.8290955,30.5072705 33.8808938,31.2011779 C33.932692,31.8971144 33.6235733,32.4855154 33.0437667,32.7594263 C32.8883718,32.8324691 32.7162679,32.8730485 32.5508475,32.8953672 C31.1172047,33.0800034 29.6885747,33.2930451 28.2415646,33.2666685 C27.3509683,33.2504368 26.4620429,33.3336245 25.5731176,33.3721749 C25.5697757,33.4147833 25.564763,33.4573916 25.5614212,33.5" id="Fill-16" fill="#444445"></path>
                <path d="M47.5017875,19.7501423 L47.5835558,19.7501423 C47.5222296,24.222228 47.4711244,28.6964302 47.387312,33.1663994 C47.3750467,33.8902297 47.5017875,34.5442167 47.8002416,35.1918542 C48.4707413,36.6564464 48.932732,38.1993478 49.3313522,39.7634137 C49.5419055,40.5994165 49.7667682,41.4269534 49.9977635,42.2544903 C50.0202498,42.3454982 50.102018,42.4195744 50.1572116,42.5 C50.1899189,42.4005263 50.2573777,42.298936 50.2553335,42.1994623 C50.2328472,40.7475689 50.2389799,39.2914425 50.1613,37.8416656 C50.0938412,36.6014184 50.0590897,35.37387 50.210361,34.1336229 C50.478152,31.9452004 50.7438988,29.7588945 50.6294233,27.5344921 C50.5537877,26.0868316 50.5721855,24.6137736 50.7479873,23.1766954 C50.9748942,21.2930436 50.9892036,19.4199741 50.9278774,17.5320893 C50.8890375,16.3489867 50.8706396,15.1553017 50.97285,13.9785484 C51.1322981,12.1308765 52.2034622,10.8631153 53.8817557,10.3869112 C54.2292707,10.2895539 54.6033605,10.285321 54.9590524,10.2239436 C56.1896647,10.0101809 57.4243653,9.81969921 58.6427124,9.56149076 C59.2375764,9.43450299 59.4297318,9.15089699 59.3786267,8.50960879 C59.2866374,7.38576708 59.1905597,6.25345953 58.9779622,5.14866599 C58.6876849,3.61423052 58.3687887,3.44914643 56.8213245,3.51052385 C55.1573405,3.57825066 53.4933564,3.58460005 51.8273282,3.61423052 C50.9953362,3.63116223 50.1633442,3.62057991 49.3333964,3.6607927 C48.9736161,3.67984087 48.6138358,3.77296523 48.2642765,3.87455544 C47.9453803,3.9676798 47.724606,4.19837423 47.6959871,4.56240582 C47.6264841,5.36666165 47.5140527,6.17091748 47.5120085,6.97728978 C47.4915665,11.2356128 47.5017875,15.4918193 47.5017875,19.7501423" id="Fill-18" fill="#F06A25"></path>
                <path d="M46.6032389,16.3626784 L46.6703001,16.3626784 C46.6200042,20.0055932 46.5780909,23.6502321 46.5093532,27.291423 C46.499294,27.8810476 46.6032389,28.4137786 46.8480124,28.9413375 C47.3979144,30.1343792 47.7768103,31.3912107 48.1037338,32.6652827 C48.2764164,33.3462819 48.4608348,34.0203849 48.6502827,34.694488 C48.6687246,34.7686221 48.7357858,34.8289638 48.7810521,34.8944776 C48.8078766,34.8134473 48.8632021,34.730693 48.8615256,34.6496627 C48.8430837,33.4669653 48.8481133,32.2808198 48.7844052,31.0998465 C48.7290797,30.089554 48.7005786,29.0896057 48.8246419,28.0793132 C49.0442674,26.2966469 49.2622164,24.5157046 49.1683307,22.7037294 C49.106299,21.5244801 49.1213878,20.3245423 49.2655694,19.1539132 C49.4516643,17.6195099 49.4634001,16.0937268 49.4131041,14.5558754 C49.3812501,13.5921322 49.3661613,12.6197687 49.4499878,11.6611976 C49.5807572,10.1561032 50.4592592,9.12339799 51.8356908,8.73548704 C52.120701,8.6561808 52.4275061,8.65273271 52.7192224,8.60273529 C53.7284938,8.42860638 54.7411183,8.273442 55.7403305,8.06310806 C56.2282009,7.95966514 56.3857948,7.72864261 56.3438815,7.20625587 C56.2684376,6.29078602 56.1896407,5.36841997 56.0152815,4.46846657 C55.7772142,3.21853127 55.5156754,3.08405548 54.2465418,3.13405289 C52.8818459,3.18922245 51.51715,3.19439459 50.1507776,3.21853127 C49.4684296,3.23232366 48.7860817,3.22370342 48.1054103,3.25646035 C47.8103409,3.27197678 47.5152715,3.34783493 47.2285848,3.43058926 C46.967046,3.5064474 46.7859807,3.69436871 46.7625093,3.99090508 C46.7055073,4.64604358 46.6132981,5.30118208 46.6116216,5.95804462 C46.5948562,9.42683056 46.6032389,12.8938925 46.6032389,16.3626784 L46.6032389,16.3626784 Z M47.7332205,58.1105171 C47.6879542,54.7917234 47.6728654,51.7625699 47.595745,48.7351404 C47.5588613,47.3334888 47.4364746,45.9301132 47.2939695,44.5353578 C47.0978154,42.6182157 46.8513654,40.7027976 46.6149746,38.7891036 C46.3115226,36.3461266 45.870595,33.9272863 45.074243,31.6032687 C43.4245369,26.7897248 40.2659533,23.3933489 35.7460269,21.3244905 C35.284981,21.1124325 34.7736392,21.0072655 34.2790627,20.8848581 C32.9546035,20.5538407 31.6251148,20.7779671 30.3392158,21.0365744 C26.8537088,21.7348141 23.6867425,23.2174959 20.8383171,25.4070378 C17.6210549,27.8810476 15.2571468,31.0567453 13.5286438,34.7582778 C11.7649336,38.5391165 10.5460959,42.5078766 9.88721938,46.6421453 C9.45802755,49.3264891 9.1260745,52.0263493 8.79579798,54.7227615 C8.52922962,56.8985109 8.34816431,59.0690882 8.53090615,61.2810426 C8.75053165,63.9446978 8.88800716,66.6204214 8.82765206,69.3013171 C8.81256328,69.9150784 8.86788879,70.5305638 8.90309593,71.1426011 C8.9617745,72.1494455 9.0271592,73.1562899 9.09422042,74.1614103 C9.10595613,74.3355392 9.11266225,74.5200124 9.17301735,74.6769009 C9.21157756,74.7751716 9.35408266,74.9010272 9.44461531,74.895855 C9.78159795,74.8734424 10.1219337,74.8286171 10.4538867,74.7510349 C12.1002397,74.3579518 13.760005,74.468291 15.4214468,74.6044908 C17.2924549,74.7596552 19.1617865,74.9320601 21.0344712,75.0510194 C23.8560721,75.2320445 26.6676139,74.9958499 29.4690965,74.7200021 C31.3870474,74.5286327 33.3016453,74.4320859 35.2229494,74.4493264 C38.4251228,74.4803593 41.6256196,74.5458732 44.8261165,74.5872503 C45.3810481,74.5958706 45.9376563,74.5838022 46.4909114,74.5424251 C46.9117205,74.5131162 47.0626083,74.3234709 47.1296695,73.868322 C47.1430817,73.7821196 47.1514644,73.6941931 47.156494,73.6062666 C47.3057052,71.1977706 47.5035358,68.7909987 47.5890389,66.3807786 C47.6896307,63.5292021 47.6929838,60.6741775 47.7332205,58.1105171 L47.7332205,58.1105171 Z M40.6800564,194.158646 C40.8963288,194.032791 41.1377492,193.93452 41.3238441,193.770735 C42.2375533,192.965605 43.2501778,192.325983 44.3231573,191.770839 C45.2737502,191.279485 46.2075777,190.746754 47.1497879,190.236436 C47.488447,190.050238 47.8254297,189.858869 48.174148,189.691636 C48.4809531,189.545092 48.7978174,189.398548 49.1230644,189.307173 C49.8640909,189.093391 50.5766164,189.133044 51.1147827,189.788183 C51.6630082,190.45539 51.7535408,191.201903 51.3729684,191.993241 C51.0058082,192.753547 50.4659653,193.370756 49.8624143,193.936244 C49.3913092,194.381049 48.8950562,194.799992 48.4407164,195.262037 C47.4767113,196.234401 46.8362767,197.406754 46.4573807,198.741168 C46.2578736,199.441131 46.2109307,200.10489 46.5764144,200.775545 C46.6954481,200.989327 46.7541267,201.280691 46.7323318,201.525506 C46.663594,202.323741 45.7683267,202.749581 45.0910083,202.344429 C44.7389369,202.134096 44.5293706,201.811698 44.3784828,201.442752 C43.9677328,200.435908 43.9375553,199.38941 44.1739461,198.342912 C44.5260175,196.777476 45.2418961,195.391341 46.2327256,194.153474 C46.4238501,193.915555 46.635093,193.696601 46.8211879,193.460407 C46.856395,193.415581 46.8295705,193.313862 46.8161583,193.241452 C46.8144818,193.229384 46.7356848,193.213868 46.7038307,193.22766 C45.2083655,193.887971 43.7581665,194.622415 42.5510645,195.775804 C42.2392298,196.074064 41.9290717,196.375773 41.5987951,196.653345 C40.9768023,197.17918 40.2642768,197.241245 39.5517513,196.922296 C38.7621054,196.567142 38.245734,195.944761 38.1468187,195.031015 C38.0948462,194.543109 38.1904085,194.074168 38.3630911,193.615571 C38.7788707,192.50356 39.2985952,191.455338 39.9390299,190.462286 C40.6465258,189.367515 41.3473156,188.264124 41.999486,187.133148 C42.767337,185.802182 43.6357798,184.567764 44.7808502,183.548851 C44.9954461,183.357481 45.1362747,183.07991 45.3106338,182.841991 C45.3273991,182.804062 45.3424879,182.767857 45.3592532,182.728204 C45.3374583,182.760961 45.3139869,182.791993 45.2938685,182.82475 C45.0893318,182.867852 44.8730594,182.885092 44.6802583,182.959226 C41.2316349,184.281571 38.7855768,186.76765 37.038632,190.026102 C36.545732,190.946744 36.1919841,191.943244 35.7611157,192.898367 C35.3151586,193.894867 34.8474065,194.881023 34.3964198,195.874075 C33.9454331,196.867127 33.445827,197.844662 33.0753137,198.868747 C32.7819209,199.673878 32.1800464,200.139371 31.5832015,200.616933 C31.1724515,200.944502 30.4934566,200.751408 30.2570658,200.256607 C30.0927658,199.911797 29.9452311,199.508369 29.9552903,199.132527 C30.0089393,196.939537 29.8513454,194.743099 30.1162373,192.551833 C30.2838903,191.160526 30.374423,189.755426 30.4431607,188.353774 C30.5756066,185.5884 30.6644628,182.82475 30.7818199,180.059376 C30.8857648,177.647432 31.0249168,175.235488 31.1104199,172.82182 C31.142274,171.902902 31.0651536,170.978812 31.0517413,170.056446 C31.0115046,167.420375 31.0483883,164.782581 30.924325,162.151683 C30.7499658,158.419117 30.7181117,154.686552 30.6510505,150.952262 C30.6124903,148.759273 30.5001628,146.564559 30.5253107,144.368121 C30.5722536,140.195923 30.6678158,136.023725 30.7985852,131.853251 C30.899177,128.69307 31.1188025,125.538061 31.227777,122.37788 C31.3937536,117.636746 31.5312291,112.888716 31.3769882,108.147582 C31.1791576,102.042726 31.2043056,95.9361451 31.1858638,89.8312887 C31.1724515,86.0538981 31.227777,82.2747834 31.252925,78.4973927 C31.252925,78.366365 31.2596311,78.2336133 31.2579546,78.1025856 C31.2428658,77.4405509 31.1355678,77.3077991 30.5152515,77.338832 C29.663574,77.3836573 28.8102199,77.443999 27.963572,77.5405457 C27.2191924,77.6284722 27.1471016,77.7232949 27.1269832,78.4198105 C27.1102179,79.0352959 27.1051884,79.6507813 27.1336894,80.2645426 C27.1940445,81.624817 27.2694883,82.9833674 27.3583445,84.3401937 C27.5276741,86.9331629 27.360021,89.5140638 27.1638669,92.0966887 C27.0733343,93.3224873 27.0984822,94.5551821 27.031421,95.7827048 C26.9190935,97.8860441 26.7749118,99.9893835 26.6441424,102.092723 C26.6357598,102.223751 26.6240241,102.354778 26.6156414,102.485806 C26.4479884,105.247732 26.2183037,108.00621 26.1260945,110.76986 C26.0221496,113.883492 25.960118,117.005744 26.2115976,120.1211 C26.2400986,120.471082 26.2367455,120.822788 26.2585404,121.17277 C26.4144578,123.626091 26.5804343,126.079412 26.727969,128.532733 C26.974419,132.65321 27.2041037,136.777134 26.9140639,140.906231 C26.8788567,141.388964 26.8704741,141.873422 26.867121,142.356156 C26.8436496,144.507768 26.8436496,146.661105 26.7983833,148.812718 C26.7162333,152.896989 26.6324067,156.981261 26.4966078,161.063808 C26.4396057,162.774064 26.2501578,164.477424 26.1227414,166.184233 C26.0305323,167.410031 25.931617,168.63583 25.8511435,169.861628 C25.7254037,171.789115 25.6147527,173.718325 25.4923659,175.647536 C25.3716557,177.575022 25.2408864,179.502509 25.1184996,181.428271 C25.0899986,181.867903 25.0665272,182.305812 25.0547915,182.745444 C24.9474935,186.78489 24.8703731,190.82606 24.7211619,194.863782 C24.6507476,196.792993 24.4445343,198.717031 24.2953231,200.642793 C24.2835874,200.816922 24.2584394,200.992775 24.2148496,201.161732 C24.1326996,201.482405 23.934869,201.704807 23.6146517,201.778941 C23.2558742,201.861696 22.8954201,201.803078 22.6925599,201.482405 C22.4896997,201.160008 22.3354589,200.787614 22.2365436,200.415219 C21.9649456,199.399754 21.7201722,198.375669 21.4888109,197.351584 C21.2038007,196.096477 20.695812,194.960329 20.0503477,193.851766 C18.8767763,191.838077 17.3796345,190.095064 15.9042876,188.331362 C14.8195723,187.033153 13.6577366,185.802182 12.524402,184.547075 C12.3517193,184.355706 12.1522122,184.193645 11.9610877,184.02124 C11.9325867,183.995379 11.8504367,183.981587 11.8437306,183.993655 C11.7967877,184.062617 11.7280499,184.145372 11.7364326,184.214334 C11.8370244,185.01774 12.0935336,185.769425 12.6669071,186.334913 C14.0031019,187.653811 14.6854499,189.369239 15.4080346,191.050187 C15.8959049,192.186335 16.0769702,193.410409 16.0836764,194.651724 C16.0903825,195.884419 16.1976805,197.094701 16.4709549,198.304983 C16.6319019,199.017016 16.5883121,199.791113 16.5547815,200.53073 C16.53131,201.085874 16.1524141,201.447924 15.6863386,201.528954 C15.1280539,201.628949 14.6653315,201.372066 14.4440295,200.837611 C14.4104989,200.756581 14.3652325,200.673826 14.363556,200.589348 C14.2864356,199.008395 13.677855,197.508473 13.7113856,195.905108 C13.7264744,195.118941 13.6174999,194.327603 13.5252907,193.544885 C13.4733183,193.110425 13.3945213,192.663896 13.2318979,192.263917 C12.6333765,190.812268 12.0398846,189.362343 11.0037887,188.141716 C9.23337246,186.053894 8.85280002,183.517818 9.00704083,180.862783 C9.03721838,180.355913 9.2467847,179.836974 9.46473367,179.369757 C9.72291938,178.809441 10.2158194,178.54911 10.8327826,178.588763 C11.4095091,178.623244 11.8085234,178.943917 11.9761765,179.49044 C12.2041846,180.231781 12.6752897,180.783477 13.1715428,181.333448 C14.4809131,182.779925 15.7819009,184.233298 17.077859,185.693567 C18.8918651,187.738289 20.7176069,189.774391 22.1091272,192.16737 C22.1946303,192.315638 22.3019283,192.45701 22.4176089,192.581142 C22.4679048,192.632863 22.5668201,192.639759 22.6472936,192.650104 C22.6657354,192.653552 22.7110017,192.58459 22.7126783,192.544937 C22.7378262,192.196679 22.7696803,191.848421 22.7713568,191.500163 C22.7864456,188.865817 22.7462089,186.226298 22.8166231,183.593676 C22.8870374,180.961054 23.0697793,178.331879 23.2039017,175.700981 C23.2156374,175.482027 23.2256966,175.263073 23.2391089,175.042395 C23.4050854,172.501147 23.5760915,169.963347 23.7353619,167.420375 C23.8644548,165.404963 23.9482813,163.386101 24.1058752,161.374137 C24.3405894,158.393257 24.3255007,155.40548 24.3757966,152.419428 C24.4646527,147.236938 24.5551854,142.054447 24.6339823,136.870233 C24.6909843,133.048017 24.481418,129.232697 24.1293466,125.427722 C24.1226405,125.339795 24.1159343,125.251869 24.1109047,125.163942 C23.7923639,120.1211 23.6532119,115.071361 23.849366,110.018175 C23.9214568,108.132065 24.1008456,106.252852 24.231615,104.370191 C24.2416741,104.239164 24.2534098,104.108136 24.260116,103.975384 C24.3757966,101.694468 24.4981833,99.4152753 24.6038047,97.1343589 C24.7429568,94.1086535 24.8804323,91.0829481 24.9860537,88.0555186 C25.0195843,87.1366006 24.9541996,86.2142346 24.9189925,85.2918686 C24.8938445,84.5901807 24.8452251,83.8884929 24.8066649,83.1885292 C24.7597221,82.3540896 24.6842782,81.5230982 24.6675129,80.6903826 C24.6541007,79.9886948 24.7077496,79.287007 24.727868,78.5870433 C24.7446333,78.0336236 24.5970986,77.8560466 24.0857568,77.8301859 C22.7210609,77.764672 21.356365,77.6853658 19.9899926,77.6474367 C18.2799314,77.6008874 16.5866355,77.4026218 14.8899866,77.1819436 C13.5336734,77.0060906 12.170654,76.9819539 10.8093112,77.2767663 C9.93583877,77.4646876 9.04224797,77.5646824 8.15033371,77.6595051 C7.77479086,77.6991582 7.37912964,77.6646772 7.00693986,77.585371 C6.50062762,77.4767559 6.192146,77.1147057 6.12340824,76.5836987 C6.08484804,76.2802661 6.10161335,75.9682133 6.09323069,75.6630567 C6.03958172,73.4666187 5.95575519,71.2736288 5.93563682,69.0771907 C5.9071358,65.6946072 5.83839805,62.3102997 5.94066641,58.9311643 C6.03287559,55.9502841 6.39835926,52.9831963 6.79402047,50.0212807 C7.14609189,47.411071 7.52666433,44.8077575 8.17380513,42.2561655 C9.22331327,38.1132765 10.6500408,34.1221038 12.8798264,30.480913 C16.7928488,24.0984848 22.3941374,20.1607576 29.5177158,18.4815342 C30.8941474,18.1574131 32.3041097,18.0574182 33.7191015,18.1367245 C34.6680178,18.191894 35.5733443,18.4349849 36.4501698,18.793587 C38.906287,19.7987074 41.0572758,21.2779412 42.9249308,23.1985314 C43.2250298,23.5105842 43.5133931,23.8347054 43.8235512,24.1364139 C43.9090543,24.2191682 44.056589,24.2967504 44.1555043,24.2743378 C44.2343012,24.2553732 44.3248339,24.0881405 44.3332165,23.9829735 C44.360041,23.5881664 44.3617175,23.1933593 44.360041,22.7968281 C44.3382461,17.7005402 44.3130981,12.6042523 44.2946563,7.50796438 C44.2913032,6.36664416 44.3013624,5.22359989 44.3382461,4.08227966 C44.4069839,1.99962886 45.1060971,1.15656906 47.0961389,0.754865714 C48.1892368,0.534187484 49.2923939,0.463501488 50.4106398,0.542807727 C51.3025541,0.606597528 52.2011745,0.561772262 53.0964418,0.55142797 C53.8223795,0.542807727 54.5483173,0.491086267 55.274255,0.501338871 C56.6607458,0.522119143 57.6046325,1.20829052 58.1142978,2.54787634 C58.4764284,3.49782716 58.6641998,4.48915515 58.7798804,5.48910338 C58.8754427,6.31664675 58.8972376,7.15625845 58.8821488,7.99069801 C58.8586774,9.33718003 58.3909254,9.96128565 57.1368805,10.4319509 C56.0873723,10.82331 54.9942744,11.0164034 53.8911173,11.1594995 C53.7217877,11.1836362 53.5507816,11.1819121 53.3797755,11.1974286 C52.1559082,11.3060436 51.9396357,11.5353421 51.9195173,12.8456191 C51.9094582,13.5921322 51.9413122,14.3386452 51.9614306,15.0851583 C52.0066969,16.5799085 51.9781959,18.0660385 51.7820418,19.5556165 C51.6680378,20.421089 51.6311541,21.3124221 51.6747439,22.1847908 C51.7837184,24.3019225 51.5758286,26.3914695 51.3176429,28.4861887 C51.2204041,29.2637346 51.2438755,30.0619692 51.2556112,30.8515835 C51.2723765,31.860152 51.324349,32.8687204 51.3796745,33.8772889 C51.5272092,36.6392149 51.6831265,39.3994168 51.8340143,42.1613428 C51.8926929,43.2578378 51.9413122,44.3543327 51.9966378,45.4508277 C52.0469337,46.4335354 51.6713908,47.1817725 50.7761235,47.5541671 C50.2329276,47.7817415 50.1289827,48.1506879 50.145748,48.6903151 C50.2094562,50.6212497 50.256399,52.5539082 50.2865766,54.4865668 C50.2999888,55.3641076 50.2597521,56.2416483 50.2446633,57.1209132 C50.1960439,60.3259197 50.1943674,63.5343743 50.0803633,66.7393807 C49.9931837,69.1961501 49.7685286,71.6442992 49.5924929,74.0976205 C49.567345,74.4458783 49.4751358,74.788964 49.4080745,75.1320497 C49.1834195,76.2630256 48.4675409,76.8629946 47.4046205,77.0733285 C46.306493,77.2905586 45.1999828,77.3267637 44.08509,77.2750422 C42.3783819,77.1940119 40.6733503,77.126774 38.9649656,77.0922931 C37.5985932,77.0647083 36.2305443,77.0922931 34.8641718,77.0991892 C34.5640729,77.0991892 34.2656504,77.1026373 33.967228,77.12505 C33.6872474,77.1474626 33.5078586,77.338832 33.4961229,77.6457127 C33.4776811,78.0387958 33.4793576,78.435327 33.4827106,78.8301341 C33.5112117,82.2575429 33.5346831,85.6849517 33.5749198,89.1106364 C33.638628,94.5569062 33.7090423,100.0049 33.7844861,105.45117 C33.8180168,107.954488 33.9253147,110.457807 33.9051964,112.959402 C33.8733423,116.738516 33.7861627,120.514183 33.6704821,124.291574 C33.5967147,126.660417 33.4022372,129.025811 33.310028,131.394654 C33.2329076,133.36869 33.2295545,135.347898 33.1943474,137.323658 C33.1306392,140.747618 33.0032229,144.175027 33.0199882,147.598988 C33.0417831,151.593609 33.1272862,155.593401 33.2982923,159.586298 C33.556478,165.558403 33.6403045,171.528783 33.4257086,177.502612 C33.3049984,180.836922 33.0971086,184.167784 32.9696923,187.503818 C32.8976015,189.391652 32.763479,191.270865 32.5153525,193.144906 C32.4751158,193.448338 32.4499678,193.758667 32.4583505,194.063824 C32.4633801,194.208644 32.567325,194.350016 32.624327,194.494836 C32.7383311,194.375876 32.9009545,194.277606 32.9613096,194.13451 C33.3217637,193.289726 33.6822178,192.444942 33.9974055,191.582918 C34.7753157,189.465786 35.8717667,187.54692 37.2549044,185.790114 C38.8459319,183.771253 40.7873543,182.235126 43.1210849,181.231729 C44.0280879,180.842094 44.9283849,180.438667 45.8538297,180.102477 C46.6669471,179.805941 47.5119185,179.685258 48.363596,180.002483 C48.7726695,180.154199 49.1448592,180.355913 49.4399286,180.68693 C50.0367735,181.352413 50.0149786,182.17306 49.3661613,182.783373 C49.1498888,182.990259 48.8900266,183.15232 48.6452531,183.328173 C46.5462369,184.821199 44.7691145,186.626278 43.4781859,188.91409 C42.9416961,189.862317 42.3163502,190.757098 41.7614186,191.694981 C41.4059941,192.293226 41.0857768,192.913883 40.7823248,193.543161 C40.6968217,193.724186 40.7219697,193.963829 40.6968217,194.175887 L40.6163482,194.236229 L40.6800564,194.158646 Z" id="Fill-5" fill="#444445"></path>
            </g>
        </g>
    </g>
</svg>